<svg fill="none" viewBox="0 0 18 15"><path fill="#F5F5F5" d="M0 0h18v15H0z"/><rect width="953" height="913" x="-175" y="-376" fill="white" rx="16"/><g clipPath="url(#a)"><path fill="url(#b)" d="M15.3 0a2 2 0 0 1 2 2v8.201a2 2 0 0 1-2 2h-2.255v2.156l-.001.003-.002.024-.005.03a.25.25 0 0 1-.059.111l-.01.011q0 .003-.003.005l-.022.016-.011.008-.016.01v.01l-.007-.007a.2.2 0 0 1-.1.027l-.014.002h-.004l-.023-.002a.25.25 0 0 1-.119-.043l-.03-.028-.008-.007-2.16-2.326H1.998a2 2 0 0 1-1.999-2V2a2 2 0 0 1 2-2zM7.216 4.45q-.385 0-.76.136-.377.136-.656.416a1.4 1.4 0 0 0-.36.68l1.08.28q.103-.296.28-.433a.7.7 0 0 1 .455-.143q.272 0 .44.176.177.168.176.488v.152l-.792.088q-.903.096-1.344.376-.44.28-.44.896 0 .567.376.912.384.343 1.04.343.44 0 .72-.175.281-.177.424-.48h.008q.009.287.065.552h1.199a9 9 0 0 1-.048-.937V5.913q0-.345-.183-.68-.177-.335-.601-.56-.415-.223-1.08-.224m3.048.112v4.152h1.208V4.562zM7.87 7.105a.9.9 0 0 1-.111.457.73.73 0 0 1-.288.295.8.8 0 0 1-.4.105.64.64 0 0 1-.409-.12.39.39 0 0 1-.151-.32q0-.264.191-.417.2-.16.664-.208l.504-.05zm3.001-4.52a.65.65 0 0 0-.488.2.65.65 0 0 0-.192.48q0 .29.192.489a.68.68 0 0 0 .488.191.65.65 0 0 0 .488-.191.68.68 0 0 0 .192-.488.65.65 0 0 0-.192-.48.63.63 0 0 0-.488-.2"/></g><defs><linearGradient id="b" x1="0" x2="17.301" y1="7.304" y2="7.304" gradientUnits="userSpaceOnUse"><stop stopColor="#F6D365"/><stop offset="1" stopColor="#FDA085"/></linearGradient><clipPath id="a"><path fill="white" d="M0 0h17.301v14.607H0z"/></clipPath></defs></svg>