<svg fill="none" viewBox="0 0 36 36"><rect width="132" height="87" x="-48" y="-9.5" stroke="#FF8D28" rx="11.5"/><g opacity=".8"><rect width="36" height="36" fill="#B0D1FE" rx="12"/><path fill="#0464E4" fill-rule="evenodd" d="M27.287 36H23.38l-.231-2.563H18.27L16.999 36h-4.09l8.968-16.292h2.983zm5.408 0h-3.837l3.305-16.292H36zm-12.852-5.652h3.005l-.508-4.805zm-8.218-16.516c.082-.429.702-.429.784 0l.37 1.942a3.96 3.96 0 0 0 3.175 3.142l1.962.368c.433.081.433.693 0 .774l-1.963.368a3.96 3.96 0 0 0-3.173 3.142l-.371 1.942c-.082.428-.702.428-.784 0l-.37-1.942a3.965 3.965 0 0 0-3.176-3.142l-1.961-.368c-.433-.08-.433-.693 0-.774l1.961-.368a3.965 3.965 0 0 0 3.175-3.142zM23.05 8.705c.059-.306.501-.306.56 0l.265 1.387a2.83 2.83 0 0 0 2.267 2.244l1.402.263c.309.058.31.496 0 .554l-1.402.262a2.83 2.83 0 0 0-2.267 2.244l-.265 1.388c-.059.305-.501.305-.56 0l-.265-1.388a2.83 2.83 0 0 0-2.267-2.244l-1.401-.262c-.31-.058-.31-.496 0-.554l1.401-.263a2.83 2.83 0 0 0 2.267-2.244z" clip-rule="evenodd"/></g></svg>