<svg fill="none" viewBox="0 0 49 75"><path fill="#DADADA" d="M0 0h49v75H0z"/><path fill="white" d="M944.199 92.2h-1440v-109h1440z"/><path fill="black" d="M9.691 71.328H8.407l-.216-.804 1.32.024q.684 0 .684-.792v-7.824H5.54v-.84h5.532v8.892c0 .888-.468 1.344-1.38 1.344m-8.364-8.94h.876v9.024h-.876zm2.688 1.728h4.32v4.512h-4.32zM7.46 67.8v-2.856H4.891V67.8zm-4.344-7.5a13.3 13.3 0 0 1 1.488 2.172l-.768.396a13 13 0 0 0-1.524-2.22zm11.448 1.896c-.3.564-.636 1.08-1.02 1.548l-.732-.468a8.7 8.7 0 0 0 1.644-3l.828.18c-.108.324-.228.636-.348.948h3.228v.792h-1.692c.228.384.42.744.564 1.08l-.78.288a12 12 0 0 0-.66-1.368zm4.956 0c-.216.372-.456.72-.708 1.056l-.72-.444a7.1 7.1 0 0 0 1.344-2.52l.828.18c-.108.336-.228.648-.348.936h3.6v.792h-1.944c.288.456.528.888.708 1.272l-.78.276q-.36-.81-.828-1.548zm2.268 5.4v3.792h-.828v-.54h-5.52v.54h-.828v-3.792zm-6.348 2.46h5.52v-1.668h-5.52zm0-4.116c-.696.372-1.452.72-2.256 1.044l-.408-.756c2.052-.768 3.756-1.728 5.124-2.868h.576c1.512 1.224 3.252 2.184 5.22 2.892l-.42.744a19 19 0 0 1-2.292-1.056v.54H15.44zm5.076-.264a15 15 0 0 1-2.328-1.644c-.66.588-1.416 1.14-2.28 1.644zm9.036-4.56v7.308c.276-.084.54-.168.804-.252v.816q-2.34.756-5.436 1.404l-.24-.84c.288-.06.576-.12.864-.168v-8.268zm-3.156 8.088a61 61 0 0 0 2.316-.552v-1.656h-2.316zm0-2.988h2.316v-1.812h-2.316zm0-2.604h2.316v-1.704h-2.316zm5.34-3.156h.864v2.4h2.652c0 3.744-.06 6.048-.18 6.936-.12.984-.72 1.488-1.8 1.488q-.288 0-1.008-.036l-.204-.768c.42.024.78.048 1.092.048.636 0 1.008-.36 1.104-1.056.072-.624.12-2.556.144-5.772h-1.8v.168c-.036 3.456-.888 5.988-2.556 7.584l-.648-.564q2.304-2.178 2.34-7.02v-.168h-1.488v-.84h1.488zm14.496.048.42.732a24.5 24.5 0 0 1-3.792.66v2.028h3.828v.84H42.86v1.968h4.728v.828H42.86v2.652c0 .72-.384 1.092-1.128 1.092h-1.86l-.192-.84c.612.024 1.2.048 1.752.048.36 0 .552-.18.552-.516V67.56h-5.16v-.828h5.16v-1.968H37.82v-.84h4.164v-1.956a55 55 0 0 1-4.14.156l-.264-.78c3.48 0 6.36-.288 8.652-.84"/><rect width="48.2" height="49.2" x=".099" y=".1" fill="#F6F6F6" rx="10.1"/><rect width="48.2" height="49.2" x=".099" y=".1" stroke="#D4D4D8" stroke-width=".2" rx="10.1"/><g filter="url(#a)"><path fill="#ECECEC" d="M37.334 12.35H26.796c-.878 0-1.589.732-1.589 1.638v7.898c0 .743.602 1.345 1.346 1.345h.344c.553 0 1.002.449 1.002 1.002 0 .874 1.04 1.329 1.681.736l1.36-1.257c.335-.309.774-.48 1.23-.48h5.162c.876 0 1.59-.733 1.59-1.64v-7.604c0-.906-.711-1.639-1.59-1.639zM32.2 20.014h-3.43a.79.79 0 0 1-.778-.802.79.79 0 0 1 .778-.803h3.43a.79.79 0 0 1 .778.803.79.79 0 0 1-.778.802m3.164-2.992H28.77a.79.79 0 0 1-.778-.802.79.79 0 0 1 .778-.802h6.594a.79.79 0 0 1 .778.802.79.79 0 0 1-.778.802"/></g><g fill="#8F8F8F" filter="url(#b)"><path d="M18.684 27.695c2.367 0 4.273-1.899 4.273-4.247 0-2.349-1.906-4.248-4.273-4.248s-4.273 1.9-4.273 4.248 1.916 4.247 4.273 4.247"/><path d="M24.773 36.2c.792 0 1.424-.63 1.424-1.419 0-.68.04-1.38-.24-2.019-.211-.49-.572-.93-.933-1.299-.793-.83-1.806-1.43-2.88-1.829-1.072-.4-2.286-.61-3.46-.61h.03c-1.173 0-2.387.21-3.46.61-1.074.4-2.087 1-2.88 1.829-.36.38-.721.82-.932 1.3-.28.639-.24 1.348-.24 2.018 0 .78.641 1.42 1.424 1.42z"/></g><defs><filter id="a" width="14.652" height="13.825" x="24.738" y="11.88" color-interpolation-filters="sRGB" filterUnits="userSpaceOnUse"><feFlood flood-opacity="0" result="BackgroundImageFix"/><feBlend in="SourceGraphic" in2="BackgroundImageFix" mode="normal" result="shape"/><feColorMatrix in="SourceAlpha" result="hardAlpha" type="matrix" values="0 0 0 0 0 0 0 0 0 0 0 0 0 0 0 0 0 0 127 0"/><feOffset dx=".469" dy=".469"/><feGaussianBlur stdDeviation=".703"/><feComposite in2="hardAlpha" k2="-1" k3="1" operator="arithmetic"/><feColorMatrix type="matrix" values="0 0 0 0 0.121569 0 0 0 0 0.121569 0 0 0 0 0.117647 0 0 0 0.05 0"/><feBlend in2="shape" mode="normal" result="effect1_innerShadow_2483_15959"/><feColorMatrix in="SourceAlpha" result="hardAlpha" type="matrix" values="0 0 0 0 0 0 0 0 0 0 0 0 0 0 0 0 0 0 127 0"/><feOffset dx="-.469" dy="-.469"/><feGaussianBlur stdDeviation=".703"/><feComposite in2="hardAlpha" k2="-1" k3="1" operator="arithmetic"/><feColorMatrix type="matrix" values="0 0 0 0 0.121569 0 0 0 0 0.121569 0 0 0 0 0.117647 0 0 0 0.05 0"/><feBlend in2="effect1_innerShadow_2483_15959" mode="normal" result="effect2_innerShadow_2483_15959"/><feColorMatrix in="SourceAlpha" result="hardAlpha" type="matrix" values="0 0 0 0 0 0 0 0 0 0 0 0 0 0 0 0 0 0 127 0"/><feOffset dx=".469" dy=".469"/><feGaussianBlur stdDeviation=".938"/><feComposite in2="hardAlpha" k2="-1" k3="1" operator="arithmetic"/><feColorMatrix type="matrix" values="0 0 0 0 0.121569 0 0 0 0 0.121569 0 0 0 0 0.117647 0 0 0 0.05 0"/><feBlend in2="effect2_innerShadow_2483_15959" mode="normal" result="effect3_innerShadow_2483_15959"/></filter><filter id="b" width="17.406" height="19.875" x="10.73" y="18.731" color-interpolation-filters="sRGB" filterUnits="userSpaceOnUse"><feFlood flood-opacity="0" result="BackgroundImageFix"/><feColorMatrix in="SourceAlpha" result="hardAlpha" type="matrix" values="0 0 0 0 0 0 0 0 0 0 0 0 0 0 0 0 0 0 127 0"/><feOffset dx=".938" dy="1.406"/><feGaussianBlur stdDeviation=".5"/><feComposite in2="hardAlpha" operator="out"/><feColorMatrix type="matrix" values="0 0 0 0 0.394602 0 0 0 0 0.394602 0 0 0 0 0.394602 0 0 0 0.08 0"/><feBlend in2="BackgroundImageFix" mode="normal" result="effect1_dropShadow_2483_15959"/><feBlend in="SourceGraphic" in2="effect1_dropShadow_2483_15959" mode="normal" result="shape"/><feColorMatrix in="SourceAlpha" result="hardAlpha" type="matrix" values="0 0 0 0 0 0 0 0 0 0 0 0 0 0 0 0 0 0 127 0"/><feOffset dx=".5" dy=".5"/><feGaussianBlur stdDeviation=".5"/><feComposite in2="hardAlpha" k2="-1" k3="1" operator="arithmetic"/><feColorMatrix type="matrix" values="0 0 0 0 0.109684 0 0 0 0 0.0922738 0 0 0 0 0.0922738 0 0 0 0.1 0"/><feBlend in2="shape" mode="normal" result="effect2_innerShadow_2483_15959"/><feColorMatrix in="SourceAlpha" result="hardAlpha" type="matrix" values="0 0 0 0 0 0 0 0 0 0 0 0 0 0 0 0 0 0 127 0"/><feOffset dx="-.469" dy="-.469"/><feGaussianBlur stdDeviation=".5"/><feComposite in2="hardAlpha" k2="-1" k3="1" operator="arithmetic"/><feColorMatrix type="matrix" values="0 0 0 0 0 0 0 0 0 0 0 0 0 0 0 0 0 0 0.05 0"/><feBlend in2="effect2_innerShadow_2483_15959" mode="normal" result="effect3_innerShadow_2483_15959"/></filter></defs></svg>