<svg width="18" height="18" viewBox="0 0 18 18" fill="none" xmlns="http://www.w3.org/2000/svg"><g filter="url(#filter0_d_326_19041)"><mask id="path-1-inside-1_326_19041" fill="white"><path d="M-155 -291C-155 -299.837 -147.837 -307 -139 -307H229C237.837 -307 245 -299.837 245 -291V36C245 44.8365 237.837 52 229 52H-139C-147.837 52 -155 44.8365 -155 36V-291Z"/></mask><path d="M-155 -291C-155 -299.837 -147.837 -307 -139 -307H229C237.837 -307 245 -299.837 245 -291V36C245 44.8365 237.837 52 229 52H-139C-147.837 52 -155 44.8365 -155 36V-291Z" fill="white" shape-rendering="crispEdges"/><path d="M-139 -307V-306H229V-307V-308H-139V-307ZM245 -291H244V36H245H246V-291H245ZM229 52V51H-139V52V53H229V52ZM-155 36H-154V-291H-155H-156V36H-155ZM-139 52V51C-147.284 51 -154 44.2843 -154 36H-155H-156C-156 45.3889 -148.389 53 -139 53V52ZM245 36H244C244 44.2843 237.284 51 229 51V52V53C238.389 53 246 45.3889 246 36H245ZM229 -307V-306C237.284 -306 244 -299.284 244 -291H245H246C246 -300.389 238.389 -308 229 -308V-307ZM-139 -307V-308C-148.389 -308 -156 -300.389 -156 -291H-155H-154C-154 -299.284 -147.284 -306 -139 -306V-307Z" fill="#E5E7EB" mask="url(#path-1-inside-1_326_19041)"/><path d="M-124 -12.5H214C219.247 -12.5 223.5 -8.24671 223.5 -3V21C223.5 26.2467 219.247 30.5 214 30.5H-124C-129.247 30.5 -133.5 26.2467 -133.5 21V-3C-133.5 -8.2467 -129.247 -12.5 -124 -12.5Z" fill="white"/><path d="M-124 -12.5H214C219.247 -12.5 223.5 -8.24671 223.5 -3V21C223.5 26.2467 219.247 30.5 214 30.5H-124C-129.247 30.5 -133.5 26.2467 -133.5 21V-3C-133.5 -8.2467 -129.247 -12.5 -124 -12.5Z" stroke="#D1D5DC"/><path d="M13.773 13.773C12.5515 14.9945 10.864 15.75 9 15.75C5.27209 15.75 2.25 12.7279 2.25 9C2.25 5.27209 5.27209 2.25 9 2.25C10.864 2.25 12.5515 3.00552 13.773 4.22704C14.3947 4.84879 15.75 6.375 15.75 6.375" stroke="#A1A1AA" stroke-width="1.125" stroke-linecap="round" stroke-linejoin="round"/><path d="M15.75 3V6.375H12.375" stroke="#A1A1AA" stroke-width="1.125" stroke-linecap="round" stroke-linejoin="round"/></g><defs><filter id="filter0_d_326_19041" x="-193" y="-320" width="476" height="435" filterUnits="userSpaceOnUse" color-interpolation-filters="sRGB"><feFlood flood-opacity="0" result="BackgroundImageFix"/><feColorMatrix in="SourceAlpha" type="matrix" values="0 0 0 0 0 0 0 0 0 0 0 0 0 0 0 0 0 0 127 0" result="hardAlpha"/><feMorphology radius="12" operator="erode" in="SourceAlpha" result="effect1_dropShadow_326_19041"/><feOffset dy="25"/><feGaussianBlur stdDeviation="25"/><feComposite in2="hardAlpha" operator="out"/><feColorMatrix type="matrix" values="0 0 0 0 0 0 0 0 0 0 0 0 0 0 0 0 0 0 0.25 0"/><feBlend mode="normal" in2="BackgroundImageFix" result="effect1_dropShadow_326_19041"/><feBlend mode="normal" in="SourceGraphic" in2="effect1_dropShadow_326_19041" result="shape"/></filter></defs></svg>