<svg fill="none" viewBox="0 0 58 63"><path fill="#F5F5F5" d="M0 0h58v63H0z"/><g clipPath="url(#a)"><path fill="url(#b)" d="M0 0h1440v1024H0z" transform="translate(-534 -259)"/><path fill="white" d="M-534-259H906V765H-534z"/><rect width="120" height="120" x="-32" y="-29" fill="url(#c)" rx="30"/><path fill="url(#d)" fillOpacity=".6" d="M6.18 0h40.64C50.23 0 53 2.764 53 6.167v49.666C53 59.236 50.23 62 46.82 62H6.18C2.77 62 0 59.236 0 55.833V6.167C0 2.764 2.77 0 6.18 0" opacity=".7"/><path fill="url(#e)" stroke="url(#f)" d="M51.636 9H16.364C13.404 9 11 11.363 11 14.272v42.456C11 59.638 13.404 62 16.364 62h35.272C54.596 62 57 59.637 57 56.728V14.272C57 11.362 54.596 9 51.636 9Z"/><rect width="23" height="4" x="21" y="18" fill="#61BDFA" rx="2"/><rect width="20" height="4" x="21" y="26" fill="#61BDFA" rx="2"/><rect width="15" height="4" x="21" y="34" fill="#61BDFA" rx="2"/></g><defs><linearGradient id="b" x1="19" x2="1412.5" y1="19.5" y2="1024" gradientUnits="userSpaceOnUse"><stop stopColor="#2E7EEA"/><stop offset="1" stopColor="#013F92"/></linearGradient><linearGradient id="c" x1="28" x2="28" y1="-29" y2="91" gradientUnits="userSpaceOnUse"><stop stopColor="#1D6FF2"/><stop offset="1" stopColor="#1AC8FC"/></linearGradient><linearGradient id="d" x1="26.5" x2="26.5" y1="0" y2="62" gradientUnits="userSpaceOnUse"><stop stopColor="#EBF9FF"/><stop offset="1" stopColor="#91E0FF"/></linearGradient><linearGradient id="e" x1="35.289" x2="35.289" y1="9" y2="62" gradientUnits="userSpaceOnUse"><stop stopColor="#D2F2FF"/><stop offset="1" stopColor="#95D1FF"/></linearGradient><linearGradient id="f" x1="35.289" x2="35.289" y1="9" y2="62" gradientUnits="userSpaceOnUse"><stop stopColor="white"/><stop offset="1" stopColor="#7FD6FF"/></linearGradient><clipPath id="a"><path fill="white" d="M-534-259H906V765H-534z"/></clipPath></defs></svg>