<svg fill="none" viewBox="0 0 49 71"><path fill="#DADADA" d="M0 0h49v71H0z"/><path fill="white" d="M248.199 91.2H-1191.8v-109H248.199z"/><path fill="black" d="M6 61.236h.875v7.212H6zM.9 62.34a18 18 0 0 0 3.155-2.496q1.2-1.188 1.98-2.412h.792q.936 1.428 2.22 2.664a17.7 17.7 0 0 0 2.928 2.244l-.564.852a20 20 0 0 1-2.724-2.136 17 17 0 0 1-1.248-1.284q-.564-.66-1.008-1.332a16 16 0 0 1-1.86 2.208 19.2 19.2 0 0 1-3.096 2.508zm12.123 5.304a14 14 0 0 0 2.184-1.908 10.2 10.2 0 0 0 1.464-2.052 9.2 9.2 0 0 0 .792-2.244q.276-1.224.312-2.712l.012-.636v-.516h.9q.012.336 0 .768a54 54 0 0 1-.024.72q-.036 2.796-1.212 5.1t-3.78 4.236zm5.58-9.144q.048 3.3 1.68 5.844 1.212 1.872 3.264 3.348l-.648.792q-2.496-2.016-3.744-4.308-1.248-2.34-1.332-5.16zm6.928 1.284h9.144v4.968h-9.144zm.888.828v3.312h7.38v-3.312zm3.24-3.18h.876v11.016h-.876zm9.82 2.424h.924v6.372q0 .384.084.576t.276.276q.192.072.564.096.288.024.624.024.336.012.648 0l.408-.024q.324-.024.516-.06a.6.6 0 0 0 .3-.12.54.54 0 0 0 .168-.24 1.4 1.4 0 0 0 .072-.396 56 56 0 0 0 .132-1.536l.936.288q-.096 1.092-.168 1.572a2.3 2.3 0 0 1-.168.648q-.12.276-.312.432a1.36 1.36 0 0 1-.552.252q-.348.096-.864.108a36 36 0 0 1-1.812 0q-.672-.024-1.056-.18a1.05 1.05 0 0 1-.552-.516q-.168-.36-.168-1.008zm5.952.84q.552.9 1.152 2.232.672 1.56.912 2.364l-.876.396q-.204-.804-.888-2.364a27 27 0 0 0-1.092-2.268zm-4.164-3.252q.576.648 1.356 1.728.708.96 1.236 1.848l-.78.576q-.36-.66-1.188-1.86-.732-1.092-1.32-1.752zm-4.812 8.208q.384-.972.78-2.328.42-1.476.624-2.388l.924.216q-.3 1.236-.66 2.448a28 28 0 0 1-.804 2.352z"/><path fill="#F6F6F6" d="M38.2.1c5.577 0 10.099 4.522 10.099 10.1v28c0 5.578-4.522 10.1-10.1 10.1h-28C4.621 48.3.1 43.778.1 38.2v-28C.1 4.622 4.622.1 10.2.1z"/><path stroke="#D4D4D8" stroke-width=".2" d="M38.2.1c5.577 0 10.099 4.522 10.099 10.1v28c0 5.578-4.522 10.1-10.1 10.1h-28C4.621 48.3.1 43.778.1 38.2v-28C.1 4.622 4.622.1 10.2.1z"/><g filter="url(#a)"><path fill="#919191" d="M24.2 39.8c8.395 0 15.2-6.805 15.2-15.2S32.595 9.4 24.2 9.4 9 16.206 9 24.6c0 8.395 6.805 15.2 15.2 15.2"/></g><g fill="#D9D9D9" filter="url(#b)"><path d="M24.197 39.8c4.552 0 8.636-2.004 11.42-5.176-.816-4.176-5.616-7.384-11.42-7.384s-10.604 3.208-11.42 7.384a15.15 15.15 0 0 0 11.42 5.176"/><path d="M23.997 25.4c3.204 0 5.8-2.507 5.8-5.6s-2.596-5.6-5.8-5.6-5.8 2.507-5.8 5.6 2.597 5.6 5.8 5.6"/></g><defs><filter id="a" width="32.805" height="33.275" x="8.531" y="8.932" color-interpolation-filters="sRGB" filterUnits="userSpaceOnUse"><feFlood flood-opacity="0" result="BackgroundImageFix"/><feColorMatrix in="SourceAlpha" result="hardAlpha" type="matrix" values="0 0 0 0 0 0 0 0 0 0 0 0 0 0 0 0 0 0 127 0"/><feOffset dx=".938" dy="1.406"/><feGaussianBlur stdDeviation=".5"/><feComposite in2="hardAlpha" operator="out"/><feColorMatrix type="matrix" values="0 0 0 0 0.394602 0 0 0 0 0.394602 0 0 0 0 0.394602 0 0 0 0.08 0"/><feBlend in2="BackgroundImageFix" mode="normal" result="effect1_dropShadow_2483_15959"/><feBlend in="SourceGraphic" in2="effect1_dropShadow_2483_15959" mode="normal" result="shape"/><feColorMatrix in="SourceAlpha" result="hardAlpha" type="matrix" values="0 0 0 0 0 0 0 0 0 0 0 0 0 0 0 0 0 0 127 0"/><feOffset dx=".5" dy=".5"/><feGaussianBlur stdDeviation=".5"/><feComposite in2="hardAlpha" k2="-1" k3="1" operator="arithmetic"/><feColorMatrix type="matrix" values="0 0 0 0 0.109684 0 0 0 0 0.0922738 0 0 0 0 0.0922738 0 0 0 0.1 0"/><feBlend in2="shape" mode="normal" result="effect2_innerShadow_2483_15959"/><feColorMatrix in="SourceAlpha" result="hardAlpha" type="matrix" values="0 0 0 0 0 0 0 0 0 0 0 0 0 0 0 0 0 0 127 0"/><feOffset dx="-.469" dy="-.469"/><feGaussianBlur stdDeviation=".5"/><feComposite in2="hardAlpha" k2="-1" k3="1" operator="arithmetic"/><feColorMatrix type="matrix" values="0 0 0 0 0 0 0 0 0 0 0 0 0 0 0 0 0 0 0.05 0"/><feBlend in2="effect2_innerShadow_2483_15959" mode="normal" result="effect3_innerShadow_2483_15959"/></filter><filter id="b" width="23.777" height="26.538" x="12.309" y="13.731" color-interpolation-filters="sRGB" filterUnits="userSpaceOnUse"><feFlood flood-opacity="0" result="BackgroundImageFix"/><feBlend in="SourceGraphic" in2="BackgroundImageFix" mode="normal" result="shape"/><feColorMatrix in="SourceAlpha" result="hardAlpha" type="matrix" values="0 0 0 0 0 0 0 0 0 0 0 0 0 0 0 0 0 0 127 0"/><feOffset dx=".469" dy=".469"/><feGaussianBlur stdDeviation=".703"/><feComposite in2="hardAlpha" k2="-1" k3="1" operator="arithmetic"/><feColorMatrix type="matrix" values="0 0 0 0 0.121569 0 0 0 0 0.121569 0 0 0 0 0.117647 0 0 0 0.05 0"/><feBlend in2="shape" mode="normal" result="effect1_innerShadow_2483_15959"/><feColorMatrix in="SourceAlpha" result="hardAlpha" type="matrix" values="0 0 0 0 0 0 0 0 0 0 0 0 0 0 0 0 0 0 127 0"/><feOffset dx="-.469" dy="-.469"/><feGaussianBlur stdDeviation=".703"/><feComposite in2="hardAlpha" k2="-1" k3="1" operator="arithmetic"/><feColorMatrix type="matrix" values="0 0 0 0 0.121569 0 0 0 0 0.121569 0 0 0 0 0.117647 0 0 0 0.05 0"/><feBlend in2="effect1_innerShadow_2483_15959" mode="normal" result="effect2_innerShadow_2483_15959"/><feColorMatrix in="SourceAlpha" result="hardAlpha" type="matrix" values="0 0 0 0 0 0 0 0 0 0 0 0 0 0 0 0 0 0 127 0"/><feOffset dx=".469" dy=".469"/><feGaussianBlur stdDeviation=".938"/><feComposite in2="hardAlpha" k2="-1" k3="1" operator="arithmetic"/><feColorMatrix type="matrix" values="0 0 0 0 0.121569 0 0 0 0 0.121569 0 0 0 0 0.117647 0 0 0 0.05 0"/><feBlend in2="effect2_innerShadow_2483_15959" mode="normal" result="effect3_innerShadow_2483_15959"/></filter></defs></svg>