<svg fill="none" viewBox="0 0 48 71"><path fill="#DADADA" d="M0 0h48v71H0z"/><path fill="white" d="M1140 90H-300V-19h1440z"/><path fill="black" d="M1.848 61.48c-.36.528-.756 1.044-1.188 1.524l-.276-.924c1.176-1.452 2.028-3.12 2.568-4.992l.804.372A16 16 0 0 1 2.7 60.064v8.16h-.852zm1.86-2.7h3.696c-.18-.48-.384-.936-.624-1.392l.828-.228c.252.528.444 1.008.588 1.452l-.456.168h3.78v.816H3.708zm1.104 1.788h5.676v.78H4.812zm0 1.692h5.676v.792H4.812zm5.892 1.776V68.2h-.84v-.648h-4.44v.648h-.84v-4.164zm-5.28 2.7h4.44V64.84h-4.44zm8.868-8.652h2.64c.168-.312.288-.624.372-.96l.9.12c-.096.3-.216.576-.36.84h3.96v5.868h-7.512zm6.672 5.124V62.2h-5.832v1.008zm-5.832-1.704h5.832v-.984h-5.832zm0-1.68h5.832v-.984h-5.832zm-1.44 4.944.816.168c-.288 1.104-.684 2.052-1.2 2.868l-.732-.468a8 8 0 0 0 1.116-2.568m5.784 3.252h-3.084c-.696 0-1.032-.348-1.032-1.02v-2.292h.876v2.112c0 .276.132.42.408.42h2.664c.276 0 .468-.072.564-.192.144-.168.252-.636.3-1.416l.828.264c-.096 1.008-.264 1.62-.504 1.848-.216.18-.564.276-1.02.276m-1.608-3.744c.648.624 1.14 1.176 1.488 1.644l-.66.456c-.36-.516-.84-1.08-1.464-1.704zm3.876.276c.768.96 1.356 1.812 1.764 2.532l-.684.48c-.432-.78-1.02-1.644-1.752-2.592zm11.688-2.616v2.352h-5.988v.828h6.54V68.2h-.852v-.504h-5.688v.492h-.864v-6.252zm-5.988 4.992h5.688v-1.116h-5.688zm0-3.336h5.148v-.96h-5.148zm7.644-3.108v2.172h-.84v-1.428h-8.496v1.428h-.84v-2.172h4.752c-.12-.288-.24-.54-.372-.78l.84-.144-.072-.048c.576-.72.984-1.5 1.248-2.364l.828.18c-.084.252-.168.492-.264.732h3.468v.756h-2.136c.252.336.456.648.6.936l-.768.288a8 8 0 0 0-.756-1.224h-.756a9.4 9.4 0 0 1-.732 1.152l-.648-.396c.132.276.264.576.384.912zm-8.736-1.668c-.288.468-.6.9-.96 1.296l-.756-.48a7.1 7.1 0 0 0 1.584-2.496l.828.18c-.096.264-.204.504-.3.744h3.216v.756h-2.016c.264.36.492.708.66 1.032l-.792.3c-.216-.456-.48-.9-.78-1.332zm14.64-1.14h5.868v5.544h-2.496v1.416h2.7v.816h-2.7v1.56h3.144v.828h-7.224v-.828H43.5v-1.56h-2.712v-.816H43.5V63.22h-2.508zm5.04 4.776v-1.62h-1.668v1.62zm-2.532 0v-1.62h-1.68v1.62zm-1.68-2.376h1.68v-1.632h-1.68zm2.544-1.632v1.632h1.668v-1.632zm-7.608 3.204h1.308v-2.844h-1.476v-.816h3.828v.816h-1.464v2.844h1.32v.828h-1.32V65.2c.456-.156.888-.324 1.32-.516v.84q-1.656.684-3.564 1.152l-.216-.828a18 18 0 0 0 1.572-.36v-3.012h-1.308z"/><path fill="url(#a)" d="M0 11C0 5.477 4.477 1 10 1h28c5.523 0 10 4.477 10 10v28c0 5.523-4.477 10-10 10H10C4.477 49 0 44.523 0 39z"/><path fill="url(#b)" d="M33.515 13.332h-8.14a.01.01 0 0 0-.007.007.01.01 0 0 1-.006.006c-1.438.002-2.5.69-2.926 1.881a4 4 0 0 0-.202 1.253v4.888c0 .954.29 1.743.84 2.294.551.551 1.34.84 2.294.84.514 0 .94.427.94.94a.803.803 0 0 0 1.25.668l2.174-1.457c.15-.1.339-.164.527-.164h3.258c.45 0 .877-.064 1.267-.201 1.19-.427 1.868-1.492 1.868-2.933v-4.888c0-1.931-1.203-3.134-3.135-3.134zm-7.683 6.594a.94.94 0 0 1-.94-.94c0-.514.426-.94.94-.94s.94.426.94.94-.413.94-.94.94m3.531 0a.94.94 0 0 1-.94-.94c0-.514.427-.94.94-.94.515 0 .941.426.941.94s-.426.94-.94.94m3.524 0a.94.94 0 0 1-.94-.94c0-.514.426-.94.94-.94s.94.426.94.94-.426.94-.94.94" opacity=".7"/><path fill="url(#c)" stroke="url(#d)" stroke-width=".4" d="M31.343 26.333c-.348 0-.696.1-.985.298l-2.866 1.908a1.92 1.92 0 0 1-1.084.328 2 2 0 0 1-.93-.238l-.01-.003a1.92 1.92 0 0 1-1.01-1.697c0-.387-.289-.745-.707-.884a4.9 4.9 0 0 1-1.9-1.153c-.926-.924-1.443-2.256-1.443-3.737V15a1 1 0 0 0-1-1h-3.249A4.153 4.153 0 0 0 12 18.144v11.14a4.146 4.146 0 0 0 4.16 4.145h15.68A4.146 4.146 0 0 0 36 29.284v-1.951a1 1 0 0 0-1-1zm-2.816 10.196H26.27a1.5 1.5 0 0 1-1.503-1.49v-.368a.734.734 0 0 0-.736-.736.734.734 0 0 0-.736.736v.367A1.49 1.49 0 0 1 21.8 36.53h-2.259a.747.747 0 0 0-.736.736c0 .397.338.735.736.735h8.985a.74.74 0 0 0 .737-.735.74.74 0 0 0-.737-.736Z"/><defs><linearGradient id="a" x1="24" x2="24" y1="1" y2="49" gradientUnits="userSpaceOnUse"><stop stop-color="#5BF776"/><stop offset="1" stop-color="#0DBC29"/></linearGradient><linearGradient id="b" x1="29.443" x2="29.443" y1="13.332" y2="26.947" gradientUnits="userSpaceOnUse"><stop stop-color="#E5FFE4"/><stop offset="1" stop-color="#C3FFB3"/></linearGradient><linearGradient id="c" x1="24" x2="24" y1="14" y2="38" gradientUnits="userSpaceOnUse"><stop stop-color="#F6FFEF"/><stop offset="1" stop-color="#C2FFAB"/></linearGradient><linearGradient id="d" x1="24" x2="24" y1="14" y2="38" gradientUnits="userSpaceOnUse"><stop stop-color="white"/><stop offset="1" stop-color="#7CDE5A"/></linearGradient></defs></svg>