<svg fill="none" viewBox="0 0 29 19"><path fill="#FAFAFA" d="M-325.428-1359.65h375V176.93h-375z"/><path fill="white" d="M0 0h28.5v19H0z"/><path fill="#FF8A00" stroke="#FF8A00" stroke-linecap="round" stroke-linejoin="round" stroke-width="1.125" d="M5.625 3A4.125 4.125 0 0 0 1.5 7.125C1.5 11.25 6.375 15 9 15.872c2.625-.872 7.5-4.622 7.5-8.747A4.125 4.125 0 0 0 9 4.753 4.12 4.12 0 0 0 5.625 3"/><path fill="#525252" d="M25.605 4.361h.864V14h-1.107V5.711c-.607.621-1.363 1.053-2.268 1.323V5.927c.432-.121.891-.31 1.35-.58a5.6 5.6 0 0 0 1.161-.986"/></svg>