<svg fill="none" viewBox="0 0 49 74"><path fill="#DADADA" d="M0 0h49v74H0z"/><path fill="white" d="M844.699 91.2h-1440v-109h1440z"/><path fill="black" d="M5.635 62.756v1.188h1.956v-4.5h.804v4.5h1.944v-1.188H9.08v-.72h1.26v-1.308H9.02v-.744h2.1v4.704H8.395v1.056h2.688v.732c-.432.876-1.152 1.62-2.136 2.244q1.188.54 2.772.864l-.312.804c-1.308-.276-2.424-.672-3.348-1.176-1.008.48-2.208.888-3.612 1.2l-.432-.768c1.248-.24 2.328-.552 3.228-.936-.864-.612-1.512-1.344-1.968-2.184h-.504v-.78h2.82v-1.056H4.843v-4.332a7 7 0 0 0 1.788-.756l.492.636c-.408.216-.912.432-1.488.648v1.152h1.308v.72zm.528 3.768q.702 1.026 1.944 1.764c.9-.504 1.584-1.092 2.04-1.764zM2.18 70.292H1.051l-.18-.816c.36.036.696.06 1.008.06.288 0 .444-.168.444-.492v-2.916c-.456.168-.9.324-1.356.468l-.192-.816c.528-.144 1.044-.3 1.548-.492v-2.76H.991V61.7h1.332v-2.244h.84V61.7H4.28v.828H3.163v2.424c.408-.18.816-.384 1.212-.6v.84c-.396.204-.804.396-1.212.588v3.48c0 .684-.336 1.032-.984 1.032m11.532-9.948h4.044v-.948h.888v.948h4.044v.792h-4.044v1.044h4.536v2.196h-.84v-1.44h-4.584l.66.324a15 15 0 0 1-2.244 1.488c1.104-.024 2.004-.048 2.676-.096.42-.288.852-.588 1.284-.9l.696.468a17 17 0 0 1-4.56 2.436c1.56-.048 3.108-.132 4.668-.24-.264-.288-.54-.564-.828-.852l.624-.396c.876.852 1.548 1.596 2.016 2.244l-.648.468a10 10 0 0 0-.648-.864c-.972.06-1.884.12-2.748.168v2.292c0 .6-.336.912-.984.912h-1.092l-.18-.804a9 9 0 0 0 .984.06c.264 0 .408-.132.408-.372V67.22c-1.32.06-2.532.108-3.636.132l-.168-.78c.252.012.504.024.744.024.984-.276 1.992-.708 3.048-1.308-.816.024-1.74.06-2.784.084l-.168-.66c.18-.036.36-.108.54-.204.78-.444 1.524-.972 2.22-1.572H14.06v1.428h-.84V62.18h4.536v-1.044h-4.044zm6.264 7.476a17.5 17.5 0 0 1 3.396 1.656l-.444.696a16.6 16.6 0 0 0-3.384-1.716zm-3.78-.024.504.564c-.9.72-2.028 1.308-3.384 1.776l-.36-.768c1.308-.396 2.388-.924 3.24-1.572m13.356-7.68v7.308c.276-.084.54-.168.804-.252v.816q-2.34.756-5.436 1.404l-.24-.84c.288-.06.576-.12.864-.168v-8.268zm-3.156 8.088a61 61 0 0 0 2.316-.552v-1.656h-2.316zm0-2.988h2.316v-1.812h-2.316zm0-2.604h2.316v-1.704h-2.316zm5.34-3.156h.864v2.4h2.652c0 3.744-.06 6.048-.18 6.936-.12.984-.72 1.488-1.8 1.488q-.288 0-1.008-.036l-.204-.768c.42.024.78.048 1.092.048.636 0 1.008-.36 1.104-1.056.072-.624.12-2.556.144-5.772h-1.8v.168c-.036 3.456-.888 5.988-2.556 7.584l-.648-.564q2.304-2.178 2.34-7.02v-.168h-1.488v-.84h1.488zm14.496.048.42.732a24.5 24.5 0 0 1-3.792.66v2.028h3.828v.84H42.86v1.968h4.728v.828H42.86v2.652c0 .72-.384 1.092-1.128 1.092h-1.86l-.192-.84c.612.024 1.2.048 1.752.048.36 0 .552-.18.552-.516V66.56h-5.16v-.828h5.16v-1.968H37.82v-.84h4.164v-1.956a55 55 0 0 1-4.14.156l-.264-.78c3.48 0 6.36-.288 8.652-.84"/><rect width="48.2" height="48.2" x=".099" y=".1" fill="#F6F6F6" rx="10.1"/><rect width="48.2" height="48.2" x=".099" y=".1" stroke="#D4D4D8" stroke-width=".2" rx="10.1"/><g filter="url(#a)"><path fill="#D9D9D9" d="m32.56 34.143-2.739-2.8a6.54 6.54 0 0 0 1.058-3.575c0-3.614-2.911-6.543-6.504-6.543s-6.504 2.929-6.504 6.543 2.912 6.544 6.504 6.544a6.46 6.46 0 0 0 3.396-.962l2.75 2.81c.28.288.649.43 1.02.43a1.4 1.4 0 0 0 1.004-.413c.563-.559.57-1.47.015-2.037zm-8.185-1.486c-2.678 0-4.857-2.191-4.857-4.886s2.179-4.887 4.857-4.887 4.857 2.192 4.857 4.887-2.178 4.886-4.857 4.886"/></g><g filter="url(#b)"><path fill="#D9D9D9" d="M20.387 27.848c0-2.216 1.672-4.107 3.841-4.107a.662.662 0 1 1 0 1.325c-1.34 0-2.517 1.195-2.517 2.782a.662.662 0 1 1-1.324 0"/></g><g filter="url(#c)"><path fill="#919191" d="M39.575 25.002c0 1.276-.356 2.513-1.124 3.545-.925 1.236-2.349 2.097-3.833 2.473-.78.196-1.545.18-2.341.18a.583.583 0 0 1-.536-.8c.852-2.261.592-4.998-.773-7.023-2.832-4.705-10.315-4.697-13.148 0-1.364 2.017-1.62 4.766-.772 7.023a.583.583 0 0 1-.536.8h-1.577c-6.351.065-7.83-8.65-2.395-10.9.44-.182.743-.61.804-1.082.336-2.613 3.093-4.42 5.656-3.856.494.109 1.031-.057 1.344-.455 3.783-4.816 12.635-2.874 13.822 3.206.088.453.43.822.873.95 2.624.756 4.536 3.129 4.536 5.939"/></g><defs><filter id="a" width="16.039" height="16.303" x="17.402" y="20.756" color-interpolation-filters="sRGB" filterUnits="userSpaceOnUse"><feFlood flood-opacity="0" result="BackgroundImageFix"/><feBlend in="SourceGraphic" in2="BackgroundImageFix" mode="normal" result="shape"/><feColorMatrix in="SourceAlpha" result="hardAlpha" type="matrix" values="0 0 0 0 0 0 0 0 0 0 0 0 0 0 0 0 0 0 127 0"/><feOffset dx=".469" dy=".469"/><feGaussianBlur stdDeviation=".703"/><feComposite in2="hardAlpha" k2="-1" k3="1" operator="arithmetic"/><feColorMatrix type="matrix" values="0 0 0 0 0.121569 0 0 0 0 0.121569 0 0 0 0 0.117647 0 0 0 0.05 0"/><feBlend in2="shape" mode="normal" result="effect1_innerShadow_2483_15959"/><feColorMatrix in="SourceAlpha" result="hardAlpha" type="matrix" values="0 0 0 0 0 0 0 0 0 0 0 0 0 0 0 0 0 0 127 0"/><feOffset dx="-.469" dy="-.469"/><feGaussianBlur stdDeviation=".703"/><feComposite in2="hardAlpha" k2="-1" k3="1" operator="arithmetic"/><feColorMatrix type="matrix" values="0 0 0 0 0.121569 0 0 0 0 0.121569 0 0 0 0 0.117647 0 0 0 0.05 0"/><feBlend in2="effect1_innerShadow_2483_15959" mode="normal" result="effect2_innerShadow_2483_15959"/><feColorMatrix in="SourceAlpha" result="hardAlpha" type="matrix" values="0 0 0 0 0 0 0 0 0 0 0 0 0 0 0 0 0 0 127 0"/><feOffset dx=".469" dy=".469"/><feGaussianBlur stdDeviation=".938"/><feComposite in2="hardAlpha" k2="-1" k3="1" operator="arithmetic"/><feColorMatrix type="matrix" values="0 0 0 0 0.121569 0 0 0 0 0.121569 0 0 0 0 0.117647 0 0 0 0.05 0"/><feBlend in2="effect2_innerShadow_2483_15959" mode="normal" result="effect3_innerShadow_2483_15959"/></filter><filter id="b" width="5.441" height="5.706" x="19.918" y="23.273" color-interpolation-filters="sRGB" filterUnits="userSpaceOnUse"><feFlood flood-opacity="0" result="BackgroundImageFix"/><feBlend in="SourceGraphic" in2="BackgroundImageFix" mode="normal" result="shape"/><feColorMatrix in="SourceAlpha" result="hardAlpha" type="matrix" values="0 0 0 0 0 0 0 0 0 0 0 0 0 0 0 0 0 0 127 0"/><feOffset dx=".469" dy=".469"/><feGaussianBlur stdDeviation=".703"/><feComposite in2="hardAlpha" k2="-1" k3="1" operator="arithmetic"/><feColorMatrix type="matrix" values="0 0 0 0 0.121569 0 0 0 0 0.121569 0 0 0 0 0.117647 0 0 0 0.05 0"/><feBlend in2="shape" mode="normal" result="effect1_innerShadow_2483_15959"/><feColorMatrix in="SourceAlpha" result="hardAlpha" type="matrix" values="0 0 0 0 0 0 0 0 0 0 0 0 0 0 0 0 0 0 127 0"/><feOffset dx="-.469" dy="-.469"/><feGaussianBlur stdDeviation=".703"/><feComposite in2="hardAlpha" k2="-1" k3="1" operator="arithmetic"/><feColorMatrix type="matrix" values="0 0 0 0 0.121569 0 0 0 0 0.121569 0 0 0 0 0.117647 0 0 0 0.05 0"/><feBlend in2="effect1_innerShadow_2483_15959" mode="normal" result="effect2_innerShadow_2483_15959"/><feColorMatrix in="SourceAlpha" result="hardAlpha" type="matrix" values="0 0 0 0 0 0 0 0 0 0 0 0 0 0 0 0 0 0 127 0"/><feOffset dx=".469" dy=".469"/><feGaussianBlur stdDeviation=".938"/><feComposite in2="hardAlpha" k2="-1" k3="1" operator="arithmetic"/><feColorMatrix type="matrix" values="0 0 0 0 0.121569 0 0 0 0 0.121569 0 0 0 0 0.117647 0 0 0 0.05 0"/><feBlend in2="effect2_innerShadow_2483_15959" mode="normal" result="effect3_innerShadow_2483_15959"/></filter><filter id="c" width="31.338" height="20.15" x="9.012" y="12.013" color-interpolation-filters="sRGB" filterUnits="userSpaceOnUse"><feFlood flood-opacity="0" result="BackgroundImageFix"/><feColorMatrix in="SourceAlpha" result="hardAlpha" type="matrix" values="0 0 0 0 0 0 0 0 0 0 0 0 0 0 0 0 0 0 127 0"/><feOffset dx=".375" dy=".563"/><feGaussianBlur stdDeviation=".2"/><feComposite in2="hardAlpha" operator="out"/><feColorMatrix type="matrix" values="0 0 0 0 0.394602 0 0 0 0 0.394602 0 0 0 0 0.394602 0 0 0 0.08 0"/><feBlend in2="BackgroundImageFix" mode="normal" result="effect1_dropShadow_2483_15959"/><feBlend in="SourceGraphic" in2="effect1_dropShadow_2483_15959" mode="normal" result="shape"/><feColorMatrix in="SourceAlpha" result="hardAlpha" type="matrix" values="0 0 0 0 0 0 0 0 0 0 0 0 0 0 0 0 0 0 127 0"/><feOffset dx=".2" dy=".2"/><feGaussianBlur stdDeviation=".2"/><feComposite in2="hardAlpha" k2="-1" k3="1" operator="arithmetic"/><feColorMatrix type="matrix" values="0 0 0 0 0.109684 0 0 0 0 0.0922738 0 0 0 0 0.0922738 0 0 0 0.1 0"/><feBlend in2="shape" mode="normal" result="effect2_innerShadow_2483_15959"/><feColorMatrix in="SourceAlpha" result="hardAlpha" type="matrix" values="0 0 0 0 0 0 0 0 0 0 0 0 0 0 0 0 0 0 127 0"/><feOffset dx="-.188" dy="-.188"/><feGaussianBlur stdDeviation=".2"/><feComposite in2="hardAlpha" k2="-1" k3="1" operator="arithmetic"/><feColorMatrix type="matrix" values="0 0 0 0 0 0 0 0 0 0 0 0 0 0 0 0 0 0 0.05 0"/><feBlend in2="effect2_innerShadow_2483_15959" mode="normal" result="effect3_innerShadow_2483_15959"/></filter></defs></svg>