<svg fill="none" viewBox="0 0 22 22"><path fill="#F5F5F5" d="M0 0h22v22H0z"/><path fill="url(#a)" d="M0 0h1440v1024H0z" transform="translate(-1256 -21.121)"/><path fill="white" d="M-1256-21.121H184v1024h-1440z"/><mask id="c" fill="white"><path d="M184 43h-1440v-64H184z"/></mask><path fill="white" d="M184 43h-1440v-64H184z"/><path fill="#F5F5F5" d="M184 43v-1h-1440v2H184z" mask="url(#c)"/><path stroke="#333333" d="M4.584 17.416V8.25a6.417 6.417 0 0 1 12.833 0v9.166m-15.583 0h18.333M11 20.167a2.29 2.29 0 0 0 2.292-2.292v-.458H8.71v.458a2.29 2.29 0 0 0 2.292 2.292"/><defs><linearGradient id="a" x1="19" x2="1412.5" y1="19.5" y2="1024" gradientUnits="userSpaceOnUse"><stop/><stop offset="1"/></linearGradient></defs></svg>