<svg fill="none" viewBox="0 0 49 71"><path fill="#DADADA" d="M0 0h49v71H0z"/><path fill="white" d="M1239.1 92H-200.898V-17H1239.1z"/><rect width="48.1" height="48.1" x=".052" y=".95" fill="#FAFAFA" rx="10.05"/><rect width="48.1" height="48.1" x=".052" y=".95" stroke="#D4D4D8" stroke-width=".1" rx="10.05"/><path fill="url(#a)" d="M11.102 15.776a3.75 3.75 0 0 1 3.75-3.75h4.5a3.75 3.75 0 0 1 3.75 3.75v7.5a3.75 3.75 0 0 1-3.75 3.75h-4.5a3.75 3.75 0 0 1-3.75-3.75z"/><path fill="url(#b)" d="M11.102 32.026a2 2 0 0 1 2-2h8a2 2 0 0 1 2 2v4a2 2 0 0 1-2 2h-8a2 2 0 0 1-2-2z"/><path fill="url(#c)" d="M25.102 29.776a3.75 3.75 0 0 1 3.75-3.75h4.5a3.75 3.75 0 0 1 3.75 3.75v4.5a3.75 3.75 0 0 1-3.75 3.75h-4.5a3.75 3.75 0 0 1-3.75-3.75z"/><path fill="url(#d)" d="M25.102 18.026a6 6 0 1 1 12 0 6 6 0 0 1-12 0"/><path fill="black" d="M22.086 62.832v7.38h-.852v-.492H14.97v.492h-.852v-7.38h3.252c.096-.384.18-.792.228-1.212h-4.812v-.84h3.06a9 9 0 0 0-.624-1.32l.84-.312c.24.456.468.996.672 1.632h2.664c.276-.528.516-1.08.72-1.668l.852.3a9 9 0 0 1-.624 1.368h3.072v.84H18.51c-.072.42-.144.828-.24 1.212zM14.97 68.94h6.264v-1.284H14.97zm0-2.052h6.264V65.64H14.97zm0-2.016h6.264v-1.248H14.97zm18.84-3.048V67.5h-.864v-4.836H27.21v4.86h-.864v-5.7h3.036c.12-.42.204-.852.264-1.308h-4.824V59.7h10.56v.816h-4.824c-.072.456-.156.9-.276 1.308zm-2.916 5.7c1.548.528 2.964 1.152 4.236 1.896l-.528.816c-1.368-.852-2.76-1.524-4.188-2.004zm-1.236-4.14h.888v1.908c-.048 1.32-.48 2.364-1.272 3.156-.768.732-2.028 1.296-3.78 1.704l-.492-.768c1.74-.384 2.952-.888 3.636-1.524.648-.66.984-1.512 1.02-2.568z"/><defs><linearGradient id="a" x1="17.102" x2="17.102" y1="12.026" y2="27.026" gradientUnits="userSpaceOnUse"><stop stop-color="#5BF776"/><stop offset="1" stop-color="#0DBC29"/></linearGradient><linearGradient id="b" x1="17.102" x2="17.102" y1="30.018" y2="38.018" gradientUnits="userSpaceOnUse"><stop stop-color="#C873F5"/><stop offset="1" stop-color="#7B33BB"/></linearGradient><linearGradient id="c" x1="31.102" x2="31.102" y1="26.026" y2="38.026" gradientUnits="userSpaceOnUse"><stop stop-color="#FE9D02"/><stop offset="1" stop-color="#F7701D"/></linearGradient><linearGradient id="d" x1="31.102" x2="31.102" y1="12.026" y2="24.026" gradientUnits="userSpaceOnUse"><stop stop-color="#1D6FF2"/><stop offset="1" stop-color="#1AC8FC"/></linearGradient></defs></svg>