<svg fill="none" viewBox="0 0 49 74"><path fill="#DADADA" d="M0 0h49v74H0z"/><path fill="white" d="M449.199 91.2h-1440v-109h1440z"/><path fill="black" d="M4.211 61.056h7.536v.804H4.211zm.66-2.772h6.24v.792h-6.24zm4.644 4.248q.54.804 1.068 1.752.6 1.044.972 1.884l-.804.432a16 16 0 0 0-.888-1.836q-.684-1.26-1.056-1.788zM2.351 57.6q.432.432 1.02 1.176.468.588.78 1.068l-.708.54q-.24-.372-.78-1.068a28 28 0 0 0-.984-1.176zm1.02 8.016q.456.564.972.888t1.2.48q.696.156 1.728.216.912.06 1.992.036 1.08-.012 2.604-.132l-.12.9q-1.176.084-2.424.096-1.248.024-2.196-.036-1.548-.084-2.52-.492a4.5 4.5 0 0 1-1.692-1.248zm1.128-.384a.8.8 0 0 0 .336-.132 1.5 1.5 0 0 0 .276-.276q.42-.66.96-1.68.54-1.008.876-1.824l.924.168a17 17 0 0 1-.984 1.968q-.432.828-1.044 1.704 1.2-.06 2.424-.156a54 54 0 0 0 2.316-.252l-.036.9q-1.656.168-3 .276-1.344.096-2.892.132zM.947 67.584l1.716-1.788v-3.432H1.067v-.804h2.424v4.548l-.312.42-1.608 1.716zm13.108-2.508h8.256v3.084h-8.256zm.864.684v1.704h6.528V65.76zm-2.064-7.44h10.656v.708H12.855zm3.12-.948h.84v2.412h-.84zm3.576 0h.84v2.412h-.84zm-4.68 4.356h6.636v2.424h-6.636zm.852.66v1.092h4.932v-1.092zm-2.28-2.208h9.48v2.076h-.84v-1.38h-7.8v1.38h-.84zm13 2.124h7.272v2.376h-6.684v-.696h5.82v-.972H27.32v4.524h5.856v-1.248h-6.192v-.696h7.056v2.64h-7.596zm3.684-2.496q.156.192.408.612.24.348.336.528l-.792.252q-.036-.108-.348-.588-.036-.06-.324-.468zm-4.824.936h9.624v1.716h-.864v-1.008h-7.908v1.008h-.852zm2.64-1.848q.192.24.492.648.276.384.36.528l-.66.396a17 17 0 0 0-.456-.696q-.228-.36-.48-.708zm4.824.012q.276.288.924 1.152l-.636.42q-.372-.564-1.032-1.392zm-2.796.708q.432-.588.72-1.104t.54-1.164l.828.24a23 23 0 0 1-.66 1.368 7.5 7.5 0 0 1-.684 1.056zm-5.28.54q.6-.576 1.116-1.32.528-.744.888-1.512l.84.276q-.504.984-1.068 1.752-.504.684-1.08 1.296zm1.332-1.008.336-.744h3.828v.744zm4.824 0 .348-.744h4.032v.744zm10.468 1.308h4.836v.78h-4.836zm-.456-2.328h5.736V63.6H40.86zm.84.792v3.864h4.068V58.92zm1.62-.372h.816v9.192h-.816zm-2.688 6.444h6.24v.816h-6.24zm-.72 2.208h7.428v.816h-7.428zm-1.74-8.148h.816v7.596h-.816zm-1.644 7.668q.9-.132 1.944-.396.948-.216 1.932-.528l.108.852q-.972.312-1.932.492-.324.06-.66.144-.564.108-1.248.228zm.156-8.208h3.768v.816h-3.768zm.096 3.612h3.588v.816H36.78z"/><rect width="48.2" height="48.2" x=".099" y=".1" fill="#F6F6F6" rx="10.1"/><rect width="48.2" height="48.2" x=".099" y=".1" stroke="#D4D4D8" stroke-width=".2" rx="10.1"/><g filter="url(#a)"><path fill="#D9D9D9" d="M24.024 34.834a9.55 9.55 0 0 1-6.835-2.88 1.18 1.18 0 0 0-.836-.362h-.063c-1.037 0-1.546 1.242-.82 1.988a11.9 11.9 0 0 0 8.554 3.62c3.353 0 6.386-1.388 8.555-3.62.722-.746.217-1.988-.82-1.988h-.064a1.18 1.18 0 0 0-.836.363 9.55 9.55 0 0 1-6.835 2.879"/></g><g filter="url(#b)"><path fill="#D9D9D9" d="M34.265 23.199h.044c.773 0 1.349-.746 1.116-1.487a12 12 0 0 0-5.064-6.575c-.765-.481-1.763.09-1.763.998v.047c0 .39.197.761.528.97a9.6 9.6 0 0 1 4.027 5.215c.154.489.6.832 1.112.832"/></g><g filter="url(#c)"><path fill="#D9D9D9" d="M19.472 16.167v-.048c0-.903-.994-1.479-1.759-.998a12 12 0 0 0-5.096 6.59c-.228.739.343 1.488 1.116 1.488h.044c.513 0 .958-.34 1.112-.832a9.6 9.6 0 0 1 4.043-5.222c.335-.213.54-.58.54-.979"/></g><g filter="url(#d)"><path fill="#919191" d="M24.018 11.2a3.56 3.56 0 0 1 2.513 1.041 3.53 3.53 0 0 1 1.037 2.509c0 .943-.37 1.842-1.041 2.508a3.54 3.54 0 0 1-2.509 1.042c-.942 0-1.841-.371-2.508-1.042l-.122-.126a3.54 3.54 0 0 1-.92-2.382c0-.943.372-1.842 1.042-2.509a3.54 3.54 0 0 1 2.508-1.04"/></g><g filter="url(#e)"><path fill="#919191" d="M13.753 24.019c.942 0 1.842.37 2.508 1.04a3.54 3.54 0 0 1 1.038 2.51c0 .938-.371 1.841-1.042 2.508a3.54 3.54 0 0 1-2.508 1.04c-.943 0-1.842-.37-2.508-1.04l-.123-.127a3.545 3.545 0 0 1 .123-4.89 3.54 3.54 0 0 1 2.508-1.041z"/></g><g filter="url(#f)"><path fill="#919191" d="M34.66 24.019c.942 0 1.841.37 2.508 1.04a3.54 3.54 0 0 1 1.037 2.51c0 .938-.37 1.841-1.041 2.508a3.54 3.54 0 0 1-2.509 1.04c-.943 0-1.842-.37-2.508-1.04l-.123-.127a3.54 3.54 0 0 1-.919-2.382c0-.942.371-1.842 1.042-2.508a3.54 3.54 0 0 1 2.508-1.041z"/></g><defs><filter id="a" width="18.529" height="6.348" x="14.759" y="31.222" color-interpolation-filters="sRGB" filterUnits="userSpaceOnUse"><feFlood flood-opacity="0" result="BackgroundImageFix"/><feBlend in="SourceGraphic" in2="BackgroundImageFix" mode="normal" result="shape"/><feColorMatrix in="SourceAlpha" result="hardAlpha" type="matrix" values="0 0 0 0 0 0 0 0 0 0 0 0 0 0 0 0 0 0 127 0"/><feOffset dx=".37" dy=".37"/><feGaussianBlur stdDeviation=".555"/><feComposite in2="hardAlpha" k2="-1" k3="1" operator="arithmetic"/><feColorMatrix type="matrix" values="0 0 0 0 0.121569 0 0 0 0 0.121569 0 0 0 0 0.117647 0 0 0 0.05 0"/><feBlend in2="shape" mode="normal" result="effect1_innerShadow_2483_15959"/><feColorMatrix in="SourceAlpha" result="hardAlpha" type="matrix" values="0 0 0 0 0 0 0 0 0 0 0 0 0 0 0 0 0 0 127 0"/><feOffset dx="-.37" dy="-.37"/><feGaussianBlur stdDeviation=".555"/><feComposite in2="hardAlpha" k2="-1" k3="1" operator="arithmetic"/><feColorMatrix type="matrix" values="0 0 0 0 0.121569 0 0 0 0 0.121569 0 0 0 0 0.117647 0 0 0 0.05 0"/><feBlend in2="effect1_innerShadow_2483_15959" mode="normal" result="effect2_innerShadow_2483_15959"/><feColorMatrix in="SourceAlpha" result="hardAlpha" type="matrix" values="0 0 0 0 0 0 0 0 0 0 0 0 0 0 0 0 0 0 127 0"/><feOffset dx=".37" dy=".37"/><feGaussianBlur stdDeviation=".74"/><feComposite in2="hardAlpha" k2="-1" k3="1" operator="arithmetic"/><feColorMatrix type="matrix" values="0 0 0 0 0.121569 0 0 0 0 0.121569 0 0 0 0 0.117647 0 0 0 0.05 0"/><feBlend in2="effect2_innerShadow_2483_15959" mode="normal" result="effect3_innerShadow_2483_15959"/></filter><filter id="b" width="7.618" height="8.976" x="28.228" y="14.593" color-interpolation-filters="sRGB" filterUnits="userSpaceOnUse"><feFlood flood-opacity="0" result="BackgroundImageFix"/><feBlend in="SourceGraphic" in2="BackgroundImageFix" mode="normal" result="shape"/><feColorMatrix in="SourceAlpha" result="hardAlpha" type="matrix" values="0 0 0 0 0 0 0 0 0 0 0 0 0 0 0 0 0 0 127 0"/><feOffset dx=".37" dy=".37"/><feGaussianBlur stdDeviation=".555"/><feComposite in2="hardAlpha" k2="-1" k3="1" operator="arithmetic"/><feColorMatrix type="matrix" values="0 0 0 0 0.121569 0 0 0 0 0.121569 0 0 0 0 0.117647 0 0 0 0.05 0"/><feBlend in2="shape" mode="normal" result="effect1_innerShadow_2483_15959"/><feColorMatrix in="SourceAlpha" result="hardAlpha" type="matrix" values="0 0 0 0 0 0 0 0 0 0 0 0 0 0 0 0 0 0 127 0"/><feOffset dx="-.37" dy="-.37"/><feGaussianBlur stdDeviation=".555"/><feComposite in2="hardAlpha" k2="-1" k3="1" operator="arithmetic"/><feColorMatrix type="matrix" values="0 0 0 0 0.121569 0 0 0 0 0.121569 0 0 0 0 0.117647 0 0 0 0.05 0"/><feBlend in2="effect1_innerShadow_2483_15959" mode="normal" result="effect2_innerShadow_2483_15959"/><feColorMatrix in="SourceAlpha" result="hardAlpha" type="matrix" values="0 0 0 0 0 0 0 0 0 0 0 0 0 0 0 0 0 0 127 0"/><feOffset dx=".37" dy=".37"/><feGaussianBlur stdDeviation=".74"/><feComposite in2="hardAlpha" k2="-1" k3="1" operator="arithmetic"/><feColorMatrix type="matrix" values="0 0 0 0 0.121569 0 0 0 0 0.121569 0 0 0 0 0.117647 0 0 0 0.05 0"/><feBlend in2="effect2_innerShadow_2483_15959" mode="normal" result="effect3_innerShadow_2483_15959"/></filter><filter id="c" width="7.646" height="8.991" x="12.197" y="14.578" color-interpolation-filters="sRGB" filterUnits="userSpaceOnUse"><feFlood flood-opacity="0" result="BackgroundImageFix"/><feBlend in="SourceGraphic" in2="BackgroundImageFix" mode="normal" result="shape"/><feColorMatrix in="SourceAlpha" result="hardAlpha" type="matrix" values="0 0 0 0 0 0 0 0 0 0 0 0 0 0 0 0 0 0 127 0"/><feOffset dx=".37" dy=".37"/><feGaussianBlur stdDeviation=".555"/><feComposite in2="hardAlpha" k2="-1" k3="1" operator="arithmetic"/><feColorMatrix type="matrix" values="0 0 0 0 0.121569 0 0 0 0 0.121569 0 0 0 0 0.117647 0 0 0 0.05 0"/><feBlend in2="shape" mode="normal" result="effect1_innerShadow_2483_15959"/><feColorMatrix in="SourceAlpha" result="hardAlpha" type="matrix" values="0 0 0 0 0 0 0 0 0 0 0 0 0 0 0 0 0 0 127 0"/><feOffset dx="-.37" dy="-.37"/><feGaussianBlur stdDeviation=".555"/><feComposite in2="hardAlpha" k2="-1" k3="1" operator="arithmetic"/><feColorMatrix type="matrix" values="0 0 0 0 0.121569 0 0 0 0 0.121569 0 0 0 0 0.117647 0 0 0 0.05 0"/><feBlend in2="effect1_innerShadow_2483_15959" mode="normal" result="effect2_innerShadow_2483_15959"/><feColorMatrix in="SourceAlpha" result="hardAlpha" type="matrix" values="0 0 0 0 0 0 0 0 0 0 0 0 0 0 0 0 0 0 127 0"/><feOffset dx=".37" dy=".37"/><feGaussianBlur stdDeviation=".74"/><feComposite in2="hardAlpha" k2="-1" k3="1" operator="arithmetic"/><feColorMatrix type="matrix" values="0 0 0 0 0.121569 0 0 0 0 0.121569 0 0 0 0 0.117647 0 0 0 0.05 0"/><feBlend in2="effect2_innerShadow_2483_15959" mode="normal" result="effect3_innerShadow_2483_15959"/></filter><filter id="d" width="8.996" height="9.367" x="20.099" y="10.83" color-interpolation-filters="sRGB" filterUnits="userSpaceOnUse"><feFlood flood-opacity="0" result="BackgroundImageFix"/><feColorMatrix in="SourceAlpha" result="hardAlpha" type="matrix" values="0 0 0 0 0 0 0 0 0 0 0 0 0 0 0 0 0 0 127 0"/><feOffset dx=".74" dy="1.109"/><feGaussianBlur stdDeviation=".394"/><feComposite in2="hardAlpha" operator="out"/><feColorMatrix type="matrix" values="0 0 0 0 0.394602 0 0 0 0 0.394602 0 0 0 0 0.394602 0 0 0 0.08 0"/><feBlend in2="BackgroundImageFix" mode="normal" result="effect1_dropShadow_2483_15959"/><feBlend in="SourceGraphic" in2="effect1_dropShadow_2483_15959" mode="normal" result="shape"/><feColorMatrix in="SourceAlpha" result="hardAlpha" type="matrix" values="0 0 0 0 0 0 0 0 0 0 0 0 0 0 0 0 0 0 127 0"/><feOffset dx=".394" dy=".394"/><feGaussianBlur stdDeviation=".394"/><feComposite in2="hardAlpha" k2="-1" k3="1" operator="arithmetic"/><feColorMatrix type="matrix" values="0 0 0 0 0.109684 0 0 0 0 0.0922738 0 0 0 0 0.0922738 0 0 0 0.1 0"/><feBlend in2="shape" mode="normal" result="effect2_innerShadow_2483_15959"/><feColorMatrix in="SourceAlpha" result="hardAlpha" type="matrix" values="0 0 0 0 0 0 0 0 0 0 0 0 0 0 0 0 0 0 127 0"/><feOffset dx="-.37" dy="-.37"/><feGaussianBlur stdDeviation=".394"/><feComposite in2="hardAlpha" k2="-1" k3="1" operator="arithmetic"/><feColorMatrix type="matrix" values="0 0 0 0 0 0 0 0 0 0 0 0 0 0 0 0 0 0 0.05 0"/><feBlend in2="effect2_innerShadow_2483_15959" mode="normal" result="effect3_innerShadow_2483_15959"/></filter><filter id="e" width="8.996" height="9.367" x="9.829" y="23.649" color-interpolation-filters="sRGB" filterUnits="userSpaceOnUse"><feFlood flood-opacity="0" result="BackgroundImageFix"/><feColorMatrix in="SourceAlpha" result="hardAlpha" type="matrix" values="0 0 0 0 0 0 0 0 0 0 0 0 0 0 0 0 0 0 127 0"/><feOffset dx=".74" dy="1.109"/><feGaussianBlur stdDeviation=".394"/><feComposite in2="hardAlpha" operator="out"/><feColorMatrix type="matrix" values="0 0 0 0 0.394602 0 0 0 0 0.394602 0 0 0 0 0.394602 0 0 0 0.08 0"/><feBlend in2="BackgroundImageFix" mode="normal" result="effect1_dropShadow_2483_15959"/><feBlend in="SourceGraphic" in2="effect1_dropShadow_2483_15959" mode="normal" result="shape"/><feColorMatrix in="SourceAlpha" result="hardAlpha" type="matrix" values="0 0 0 0 0 0 0 0 0 0 0 0 0 0 0 0 0 0 127 0"/><feOffset dx=".394" dy=".394"/><feGaussianBlur stdDeviation=".394"/><feComposite in2="hardAlpha" k2="-1" k3="1" operator="arithmetic"/><feColorMatrix type="matrix" values="0 0 0 0 0.109684 0 0 0 0 0.0922738 0 0 0 0 0.0922738 0 0 0 0.1 0"/><feBlend in2="shape" mode="normal" result="effect2_innerShadow_2483_15959"/><feColorMatrix in="SourceAlpha" result="hardAlpha" type="matrix" values="0 0 0 0 0 0 0 0 0 0 0 0 0 0 0 0 0 0 127 0"/><feOffset dx="-.37" dy="-.37"/><feGaussianBlur stdDeviation=".394"/><feComposite in2="hardAlpha" k2="-1" k3="1" operator="arithmetic"/><feColorMatrix type="matrix" values="0 0 0 0 0 0 0 0 0 0 0 0 0 0 0 0 0 0 0.05 0"/><feBlend in2="effect2_innerShadow_2483_15959" mode="normal" result="effect3_innerShadow_2483_15959"/></filter><filter id="f" width="8.996" height="9.367" x="30.736" y="23.649" color-interpolation-filters="sRGB" filterUnits="userSpaceOnUse"><feFlood flood-opacity="0" result="BackgroundImageFix"/><feColorMatrix in="SourceAlpha" result="hardAlpha" type="matrix" values="0 0 0 0 0 0 0 0 0 0 0 0 0 0 0 0 0 0 127 0"/><feOffset dx=".74" dy="1.109"/><feGaussianBlur stdDeviation=".394"/><feComposite in2="hardAlpha" operator="out"/><feColorMatrix type="matrix" values="0 0 0 0 0.394602 0 0 0 0 0.394602 0 0 0 0 0.394602 0 0 0 0.08 0"/><feBlend in2="BackgroundImageFix" mode="normal" result="effect1_dropShadow_2483_15959"/><feBlend in="SourceGraphic" in2="effect1_dropShadow_2483_15959" mode="normal" result="shape"/><feColorMatrix in="SourceAlpha" result="hardAlpha" type="matrix" values="0 0 0 0 0 0 0 0 0 0 0 0 0 0 0 0 0 0 127 0"/><feOffset dx=".394" dy=".394"/><feGaussianBlur stdDeviation=".394"/><feComposite in2="hardAlpha" k2="-1" k3="1" operator="arithmetic"/><feColorMatrix type="matrix" values="0 0 0 0 0.109684 0 0 0 0 0.0922738 0 0 0 0 0.0922738 0 0 0 0.1 0"/><feBlend in2="shape" mode="normal" result="effect2_innerShadow_2483_15959"/><feColorMatrix in="SourceAlpha" result="hardAlpha" type="matrix" values="0 0 0 0 0 0 0 0 0 0 0 0 0 0 0 0 0 0 127 0"/><feOffset dx="-.37" dy="-.37"/><feGaussianBlur stdDeviation=".394"/><feComposite in2="hardAlpha" k2="-1" k3="1" operator="arithmetic"/><feColorMatrix type="matrix" values="0 0 0 0 0 0 0 0 0 0 0 0 0 0 0 0 0 0 0.05 0"/><feBlend in2="effect2_innerShadow_2483_15959" mode="normal" result="effect3_innerShadow_2483_15959"/></filter></defs></svg>