<svg fill="none" viewBox="0 0 40 40"><path fill="#F5F5F5" d="M0 0h40v40H0z"/><path fill="white" d="M-47-81h793v822H-47z"/><path stroke="#0D131A" strokeWidth="2.473" d="M27.504 14.84H12.069c-2.271 0-4.65 1.476-4.65 4.648v10.489c0 3.128 1.65 4.649 4.65 4.649h15.435c3.087 0 4.649-2.31 4.649-4.65V19.489c0-3-1.934-4.648-4.65-4.648Z"/><path fill="#0D131A" d="M14.016 26.084a1.649 1.649 0 1 0 0-3.298 1.649 1.649 0 0 0 0 3.298M25.557 26.084a1.649 1.649 0 1 0 0-3.298 1.649 1.649 0 0 0 0 3.298"/><path stroke="#0D131A" strokeLinecap="round" strokeLinejoin="round" strokeWidth="2.473" d="M19.786 8.244v6.596M3.298 21.435v6.595M36.275 21.435v6.595"/><path stroke="#0D131A" strokeWidth="2.473" d="M19.786 8.244a1.649 1.649 0 1 0 0-3.297 1.649 1.649 0 0 0 0 3.297Z"/></svg>