<svg fill="none" viewBox="0 0 49 73"><path fill="#DADADA" d="M0 0h49v73H0z"/><path fill="white" d="M843 91H-597V-18H843z"/><path fill="black" d="M6.436 61.556v1.188h1.956v-4.5h.804v4.5h1.944v-1.188H9.88v-.72h1.26v-1.308H9.82v-.744h2.1v4.704H9.196v1.056h2.688v.732c-.432.876-1.152 1.62-2.136 2.244q1.188.54 2.772.864l-.312.804c-1.308-.276-2.424-.672-3.348-1.176-1.008.48-2.208.888-3.612 1.2l-.432-.768c1.248-.24 2.328-.552 3.228-.936-.864-.612-1.512-1.344-1.968-2.184h-.504v-.78h2.82v-1.056H5.644v-4.332a7 7 0 0 0 1.788-.756l.492.636c-.408.216-.912.432-1.488.648v1.152h1.308v.72zm.528 3.768q.702 1.026 1.944 1.764c.9-.504 1.584-1.092 2.04-1.764zM2.98 69.092H1.852l-.18-.816c.36.036.696.06 1.008.06.288 0 .444-.168.444-.492v-2.916c-.456.168-.9.324-1.356.468l-.192-.816c.528-.144 1.044-.3 1.548-.492v-2.76H1.792V60.5h1.332v-2.244h.84V60.5H5.08v.828H3.964v2.424c.408-.18.816-.384 1.212-.6v.84c-.396.204-.804.396-1.212.588v3.48c0 .684-.336 1.032-.984 1.032m11.532-9.948h4.044v-.948h.888v.948h4.044v.792h-4.044v1.044h4.536v2.196h-.84v-1.44h-4.584l.66.324a15 15 0 0 1-2.244 1.488c1.104-.024 2.004-.048 2.676-.096.42-.288.852-.588 1.284-.9l.696.468a17 17 0 0 1-4.56 2.436c1.56-.048 3.108-.132 4.668-.24-.264-.288-.54-.564-.828-.852l.624-.396c.876.852 1.548 1.596 2.016 2.244l-.648.468a10 10 0 0 0-.648-.864c-.972.06-1.884.12-2.748.168v2.292c0 .6-.336.912-.984.912h-1.092l-.18-.804a9 9 0 0 0 .984.06c.264 0 .408-.132.408-.372V66.02c-1.32.06-2.532.108-3.636.132l-.168-.78c.252.012.504.024.744.024.984-.276 1.992-.708 3.048-1.308-.816.024-1.74.06-2.784.084l-.168-.66c.18-.036.36-.108.54-.204.78-.444 1.524-.972 2.22-1.572H14.86v1.428h-.84V60.98h4.536v-1.044h-4.044zm6.264 7.476a17.5 17.5 0 0 1 3.396 1.656l-.444.696a16.6 16.6 0 0 0-3.384-1.716zm-3.78-.024.504.564c-.9.72-2.028 1.308-3.384 1.776l-.36-.768c1.308-.396 2.388-.924 3.24-1.572m13.356-7.68v7.308c.276-.084.54-.168.804-.252v.816q-2.34.756-5.436 1.404l-.24-.84c.288-.06.576-.12.864-.168v-8.268zm-3.156 8.088a61 61 0 0 0 2.316-.552v-1.656h-2.316zm0-2.988h2.316v-1.812h-2.316zm0-2.604h2.316v-1.704h-2.316zm5.34-3.156h.864v2.4h2.652c0 3.744-.06 6.048-.18 6.936-.12.984-.72 1.488-1.8 1.488q-.288 0-1.008-.036l-.204-.768c.42.024.78.048 1.092.048.636 0 1.008-.36 1.104-1.056.072-.624.12-2.556.144-5.772h-1.8v.168c-.036 3.456-.888 5.988-2.556 7.584l-.648-.564q2.304-2.178 2.34-7.02v-.168h-1.488v-.84h1.488zm14.496.048.42.732a24.5 24.5 0 0 1-3.792.66v2.028h3.828v.84H43.66v1.968h4.728v.828H43.66v2.652c0 .72-.384 1.092-1.128 1.092h-1.86l-.192-.84c.612.024 1.2.048 1.752.048.36 0 .552-.18.552-.516V65.36h-5.16v-.828h5.16v-1.968H38.62v-.84h4.164v-1.956a55 55 0 0 1-4.14.156l-.264-.78c3.48 0 6.36-.288 8.652-.84"/><path fill="url(#a)" d="M.5 10c0-5.523 4.477-10 10-10h28c5.523 0 10 4.477 10 10v28c0 5.523-4.477 10-10 10h-28c-5.523 0-10-4.477-10-10z"/><path fill="url(#b)" d="m32.861 33.943-2.739-2.8a6.54 6.54 0 0 0 1.058-3.575c0-3.614-2.912-6.544-6.504-6.544s-6.504 2.93-6.504 6.544 2.912 6.543 6.504 6.543a6.46 6.46 0 0 0 3.396-.961l2.75 2.81c.28.288.649.43 1.02.43a1.4 1.4 0 0 0 1.003-.413c.563-.559.571-1.47.016-2.037zm-8.185-1.486c-2.679 0-4.857-2.192-4.857-4.886s2.178-4.887 4.857-4.887 4.857 2.192 4.857 4.887-2.178 4.886-4.857 4.886" opacity=".8"/><path fill="url(#c)" d="M20.688 27.647c0-2.216 1.671-4.106 3.84-4.106a.662.662 0 1 1 0 1.325c-1.34 0-2.516 1.195-2.516 2.781a.662.662 0 0 1-1.325 0" opacity=".8"/><path fill="url(#d)" stroke="url(#e)" stroke-width=".4" d="M39.876 24.802c0 1.276-.356 2.512-1.124 3.545-.925 1.236-2.35 2.096-3.834 2.473-.78.196-1.544.18-2.34.18a.583.583 0 0 1-.537-.8c.853-2.261.593-4.998-.772-7.023-2.833-4.705-10.315-4.697-13.148 0-1.364 2.017-1.62 4.766-.772 7.022a.583.583 0 0 1-.536.8h-1.577c-6.351.066-7.83-8.65-2.395-10.9.44-.181.743-.609.804-1.082.336-2.612 3.093-4.42 5.656-3.855.494.109 1.031-.057 1.344-.455 3.783-4.816 12.635-2.874 13.822 3.206.088.452.43.822.873.95 2.624.755 4.536 3.128 4.536 5.939Z"/><defs><linearGradient id="a" x1="24.5" x2="24.5" y1="0" y2="48" gradientUnits="userSpaceOnUse"><stop stop-color="#FCA681"/><stop offset="1" stop-color="#FD6865"/></linearGradient><linearGradient id="b" x1="25.722" x2="25.722" y1="21.024" y2="36.39" gradientUnits="userSpaceOnUse"><stop stop-color="white"/><stop offset="1" stop-color="#FFE9B9"/></linearGradient><linearGradient id="c" x1="22.939" x2="22.939" y1="23.541" y2="28.31" gradientUnits="userSpaceOnUse"><stop stop-color="white"/><stop offset="1" stop-color="#FFE9B9"/></linearGradient><linearGradient id="d" x1="24.688" x2="24.688" y1="12" y2="31" gradientUnits="userSpaceOnUse"><stop offset=".238" stop-color="#FFEFEF"/><stop offset="1" stop-color="#FFC4B5"/></linearGradient><linearGradient id="e" x1="24.688" x2="24.688" y1="12" y2="31" gradientUnits="userSpaceOnUse"><stop offset=".096" stop-color="white"/><stop offset="1" stop-color="#FF7A56"/></linearGradient></defs></svg>