<svg width="58" height="63" viewBox="0 0 58 63" fill="none" xmlns="http://www.w3.org/2000/svg">
<path opacity="0.7" d="M6.18 0H46.82C50.23 0 53 2.7642 53 6.16707V55.8329C53 59.2358 50.23 62 46.82 62H6.18C2.77 62 0 59.2358 0 55.8329V6.16707C0 2.7642 2.77 0 6.18 0Z" fill="url(#paint0_linear_1_862)" fill-opacity="0.6"/>
<path d="M51.6362 9H16.3638C13.4042 9 11 11.3629 11 14.2718V56.7281C11 59.6371 13.4042 62 16.3638 62H51.6362C54.5958 62 57 59.6371 57 56.7281V14.2718C57 11.3629 54.5958 9 51.6362 9Z" fill="url(#paint1_linear_1_862)" stroke="url(#paint2_linear_1_862)"/>
<rect x="21" y="18" width="23" height="4" rx="2" fill="#61BDFA"/>
<rect x="21" y="26" width="20" height="4" rx="2" fill="#61BDFA"/>
<rect x="21" y="34" width="15" height="4" rx="2" fill="#61BDFA"/>
<defs>
<linearGradient id="paint0_linear_1_862" x1="26.5" y1="0" x2="26.5" y2="62" gradientUnits="userSpaceOnUse">
<stop stop-color="#EBF9FF"/>
<stop offset="1" stop-color="#91E0FF"/>
</linearGradient>
<linearGradient id="paint1_linear_1_862" x1="35.2891" y1="9" x2="35.2891" y2="62" gradientUnits="userSpaceOnUse">
<stop stop-color="#D2F2FF"/>
<stop offset="1" stop-color="#95D1FF"/>
</linearGradient>
<linearGradient id="paint2_linear_1_862" x1="35.2891" y1="9" x2="35.2891" y2="62" gradientUnits="userSpaceOnUse">
<stop stop-color="white"/>
<stop offset="1" stop-color="#7FD6FF"/>
</linearGradient>
</defs>
</svg>
