<svg fill="none" viewBox="0 0 48 75"><path fill="#DADADA" d="M0 0h48v75H0z"/><path fill="white" d="M744 93H-696V-16H744z"/><path fill="black" d="M5.8 64.768q-.024 1.248-.072 2.04a24 24 0 0 1-.132 1.632q-.06.588-.18.876a.84.84 0 0 1-.336.432q-.228.132-.684.192a6 6 0 0 1-1.188.036l-.18-.852q.648.048 1.032.036.312-.024.444-.072a.33.33 0 0 0 .18-.204q.06-.144.096-.504.06-.54.096-1.284t.048-1.536h-2.58v-.792zM.604 70.912q.768-1.236 1.044-2.424.3-1.176.3-3.228v-3.108h9.432v.804H2.8v2.352q0 2.064-.312 3.384-.288 1.32-1.068 2.652zm4.74-.708q1.98-1.404 2.976-2.88.48-.744.888-1.644.42-.9.744-1.896l.804.276a20 20 0 0 1-.84 2.052q-.432.924-.936 1.704Q7.9 69.46 5.908 70.9zm3.528-10.056q.3.24.78.696.336.3.696.708l-.588.576-.384-.42q-.108-.108-.324-.348l-.732-.696zm-1.476.036q.012.192.192 2.568.216 2.448.624 4.116t1.068 2.664q.168.24.3.384a.9.9 0 0 0 .264.18q.12.06.228.048a.49.49 0 0 0 .324-.204q.12-.168.252-.576a10 10 0 0 0 .156-.576 21 21 0 0 0 .132-.612l.78.324a10 10 0 0 1-.192.744 10 10 0 0 1-.24.684 6 6 0 0 1-.228.432q-.108.216-.216.348-.324.432-.792.42a1.3 1.3 0 0 1-.78-.288q-.336-.276-.792-.972-.648-1.068-1.08-2.856-.42-1.788-.672-4.392-.108-1.332-.18-2.424zm6.712 4.524h7.944v4.068h-.876v-3.252h-6.192v3.324h-.876zm.384-3.936h7.2v2.976h-7.2zm.9.78v1.416h5.376v-1.416zm2.808 6.684q.492.168 1.128.42.648.252 1.38.588 1.632.732 2.424 1.224l-.432.852a23 23 0 0 0-2.4-1.296q-1.596-.708-2.484-.996zm-5.316 2.256q2.448-.492 3.432-1.152 1.044-.672 1.224-1.8.108-.588.144-1.356h.9l-.048.54q-.024.264-.06.54-.048.36-.12.72-.24 1.236-1.596 2.088-1.272.768-3.552 1.26zm13.36-5.388h7.272v2.376h-6.684v-.696h5.82v-.972H27.12v4.524h5.856v-1.248h-6.192v-.696h7.056v2.64h-7.596zm3.684-2.496q.156.192.408.612.24.348.336.528L29.88 64q-.036-.108-.348-.588-.036-.06-.324-.468zm-4.824.936h9.624v1.716h-.864v-1.008h-7.908v1.008h-.852zm2.64-1.848q.192.24.492.648.276.384.36.528l-.66.396a17 17 0 0 0-.456-.696q-.228-.36-.48-.708zm4.824.012q.276.288.924 1.152l-.636.42q-.372-.564-1.032-1.392zm-2.796.708q.432-.588.72-1.104t.54-1.164l.828.24a23 23 0 0 1-.66 1.368 7.5 7.5 0 0 1-.684 1.056zm-5.28.54q.6-.576 1.116-1.32.528-.744.888-1.512l.84.276q-.504.984-1.068 1.752-.504.684-1.08 1.296zm1.332-1.008.336-.744h3.828v.744zm4.824 0 .348-.744h4.032v.744zm10.468 1.308h4.836v.78h-4.836zm-.456-2.328h5.736V66.4H40.66zm.84.792v3.864h4.068V61.72zm1.62-.372h.816v9.192h-.816zm-2.688 6.444h6.24v.816h-6.24zM39.712 70h7.428v.816h-7.428zm-1.74-8.148h.816v7.596h-.816zm-1.644 7.668q.9-.132 1.944-.396.948-.216 1.932-.528l.108.852q-.972.312-1.932.492-.324.06-.66.144-.564.108-1.248.228zm.156-8.208h3.768v.816h-3.768zm.096 3.612h3.588v.816H36.58z"/><path fill="url(#a)" d="M0 10C0 4.477 4.477 0 10 0h28c5.523 0 10 4.477 10 10v29c0 5.523-4.477 10-10 10H10C4.477 49 0 44.523 0 39z"/><path fill="url(#b)" stroke="url(#c)" stroke-width=".4" d="M23.688 23.5A4.75 4.75 0 1 0 23.687 14a4.75 4.75 0 0 0 0 9.501Z"/><path fill="url(#d)" d="M13.523 23.5a3.304 3.304 0 1 0 0-6.608 3.304 3.304 0 1 0 0 6.609" opacity=".8"/><path fill="url(#e)" d="M33.848 23.5a3.304 3.304 0 1 1 0-6.608 3.304 3.304 0 1 1 0 6.609" opacity=".8"/><path fill="url(#f)" stroke="url(#g)" stroke-width=".4" d="M31.647 30.233s0 .017.004.03c.211 1.11.145 3.283-1.52 3.283h-12.95c-1.362 0-1.552-1.43-1.548-2.392s.178-1.718.71-2.544a7.3 7.3 0 0 1 1.735-1.85c1.463-1.116 3.313-1.731 5.188-1.81q.21-.007.422-.008c3.453 0 7.294 1.884 7.963 5.291z"/><path fill="url(#h)" d="M14.956 27.714c.549-.851 1.3-1.615 2.16-2.272.025-.021.05-.033.074-.054-1.107-.566-2.437-.86-3.668-.86-.115 0-.227 0-.342.01-1.52.065-3.02.565-4.201 1.465A6 6 0 0 0 7.574 27.5c-.43.669-.57 1.28-.574 2.06-.004.782.153 1.938 1.256 1.938h5.733q-.007-.173-.008-.35c.008-1.356.301-2.384.975-3.433" opacity=".8"/><path fill="url(#i)" d="m40.299 28.837-.004-.025c-.541-2.759-3.656-4.283-6.448-4.283-.116 0-.227 0-.343.008-1.124.05-2.33.335-3.309.843 1.475 1.09 2.685 2.598 3.07 4.51l.016.079c.041.219.132.814.103 1.528h5.688c1.35 0 1.404-1.76 1.231-2.66z" opacity=".8"/><defs><linearGradient id="a" x1="24" x2="24" y1="2.054" y2="48.779" gradientUnits="userSpaceOnUse"><stop stop-color="#7E73F4"/><stop offset="1" stop-color="#44C5F5"/></linearGradient><linearGradient id="b" x1="23.688" x2="23.688" y1="14" y2="23.5" gradientUnits="userSpaceOnUse"><stop offset=".127" stop-color="white"/><stop offset="1" stop-color="#BAC9FF" stop-opacity=".6"/></linearGradient><linearGradient id="c" x1="23.688" x2="23.688" y1="14" y2="23.5" gradientUnits="userSpaceOnUse"><stop offset=".197" stop-color="white"/><stop offset="1" stop-color="#859FFF"/></linearGradient><linearGradient id="d" x1="13.386" x2="13.386" y1="16.892" y2="23.501" gradientUnits="userSpaceOnUse"><stop stop-color="white"/><stop offset="1" stop-color="#D0DAFF"/></linearGradient><linearGradient id="e" x1="33.71" x2="33.71" y1="16.892" y2="23.501" gradientUnits="userSpaceOnUse"><stop stop-color="white"/><stop offset="1" stop-color="#D0DAFF"/></linearGradient><linearGradient id="f" x1="23.685" x2="23.685" y1="24.942" y2="33.546" gradientUnits="userSpaceOnUse"><stop offset=".127" stop-color="white"/><stop offset="1" stop-color="#BAC9FF" stop-opacity=".6"/></linearGradient><linearGradient id="g" x1="23.685" x2="23.685" y1="24.942" y2="33.546" gradientUnits="userSpaceOnUse"><stop offset=".197" stop-color="white"/><stop offset="1" stop-color="#859FFF"/></linearGradient><linearGradient id="h" x1="11.883" x2="11.883" y1="24.529" y2="31.497" gradientUnits="userSpaceOnUse"><stop stop-color="white"/><stop offset="1" stop-color="#D0DAFF"/></linearGradient><linearGradient id="i" x1="35.072" x2="35.072" y1="24.529" y2="31.497" gradientUnits="userSpaceOnUse"><stop stop-color="white"/><stop offset="1" stop-color="#D0DAFF"/></linearGradient></defs></svg>