<svg viewBox="0 0 58 63" fill="currentColor"><path fill="currentColor" fillOpacity=".6" d="M6.18 0h40.64C50.23 0 53 2.764 53 6.167v49.666C53 59.236 50.23 62 46.82 62H6.18C2.77 62 0 59.236 0 55.833V6.167C0 2.764 2.77 0 6.18 0" opacity=".7"/><path fill="currentColor" stroke="currentColor" d="M51.636 9H16.364C13.404 9 11 11.363 11 14.272v42.456C11 59.638 13.404 62 16.364 62h35.272C54.596 62 57 59.637 57 56.728V14.272C57 11.362 54.596 9 51.636 9Z"/><rect width="23" height="4" x="21" y="18" fill="currentColor" rx="2"/><rect width="20" height="4" x="21" y="26" fill="currentColor" rx="2"/><rect width="15" height="4" x="21" y="34" fill="currentColor" rx="2"/><defs><linearGradient id="a" x1="26.5" x2="26.5" y1="0" y2="62" gradientUnits="userSpaceOnUse"><stop stopColor="currentColor"/><stop offset="1" stopColor="currentColor"/></linearGradient><linearGradient id="b" x1="35.289" x2="35.289" y1="9" y2="62" gradientUnits="userSpaceOnUse"><stop stopColor="currentColor"/><stop offset="1" stopColor="currentColor"/></linearGradient><linearGradient id="c" x1="35.289" x2="35.289" y1="9" y2="62" gradientUnits="userSpaceOnUse"><stop stopColor="currentColor"/><stop offset="1" stopColor="currentColor"/></linearGradient></defs></svg>