<svg width="49" height="75" viewBox="0 0 49 75" fill="none" xmlns="http://www.w3.org/2000/svg"><rect width="49" height="75" fill="#DADADA"/><mask id="path-2-inside-1_2483_15959" fill="white"><path d="M746.199 92.2002L-693.801 92.2001L-693.801 -16.7999L746.199 -16.7998L746.199 92.2002Z"/></mask><path d="M746.199 92.2002L-693.801 92.2001L-693.801 -16.7999L746.199 -16.7998L746.199 92.2002Z" fill="white"/><path d="M5.99934 62.9682C5.98334 63.8002 5.95934 64.4802 5.92734 65.0082C5.90334 65.5362 5.85934 66.0802 5.79534 66.6402C5.75534 67.0322 5.69534 67.3242 5.61534 67.5162C5.54334 67.7082 5.43134 67.8522 5.27934 67.9482C5.12734 68.0362 4.89934 68.1002 4.59534 68.1402C4.41934 68.1642 4.21534 68.1802 3.98334 68.1882C3.75134 68.1962 3.55934 68.1922 3.40734 68.1762L3.22734 67.3242C3.65934 67.3562 4.00334 67.3682 4.25934 67.3602C4.46734 67.3442 4.61534 67.3202 4.70334 67.2882C4.79134 67.2482 4.85134 67.1802 4.88334 67.0842C4.92334 66.9882 4.95534 66.8202 4.97934 66.5802C5.01934 66.2202 5.05134 65.7922 5.07534 65.2962C5.09934 64.8002 5.11534 64.2882 5.12334 63.7602H2.54334V62.9682H5.99934ZM0.803344 69.1122C1.31534 68.2882 1.66334 67.4802 1.84734 66.6882C2.04734 65.9042 2.14734 64.8282 2.14734 63.4602V60.3522H11.5793V61.1562H2.99934V63.5082C2.99934 64.8842 2.89534 66.0122 2.68734 66.8922C2.49534 67.7722 2.13934 68.6562 1.61934 69.5442L0.803344 69.1122ZM5.54334 68.4042C6.86334 67.4682 7.85534 66.5082 8.51934 65.5242C8.83934 65.0282 9.13534 64.4802 9.40734 63.8802C9.68734 63.2802 9.93534 62.6482 10.1513 61.9842L10.9553 62.2602C10.6913 63.0122 10.4113 63.6962 10.1153 64.3122C9.82734 64.9282 9.51534 65.4962 9.17934 66.0162C8.45934 67.1122 7.43534 68.1402 6.10734 69.1002L5.54334 68.4042ZM9.07134 58.3482C9.27134 58.5082 9.53134 58.7402 9.85134 59.0442C10.0753 59.2442 10.3073 59.4802 10.5473 59.7522L9.95934 60.3282C9.79934 60.1522 9.67134 60.0122 9.57534 59.9082C9.50334 59.8362 9.39534 59.7202 9.25134 59.5602C8.93934 59.2642 8.69534 59.0322 8.51934 58.8642L9.07134 58.3482ZM7.59534 58.3842C7.60334 58.5122 7.66734 59.3682 7.78734 60.9522C7.93134 62.5842 8.13934 63.9562 8.41134 65.0682C8.68334 66.1802 9.03934 67.0682 9.47934 67.7322C9.59134 67.8922 9.69134 68.0202 9.77934 68.1162C9.87534 68.2042 9.96334 68.2642 10.0433 68.2962C10.1233 68.3362 10.1993 68.3522 10.2713 68.3442C10.4073 68.3202 10.5153 68.2522 10.5953 68.1402C10.6753 68.0282 10.7593 67.8362 10.8473 67.5642C10.9033 67.3802 10.9553 67.1882 11.0033 66.9882C11.0513 66.7802 11.0953 66.5762 11.1353 66.3762L11.9153 66.7002C11.8513 66.9882 11.7873 67.2362 11.7233 67.4442C11.6593 67.6522 11.5793 67.8802 11.4833 68.1282C11.4113 68.2802 11.3353 68.4242 11.2553 68.5602C11.1833 68.7042 11.1113 68.8202 11.0393 68.9082C10.8233 69.1962 10.5593 69.3362 10.2473 69.3282C9.95934 69.3202 9.69934 69.2242 9.46734 69.0402C9.24334 68.8562 8.97934 68.5322 8.67534 68.0682C8.24334 67.3562 7.88334 66.4042 7.59534 65.2122C7.31534 64.0202 7.09134 62.5562 6.92334 60.8202C6.85134 59.9322 6.79134 59.1242 6.74334 58.3962L7.59534 58.3842ZM14.3073 62.9082H22.2513V66.9762H21.3753V63.7242H15.1833V67.0482H14.3073V62.9082ZM14.6913 58.9722H21.8913V61.9482H14.6913V58.9722ZM15.5913 59.7522V61.1682H20.9673V59.7522H15.5913ZM18.3993 66.4362C18.7273 66.5482 19.1033 66.6882 19.5273 66.8562C19.9593 67.0242 20.4193 67.2202 20.9073 67.4442C21.9953 67.9322 22.8033 68.3402 23.3313 68.6682L22.8993 69.5202C22.2113 69.0882 21.4113 68.6562 20.4993 68.2242C19.4353 67.7522 18.6073 67.4202 18.0153 67.2282L18.3993 66.4362ZM13.0833 68.6922C14.7153 68.3642 15.8593 67.9802 16.5153 67.5402C17.2113 67.0922 17.6193 66.4922 17.7393 65.7402C17.8113 65.3482 17.8593 64.8962 17.8833 64.3842H18.7833C18.7673 64.5602 18.7513 64.7402 18.7353 64.9242C18.7193 65.1002 18.6993 65.2802 18.6753 65.4642C18.6433 65.7042 18.6033 65.9442 18.5553 66.1842C18.3953 67.0082 17.8633 67.7042 16.9593 68.2722C16.1113 68.7842 14.9273 69.2042 13.4073 69.5322L13.0833 68.6922ZM26.4432 63.3042H33.7152V65.6802H27.0312V64.9842H32.8512V64.0122H27.3192V68.5362H33.1752V67.2882H26.9832V66.5922H34.0392V69.2322H26.4432V63.3042ZM30.1272 60.8082C30.2312 60.9362 30.3672 61.1402 30.5352 61.4202C30.6952 61.6522 30.8072 61.8282 30.8712 61.9482L30.0792 62.2002C30.0552 62.1282 29.9392 61.9322 29.7312 61.6122C29.7072 61.5722 29.5992 61.4162 29.4072 61.1442L30.1272 60.8082ZM25.3032 61.7442H34.9272V63.4602H34.0632V62.4522H26.1552V63.4602H25.3032V61.7442ZM27.9432 59.8962C28.0712 60.0562 28.2352 60.2722 28.4352 60.5442C28.6192 60.8002 28.7392 60.9762 28.7952 61.0722L28.1352 61.4682C27.9912 61.2362 27.8392 61.0042 27.6792 60.7722C27.5272 60.5322 27.3672 60.2962 27.1992 60.0642L27.9432 59.8962ZM32.7672 59.9082C32.9512 60.1002 33.2592 60.4842 33.6912 61.0602L33.0552 61.4802C32.8072 61.1042 32.4632 60.6402 32.0232 60.0882L32.7672 59.9082ZM29.9712 60.6162C30.2592 60.2242 30.4992 59.8562 30.6912 59.5122C30.8832 59.1682 31.0632 58.7802 31.2312 58.3482L32.0592 58.5882C31.8032 59.1562 31.5832 59.6122 31.3992 59.9562C31.2232 60.2922 30.9952 60.6442 30.7152 61.0122L29.9712 60.6162ZM24.6912 61.1562C25.0912 60.7722 25.4632 60.3322 25.8072 59.8362C26.1592 59.3402 26.4552 58.8362 26.6952 58.3242L27.5352 58.6002C27.1992 59.2562 26.8432 59.8402 26.4672 60.3522C26.1312 60.8082 25.7712 61.2402 25.3872 61.6482L24.6912 61.1562ZM26.0232 60.1482L26.3592 59.4042H30.1872V60.1482H26.0232ZM30.8472 60.1482L31.1952 59.4042H35.2272V60.1482H30.8472ZM41.3152 61.4562H46.1512V62.2362H41.3152V61.4562ZM40.8592 59.1282H46.5952V64.6002H40.8592V59.1282ZM41.6992 59.9202V63.7842H45.7672V59.9202H41.6992ZM43.3192 59.5482H44.1352V68.7402H43.3192V59.5482ZM40.6312 65.9922H46.8712V66.8082H40.6312V65.9922ZM39.9112 68.2002H47.3392V69.0162H39.9112V68.2002ZM38.1712 60.0522H38.9872V67.6482H38.1712V60.0522ZM36.5272 67.7202C37.1272 67.6322 37.7752 67.5002 38.4712 67.3242C39.1032 67.1802 39.7472 67.0042 40.4032 66.7962L40.5112 67.6482C39.8632 67.8562 39.2192 68.0202 38.5792 68.1402C38.3632 68.1802 38.1432 68.2282 37.9192 68.2842C37.5432 68.3562 37.1272 68.4322 36.6712 68.5122L36.5272 67.7202ZM36.6832 59.5122H40.4512V60.3282H36.6832V59.5122ZM36.7792 63.1242H40.3672V63.9402H36.7792V63.1242Z" fill="black"/><rect x="0.0992187" y="0.100195" width="48.2" height="49.2" rx="10.1" fill="#F6F6F6"/><rect x="0.0992187" y="0.100195" width="48.2" height="49.2" rx="10.1" stroke="#D4D4D8" stroke-width="0.2"/><g filter="url(#filter0_dii_2483_15959)"><path d="M23.8869 23.7006C26.5099 23.7006 28.6371 21.5734 28.6371 18.9504C28.6371 16.3275 26.5099 14.2002 23.8869 14.2002C21.264 14.2002 19.1367 16.3275 19.1367 18.9504C19.1367 21.5734 21.264 23.7006 23.8869 23.7006Z" fill="#919191"/></g><g filter="url(#filter1_iii_2483_15959)"><path d="M13.7225 23.7008C15.5482 23.7008 17.027 22.222 17.027 20.3963C17.027 18.5706 15.5482 17.0918 13.7225 17.0918C11.8967 17.0918 10.418 18.5706 10.418 20.3963C10.418 22.222 11.8967 23.7008 13.7225 23.7008Z" fill="#D9D9D9"/></g><g filter="url(#filter2_iii_2483_15959)"><path d="M34.0467 23.7008C32.221 23.7008 30.7422 22.222 30.7422 20.3963C30.7422 18.5706 32.221 17.0918 34.0467 17.0918C35.8724 17.0918 37.3512 18.5706 37.3512 20.3963C37.3512 22.222 35.8724 23.7008 34.0467 23.7008Z" fill="#D9D9D9"/></g><g filter="url(#filter3_dii_2483_15959)"><path d="M31.8484 30.4334C31.8474 30.4334 31.8465 30.4342 31.8465 30.4353C31.8467 30.4399 31.8474 30.4524 31.8506 30.4623C32.0613 31.5735 31.9952 33.7462 30.3306 33.7462H17.3811C16.018 33.7462 15.828 32.317 15.8321 31.3545C15.8362 30.3921 16.0097 29.6362 16.5426 28.8101C16.9969 28.1037 17.5917 27.48 18.2774 26.9596C19.7397 25.8443 21.5902 25.2288 23.4655 25.1504C23.6059 25.1462 23.7464 25.1421 23.8868 25.1421C27.3393 25.1421 31.1798 27.0248 31.8502 30.4312C31.8504 30.4323 31.8496 30.4334 31.8484 30.4334Z" fill="#919191"/></g><g filter="url(#filter4_iii_2483_15959)"><path d="M15.1549 27.9137C15.7042 27.0628 16.456 26.2986 17.3152 25.6419C17.34 25.6212 17.3648 25.6088 17.3895 25.5882C16.2825 25.0223 14.9525 24.729 13.7215 24.729C13.6059 24.729 13.4944 24.729 13.3787 24.7373C11.8586 24.8034 10.3592 25.3032 9.17786 26.2036C8.62436 26.625 8.14108 27.1289 7.77345 27.6989C7.34387 28.3681 7.20343 28.9794 7.1993 29.7601C7.19517 30.5408 7.35213 31.6974 8.45501 31.6974H14.1883C14.1842 31.5817 14.18 31.466 14.18 31.3463C14.1883 29.9914 14.4816 28.9629 15.1549 27.9137Z" fill="#D9D9D9"/></g><g filter="url(#filter5_iii_2483_15959)"><path d="M40.498 29.0372L40.4939 29.0125C39.9528 26.2532 36.8383 24.729 34.046 24.729C33.9303 24.729 33.8188 24.729 33.7032 24.7373C32.5796 24.7868 31.3735 25.0718 30.3945 25.5799C31.8692 26.6704 33.0794 28.1781 33.4636 30.0906L33.4801 30.169C33.5214 30.388 33.6123 30.9828 33.5834 31.6974H39.2712C40.622 31.6974 40.6756 29.9377 40.5022 29.0372H40.498Z" fill="#D9D9D9"/></g><defs><filter id="filter0_dii_2483_15959" x="18.668" y="13.7314" width="11.9062" height="12.3755" filterUnits="userSpaceOnUse" color-interpolation-filters="sRGB"><feFlood flood-opacity="0" result="BackgroundImageFix"/><feColorMatrix in="SourceAlpha" type="matrix" values="0 0 0 0 0 0 0 0 0 0 0 0 0 0 0 0 0 0 127 0" result="hardAlpha"/><feOffset dx="0.9375" dy="1.40625"/><feGaussianBlur stdDeviation="0.5"/><feComposite in2="hardAlpha" operator="out"/><feColorMatrix type="matrix" values="0 0 0 0 0.394602 0 0 0 0 0.394602 0 0 0 0 0.394602 0 0 0 0.08 0"/><feBlend mode="normal" in2="BackgroundImageFix" result="effect1_dropShadow_2483_15959"/><feBlend mode="normal" in="SourceGraphic" in2="effect1_dropShadow_2483_15959" result="shape"/><feColorMatrix in="SourceAlpha" type="matrix" values="0 0 0 0 0 0 0 0 0 0 0 0 0 0 0 0 0 0 127 0" result="hardAlpha"/><feOffset dx="0.5" dy="0.5"/><feGaussianBlur stdDeviation="0.5"/><feComposite in2="hardAlpha" operator="arithmetic" k2="-1" k3="1"/><feColorMatrix type="matrix" values="0 0 0 0 0.109684 0 0 0 0 0.0922738 0 0 0 0 0.0922738 0 0 0 0.1 0"/><feBlend mode="normal" in2="shape" result="effect2_innerShadow_2483_15959"/><feColorMatrix in="SourceAlpha" type="matrix" values="0 0 0 0 0 0 0 0 0 0 0 0 0 0 0 0 0 0 127 0" result="hardAlpha"/><feOffset dx="-0.46875" dy="-0.46875"/><feGaussianBlur stdDeviation="0.5"/><feComposite in2="hardAlpha" operator="arithmetic" k2="-1" k3="1"/><feColorMatrix type="matrix" values="0 0 0 0 0 0 0 0 0 0 0 0 0 0 0 0 0 0 0.05 0"/><feBlend mode="normal" in2="effect2_innerShadow_2483_15959" result="effect3_innerShadow_2483_15959"/></filter><filter id="filter1_iii_2483_15959" x="9.94922" y="16.623" width="7.54688" height="7.54639" filterUnits="userSpaceOnUse" color-interpolation-filters="sRGB"><feFlood flood-opacity="0" result="BackgroundImageFix"/><feBlend mode="normal" in="SourceGraphic" in2="BackgroundImageFix" result="shape"/><feColorMatrix in="SourceAlpha" type="matrix" values="0 0 0 0 0 0 0 0 0 0 0 0 0 0 0 0 0 0 127 0" result="hardAlpha"/><feOffset dx="0.46875" dy="0.46875"/><feGaussianBlur stdDeviation="0.703125"/><feComposite in2="hardAlpha" operator="arithmetic" k2="-1" k3="1"/><feColorMatrix type="matrix" values="0 0 0 0 0.121569 0 0 0 0 0.121569 0 0 0 0 0.117647 0 0 0 0.05 0"/><feBlend mode="normal" in2="shape" result="effect1_innerShadow_2483_15959"/><feColorMatrix in="SourceAlpha" type="matrix" values="0 0 0 0 0 0 0 0 0 0 0 0 0 0 0 0 0 0 127 0" result="hardAlpha"/><feOffset dx="-0.46875" dy="-0.46875"/><feGaussianBlur stdDeviation="0.703125"/><feComposite in2="hardAlpha" operator="arithmetic" k2="-1" k3="1"/><feColorMatrix type="matrix" values="0 0 0 0 0.121569 0 0 0 0 0.121569 0 0 0 0 0.117647 0 0 0 0.05 0"/><feBlend mode="normal" in2="effect1_innerShadow_2483_15959" result="effect2_innerShadow_2483_15959"/><feColorMatrix in="SourceAlpha" type="matrix" values="0 0 0 0 0 0 0 0 0 0 0 0 0 0 0 0 0 0 127 0" result="hardAlpha"/><feOffset dx="0.46875" dy="0.46875"/><feGaussianBlur stdDeviation="0.9375"/><feComposite in2="hardAlpha" operator="arithmetic" k2="-1" k3="1"/><feColorMatrix type="matrix" values="0 0 0 0 0.121569 0 0 0 0 0.121569 0 0 0 0 0.117647 0 0 0 0.05 0"/><feBlend mode="normal" in2="effect2_innerShadow_2483_15959" result="effect3_innerShadow_2483_15959"/></filter><filter id="filter2_iii_2483_15959" x="30.2734" y="16.623" width="7.54688" height="7.54639" filterUnits="userSpaceOnUse" color-interpolation-filters="sRGB"><feFlood flood-opacity="0" result="BackgroundImageFix"/><feBlend mode="normal" in="SourceGraphic" in2="BackgroundImageFix" result="shape"/><feColorMatrix in="SourceAlpha" type="matrix" values="0 0 0 0 0 0 0 0 0 0 0 0 0 0 0 0 0 0 127 0" result="hardAlpha"/><feOffset dx="0.46875" dy="0.46875"/><feGaussianBlur stdDeviation="0.703125"/><feComposite in2="hardAlpha" operator="arithmetic" k2="-1" k3="1"/><feColorMatrix type="matrix" values="0 0 0 0 0.121569 0 0 0 0 0.121569 0 0 0 0 0.117647 0 0 0 0.05 0"/><feBlend mode="normal" in2="shape" result="effect1_innerShadow_2483_15959"/><feColorMatrix in="SourceAlpha" type="matrix" values="0 0 0 0 0 0 0 0 0 0 0 0 0 0 0 0 0 0 127 0" result="hardAlpha"/><feOffset dx="-0.46875" dy="-0.46875"/><feGaussianBlur stdDeviation="0.703125"/><feComposite in2="hardAlpha" operator="arithmetic" k2="-1" k3="1"/><feColorMatrix type="matrix" values="0 0 0 0 0.121569 0 0 0 0 0.121569 0 0 0 0 0.117647 0 0 0 0.05 0"/><feBlend mode="normal" in2="effect1_innerShadow_2483_15959" result="effect2_innerShadow_2483_15959"/><feColorMatrix in="SourceAlpha" type="matrix" values="0 0 0 0 0 0 0 0 0 0 0 0 0 0 0 0 0 0 127 0" result="hardAlpha"/><feOffset dx="0.46875" dy="0.46875"/><feGaussianBlur stdDeviation="0.9375"/><feComposite in2="hardAlpha" operator="arithmetic" k2="-1" k3="1"/><feColorMatrix type="matrix" values="0 0 0 0 0.121569 0 0 0 0 0.121569 0 0 0 0 0.117647 0 0 0 0.05 0"/><feBlend mode="normal" in2="effect2_innerShadow_2483_15959" result="effect3_innerShadow_2483_15959"/></filter><filter id="filter3_dii_2483_15959" x="15.3633" y="24.6733" width="18.5117" height="11.479" filterUnits="userSpaceOnUse" color-interpolation-filters="sRGB"><feFlood flood-opacity="0" result="BackgroundImageFix"/><feColorMatrix in="SourceAlpha" type="matrix" values="0 0 0 0 0 0 0 0 0 0 0 0 0 0 0 0 0 0 127 0" result="hardAlpha"/><feOffset dx="0.9375" dy="1.40625"/><feGaussianBlur stdDeviation="0.5"/><feComposite in2="hardAlpha" operator="out"/><feColorMatrix type="matrix" values="0 0 0 0 0.394602 0 0 0 0 0.394602 0 0 0 0 0.394602 0 0 0 0.08 0"/><feBlend mode="normal" in2="BackgroundImageFix" result="effect1_dropShadow_2483_15959"/><feBlend mode="normal" in="SourceGraphic" in2="effect1_dropShadow_2483_15959" result="shape"/><feColorMatrix in="SourceAlpha" type="matrix" values="0 0 0 0 0 0 0 0 0 0 0 0 0 0 0 0 0 0 127 0" result="hardAlpha"/><feOffset dx="0.5" dy="0.5"/><feGaussianBlur stdDeviation="0.5"/><feComposite in2="hardAlpha" operator="arithmetic" k2="-1" k3="1"/><feColorMatrix type="matrix" values="0 0 0 0 0.109684 0 0 0 0 0.0922738 0 0 0 0 0.0922738 0 0 0 0.1 0"/><feBlend mode="normal" in2="shape" result="effect2_innerShadow_2483_15959"/><feColorMatrix in="SourceAlpha" type="matrix" values="0 0 0 0 0 0 0 0 0 0 0 0 0 0 0 0 0 0 127 0" result="hardAlpha"/><feOffset dx="-0.46875" dy="-0.46875"/><feGaussianBlur stdDeviation="0.5"/><feComposite in2="hardAlpha" operator="arithmetic" k2="-1" k3="1"/><feColorMatrix type="matrix" values="0 0 0 0 0 0 0 0 0 0 0 0 0 0 0 0 0 0 0.05 0"/><feBlend mode="normal" in2="effect2_innerShadow_2483_15959" result="effect3_innerShadow_2483_15959"/></filter><filter id="filter4_iii_2483_15959" x="6.73047" y="24.2603" width="11.1289" height="7.90576" filterUnits="userSpaceOnUse" color-interpolation-filters="sRGB"><feFlood flood-opacity="0" result="BackgroundImageFix"/><feBlend mode="normal" in="SourceGraphic" in2="BackgroundImageFix" result="shape"/><feColorMatrix in="SourceAlpha" type="matrix" values="0 0 0 0 0 0 0 0 0 0 0 0 0 0 0 0 0 0 127 0" result="hardAlpha"/><feOffset dx="0.46875" dy="0.46875"/><feGaussianBlur stdDeviation="0.703125"/><feComposite in2="hardAlpha" operator="arithmetic" k2="-1" k3="1"/><feColorMatrix type="matrix" values="0 0 0 0 0.121569 0 0 0 0 0.121569 0 0 0 0 0.117647 0 0 0 0.05 0"/><feBlend mode="normal" in2="shape" result="effect1_innerShadow_2483_15959"/><feColorMatrix in="SourceAlpha" type="matrix" values="0 0 0 0 0 0 0 0 0 0 0 0 0 0 0 0 0 0 127 0" result="hardAlpha"/><feOffset dx="-0.46875" dy="-0.46875"/><feGaussianBlur stdDeviation="0.703125"/><feComposite in2="hardAlpha" operator="arithmetic" k2="-1" k3="1"/><feColorMatrix type="matrix" values="0 0 0 0 0.121569 0 0 0 0 0.121569 0 0 0 0 0.117647 0 0 0 0.05 0"/><feBlend mode="normal" in2="effect1_innerShadow_2483_15959" result="effect2_innerShadow_2483_15959"/><feColorMatrix in="SourceAlpha" type="matrix" values="0 0 0 0 0 0 0 0 0 0 0 0 0 0 0 0 0 0 127 0" result="hardAlpha"/><feOffset dx="0.46875" dy="0.46875"/><feGaussianBlur stdDeviation="0.9375"/><feComposite in2="hardAlpha" operator="arithmetic" k2="-1" k3="1"/><feColorMatrix type="matrix" values="0 0 0 0 0.121569 0 0 0 0 0.121569 0 0 0 0 0.117647 0 0 0 0.05 0"/><feBlend mode="normal" in2="effect2_innerShadow_2483_15959" result="effect3_innerShadow_2483_15959"/></filter><filter id="filter5_iii_2483_15959" x="29.9258" y="24.2603" width="11.1172" height="7.90576" filterUnits="userSpaceOnUse" color-interpolation-filters="sRGB"><feFlood flood-opacity="0" result="BackgroundImageFix"/><feBlend mode="normal" in="SourceGraphic" in2="BackgroundImageFix" result="shape"/><feColorMatrix in="SourceAlpha" type="matrix" values="0 0 0 0 0 0 0 0 0 0 0 0 0 0 0 0 0 0 127 0" result="hardAlpha"/><feOffset dx="0.46875" dy="0.46875"/><feGaussianBlur stdDeviation="0.703125"/><feComposite in2="hardAlpha" operator="arithmetic" k2="-1" k3="1"/><feColorMatrix type="matrix" values="0 0 0 0 0.121569 0 0 0 0 0.121569 0 0 0 0 0.117647 0 0 0 0.05 0"/><feBlend mode="normal" in2="shape" result="effect1_innerShadow_2483_15959"/><feColorMatrix in="SourceAlpha" type="matrix" values="0 0 0 0 0 0 0 0 0 0 0 0 0 0 0 0 0 0 127 0" result="hardAlpha"/><feOffset dx="-0.46875" dy="-0.46875"/><feGaussianBlur stdDeviation="0.703125"/><feComposite in2="hardAlpha" operator="arithmetic" k2="-1" k3="1"/><feColorMatrix type="matrix" values="0 0 0 0 0.121569 0 0 0 0 0.121569 0 0 0 0 0.117647 0 0 0 0.05 0"/><feBlend mode="normal" in2="effect1_innerShadow_2483_15959" result="effect2_innerShadow_2483_15959"/><feColorMatrix in="SourceAlpha" type="matrix" values="0 0 0 0 0 0 0 0 0 0 0 0 0 0 0 0 0 0 127 0" result="hardAlpha"/><feOffset dx="0.46875" dy="0.46875"/><feGaussianBlur stdDeviation="0.9375"/><feComposite in2="hardAlpha" operator="arithmetic" k2="-1" k3="1"/><feColorMatrix type="matrix" values="0 0 0 0 0.121569 0 0 0 0 0.121569 0 0 0 0 0.117647 0 0 0 0.05 0"/><feBlend mode="normal" in2="effect2_innerShadow_2483_15959" result="effect3_innerShadow_2483_15959"/></filter></defs></svg>