<svg width="22" height="22" viewBox="0 0 22 22" fill="none" xmlns="http://www.w3.org/2000/svg"><rect width="22" height="22" fill="#F5F5F5"/><g clip-path="url(#clip0_0_1)"><rect width="1440" height="1024" transform="translate(-1256 -21.1212)" fill="url(#paint0_linear_0_1)"/><rect width="1440" height="1024" transform="translate(-1256 -21.1212)" fill="white"/><mask id="path-1-inside-1_0_1" fill="white"><path d="M184 43L-1256 42.9999L-1256 -21.0001L184 -21L184 43Z"/></mask><path d="M184 43L184 42L-1256 41.9999L-1256 42.9999L-1256 43.9999L184 44L184 43Z" fill="#F5F5F5" mask="url(#path-1-inside-1_0_1)"/><path d="M4.58398 17.4163V8.24967C4.58398 4.70584 7.45682 1.83301 11.0007 1.83301C14.5445 1.83301 17.4173 4.70584 17.4173 8.24967V17.4163M1.83398 17.4163H20.1673" stroke="#333333" stroke-width="1.5" stroke-linecap="round" stroke-linejoin="round"/><path d="M11.0007 20.167C12.2663 20.167 13.2923 19.141 13.2923 17.8753V17.417H8.70898V17.8753C8.70898 19.141 9.73501 20.167 11.0007 20.167Z" stroke="#333333" stroke-width="1.5" stroke-linecap="round" stroke-linejoin="round"/></g><defs><linearGradient id="paint0_linear_0_1" x1="19" y1="19.5" x2="1412.5" y2="1024" gradientUnits="userSpaceOnUse"><stop stop-color="#2E7EEA"/><stop offset="1" stop-color="#013F92"/></linearGradient><clipPath id="clip0_0_1"><rect width="1440" height="1024" fill="white" transform="translate(-1256 -21.1212)"/></clipPath></defs></svg>