<svg fill="none" viewBox="0 0 133 88"><rect width="132" height="87" x=".5" y=".5" stroke="#FF8D28" rx="11.5"/><rect width="36" height="36" x="48.5" y="10" fill="#B9A5FF" rx="12"/><path fill="#A079FF" fill-opacity=".737" d="M66.363 39.798a.6.6 0 0 1-.419-.166.595.595 0 0 1-.008-.834l2.4-2.45a.595.595 0 0 1 .834-.009c.23.225.234.604.009.834l-2.401 2.45a.6.6 0 0 1-.415.175m9.19-9.38a.59.59 0 0 1-.418-.167.595.595 0 0 1-.008-.834l2.344-2.393a.595.595 0 0 1 .834-.009c.23.226.234.605.009.834l-2.345 2.393c-.093.134-.264.174-.415.175m-6.826-.367a.6.6 0 0 1-.419-.166l-2.584-2.552a.595.595 0 0 1-.009-.834.595.595 0 0 1 .834-.008l2.585 2.551c.23.225.233.604.008.834a.6.6 0 0 1-.415.175m9.38 9.192a.6.6 0 0 1-.418-.167l-2.718-2.663a.595.595 0 0 1-.009-.834.595.595 0 0 1 .834-.009l2.718 2.664c.23.225.234.604.009.834-.132.096-.264.173-.415.175"/><path fill="#7954E2" d="M61.98 50.171c-3.836 0-6.94-3.123-6.94-6.94s3.123-6.942 6.94-6.942 6.941 3.124 6.941 6.941c0 3.818-3.123 6.941-6.94 6.941m1.133-21.225a5.34 5.34 0 0 1-5.334-5.334 5.34 5.34 0 0 1 5.334-5.333 5.34 5.34 0 0 1 5.333 5.334 5.34 5.34 0 0 1-5.333 5.333m18.266 17.371a4.935 4.935 0 0 1-4.932-4.932 4.935 4.935 0 0 1 4.932-4.931 4.935 4.935 0 0 1 4.932 4.931 4.935 4.935 0 0 1-4.932 4.932m-.987-17.334a4.155 4.155 0 0 1-4.146-4.147 4.155 4.155 0 0 1 4.146-4.146 4.155 4.155 0 0 1 4.147 4.146 4.143 4.143 0 0 1-4.147 4.147"/><circle cx="71.886" cy="32.464" r="4.909" fill="#7954E2"/><path fill="#18181B" d="m65.7 67.424.24 1.472-1.504.24V73.6H62.9v-4.208l-4.816.768-.224-1.472 5.04-.816v-8.928h1.536v8.688zm-6.064-7.664c1.088.768 2.016 1.552 2.768 2.32l-1.04 1.056c-.672-.736-1.6-1.504-2.8-2.336zm-.48 3.68c1.12.8 2.064 1.616 2.832 2.432L60.9 66.944c-.672-.752-1.6-1.568-2.816-2.464zm-7.696-.368h2.496v-2c-.72.096-1.456.192-2.192.256l-.288-1.424c2.064-.16 3.904-.48 5.536-.96l.528 1.424c-.656.176-1.344.336-2.048.464v2.24h2.048v1.456h-2.048v.624q1.272.96 2.592 2.208l-.848 1.296c-.688-.848-1.264-1.536-1.744-2.048V73.6h-1.536v-6.896a15.2 15.2 0 0 1-2.32 3.856l-.672-1.696c1.28-1.28 2.224-2.72 2.816-4.336h-2.32zm17.6 10.4H67.7l-.32-1.424c.416.064.8.096 1.168.096.384 0 .576-.224.576-.656v-3.392c-.576.224-1.168.448-1.744.64l-.384-1.504c.72-.16 1.424-.368 2.128-.624v-3.456h-1.808v-1.456h1.808v-2.8h1.472v2.8h1.568v1.456h-1.568V66a30 30 0 0 0 1.6-.816v1.488a30 30 0 0 1-1.6.8v4.4c0 1.056-.512 1.6-1.536 1.6m3.552-12.4h3.744v-2.144h1.472v2.144h3.744v1.456h-3.744v2.288h3.136v1.344c-.512 1.664-1.36 3.104-2.576 4.304.992.736 2.208 1.392 3.632 1.952l-.784 1.248c-1.536-.672-2.832-1.44-3.888-2.272-1.216.944-2.688 1.712-4.416 2.32l-.72-1.264c1.6-.512 2.96-1.168 4.064-2-1.248-1.248-2.08-2.64-2.512-4.208h-.832v-1.424h3.424v-2.288h-3.744zm2.576 5.168c.384 1.248 1.088 2.352 2.128 3.328a9.3 9.3 0 0 0 2.16-3.328z"/></svg>