<svg width="49" height="74" viewBox="0 0 49 74" fill="none" xmlns="http://www.w3.org/2000/svg"><rect width="49" height="74" fill="#DADADA"/><mask id="path-2-inside-1_2483_15959" fill="white"><path d="M348.699 91.6035L-1091.3 91.6034L-1091.3 -17.3966L348.699 -17.3965L348.699 91.6035Z"/></mask><path d="M348.699 91.6035L-1091.3 91.6034L-1091.3 -17.3966L348.699 -17.3965L348.699 91.6035Z" fill="white"/><path d="M1.85934 58.8315C3.17934 58.8555 4.67534 58.8155 6.34734 58.7115C8.48334 58.5755 9.96334 58.4475 10.7873 58.3275L11.0393 59.1435C10.1193 59.2635 8.61534 59.3995 6.52734 59.5515C4.69534 59.6715 3.19134 59.7235 2.01534 59.7075L1.85934 58.8315ZM2.00334 61.5915C2.21134 61.5835 2.37934 61.5635 2.50734 61.5315C2.63534 61.4995 2.77134 61.4475 2.91534 61.3755C3.34734 61.1195 3.81934 60.7995 4.33134 60.4155C4.84334 60.0315 5.31534 59.6355 5.74734 59.2275L6.27534 59.8035C5.90734 60.1555 5.53134 60.4755 5.14734 60.7635C4.77134 61.0515 4.36334 61.3355 3.92334 61.6155C4.66734 61.6155 5.33534 61.6035 5.92734 61.5795C6.51934 61.5555 7.08734 61.5035 7.63134 61.4235L7.25934 62.1795C6.57134 62.2275 5.72334 62.2715 4.71534 62.3115C3.70734 62.3515 2.83934 62.3715 2.11134 62.3715L2.00334 61.5915ZM1.84734 64.2435C1.95934 64.2435 2.10334 64.2315 2.27934 64.2075C2.46334 64.1755 2.61934 64.1395 2.74734 64.0995C3.72334 63.7235 4.87134 63.0875 6.19134 62.1915C7.30334 61.4475 8.31134 60.6475 9.21534 59.7915L9.80334 60.4275C8.97134 61.1955 8.09534 61.8915 7.17534 62.5155C6.12734 63.2275 5.21134 63.7955 4.42734 64.2195C5.20334 64.2275 6.27534 64.1875 7.64334 64.0995C8.74734 64.0275 9.64734 63.9555 10.3433 63.8835L10.5353 64.7595C9.60734 64.8395 8.11934 64.9195 6.07134 64.9995C4.56734 65.0635 3.19534 65.0955 1.95534 65.0955L1.84734 64.2435ZM8.92734 62.2035C9.20734 62.4275 9.64734 62.8395 10.2473 63.4395C10.7273 63.9355 11.1513 64.4275 11.5193 64.9155L10.8833 65.4915C10.5553 65.0595 10.1353 64.5755 9.62334 64.0395C9.11934 63.4955 8.67934 63.0635 8.30334 62.7435L8.92734 62.2035ZM1.01934 67.7835C1.05934 67.7595 1.10334 67.7355 1.15134 67.7115C1.19934 67.6875 1.24734 67.6635 1.29534 67.6395C1.75934 67.3915 2.27934 67.0595 2.85534 66.6435C3.47934 66.1795 3.95534 65.7835 4.28334 65.4555L4.84734 66.0915C4.45534 66.4675 3.97534 66.8635 3.40734 67.2795C2.74334 67.7595 2.11534 68.1715 1.52334 68.5155L1.01934 67.7835ZM8.45934 65.4675C9.11534 65.8355 9.68334 66.1835 10.1633 66.5115C10.7073 66.8715 11.2753 67.2795 11.8673 67.7355L11.3513 68.4675C10.9593 68.1235 10.4113 67.7235 9.70734 67.2675C9.08334 66.8435 8.50734 66.4835 7.97934 66.1875L8.45934 65.4675ZM4.43934 67.7955C4.83134 67.8275 5.18334 67.8395 5.49534 67.8315C5.71134 67.8315 5.85934 67.8155 5.93934 67.7835C6.02734 67.7595 6.08334 67.7035 6.10734 67.6155C6.13934 67.5275 6.15534 67.3755 6.15534 67.1595V64.5675H7.00734V67.3395C7.00734 67.6755 6.97534 67.9315 6.91134 68.1075C6.84734 68.2915 6.73134 68.4235 6.56334 68.5035C6.39534 68.5915 6.14334 68.6515 5.80734 68.6835C5.34334 68.7235 4.93934 68.7435 4.59534 68.7435L4.43934 67.7955ZM12.7353 67.2555C13.0873 67.2155 13.7633 67.0955 14.7633 66.8955C15.5393 66.7195 16.2273 66.5435 16.8273 66.3675L16.8873 66.8715L16.9473 67.2795C16.7313 67.3355 16.4953 67.3955 16.2393 67.4595C15.9913 67.5155 15.7233 67.5755 15.4353 67.6395L14.8953 67.7595C14.1033 67.9115 13.5313 68.0195 13.1793 68.0835C13.1233 68.0915 13.0673 68.0995 13.0113 68.1075C12.9633 68.1155 12.9153 68.1235 12.8673 68.1315L12.7353 67.2555ZM16.7313 59.3235H23.3553V60.1035H16.7313V59.3235ZM19.9233 57.7515C19.9473 57.7995 19.9713 57.8475 19.9953 57.8955C20.0193 57.9435 20.0393 57.9955 20.0553 58.0515C20.0873 58.1235 20.1193 58.1995 20.1513 58.2795C20.1833 58.3515 20.2153 58.4275 20.2473 58.5075C20.2873 58.6115 20.3913 58.9155 20.5593 59.4195L19.6593 59.5035C19.6033 59.2795 19.5153 59.0195 19.3953 58.7235C19.3313 58.5715 19.2233 58.3195 19.0713 57.9675L19.9233 57.7515ZM12.8193 61.4955C12.8833 61.4875 12.9433 61.4635 12.9993 61.4235C13.0633 61.3835 13.1353 61.3115 13.2153 61.2075C13.3193 61.0795 13.4433 60.8875 13.5873 60.6315C13.7393 60.3755 13.8993 60.0915 14.0673 59.7795C14.4113 59.1315 14.7073 58.4875 14.9553 57.8475L15.7473 58.1715C15.4753 58.8035 15.1833 59.4035 14.8713 59.9715C14.5673 60.5395 14.2553 61.0355 13.9353 61.4595C14.6793 61.4195 15.3153 61.3595 15.8433 61.2795L15.6393 62.0715C15.2873 62.1275 14.8913 62.1715 14.4513 62.2035C13.9793 62.2435 13.4753 62.2795 12.9393 62.3115L12.8193 61.4955ZM13.0713 64.6995C13.1833 64.6915 13.2873 64.6515 13.3833 64.5795C13.4873 64.4995 13.5753 64.4035 13.6473 64.2915L13.8513 63.9795C14.2113 63.4435 14.5593 62.8915 14.8953 62.3235C15.3433 61.5795 15.7553 60.8275 16.1313 60.0675L16.8633 60.4155C16.5753 61.0555 16.1833 61.7875 15.6873 62.6115C15.2793 63.3075 14.8753 63.9435 14.4753 64.5195C14.8353 64.4715 15.2073 64.4115 15.5913 64.3395C15.9833 64.2675 16.3353 64.1915 16.6473 64.1115L16.6713 64.9755C16.0553 65.1035 15.4793 65.2075 14.9433 65.2875C14.2313 65.4075 13.6513 65.4915 13.2033 65.5395L13.0713 64.6995ZM16.5873 62.8995C16.7073 62.8755 16.8033 62.8475 16.8753 62.8155C16.9553 62.7755 17.0273 62.7195 17.0913 62.6475C17.3873 62.3435 17.7553 61.8715 18.1953 61.2315C18.5473 60.7435 18.8833 60.2315 19.2033 59.6955L20.1513 59.8035C19.7513 60.4355 19.3793 60.9835 19.0353 61.4475C18.5473 62.1195 18.1713 62.5915 17.9073 62.8635C18.8433 62.8315 19.6553 62.7875 20.3433 62.7315C20.8633 62.7075 21.5313 62.6555 22.3473 62.5755L22.4553 63.3195C21.5593 63.4075 20.6593 63.4795 19.7553 63.5355C18.4993 63.6075 17.4833 63.6475 16.7073 63.6555L16.5873 62.8995ZM21.2793 60.7515C21.5593 61.0395 21.9193 61.4995 22.3593 62.1315C22.7993 62.7395 23.1273 63.2315 23.3433 63.6075L22.6713 64.0755C22.4713 63.6835 22.1513 63.1835 21.7113 62.5755C21.2313 61.9035 20.8713 61.4315 20.6313 61.1595L21.2793 60.7515ZM15.7593 68.3955C16.3033 68.0755 16.7353 67.7675 17.0553 67.4715C17.3753 67.1675 17.6233 66.8315 17.7993 66.4635C17.9353 66.1835 18.0313 65.8675 18.0873 65.5155C18.1513 65.1555 18.1873 64.7315 18.1953 64.2435V63.1755H18.9993V64.2795C18.9993 64.8795 18.9473 65.4115 18.8433 65.8755C18.7393 66.3395 18.5833 66.7595 18.3753 67.1355C18.1513 67.5195 17.8713 67.8675 17.5353 68.1795C17.1993 68.4915 16.7953 68.7875 16.3233 69.0675L15.7593 68.3955ZM20.3193 63.0195H21.1233V67.3875C21.1233 67.5075 21.1353 67.5955 21.1593 67.6515C21.1913 67.7075 21.2473 67.7435 21.3273 67.7595C21.4073 67.7835 21.5313 67.7995 21.6993 67.8075C21.7553 67.8075 21.8153 67.8075 21.8793 67.8075C21.9433 67.8075 22.0073 67.8075 22.0713 67.8075C22.2233 67.8075 22.3433 67.7875 22.4313 67.7475C22.5193 67.7155 22.5833 67.6635 22.6233 67.5915C22.6713 67.5115 22.7033 67.4075 22.7193 67.2795C22.7753 66.7675 22.8073 66.3675 22.8153 66.0795L23.5353 66.2835C23.5033 66.7955 23.4673 67.2195 23.4273 67.5555C23.3873 67.8595 23.3233 68.0835 23.2353 68.2275C23.1553 68.3795 23.0233 68.4835 22.8393 68.5395C22.6553 68.6035 22.3753 68.6395 21.9993 68.6475C21.6073 68.6475 21.3353 68.6395 21.1833 68.6235C20.9353 68.5995 20.7513 68.5475 20.6313 68.4675C20.5113 68.3955 20.4273 68.2875 20.3793 68.1435C20.3393 67.9995 20.3193 67.8035 20.3193 67.5555V63.0195ZM25.2312 60.7635H30.2232V68.3955H25.2312V60.7635ZM25.9392 61.5075V67.6035H29.4912V61.5075H25.9392ZM31.0032 58.5795H34.8792V63.0915H31.9632V67.0395C31.9632 67.2155 31.9832 67.3435 32.0232 67.4235C32.0632 67.5035 32.1432 67.5595 32.2632 67.5915C32.3832 67.6155 32.5792 67.6275 32.8512 67.6275C33.0112 67.6275 33.1672 67.6235 33.3192 67.6155C33.4792 67.6155 33.6272 67.6115 33.7632 67.6035C33.9552 67.5955 34.0952 67.5715 34.1832 67.5315C34.2792 67.4915 34.3472 67.4195 34.3872 67.3155C34.4272 67.2035 34.4592 67.0355 34.4832 66.8115C34.5072 66.5715 34.5232 66.3475 34.5312 66.1395C34.5472 65.9235 34.5632 65.7235 34.5792 65.5395L35.4192 65.7915C35.4032 65.9995 35.3832 66.2115 35.3592 66.4275C35.3432 66.6435 35.3232 66.8555 35.2992 67.0635C35.2512 67.4715 35.1832 67.7755 35.0952 67.9755C35.0072 68.1755 34.8672 68.3155 34.6752 68.3955C34.4832 68.4835 34.1992 68.5275 33.8232 68.5275C33.6872 68.5275 33.5192 68.5275 33.3192 68.5275C33.1272 68.5275 32.9432 68.5275 32.7672 68.5275C32.2952 68.5275 31.9472 68.4915 31.7232 68.4195C31.4992 68.3475 31.3432 68.2195 31.2552 68.0355C31.1752 67.8515 31.1352 67.5755 31.1352 67.2075V62.2875H34.0512V59.3835H31.0032V58.5795ZM25.6272 65.5035H29.7672V66.2595H25.6272V65.5035ZM24.7392 58.5435H30.4992V59.3235H24.7392V58.5435ZM28.0512 59.1075H28.7232V61.0155L28.6992 61.2075V63.5115C28.6992 63.6235 28.7152 63.6995 28.7472 63.7395C28.7792 63.7715 28.8472 63.7875 28.9512 63.7875C29.0632 63.7955 29.1872 63.7955 29.3232 63.7875C29.4592 63.7795 29.5792 63.7675 29.6832 63.7515L29.6112 64.4355C29.4592 64.4435 29.2912 64.4475 29.1072 64.4475C28.9312 64.4395 28.7872 64.4275 28.6752 64.4115C28.5312 64.3955 28.4152 64.3675 28.3272 64.3275C28.2392 64.2795 28.1712 64.2115 28.1232 64.1235C28.0752 64.0275 28.0512 63.9035 28.0512 63.7515V61.3395V61.0395V59.1075ZM25.8192 64.5675C25.9952 64.3755 26.1392 64.1835 26.2512 63.9915C26.3712 63.7995 26.4632 63.6075 26.5272 63.4155C26.6552 63.0315 26.7192 62.4715 26.7192 61.7355V61.1595L26.7072 60.9555V58.9875H27.3192V61.0155V61.1595V61.8555C27.3192 62.2155 27.2992 62.5435 27.2592 62.8395C27.2272 63.1355 27.1792 63.3955 27.1152 63.6195C27.0512 63.8435 26.9552 64.0675 26.8272 64.2915C26.6992 64.5155 26.5392 64.7395 26.3472 64.9635L25.8192 64.5675ZM38.7712 66.5715H45.1312V67.1355H38.7712V66.5715ZM38.7712 64.0275H45.1312V64.5915H38.7712V64.0275ZM38.7712 65.2875H45.1312V65.8755H38.7712V65.2875ZM36.6352 67.7955H47.2792V68.4555H36.6352V67.7955ZM37.0672 61.4595H46.8472V62.0715H37.0672V61.4595ZM41.5312 60.9075H42.3592V62.9715H41.5312V60.9075ZM37.4872 58.3875H46.4152V60.7155H37.4872V58.3875ZM38.2792 58.9755V60.1395H45.6112V58.9755H38.2792ZM40.2592 58.5915H41.0272V60.4035H40.2592V58.5915ZM42.8992 58.5915H43.6672V60.4035H42.8992V58.5915ZM38.2792 62.7075H45.6232V68.0115H44.8072V63.3315H39.0832V68.0355H38.2792V62.7075Z" fill="black"/><rect x="0.0992187" y="0.100195" width="48.2" height="48.6034" rx="10.1" fill="#F6F6F6"/><rect x="0.0992187" y="0.100195" width="48.2" height="48.6034" rx="10.1" stroke="#D4D4D8" stroke-width="0.2"/><g filter="url(#filter0_dii_2483_15959)"><path d="M38.2621 19.5053C38.0913 18.961 37.5789 18.5951 37.0025 18.6011C36.9903 18.6011 36.9781 18.6011 36.9659 18.6011C35.4958 18.6011 34.3002 17.4157 34.3002 15.949C34.3002 15.5256 34.3978 15.1294 34.5747 14.7786C34.8278 14.2675 34.715 13.6536 34.2941 13.2665C32.6166 11.7152 30.567 10.5539 28.2887 9.9279C27.6939 9.7646 27.0626 10.0398 26.782 10.5841C26.3397 11.449 25.4369 12.0327 24.403 12.0327C23.369 12.0327 22.4693 11.449 22.024 10.5841C21.7434 10.0368 21.1151 9.7646 20.5173 9.9279C18.242 10.5539 16.1924 11.7152 14.5118 13.2665C14.094 13.6536 13.9781 14.2675 14.2312 14.7786C14.4051 15.1294 14.5057 15.5256 14.5057 15.949C14.5057 17.4157 13.3101 18.6011 11.8401 18.6011C11.8279 18.6011 11.8157 18.6011 11.8035 18.6011C11.2301 18.5921 10.7177 18.961 10.5438 19.5053C10.1107 20.8722 9.87891 22.3269 9.87891 23.8329C9.87891 24.8278 9.97956 25.7986 10.1748 26.736C10.309 27.3832 10.9129 27.8247 11.5747 27.7612C11.6632 27.7522 11.7516 27.7491 11.8401 27.7491C13.3101 27.7491 14.5057 28.9346 14.5057 30.4013C14.5057 31.0545 14.2709 31.6503 13.8774 32.1099C13.4504 32.615 13.4748 33.3559 13.9354 33.8337C15.6495 35.6028 17.815 36.9395 20.2489 37.6592C20.926 37.8588 21.6427 37.4838 21.8593 36.8155C22.2039 35.7449 23.2135 34.9738 24.3999 34.9738C25.5864 34.9738 26.5959 35.7449 26.9406 36.8155C27.1571 37.4838 27.8708 37.8588 28.551 37.6592C30.9879 36.9395 33.1534 35.6028 34.8644 33.8337C35.325 33.3589 35.3494 32.615 34.9224 32.1099C34.5289 31.6472 34.2941 31.0545 34.2941 30.4013C34.2941 28.9346 35.4897 27.7491 36.9598 27.7491C37.0513 27.7491 37.1397 27.7522 37.2251 27.7612C37.887 27.8247 38.4939 27.3832 38.6251 26.736C38.8172 25.7955 38.9209 24.8248 38.9209 23.8329C38.9209 22.3269 38.6891 20.8722 38.256 19.5053H38.2621ZM24.406 29.4668C21.2493 29.4668 18.6873 26.9296 18.6873 23.7966C18.6873 20.6636 21.2462 18.1263 24.406 18.1263C27.5658 18.1263 30.1248 20.6636 30.1248 23.7966C30.1248 26.9296 27.5658 29.4668 24.406 29.4668Z" fill="#919191"/></g><g filter="url(#filter1_iii_2483_15959)"><path d="M24.1981 27.2253C26.0917 27.2253 27.6267 25.6903 27.6267 23.7967C27.6267 21.9032 26.0917 20.3682 24.1981 20.3682C22.3046 20.3682 20.7695 21.9032 20.7695 23.7967C20.7695 25.6903 22.3046 27.2253 24.1981 27.2253Z" fill="#D9D9D9"/></g><defs><filter id="filter0_dii_2483_15959" x="9.41016" y="9.41211" width="31.4492" height="30.707" filterUnits="userSpaceOnUse" color-interpolation-filters="sRGB"><feFlood flood-opacity="0" result="BackgroundImageFix"/><feColorMatrix in="SourceAlpha" type="matrix" values="0 0 0 0 0 0 0 0 0 0 0 0 0 0 0 0 0 0 127 0" result="hardAlpha"/><feOffset dx="0.9375" dy="1.40625"/><feGaussianBlur stdDeviation="0.5"/><feComposite in2="hardAlpha" operator="out"/><feColorMatrix type="matrix" values="0 0 0 0 0.394602 0 0 0 0 0.394602 0 0 0 0 0.394602 0 0 0 0.08 0"/><feBlend mode="normal" in2="BackgroundImageFix" result="effect1_dropShadow_2483_15959"/><feBlend mode="normal" in="SourceGraphic" in2="effect1_dropShadow_2483_15959" result="shape"/><feColorMatrix in="SourceAlpha" type="matrix" values="0 0 0 0 0 0 0 0 0 0 0 0 0 0 0 0 0 0 127 0" result="hardAlpha"/><feOffset dx="0.5" dy="0.5"/><feGaussianBlur stdDeviation="0.5"/><feComposite in2="hardAlpha" operator="arithmetic" k2="-1" k3="1"/><feColorMatrix type="matrix" values="0 0 0 0 0.109684 0 0 0 0 0.0922738 0 0 0 0 0.0922738 0 0 0 0.1 0"/><feBlend mode="normal" in2="shape" result="effect2_innerShadow_2483_15959"/><feColorMatrix in="SourceAlpha" type="matrix" values="0 0 0 0 0 0 0 0 0 0 0 0 0 0 0 0 0 0 127 0" result="hardAlpha"/><feOffset dx="-0.46875" dy="-0.46875"/><feGaussianBlur stdDeviation="0.5"/><feComposite in2="hardAlpha" operator="arithmetic" k2="-1" k3="1"/><feColorMatrix type="matrix" values="0 0 0 0 0 0 0 0 0 0 0 0 0 0 0 0 0 0 0.05 0"/><feBlend mode="normal" in2="effect2_innerShadow_2483_15959" result="effect3_innerShadow_2483_15959"/></filter><filter id="filter1_iii_2483_15959" x="20.3008" y="19.8994" width="7.79297" height="7.79443" filterUnits="userSpaceOnUse" color-interpolation-filters="sRGB"><feFlood flood-opacity="0" result="BackgroundImageFix"/><feBlend mode="normal" in="SourceGraphic" in2="BackgroundImageFix" result="shape"/><feColorMatrix in="SourceAlpha" type="matrix" values="0 0 0 0 0 0 0 0 0 0 0 0 0 0 0 0 0 0 127 0" result="hardAlpha"/><feOffset dx="0.46875" dy="0.46875"/><feGaussianBlur stdDeviation="0.703125"/><feComposite in2="hardAlpha" operator="arithmetic" k2="-1" k3="1"/><feColorMatrix type="matrix" values="0 0 0 0 0.121569 0 0 0 0 0.121569 0 0 0 0 0.117647 0 0 0 0.05 0"/><feBlend mode="normal" in2="shape" result="effect1_innerShadow_2483_15959"/><feColorMatrix in="SourceAlpha" type="matrix" values="0 0 0 0 0 0 0 0 0 0 0 0 0 0 0 0 0 0 127 0" result="hardAlpha"/><feOffset dx="-0.46875" dy="-0.46875"/><feGaussianBlur stdDeviation="0.703125"/><feComposite in2="hardAlpha" operator="arithmetic" k2="-1" k3="1"/><feColorMatrix type="matrix" values="0 0 0 0 0.121569 0 0 0 0 0.121569 0 0 0 0 0.117647 0 0 0 0.05 0"/><feBlend mode="normal" in2="effect1_innerShadow_2483_15959" result="effect2_innerShadow_2483_15959"/><feColorMatrix in="SourceAlpha" type="matrix" values="0 0 0 0 0 0 0 0 0 0 0 0 0 0 0 0 0 0 127 0" result="hardAlpha"/><feOffset dx="0.46875" dy="0.46875"/><feGaussianBlur stdDeviation="0.9375"/><feComposite in2="hardAlpha" operator="arithmetic" k2="-1" k3="1"/><feColorMatrix type="matrix" values="0 0 0 0 0.121569 0 0 0 0 0.121569 0 0 0 0 0.117647 0 0 0 0.05 0"/><feBlend mode="normal" in2="effect2_innerShadow_2483_15959" result="effect3_innerShadow_2483_15959"/></filter></defs></svg>