<svg width="40" height="40" viewBox="0 0 40 40" fill="none" xmlns="http://www.w3.org/2000/svg">
<rect width="40" height="40" fill="#F5F5F5"/>
<rect width="793" height="822" transform="translate(-47 -81)" fill="white"/>
<path d="M27.5036 14.8396H12.0686C9.79798 14.8396 7.4198 16.3161 7.4198 19.4884V29.9769C7.4198 33.1047 9.06864 34.6257 12.0686 34.6257H27.5036C30.5908 34.6257 32.1525 32.3153 32.1525 29.9769V19.4884C32.1525 16.4884 30.2191 14.8396 27.5036 14.8396Z" stroke="#0D131A" stroke-width="2.47327"/>
<path d="M14.016 26.0838C14.9267 26.0838 15.6649 25.3456 15.6649 24.435C15.6649 23.5243 14.9267 22.7861 14.016 22.7861C13.1054 22.7861 12.3672 23.5243 12.3672 24.435C12.3672 25.3456 13.1054 26.0838 14.016 26.0838Z" fill="#0D131A"/>
<path d="M25.557 26.0838C26.4677 26.0838 27.2059 25.3456 27.2059 24.435C27.2059 23.5243 26.4677 22.7861 25.557 22.7861C24.6464 22.7861 23.9082 23.5243 23.9082 24.435C23.9082 25.3456 24.6464 26.0838 25.557 26.0838Z" fill="#0D131A"/>
<path d="M19.7861 8.2442V14.8396" stroke="#0D131A" stroke-width="2.47327" stroke-linecap="round" stroke-linejoin="round"/>
<path d="M3.2977 21.435V28.0304" stroke="#0D131A" stroke-width="2.47327" stroke-linecap="round" stroke-linejoin="round"/>
<path d="M36.2746 21.435V28.0304" stroke="#0D131A" stroke-width="2.47327" stroke-linecap="round" stroke-linejoin="round"/>
<path d="M19.7861 8.24422C20.6968 8.24422 21.435 7.50601 21.435 6.59538C21.435 5.68475 20.6968 4.94653 19.7861 4.94653C18.8755 4.94653 18.1373 5.68475 18.1373 6.59538C18.1373 7.50601 18.8755 8.24422 19.7861 8.24422Z" stroke="#0D131A" stroke-width="2.47327"/>
</svg>
