<svg fill="none" viewBox="0 0 49 74"><path fill="#DADADA" d="M0 0h49v74H0z"/><path fill="white" d="M647.199 91.2h-1440v-109h1440z"/><path fill="black" d="M1.586 58.356h10.5v.852h-10.5zm4.512.252h.912v9.84h-.912zm.744 1.752q.876.588 2.34 1.74 1.476 1.152 2.244 1.848l-.576.696a44 44 0 0 0-2.244-1.908q-1.416-1.152-2.22-1.716zm6.436.072h10.704v.744H13.278zm.672-1.824h5.208v.708H13.95zm2.22-1.236h.828v3.504h-.828zm.252 5.976h.816v5.076h-.816zm-3.108 2.904q1.152 0 3.12-.156a40 40 0 0 0 2.808-.3l.036.792q-1.176.156-2.88.288-2.028.144-3.024.18zm.252-4.032h5.76v.708h-5.76zm4.74 5.28q1.656-1.224 2.628-2.604 1.032-1.404 1.692-3.324l.792.276q-.42 1.08-.876 1.968-.444.888-.936 1.584a10 10 0 0 1-1.128 1.332q-.648.66-1.536 1.416zm3.24-9.756q.468.372.936.828.636.552.888.876l-.576.564q-.36-.42-.864-.912a26 26 0 0 0-.912-.84zm-7.476 6.588q.6-.9 1.032-1.764.372-.672.624-1.236l.828.156q-.192.432-.576 1.2-.396.78-.924 1.632h4.128v.72H14.07zm6.324-7.032q.024.984.12 2.748.108 2.244.444 3.948.348 1.692.852 2.772.168.336.324.48.156.156.324.156a.26.26 0 0 0 .228-.132q.084-.132.18-.528.12-.528.252-1.248l.78.312a29 29 0 0 1-.3 1.296q-.156.612-.42.96a.84.84 0 0 1-.708.348q-.408 0-.732-.276-.312-.264-.66-.9-.54-1.044-.912-2.928a33 33 0 0 1-.504-4.416q-.108-1.8-.108-2.592zm4.216 10.068 3.36-8.7h1.272l3.36 8.7h-1.104l-2.892-7.704h-.024l-2.88 7.704zm1.776-2.508.336-.9h3.624l.336.9zm6.947 2.508v-8.7h3.276q.828 0 1.524.3.696.288 1.104.9.42.6.42 1.488 0 .936-.432 1.56-.42.624-1.14.924-.72.288-1.632.3l-2.112.012v3.216zm2.976-4.164q1.176 0 1.728-.444.564-.444.564-1.368 0-.888-.552-1.344t-1.572-.456h-2.136v3.612zm4.454 4.164v-8.7h3.276q.828 0 1.524.3.696.288 1.104.9.42.6.42 1.488 0 .936-.432 1.56-.42.624-1.14.924-.72.288-1.632.3l-2.112.012v3.216zm2.976-4.164q1.176 0 1.728-.444.564-.444.564-1.368 0-.888-.552-1.344t-1.572-.456H41.77v3.612z"/><rect width="48.2" height="48.2" x=".099" y=".1" fill="#F6F6F6" rx="10.1"/><rect width="48.2" height="48.2" x=".099" y=".1" stroke="#D4D4D8" stroke-width=".2" rx="10.1"/><g filter="url(#a)"><path fill="#D9D9D9" d="M26.75 20.776a.618.618 0 0 0-.918-.095l-1.263 1.146V18.21a.624.624 0 0 0-.621-.625.624.624 0 0 0-.622.625v3.628l-1.26-1.156a.62.62 0 0 0-.92.09c-.194.263-.132.639.107.859l2.138 1.961a.804.804 0 0 0 1.086.003l2.16-1.962c.242-.22.304-.593.112-.855z"/></g><g filter="url(#b)"><path fill="#D9D9D9" d="M27.385 26.527h-6.487c-.356 0-.644-.261-.644-.583s.288-.583.644-.583h6.486c.356 0 .645.261.645.583s-.289.583-.645.583"/></g><g filter="url(#c)"><path fill="#919191" d="M30.692 10.2a2 2 0 0 1 2 2v23a2 2 0 0 1-2 2H17.2a2 2 0 0 1-2-2v-23a2 2 0 0 1 2-2zm-12.211 2.281a1 1 0 0 0-1 1v17.776a1 1 0 0 0 1 1h10.93a1 1 0 0 0 1-1V13.48a1 1 0 0 0-1-1z"/></g><defs><filter id="a" width="6.77" height="7.157" x="20.563" y="17.117" color-interpolation-filters="sRGB" filterUnits="userSpaceOnUse"><feFlood flood-opacity="0" result="BackgroundImageFix"/><feBlend in="SourceGraphic" in2="BackgroundImageFix" mode="normal" result="shape"/><feColorMatrix in="SourceAlpha" result="hardAlpha" type="matrix" values="0 0 0 0 0 0 0 0 0 0 0 0 0 0 0 0 0 0 127 0"/><feOffset dx=".469" dy=".469"/><feGaussianBlur stdDeviation=".703"/><feComposite in2="hardAlpha" k2="-1" k3="1" operator="arithmetic"/><feColorMatrix type="matrix" values="0 0 0 0 0.121569 0 0 0 0 0.121569 0 0 0 0 0.117647 0 0 0 0.05 0"/><feBlend in2="shape" mode="normal" result="effect1_innerShadow_2483_15959"/><feColorMatrix in="SourceAlpha" result="hardAlpha" type="matrix" values="0 0 0 0 0 0 0 0 0 0 0 0 0 0 0 0 0 0 127 0"/><feOffset dx="-.469" dy="-.469"/><feGaussianBlur stdDeviation=".703"/><feComposite in2="hardAlpha" k2="-1" k3="1" operator="arithmetic"/><feColorMatrix type="matrix" values="0 0 0 0 0.121569 0 0 0 0 0.121569 0 0 0 0 0.117647 0 0 0 0.05 0"/><feBlend in2="effect1_innerShadow_2483_15959" mode="normal" result="effect2_innerShadow_2483_15959"/><feColorMatrix in="SourceAlpha" result="hardAlpha" type="matrix" values="0 0 0 0 0 0 0 0 0 0 0 0 0 0 0 0 0 0 127 0"/><feOffset dx=".469" dy=".469"/><feGaussianBlur stdDeviation=".938"/><feComposite in2="hardAlpha" k2="-1" k3="1" operator="arithmetic"/><feColorMatrix type="matrix" values="0 0 0 0 0.121569 0 0 0 0 0.121569 0 0 0 0 0.117647 0 0 0 0.05 0"/><feBlend in2="effect2_innerShadow_2483_15959" mode="normal" result="effect3_innerShadow_2483_15959"/></filter><filter id="b" width="8.711" height="2.104" x="19.785" y="24.892" color-interpolation-filters="sRGB" filterUnits="userSpaceOnUse"><feFlood flood-opacity="0" result="BackgroundImageFix"/><feBlend in="SourceGraphic" in2="BackgroundImageFix" mode="normal" result="shape"/><feColorMatrix in="SourceAlpha" result="hardAlpha" type="matrix" values="0 0 0 0 0 0 0 0 0 0 0 0 0 0 0 0 0 0 127 0"/><feOffset dx=".469" dy=".469"/><feGaussianBlur stdDeviation=".703"/><feComposite in2="hardAlpha" k2="-1" k3="1" operator="arithmetic"/><feColorMatrix type="matrix" values="0 0 0 0 0.121569 0 0 0 0 0.121569 0 0 0 0 0.117647 0 0 0 0.05 0"/><feBlend in2="shape" mode="normal" result="effect1_innerShadow_2483_15959"/><feColorMatrix in="SourceAlpha" result="hardAlpha" type="matrix" values="0 0 0 0 0 0 0 0 0 0 0 0 0 0 0 0 0 0 127 0"/><feOffset dx="-.469" dy="-.469"/><feGaussianBlur stdDeviation=".703"/><feComposite in2="hardAlpha" k2="-1" k3="1" operator="arithmetic"/><feColorMatrix type="matrix" values="0 0 0 0 0.121569 0 0 0 0 0.121569 0 0 0 0 0.117647 0 0 0 0.05 0"/><feBlend in2="effect1_innerShadow_2483_15959" mode="normal" result="effect2_innerShadow_2483_15959"/><feColorMatrix in="SourceAlpha" result="hardAlpha" type="matrix" values="0 0 0 0 0 0 0 0 0 0 0 0 0 0 0 0 0 0 127 0"/><feOffset dx=".469" dy=".469"/><feGaussianBlur stdDeviation=".938"/><feComposite in2="hardAlpha" k2="-1" k3="1" operator="arithmetic"/><feColorMatrix type="matrix" values="0 0 0 0 0.121569 0 0 0 0 0.121569 0 0 0 0 0.117647 0 0 0 0.05 0"/><feBlend in2="effect2_innerShadow_2483_15959" mode="normal" result="effect3_innerShadow_2483_15959"/></filter><filter id="c" width="19.898" height="29.875" x="14.73" y="9.731" color-interpolation-filters="sRGB" filterUnits="userSpaceOnUse"><feFlood flood-opacity="0" result="BackgroundImageFix"/><feColorMatrix in="SourceAlpha" result="hardAlpha" type="matrix" values="0 0 0 0 0 0 0 0 0 0 0 0 0 0 0 0 0 0 127 0"/><feOffset dx=".938" dy="1.406"/><feGaussianBlur stdDeviation=".5"/><feComposite in2="hardAlpha" operator="out"/><feColorMatrix type="matrix" values="0 0 0 0 0.394602 0 0 0 0 0.394602 0 0 0 0 0.394602 0 0 0 0.08 0"/><feBlend in2="BackgroundImageFix" mode="normal" result="effect1_dropShadow_2483_15959"/><feBlend in="SourceGraphic" in2="effect1_dropShadow_2483_15959" mode="normal" result="shape"/><feColorMatrix in="SourceAlpha" result="hardAlpha" type="matrix" values="0 0 0 0 0 0 0 0 0 0 0 0 0 0 0 0 0 0 127 0"/><feOffset dx=".5" dy=".5"/><feGaussianBlur stdDeviation=".5"/><feComposite in2="hardAlpha" k2="-1" k3="1" operator="arithmetic"/><feColorMatrix type="matrix" values="0 0 0 0 0.109684 0 0 0 0 0.0922738 0 0 0 0 0.0922738 0 0 0 0.1 0"/><feBlend in2="shape" mode="normal" result="effect2_innerShadow_2483_15959"/><feColorMatrix in="SourceAlpha" result="hardAlpha" type="matrix" values="0 0 0 0 0 0 0 0 0 0 0 0 0 0 0 0 0 0 127 0"/><feOffset dx="-.469" dy="-.469"/><feGaussianBlur stdDeviation=".5"/><feComposite in2="hardAlpha" k2="-1" k3="1" operator="arithmetic"/><feColorMatrix type="matrix" values="0 0 0 0 0 0 0 0 0 0 0 0 0 0 0 0 0 0 0.05 0"/><feBlend in2="effect2_innerShadow_2483_15959" mode="normal" result="effect3_innerShadow_2483_15959"/></filter></defs></svg>