<svg width="29" height="19" viewBox="0 0 29 19" fill="none" xmlns="http://www.w3.org/2000/svg"><rect width="375" height="1536.58" transform="translate(-325.428 -1359.65)" fill="#FAFAFA"/><rect width="28.5" height="19" fill="white"/><path d="M5.625 3C3.34683 3 1.5 4.84684 1.5 7.125C1.5 11.25 6.375 15 9 15.8723C11.625 15 16.5 11.25 16.5 7.125C16.5 4.84684 14.6532 3 12.375 3C10.9799 3 9.74651 3.69259 9 4.75268C8.25349 3.69259 7.02011 3 5.625 3Z" fill="#FF8A00" stroke="#FF8A00" stroke-width="1.125" stroke-linecap="round" stroke-linejoin="round"/><path d="M25.605 4.361H26.469V14H25.362V5.711C24.7545 6.332 23.9985 6.764 23.094 7.034V5.927C23.526 5.8055 23.985 5.6165 24.444 5.3465C24.903 5.0495 25.281 4.7255 25.605 4.361Z" fill="#525252"/><defs><clipPath id="clip0_9_4"></clipPath></defs></svg>