<svg fill="none" viewBox="0 0 49 74"><path fill="#DADADA" d="M0 0h49v74H0z"/><path fill="white" d="M348.699 91.604H-1091.3v-109H348.699z"/><path fill="black" d="M1.86 58.832a57 57 0 0 0 4.487-.12q3.204-.205 4.44-.385l.252.817q-1.38.18-4.512.407-2.748.18-4.512.157zm.143 2.76q.312-.013.504-.06a2 2 0 0 0 .408-.156q.648-.384 1.416-.96t1.416-1.188l.528.575q-.552.529-1.128.96-.564.433-1.224.852 1.116 0 2.004-.035t1.704-.157l-.372.756q-1.032.073-2.544.133t-2.604.06zm-.156 2.651q.168 0 .432-.035a4 4 0 0 0 .468-.108q1.464-.564 3.444-1.908a23 23 0 0 0 3.024-2.4l.588.636a22.5 22.5 0 0 1-2.628 2.088q-1.572 1.068-2.748 1.703 1.164.014 3.216-.12a74 74 0 0 0 2.7-.216l.192.877q-1.392.12-4.464.24a98 98 0 0 1-4.116.096zm7.08-2.04q.42.336 1.32 1.236.72.744 1.272 1.476l-.636.576a17 17 0 0 0-1.26-1.451 16 16 0 0 0-1.32-1.297zm-7.908 5.58q.06-.034.132-.072l.144-.072q.696-.372 1.56-.995.936-.697 1.428-1.189l.564.636a14 14 0 0 1-1.44 1.189 23 23 0 0 1-1.884 1.236zm7.44-2.315q.984.55 1.704 1.043.816.54 1.704 1.225l-.516.731q-.588-.514-1.644-1.2-.936-.634-1.728-1.08zm-4.02 2.328q.588.047 1.056.035.324 0 .444-.047a.23.23 0 0 0 .168-.169q.048-.131.048-.456v-2.592h.852v2.773q0 .503-.096.767a.66.66 0 0 1-.348.397q-.252.13-.756.18-.696.06-1.212.06zm8.296-.54q.528-.06 2.028-.36a35 35 0 0 0 2.064-.528l.06.504.06.407q-.324.085-.708.18-.372.085-.804.18l-.54.12q-1.188.229-1.716.325l-.168.023-.144.025zm3.996-7.932h6.624v.78h-6.624zm3.192-1.572.072.143q.036.072.06.156.048.108.096.228.048.108.096.228.06.157.312.913l-.9.084a6 6 0 0 0-.264-.78q-.096-.228-.324-.756zm-7.104 3.743a.4.4 0 0 0 .18-.072.9.9 0 0 0 .216-.215q.156-.192.372-.576.228-.384.48-.852.516-.972.888-1.933l.792.325a21 21 0 0 1-.876 1.8 11.4 11.4 0 0 1-.936 1.487q1.116-.06 1.908-.18l-.204.792q-.528.084-1.188.133-.708.06-1.512.108zm.252 3.205a.6.6 0 0 0 .312-.12q.156-.12.264-.288l.204-.312q.54-.804 1.044-1.656.672-1.116 1.236-2.256l.732.348q-.432.96-1.176 2.196a30 30 0 0 1-1.212 1.907 21 21 0 0 0 2.172-.407l.024.864q-.924.19-1.728.311-1.068.18-1.74.252zm3.516-1.8q.18-.037.288-.084a.7.7 0 0 0 .216-.169q.444-.455 1.104-1.416.528-.732 1.008-1.535l.948.108a27 27 0 0 1-1.116 1.643q-.732 1.009-1.128 1.416a53 53 0 0 0 2.436-.132q.78-.035 2.004-.156l.108.744a75 75 0 0 1-2.7.216 68 68 0 0 1-3.048.12zm4.692-2.148q.42.43 1.08 1.38.66.912.984 1.476l-.672.468q-.3-.588-.96-1.5-.72-1.009-1.08-1.416zm-5.52 7.643q.816-.48 1.296-.923.48-.456.744-1.008.204-.42.288-.948.096-.54.108-1.273v-1.067H19v1.103q0 .9-.156 1.597a4.7 4.7 0 0 1-.468 1.26 4.6 4.6 0 0 1-.84 1.044q-.504.467-1.212.887zm4.56-5.375h.804v4.368q0 .18.036.263.048.085.168.109.12.035.372.047h.372q.228 0 .36-.06a.34.34 0 0 0 .192-.156.8.8 0 0 0 .096-.311q.084-.769.096-1.2l.72.204q-.048.767-.108 1.271-.06.456-.192.672a.63.63 0 0 1-.396.313q-.276.095-.84.107-.588 0-.816-.023-.372-.036-.552-.156a.57.57 0 0 1-.252-.325q-.06-.216-.06-.588zm4.912-2.257h4.992v7.633h-4.992zm.708.745v6.095h3.552v-6.095zm5.064-2.928h3.876v4.512h-2.916v3.948q0 .263.06.383t.24.168q.18.037.588.037.24 0 .468-.013.24 0 .444-.011.288-.012.42-.073a.36.36 0 0 0 .204-.216q.06-.167.096-.504.036-.36.048-.672.024-.323.048-.6l.84.252q-.024.313-.06.636-.024.324-.06.636-.072.613-.204.912a.77.77 0 0 1-.42.42q-.288.133-.852.133h-1.056q-.708 0-1.044-.109-.336-.108-.468-.383-.12-.276-.12-.829v-4.92h2.916v-2.904h-3.048zm-5.376 6.924h4.14v.755h-4.14zm-.888-6.96h5.76v.78h-5.76zm3.312.564h.672v1.908l-.024.192v2.303q0 .168.048.228.048.05.204.049.168.012.372 0t.36-.036l-.072.684q-.228.01-.504.011a5 5 0 0 1-.432-.035 1.2 1.2 0 0 1-.348-.085.5.5 0 0 1-.204-.203.8.8 0 0 1-.072-.372zm-2.232 5.46a3.4 3.4 0 0 0 .432-.576 2.7 2.7 0 0 0 .276-.576q.192-.576.192-1.68v-.576l-.012-.204v-1.969h.612v2.869q0 .54-.06.983a4.7 4.7 0 0 1-.144.78q-.096.336-.288.672a4.4 4.4 0 0 1-.48.672zm12.952 2.004h6.36v.563h-6.36zm0-2.544h6.36v.563h-6.36zm0 1.26h6.36v.588h-6.36zm-2.136 2.508H47.28v.66H36.635zm.432-6.337h9.78v.612h-9.78zm4.464-.552h.828v2.065h-.828zm-4.044-2.52h8.928v2.328h-8.928zm.792.588v1.164h7.332v-1.164zm1.98-.383h.768v1.812h-.768zm2.64 0h.768v1.812H42.9zm-4.62 4.116h7.344v5.304h-.816v-4.68h-5.724v4.703h-.804z"/><rect width="48.2" height="48.603" x=".099" y=".1" fill="#F6F6F6" rx="10.1"/><rect width="48.2" height="48.603" x=".099" y=".1" stroke="#D4D4D8" stroke-width=".2" rx="10.1"/><g filter="url(#a)"><path fill="#919191" d="M38.262 19.505a1.3 1.3 0 0 0-1.26-.904h-.036A2.66 2.66 0 0 1 34.3 15.95c0-.423.098-.82.275-1.17a1.28 1.28 0 0 0-.28-1.512 14.5 14.5 0 0 0-6.006-3.34 1.31 1.31 0 0 0-1.507.657 2.67 2.67 0 0 1-2.379 1.449 2.67 2.67 0 0 1-2.379-1.449 1.3 1.3 0 0 0-1.507-.656 14.54 14.54 0 0 0-6.005 3.339 1.28 1.28 0 0 0-.28 1.512c.173.35.274.747.274 1.17a2.66 2.66 0 0 1-2.666 2.652h-.037a1.3 1.3 0 0 0-1.26.904 14.3 14.3 0 0 0-.664 4.328c0 .995.1 1.966.296 2.903a1.3 1.3 0 0 0 1.4 1.025q.132-.013.265-.012a2.66 2.66 0 0 1 2.666 2.652 2.6 2.6 0 0 1-.629 1.709 1.283 1.283 0 0 0 .058 1.724 14.54 14.54 0 0 0 6.314 3.825c.677.2 1.394-.175 1.61-.843a2.67 2.67 0 0 1 2.54-1.842c1.187 0 2.197.77 2.542 1.842.216.668.93 1.043 1.61.843a14.5 14.5 0 0 0 6.313-3.825 1.283 1.283 0 0 0 .058-1.724 2.62 2.62 0 0 1-.628-1.709 2.66 2.66 0 0 1 2.931-2.64 1.3 1.3 0 0 0 1.4-1.025c.192-.94.296-1.911.296-2.903 0-1.506-.232-2.96-.665-4.328zm-13.856 9.962c-3.157 0-5.719-2.537-5.719-5.67s2.56-5.67 5.719-5.67 5.719 2.537 5.719 5.67-2.56 5.67-5.719 5.67"/></g><g filter="url(#b)"><path fill="#D9D9D9" d="M24.198 27.225a3.429 3.429 0 1 0 0-6.857 3.429 3.429 0 0 0 0 6.857"/></g><defs><filter id="a" width="31.449" height="30.707" x="9.41" y="9.412" color-interpolation-filters="sRGB" filterUnits="userSpaceOnUse"><feFlood flood-opacity="0" result="BackgroundImageFix"/><feColorMatrix in="SourceAlpha" result="hardAlpha" type="matrix" values="0 0 0 0 0 0 0 0 0 0 0 0 0 0 0 0 0 0 127 0"/><feOffset dx=".938" dy="1.406"/><feGaussianBlur stdDeviation=".5"/><feComposite in2="hardAlpha" operator="out"/><feColorMatrix type="matrix" values="0 0 0 0 0.394602 0 0 0 0 0.394602 0 0 0 0 0.394602 0 0 0 0.08 0"/><feBlend in2="BackgroundImageFix" mode="normal" result="effect1_dropShadow_2483_15959"/><feBlend in="SourceGraphic" in2="effect1_dropShadow_2483_15959" mode="normal" result="shape"/><feColorMatrix in="SourceAlpha" result="hardAlpha" type="matrix" values="0 0 0 0 0 0 0 0 0 0 0 0 0 0 0 0 0 0 127 0"/><feOffset dx=".5" dy=".5"/><feGaussianBlur stdDeviation=".5"/><feComposite in2="hardAlpha" k2="-1" k3="1" operator="arithmetic"/><feColorMatrix type="matrix" values="0 0 0 0 0.109684 0 0 0 0 0.0922738 0 0 0 0 0.0922738 0 0 0 0.1 0"/><feBlend in2="shape" mode="normal" result="effect2_innerShadow_2483_15959"/><feColorMatrix in="SourceAlpha" result="hardAlpha" type="matrix" values="0 0 0 0 0 0 0 0 0 0 0 0 0 0 0 0 0 0 127 0"/><feOffset dx="-.469" dy="-.469"/><feGaussianBlur stdDeviation=".5"/><feComposite in2="hardAlpha" k2="-1" k3="1" operator="arithmetic"/><feColorMatrix type="matrix" values="0 0 0 0 0 0 0 0 0 0 0 0 0 0 0 0 0 0 0.05 0"/><feBlend in2="effect2_innerShadow_2483_15959" mode="normal" result="effect3_innerShadow_2483_15959"/></filter><filter id="b" width="7.793" height="7.794" x="20.301" y="19.899" color-interpolation-filters="sRGB" filterUnits="userSpaceOnUse"><feFlood flood-opacity="0" result="BackgroundImageFix"/><feBlend in="SourceGraphic" in2="BackgroundImageFix" mode="normal" result="shape"/><feColorMatrix in="SourceAlpha" result="hardAlpha" type="matrix" values="0 0 0 0 0 0 0 0 0 0 0 0 0 0 0 0 0 0 127 0"/><feOffset dx=".469" dy=".469"/><feGaussianBlur stdDeviation=".703"/><feComposite in2="hardAlpha" k2="-1" k3="1" operator="arithmetic"/><feColorMatrix type="matrix" values="0 0 0 0 0.121569 0 0 0 0 0.121569 0 0 0 0 0.117647 0 0 0 0.05 0"/><feBlend in2="shape" mode="normal" result="effect1_innerShadow_2483_15959"/><feColorMatrix in="SourceAlpha" result="hardAlpha" type="matrix" values="0 0 0 0 0 0 0 0 0 0 0 0 0 0 0 0 0 0 127 0"/><feOffset dx="-.469" dy="-.469"/><feGaussianBlur stdDeviation=".703"/><feComposite in2="hardAlpha" k2="-1" k3="1" operator="arithmetic"/><feColorMatrix type="matrix" values="0 0 0 0 0.121569 0 0 0 0 0.121569 0 0 0 0 0.117647 0 0 0 0.05 0"/><feBlend in2="effect1_innerShadow_2483_15959" mode="normal" result="effect2_innerShadow_2483_15959"/><feColorMatrix in="SourceAlpha" result="hardAlpha" type="matrix" values="0 0 0 0 0 0 0 0 0 0 0 0 0 0 0 0 0 0 127 0"/><feOffset dx=".469" dy=".469"/><feGaussianBlur stdDeviation=".938"/><feComposite in2="hardAlpha" k2="-1" k3="1" operator="arithmetic"/><feColorMatrix type="matrix" values="0 0 0 0 0.121569 0 0 0 0 0.121569 0 0 0 0 0.117647 0 0 0 0.05 0"/><feBlend in2="effect2_innerShadow_2483_15959" mode="normal" result="effect3_innerShadow_2483_15959"/></filter></defs></svg>