<svg fill="none" viewBox="0 0 49 75"><path fill="#DADADA" d="M0 0h49v75H0z"/><path fill="white" d="M746.199 92.2h-1440v-109h1440z"/><path fill="black" d="M6 62.968q-.025 1.248-.073 2.04a24 24 0 0 1-.132 1.632q-.06.588-.18.876a.84.84 0 0 1-.336.432q-.228.132-.684.192a6 6 0 0 1-1.188.036l-.18-.852q.648.048 1.032.036.312-.024.444-.072a.33.33 0 0 0 .18-.204q.06-.144.096-.504.06-.54.096-1.284t.048-1.536h-2.58v-.792zM.802 69.112q.768-1.236 1.044-2.424.3-1.176.3-3.228v-3.108h9.432v.804H3v2.352q0 2.064-.312 3.384-.288 1.32-1.068 2.652zm4.74-.708Q7.523 67 8.52 65.524q.48-.744.888-1.644.42-.9.744-1.896l.804.276a20 20 0 0 1-.84 2.052q-.432.924-.936 1.704Q8.1 67.66 6.107 69.1zm3.528-10.056q.3.24.78.696.336.3.696.708l-.588.576-.384-.42q-.108-.108-.324-.348l-.732-.696zm-1.476.036q.012.192.192 2.568.216 2.448.624 4.116t1.068 2.664q.168.24.3.384a.9.9 0 0 0 .264.18q.12.06.228.048a.49.49 0 0 0 .324-.204q.12-.168.252-.576a10 10 0 0 0 .156-.576 21 21 0 0 0 .132-.612l.78.324a10 10 0 0 1-.192.744 10 10 0 0 1-.24.684 6 6 0 0 1-.228.432q-.108.216-.216.348-.324.432-.792.42a1.3 1.3 0 0 1-.78-.288q-.336-.276-.792-.972-.648-1.068-1.08-2.856-.42-1.788-.672-4.392-.108-1.332-.18-2.424zm6.712 4.524h7.944v4.068h-.876v-3.252h-6.192v3.324h-.876zm.384-3.936h7.2v2.976h-7.2zm.9.78v1.416h5.376v-1.416zm2.808 6.684q.492.168 1.128.42.648.252 1.38.588 1.632.732 2.424 1.224l-.432.852a23 23 0 0 0-2.4-1.296q-1.596-.708-2.484-.996zm-5.316 2.256q2.448-.492 3.432-1.152 1.044-.672 1.224-1.8.108-.588.144-1.356h.9l-.048.54q-.024.264-.06.54-.048.36-.12.72-.24 1.236-1.596 2.088-1.272.768-3.552 1.26zm13.36-5.388h7.272v2.376h-6.684v-.696h5.82v-.972H27.32v4.524h5.856v-1.248h-6.192v-.696h7.056v2.64h-7.596zm3.684-2.496q.156.192.408.612.24.348.336.528l-.792.252q-.036-.108-.348-.588-.036-.06-.324-.468zm-4.824.936h9.624v1.716h-.864v-1.008h-7.908v1.008h-.852zm2.64-1.848q.192.24.492.648.276.384.36.528l-.66.396a17 17 0 0 0-.456-.696q-.228-.36-.48-.708zm4.824.012q.276.288.924 1.152l-.636.42q-.372-.564-1.032-1.392zm-2.796.708q.432-.588.72-1.104t.54-1.164l.828.24a23 23 0 0 1-.66 1.368 7.5 7.5 0 0 1-.684 1.056zm-5.28.54q.6-.576 1.116-1.32.528-.744.888-1.512l.84.276q-.504.984-1.068 1.752-.504.684-1.08 1.296zm1.332-1.008.336-.744h3.828v.744zm4.824 0 .348-.744h4.032v.744zm10.468 1.308h4.836v.78h-4.836zm-.456-2.328h5.736V64.6H40.86zm.84.792v3.864h4.068V59.92zm1.62-.372h.816v9.192h-.816zm-2.688 6.444h6.24v.816h-6.24zm-.72 2.208h7.428v.816h-7.428zm-1.74-8.148h.816v7.596h-.816zm-1.644 7.668q.9-.132 1.944-.396.948-.216 1.932-.528l.108.852q-.972.312-1.932.492-.324.06-.66.144-.564.108-1.248.228zm.156-8.208h3.768v.816h-3.768zm.096 3.612h3.588v.816H36.78z"/><rect width="48.2" height="49.2" x=".099" y=".1" fill="#F6F6F6" rx="10.1"/><rect width="48.2" height="49.2" x=".099" y=".1" stroke="#D4D4D8" stroke-width=".2" rx="10.1"/><g filter="url(#a)"><path fill="#919191" d="M23.887 23.7a4.75 4.75 0 1 0-.001-9.501 4.75 4.75 0 0 0 0 9.502"/></g><g filter="url(#b)"><path fill="#D9D9D9" d="M13.723 23.7a3.304 3.304 0 1 0 0-6.608 3.304 3.304 0 1 0 0 6.609"/></g><g filter="url(#c)"><path fill="#D9D9D9" d="M34.047 23.7a3.304 3.304 0 1 1 0-6.608 3.304 3.304 0 1 1 0 6.609"/></g><g filter="url(#d)"><path fill="#919191" d="m31.848 30.433-.002.002c0 .005.001.017.005.027.21 1.111.144 3.284-1.52 3.284H17.38c-1.363 0-1.553-1.429-1.549-2.392s.178-1.718.71-2.544a7.3 7.3 0 0 1 1.735-1.85c1.463-1.116 3.313-1.731 5.188-1.81q.21-.007.422-.008c3.452 0 7.293 1.883 7.963 5.29z"/></g><g filter="url(#e)"><path fill="#D9D9D9" d="M15.155 27.914c.55-.851 1.301-1.615 2.16-2.272.025-.02.05-.033.075-.054-1.108-.566-2.437-.859-3.668-.859q-.172-.002-.343.008c-1.52.066-3.02.566-4.201 1.467a6 6 0 0 0-1.405 1.495c-.43.67-.57 1.28-.574 2.061s.153 1.937 1.256 1.937h5.733q-.007-.172-.008-.35c.008-1.356.302-2.384.975-3.433"/></g><g filter="url(#f)"><path fill="#D9D9D9" d="m40.498 29.037-.004-.024c-.541-2.76-3.656-4.284-6.448-4.284-.116 0-.227 0-.343.008-1.123.05-2.33.335-3.309.843 1.475 1.09 2.685 2.598 3.07 4.51l.016.079c.041.219.132.814.103 1.528h5.688c1.351 0 1.405-1.76 1.231-2.66z"/></g><defs><filter id="a" width="11.906" height="12.376" x="18.668" y="13.731" color-interpolation-filters="sRGB" filterUnits="userSpaceOnUse"><feFlood flood-opacity="0" result="BackgroundImageFix"/><feColorMatrix in="SourceAlpha" result="hardAlpha" type="matrix" values="0 0 0 0 0 0 0 0 0 0 0 0 0 0 0 0 0 0 127 0"/><feOffset dx=".938" dy="1.406"/><feGaussianBlur stdDeviation=".5"/><feComposite in2="hardAlpha" operator="out"/><feColorMatrix type="matrix" values="0 0 0 0 0.394602 0 0 0 0 0.394602 0 0 0 0 0.394602 0 0 0 0.08 0"/><feBlend in2="BackgroundImageFix" mode="normal" result="effect1_dropShadow_2483_15959"/><feBlend in="SourceGraphic" in2="effect1_dropShadow_2483_15959" mode="normal" result="shape"/><feColorMatrix in="SourceAlpha" result="hardAlpha" type="matrix" values="0 0 0 0 0 0 0 0 0 0 0 0 0 0 0 0 0 0 127 0"/><feOffset dx=".5" dy=".5"/><feGaussianBlur stdDeviation=".5"/><feComposite in2="hardAlpha" k2="-1" k3="1" operator="arithmetic"/><feColorMatrix type="matrix" values="0 0 0 0 0.109684 0 0 0 0 0.0922738 0 0 0 0 0.0922738 0 0 0 0.1 0"/><feBlend in2="shape" mode="normal" result="effect2_innerShadow_2483_15959"/><feColorMatrix in="SourceAlpha" result="hardAlpha" type="matrix" values="0 0 0 0 0 0 0 0 0 0 0 0 0 0 0 0 0 0 127 0"/><feOffset dx="-.469" dy="-.469"/><feGaussianBlur stdDeviation=".5"/><feComposite in2="hardAlpha" k2="-1" k3="1" operator="arithmetic"/><feColorMatrix type="matrix" values="0 0 0 0 0 0 0 0 0 0 0 0 0 0 0 0 0 0 0.05 0"/><feBlend in2="effect2_innerShadow_2483_15959" mode="normal" result="effect3_innerShadow_2483_15959"/></filter><filter id="b" width="7.547" height="7.546" x="9.949" y="16.623" color-interpolation-filters="sRGB" filterUnits="userSpaceOnUse"><feFlood flood-opacity="0" result="BackgroundImageFix"/><feBlend in="SourceGraphic" in2="BackgroundImageFix" mode="normal" result="shape"/><feColorMatrix in="SourceAlpha" result="hardAlpha" type="matrix" values="0 0 0 0 0 0 0 0 0 0 0 0 0 0 0 0 0 0 127 0"/><feOffset dx=".469" dy=".469"/><feGaussianBlur stdDeviation=".703"/><feComposite in2="hardAlpha" k2="-1" k3="1" operator="arithmetic"/><feColorMatrix type="matrix" values="0 0 0 0 0.121569 0 0 0 0 0.121569 0 0 0 0 0.117647 0 0 0 0.05 0"/><feBlend in2="shape" mode="normal" result="effect1_innerShadow_2483_15959"/><feColorMatrix in="SourceAlpha" result="hardAlpha" type="matrix" values="0 0 0 0 0 0 0 0 0 0 0 0 0 0 0 0 0 0 127 0"/><feOffset dx="-.469" dy="-.469"/><feGaussianBlur stdDeviation=".703"/><feComposite in2="hardAlpha" k2="-1" k3="1" operator="arithmetic"/><feColorMatrix type="matrix" values="0 0 0 0 0.121569 0 0 0 0 0.121569 0 0 0 0 0.117647 0 0 0 0.05 0"/><feBlend in2="effect1_innerShadow_2483_15959" mode="normal" result="effect2_innerShadow_2483_15959"/><feColorMatrix in="SourceAlpha" result="hardAlpha" type="matrix" values="0 0 0 0 0 0 0 0 0 0 0 0 0 0 0 0 0 0 127 0"/><feOffset dx=".469" dy=".469"/><feGaussianBlur stdDeviation=".938"/><feComposite in2="hardAlpha" k2="-1" k3="1" operator="arithmetic"/><feColorMatrix type="matrix" values="0 0 0 0 0.121569 0 0 0 0 0.121569 0 0 0 0 0.117647 0 0 0 0.05 0"/><feBlend in2="effect2_innerShadow_2483_15959" mode="normal" result="effect3_innerShadow_2483_15959"/></filter><filter id="c" width="7.547" height="7.546" x="30.273" y="16.623" color-interpolation-filters="sRGB" filterUnits="userSpaceOnUse"><feFlood flood-opacity="0" result="BackgroundImageFix"/><feBlend in="SourceGraphic" in2="BackgroundImageFix" mode="normal" result="shape"/><feColorMatrix in="SourceAlpha" result="hardAlpha" type="matrix" values="0 0 0 0 0 0 0 0 0 0 0 0 0 0 0 0 0 0 127 0"/><feOffset dx=".469" dy=".469"/><feGaussianBlur stdDeviation=".703"/><feComposite in2="hardAlpha" k2="-1" k3="1" operator="arithmetic"/><feColorMatrix type="matrix" values="0 0 0 0 0.121569 0 0 0 0 0.121569 0 0 0 0 0.117647 0 0 0 0.05 0"/><feBlend in2="shape" mode="normal" result="effect1_innerShadow_2483_15959"/><feColorMatrix in="SourceAlpha" result="hardAlpha" type="matrix" values="0 0 0 0 0 0 0 0 0 0 0 0 0 0 0 0 0 0 127 0"/><feOffset dx="-.469" dy="-.469"/><feGaussianBlur stdDeviation=".703"/><feComposite in2="hardAlpha" k2="-1" k3="1" operator="arithmetic"/><feColorMatrix type="matrix" values="0 0 0 0 0.121569 0 0 0 0 0.121569 0 0 0 0 0.117647 0 0 0 0.05 0"/><feBlend in2="effect1_innerShadow_2483_15959" mode="normal" result="effect2_innerShadow_2483_15959"/><feColorMatrix in="SourceAlpha" result="hardAlpha" type="matrix" values="0 0 0 0 0 0 0 0 0 0 0 0 0 0 0 0 0 0 127 0"/><feOffset dx=".469" dy=".469"/><feGaussianBlur stdDeviation=".938"/><feComposite in2="hardAlpha" k2="-1" k3="1" operator="arithmetic"/><feColorMatrix type="matrix" values="0 0 0 0 0.121569 0 0 0 0 0.121569 0 0 0 0 0.117647 0 0 0 0.05 0"/><feBlend in2="effect2_innerShadow_2483_15959" mode="normal" result="effect3_innerShadow_2483_15959"/></filter><filter id="d" width="18.512" height="11.479" x="15.363" y="24.673" color-interpolation-filters="sRGB" filterUnits="userSpaceOnUse"><feFlood flood-opacity="0" result="BackgroundImageFix"/><feColorMatrix in="SourceAlpha" result="hardAlpha" type="matrix" values="0 0 0 0 0 0 0 0 0 0 0 0 0 0 0 0 0 0 127 0"/><feOffset dx=".938" dy="1.406"/><feGaussianBlur stdDeviation=".5"/><feComposite in2="hardAlpha" operator="out"/><feColorMatrix type="matrix" values="0 0 0 0 0.394602 0 0 0 0 0.394602 0 0 0 0 0.394602 0 0 0 0.08 0"/><feBlend in2="BackgroundImageFix" mode="normal" result="effect1_dropShadow_2483_15959"/><feBlend in="SourceGraphic" in2="effect1_dropShadow_2483_15959" mode="normal" result="shape"/><feColorMatrix in="SourceAlpha" result="hardAlpha" type="matrix" values="0 0 0 0 0 0 0 0 0 0 0 0 0 0 0 0 0 0 127 0"/><feOffset dx=".5" dy=".5"/><feGaussianBlur stdDeviation=".5"/><feComposite in2="hardAlpha" k2="-1" k3="1" operator="arithmetic"/><feColorMatrix type="matrix" values="0 0 0 0 0.109684 0 0 0 0 0.0922738 0 0 0 0 0.0922738 0 0 0 0.1 0"/><feBlend in2="shape" mode="normal" result="effect2_innerShadow_2483_15959"/><feColorMatrix in="SourceAlpha" result="hardAlpha" type="matrix" values="0 0 0 0 0 0 0 0 0 0 0 0 0 0 0 0 0 0 127 0"/><feOffset dx="-.469" dy="-.469"/><feGaussianBlur stdDeviation=".5"/><feComposite in2="hardAlpha" k2="-1" k3="1" operator="arithmetic"/><feColorMatrix type="matrix" values="0 0 0 0 0 0 0 0 0 0 0 0 0 0 0 0 0 0 0.05 0"/><feBlend in2="effect2_innerShadow_2483_15959" mode="normal" result="effect3_innerShadow_2483_15959"/></filter><filter id="e" width="11.129" height="7.906" x="6.73" y="24.26" color-interpolation-filters="sRGB" filterUnits="userSpaceOnUse"><feFlood flood-opacity="0" result="BackgroundImageFix"/><feBlend in="SourceGraphic" in2="BackgroundImageFix" mode="normal" result="shape"/><feColorMatrix in="SourceAlpha" result="hardAlpha" type="matrix" values="0 0 0 0 0 0 0 0 0 0 0 0 0 0 0 0 0 0 127 0"/><feOffset dx=".469" dy=".469"/><feGaussianBlur stdDeviation=".703"/><feComposite in2="hardAlpha" k2="-1" k3="1" operator="arithmetic"/><feColorMatrix type="matrix" values="0 0 0 0 0.121569 0 0 0 0 0.121569 0 0 0 0 0.117647 0 0 0 0.05 0"/><feBlend in2="shape" mode="normal" result="effect1_innerShadow_2483_15959"/><feColorMatrix in="SourceAlpha" result="hardAlpha" type="matrix" values="0 0 0 0 0 0 0 0 0 0 0 0 0 0 0 0 0 0 127 0"/><feOffset dx="-.469" dy="-.469"/><feGaussianBlur stdDeviation=".703"/><feComposite in2="hardAlpha" k2="-1" k3="1" operator="arithmetic"/><feColorMatrix type="matrix" values="0 0 0 0 0.121569 0 0 0 0 0.121569 0 0 0 0 0.117647 0 0 0 0.05 0"/><feBlend in2="effect1_innerShadow_2483_15959" mode="normal" result="effect2_innerShadow_2483_15959"/><feColorMatrix in="SourceAlpha" result="hardAlpha" type="matrix" values="0 0 0 0 0 0 0 0 0 0 0 0 0 0 0 0 0 0 127 0"/><feOffset dx=".469" dy=".469"/><feGaussianBlur stdDeviation=".938"/><feComposite in2="hardAlpha" k2="-1" k3="1" operator="arithmetic"/><feColorMatrix type="matrix" values="0 0 0 0 0.121569 0 0 0 0 0.121569 0 0 0 0 0.117647 0 0 0 0.05 0"/><feBlend in2="effect2_innerShadow_2483_15959" mode="normal" result="effect3_innerShadow_2483_15959"/></filter><filter id="f" width="11.117" height="7.906" x="29.926" y="24.26" color-interpolation-filters="sRGB" filterUnits="userSpaceOnUse"><feFlood flood-opacity="0" result="BackgroundImageFix"/><feBlend in="SourceGraphic" in2="BackgroundImageFix" mode="normal" result="shape"/><feColorMatrix in="SourceAlpha" result="hardAlpha" type="matrix" values="0 0 0 0 0 0 0 0 0 0 0 0 0 0 0 0 0 0 127 0"/><feOffset dx=".469" dy=".469"/><feGaussianBlur stdDeviation=".703"/><feComposite in2="hardAlpha" k2="-1" k3="1" operator="arithmetic"/><feColorMatrix type="matrix" values="0 0 0 0 0.121569 0 0 0 0 0.121569 0 0 0 0 0.117647 0 0 0 0.05 0"/><feBlend in2="shape" mode="normal" result="effect1_innerShadow_2483_15959"/><feColorMatrix in="SourceAlpha" result="hardAlpha" type="matrix" values="0 0 0 0 0 0 0 0 0 0 0 0 0 0 0 0 0 0 127 0"/><feOffset dx="-.469" dy="-.469"/><feGaussianBlur stdDeviation=".703"/><feComposite in2="hardAlpha" k2="-1" k3="1" operator="arithmetic"/><feColorMatrix type="matrix" values="0 0 0 0 0.121569 0 0 0 0 0.121569 0 0 0 0 0.117647 0 0 0 0.05 0"/><feBlend in2="effect1_innerShadow_2483_15959" mode="normal" result="effect2_innerShadow_2483_15959"/><feColorMatrix in="SourceAlpha" result="hardAlpha" type="matrix" values="0 0 0 0 0 0 0 0 0 0 0 0 0 0 0 0 0 0 127 0"/><feOffset dx=".469" dy=".469"/><feGaussianBlur stdDeviation=".938"/><feComposite in2="hardAlpha" k2="-1" k3="1" operator="arithmetic"/><feColorMatrix type="matrix" values="0 0 0 0 0.121569 0 0 0 0 0.121569 0 0 0 0 0.117647 0 0 0 0.05 0"/><feBlend in2="effect2_innerShadow_2483_15959" mode="normal" result="effect3_innerShadow_2483_15959"/></filter></defs></svg>