<svg fill="none" viewBox="0 0 49 74"><path fill="#DADADA" d="M0 0h49v74H0z"/><path fill="white" d="M548 91.2H-892v-109H548z"/><path fill="black" d="M7.81 67.116h10.536v.84H7.81zm5.112-6.42h.864V67.5h-.864zm-3.348 1.86h.852v4.92h-.852zm3.804.792h3.84v.84h-3.84zm-5.748-1.5a17.8 17.8 0 0 0 2.952-2.04q1.356-1.14 2.184-2.34h.804q.948 1.368 2.4 2.556 1.212 1.02 2.736 1.848l-.528.804a16.5 16.5 0 0 1-2.844-2.004q-1.38-1.188-2.16-2.28-.768 1.056-2.16 2.244-.648.564-1.332 1.032-.672.468-1.5.948zm15.568-4.296h.912v9.912h-.912zm2.712 0h.9v9.912h-.9zm-5.028 1.992q.492.888 1.152 2.424.72 1.644.948 2.544l-.864.372q-.228-.888-.924-2.52-.612-1.512-1.128-2.436zm6.132 4.968q.552-.96 1.14-2.34.612-1.38 1.008-2.628l.888.288a44 44 0 0 1-1.056 2.652q-.552 1.308-1.176 2.46zm-7.296 2.496H30.29v.852H19.718zm13-6.168h3.48v.768h-3.48zm1.74-3.384h.792v3.696h-.792zm.684 10.272a9.3 9.3 0 0 0 1.032-2.556q.18-.756.252-1.608a22 22 0 0 0 .096-1.908v-3.168q1.356-.108 2.748-.312 1.392-.216 2.4-.468l.216.828q-1.008.24-2.28.432-1.26.192-2.292.276v2.496a26 26 0 0 1-.084 1.896q-.072.852-.228 1.596-.18.804-.456 1.524a9 9 0 0 1-.684 1.38zm1.164.144a11.2 11.2 0 0 0 1.992-1.452 8.2 8.2 0 0 0 1.404-1.692q.828-1.392 1.092-3.12h-3.888v-.768h4.704v.78q-.156.996-.456 1.848a9 9 0 0 1-.732 1.62 8.5 8.5 0 0 1-1.464 1.836q-.876.84-2.136 1.632zm-5.004.348q.3-.588.504-1.164.204-.588.324-1.248.12-.684.168-1.512.048-.84.048-1.944v-4.68h.816v4.944a42 42 0 0 1-.06 1.956 14 14 0 0 1-.168 1.524q-.12.696-.324 1.308a8.4 8.4 0 0 1-.504 1.212zm1.416-5.004h2.52v5.124h-.816v-4.344h-1.704zm5.592-1.86q.18 1.128.516 2.064t.852 1.74q.996 1.536 2.712 2.652l-.492.696q-1.632-1.116-2.616-2.532a9.2 9.2 0 0 1-1.104-2.112 13 13 0 0 1-.624-2.508z"/><rect width="48.2" height="48.2" x=".4" y=".1" fill="#F6F6F6" rx="10.1"/><rect width="48.2" height="48.2" x=".4" y=".1" stroke="#D4D4D8" stroke-width=".2" rx="10.1"/><g fill="#919191" filter="url(#a)"><path d="M33.318 20.636H16.821c-.596 0-1.082.485-1.082 1.082v7.3c0 .598.483 1.083 1.082 1.083h16.497c.596 0 1.08-.485 1.08-1.082v-7.3c0-.598-.484-1.083-1.08-1.083m-3.939 7.686a3.115 3.115 0 0 1-3.11-3.116 3.114 3.114 0 0 1 3.11-3.115 3.11 3.11 0 0 1 3.107 3.115 3.113 3.113 0 0 1-3.107 3.116"/><path d="M37.05 16.207H31.5c-.441-2.488-3.126-4.407-6.36-4.407s-5.92 1.921-6.36 4.407h-5.63a2.253 2.253 0 0 0-2.252 2.256v13.482A2.253 2.253 0 0 0 13.15 34.2h23.897a2.253 2.253 0 0 0 2.251-2.256v-13.48a2.253 2.253 0 0 0-2.25-2.257zm-11.91-2.263c1.972 0 3.68.98 4.16 2.263h-8.32c.478-1.283 2.187-2.263 4.16-2.263m11.99 17.35c0 .73-.593 1.323-1.321 1.323H14.396a1.32 1.32 0 0 1-1.32-1.323V19.66c0-.732.592-1.324 1.32-1.324H35.81c.73 0 1.32.592 1.32 1.324z"/></g><defs><filter id="a" width="30.805" height="25.275" x="10.43" y="11.332" color-interpolation-filters="sRGB" filterUnits="userSpaceOnUse"><feFlood flood-opacity="0" result="BackgroundImageFix"/><feColorMatrix in="SourceAlpha" result="hardAlpha" type="matrix" values="0 0 0 0 0 0 0 0 0 0 0 0 0 0 0 0 0 0 127 0"/><feOffset dx=".938" dy="1.406"/><feGaussianBlur stdDeviation=".5"/><feComposite in2="hardAlpha" operator="out"/><feColorMatrix type="matrix" values="0 0 0 0 0.394602 0 0 0 0 0.394602 0 0 0 0 0.394602 0 0 0 0.08 0"/><feBlend in2="BackgroundImageFix" mode="normal" result="effect1_dropShadow_2483_15959"/><feBlend in="SourceGraphic" in2="effect1_dropShadow_2483_15959" mode="normal" result="shape"/><feColorMatrix in="SourceAlpha" result="hardAlpha" type="matrix" values="0 0 0 0 0 0 0 0 0 0 0 0 0 0 0 0 0 0 127 0"/><feOffset dx=".5" dy=".5"/><feGaussianBlur stdDeviation=".5"/><feComposite in2="hardAlpha" k2="-1" k3="1" operator="arithmetic"/><feColorMatrix type="matrix" values="0 0 0 0 0.109684 0 0 0 0 0.0922738 0 0 0 0 0.0922738 0 0 0 0.1 0"/><feBlend in2="shape" mode="normal" result="effect2_innerShadow_2483_15959"/><feColorMatrix in="SourceAlpha" result="hardAlpha" type="matrix" values="0 0 0 0 0 0 0 0 0 0 0 0 0 0 0 0 0 0 127 0"/><feOffset dx="-.469" dy="-.469"/><feGaussianBlur stdDeviation=".5"/><feComposite in2="hardAlpha" k2="-1" k3="1" operator="arithmetic"/><feColorMatrix type="matrix" values="0 0 0 0 0 0 0 0 0 0 0 0 0 0 0 0 0 0 0.05 0"/><feBlend in2="effect2_innerShadow_2483_15959" mode="normal" result="effect3_innerShadow_2483_15959"/></filter></defs></svg>