<svg fill="none" viewBox="0 0 49 74"><path fill="#DADADA" d="M0 0h49v74H0z"/><path fill="white" d="M1043.2 91.2H-396.801v-109H1043.2z"/><path fill="black" d="M4.843 64.22v.852c-.456.228-.912.444-1.38.636v3.576q0 1.08-1.044 1.08H1.303l-.192-.828c.348.036.684.06 1.008.06s.492-.18.492-.516v-3.024c-.552.204-1.128.396-1.704.576l-.216-.852c.66-.156 1.296-.348 1.92-.564v-2.784H.871v-.828h1.74v-2.172h.852v2.172h1.344v.828H3.463v2.448c.468-.204.924-.42 1.38-.66m1.476.756V70.4h-.816V59.888h5.268c0 1.332-.072 2.22-.204 2.664-.144.432-.6.66-1.368.66h-.864l-.24-.756c.192 0 .42.012.708.012s.516-.024.66-.048a.6.6 0 0 0 .324-.276c.084-.228.132-.72.156-1.464H6.32v3.504h4.56v.744c-.24 1.272-.66 2.364-1.284 3.264.576.552 1.284 1.056 2.124 1.524l-.576.66c-.792-.504-1.476-1.02-2.028-1.572a6.8 6.8 0 0 1-2.1 1.608l-.42-.756A6.3 6.3 0 0 0 8.54 68.18c-.828-.984-1.332-2.052-1.524-3.204zm1.476 0a5.5 5.5 0 0 0 1.212 2.58c.48-.732.828-1.596 1.044-2.58zm14.352.996v4.416h-.876v-.636H15.2v.636h-.876v-4.416zM15.2 68.936h6.072V66.8H15.2zm-.156-7.02a8.7 8.7 0 0 1-1.452 1.536l-.516-.684c1.08-.864 1.824-1.932 2.208-3.192l.864.096a8 8 0 0 1-.588 1.416h2.352v-1.704h.876v1.704h3.924v.828h-3.924v1.944h4.836v.852H12.775v-.852h5.136v-1.944zm14.508-1.8v7.308c.276-.084.54-.168.804-.252v.816q-2.34.756-5.436 1.404l-.24-.84c.288-.06.576-.12.864-.168v-8.268zm-3.156 8.088a61 61 0 0 0 2.316-.552v-1.656h-2.316zm0-2.988h2.316v-1.812h-2.316zm0-2.604h2.316v-1.704h-2.316zm5.34-3.156h.864v2.4h2.652c0 3.744-.06 6.048-.18 6.936-.12.984-.72 1.488-1.8 1.488q-.288 0-1.008-.036l-.204-.768c.42.024.78.048 1.092.048.636 0 1.008-.36 1.104-1.056.072-.624.12-2.556.144-5.772h-1.8v.168c-.036 3.456-.888 5.988-2.556 7.584l-.648-.564q2.304-2.178 2.34-7.02v-.168h-1.488v-.84h1.488zm14.496.048.42.732a24.5 24.5 0 0 1-3.792.66v2.028h3.828v.84H42.86v1.968h4.728v.828H42.86v2.652c0 .72-.384 1.092-1.128 1.092h-1.86l-.192-.84c.612.024 1.2.048 1.752.048.36 0 .552-.18.552-.516V66.56h-5.16v-.828h5.16v-1.968H37.82v-.84h4.164v-1.956a55 55 0 0 1-4.14.156l-.264-.78c3.48 0 6.36-.288 8.652-.84"/><rect width="48.2" height="48.2" x=".099" y=".1" fill="#F6F6F6" rx="10.1"/><rect width="48.2" height="48.2" x=".099" y=".1" stroke="#D4D4D8" stroke-width=".2" rx="10.1"/><g filter="url(#a)"><path fill="#D9D9D9" d="M15.648 11.2H31.75c1.35 0 2.448 1.157 2.448 2.581v20.784c0 1.424-1.097 2.58-2.448 2.58H15.647c-1.351 0-2.449-1.156-2.449-2.58V13.781c0-1.424 1.098-2.58 2.449-2.58"/></g><g filter="url(#b)"><path fill="#919191" d="M33.66 14.967c1.173 0 2.125.989 2.125 2.206V34.94c0 1.217-.952 2.205-2.125 2.206H19.684c-1.173 0-2.125-.99-2.125-2.206V17.173c0-1.217.952-2.206 2.125-2.206zM22.357 25.429a.837.837 0 0 0 0 1.674h4.27a.837.837 0 0 0 0-1.674zm-.837-2.511c0 .462.375.837.837.837h6.251a.837.837 0 0 0 0-1.674h-6.25a.837.837 0 0 0-.838.837m0-3.349c0 .463.375.837.837.837h7.44a.837.837 0 1 0 0-1.674h-7.44a.837.837 0 0 0-.837.837"/></g><defs><filter id="a" width="21.938" height="26.883" x="12.73" y="10.731" color-interpolation-filters="sRGB" filterUnits="userSpaceOnUse"><feFlood flood-opacity="0" result="BackgroundImageFix"/><feBlend in="SourceGraphic" in2="BackgroundImageFix" mode="normal" result="shape"/><feColorMatrix in="SourceAlpha" result="hardAlpha" type="matrix" values="0 0 0 0 0 0 0 0 0 0 0 0 0 0 0 0 0 0 127 0"/><feOffset dx=".469" dy=".469"/><feGaussianBlur stdDeviation=".703"/><feComposite in2="hardAlpha" k2="-1" k3="1" operator="arithmetic"/><feColorMatrix type="matrix" values="0 0 0 0 0.121569 0 0 0 0 0.121569 0 0 0 0 0.117647 0 0 0 0.05 0"/><feBlend in2="shape" mode="normal" result="effect1_innerShadow_2483_15959"/><feColorMatrix in="SourceAlpha" result="hardAlpha" type="matrix" values="0 0 0 0 0 0 0 0 0 0 0 0 0 0 0 0 0 0 127 0"/><feOffset dx="-.469" dy="-.469"/><feGaussianBlur stdDeviation=".703"/><feComposite in2="hardAlpha" k2="-1" k3="1" operator="arithmetic"/><feColorMatrix type="matrix" values="0 0 0 0 0.121569 0 0 0 0 0.121569 0 0 0 0 0.117647 0 0 0 0.05 0"/><feBlend in2="effect1_innerShadow_2483_15959" mode="normal" result="effect2_innerShadow_2483_15959"/><feColorMatrix in="SourceAlpha" result="hardAlpha" type="matrix" values="0 0 0 0 0 0 0 0 0 0 0 0 0 0 0 0 0 0 127 0"/><feOffset dx=".469" dy=".469"/><feGaussianBlur stdDeviation=".938"/><feComposite in2="hardAlpha" k2="-1" k3="1" operator="arithmetic"/><feColorMatrix type="matrix" values="0 0 0 0 0.121569 0 0 0 0 0.121569 0 0 0 0 0.117647 0 0 0 0.05 0"/><feBlend in2="effect2_innerShadow_2483_15959" mode="normal" result="effect3_innerShadow_2483_15959"/></filter><filter id="b" width="20.633" height="25.054" x="17.09" y="14.498" color-interpolation-filters="sRGB" filterUnits="userSpaceOnUse"><feFlood flood-opacity="0" result="BackgroundImageFix"/><feColorMatrix in="SourceAlpha" result="hardAlpha" type="matrix" values="0 0 0 0 0 0 0 0 0 0 0 0 0 0 0 0 0 0 127 0"/><feOffset dx=".938" dy="1.406"/><feGaussianBlur stdDeviation=".5"/><feComposite in2="hardAlpha" operator="out"/><feColorMatrix type="matrix" values="0 0 0 0 0.394602 0 0 0 0 0.394602 0 0 0 0 0.394602 0 0 0 0.08 0"/><feBlend in2="BackgroundImageFix" mode="normal" result="effect1_dropShadow_2483_15959"/><feBlend in="SourceGraphic" in2="effect1_dropShadow_2483_15959" mode="normal" result="shape"/><feColorMatrix in="SourceAlpha" result="hardAlpha" type="matrix" values="0 0 0 0 0 0 0 0 0 0 0 0 0 0 0 0 0 0 127 0"/><feOffset dx=".5" dy=".5"/><feGaussianBlur stdDeviation=".5"/><feComposite in2="hardAlpha" k2="-1" k3="1" operator="arithmetic"/><feColorMatrix type="matrix" values="0 0 0 0 0.109684 0 0 0 0 0.0922738 0 0 0 0 0.0922738 0 0 0 0.1 0"/><feBlend in2="shape" mode="normal" result="effect2_innerShadow_2483_15959"/><feColorMatrix in="SourceAlpha" result="hardAlpha" type="matrix" values="0 0 0 0 0 0 0 0 0 0 0 0 0 0 0 0 0 0 127 0"/><feOffset dx="-.469" dy="-.469"/><feGaussianBlur stdDeviation=".5"/><feComposite in2="hardAlpha" k2="-1" k3="1" operator="arithmetic"/><feColorMatrix type="matrix" values="0 0 0 0 0 0 0 0 0 0 0 0 0 0 0 0 0 0 0.05 0"/><feBlend in2="effect2_innerShadow_2483_15959" mode="normal" result="effect3_innerShadow_2483_15959"/></filter></defs></svg>