<svg width="49" height="74" viewBox="0 0 49 74" fill="none" xmlns="http://www.w3.org/2000/svg"><rect width="49" height="74" fill="#DADADA"/><mask id="path-2-inside-1_2483_15959" fill="white"><path d="M449.199 91.2002L-990.801 91.2001L-990.801 -17.7999L449.199 -17.7998L449.199 91.2002Z"/></mask><path d="M449.199 91.2002L-990.801 91.2001L-990.801 -17.7999L449.199 -17.7998L449.199 91.2002Z" fill="white"/><path d="M4.21134 61.0562H11.7473V61.8602H4.21134V61.0562ZM4.87134 58.2842H11.1113V59.0762H4.87134V58.2842ZM9.51534 62.5322C9.87534 63.0682 10.2313 63.6522 10.5833 64.2842C10.9833 64.9802 11.3073 65.6082 11.5553 66.1682L10.7513 66.6002C10.5433 66.0722 10.2473 65.4602 9.86334 64.7642C9.40734 63.9242 9.05534 63.3282 8.80734 62.9762L9.51534 62.5322ZM2.35134 57.6002C2.63934 57.8882 2.97934 58.2802 3.37134 58.7762C3.68334 59.1682 3.94334 59.5242 4.15134 59.8442L3.44334 60.3842C3.28334 60.1362 3.02334 59.7802 2.66334 59.3162C2.40734 58.9882 2.07934 58.5962 1.67934 58.1402L2.35134 57.6002ZM3.37134 65.6162C3.67534 65.9922 3.99934 66.2882 4.34334 66.5042C4.68734 66.7202 5.08734 66.8802 5.54334 66.9842C6.00734 67.0882 6.58334 67.1602 7.27134 67.2002C7.87934 67.2402 8.54334 67.2522 9.26334 67.2362C9.98334 67.2282 10.8513 67.1842 11.8673 67.1042L11.7473 68.0042C10.9633 68.0602 10.1553 68.0922 9.32334 68.1002C8.49134 68.1162 7.75934 68.1042 7.12734 68.0642C6.09534 68.0082 5.25534 67.8442 4.60734 67.5722C3.95934 67.3002 3.39534 66.8842 2.91534 66.3242L3.37134 65.6162ZM4.49934 65.2322C4.63534 65.2082 4.74734 65.1642 4.83534 65.1002C4.93134 65.0282 5.02334 64.9362 5.11134 64.8242C5.39134 64.3842 5.71134 63.8242 6.07134 63.1442C6.43134 62.4722 6.72334 61.8642 6.94734 61.3202L7.87134 61.4882C7.63134 62.0722 7.30334 62.7282 6.88734 63.4562C6.59934 64.0082 6.25134 64.5762 5.84334 65.1602C6.64334 65.1202 7.45134 65.0682 8.26734 65.0042C9.08334 64.9322 9.85534 64.8482 10.5833 64.7522L10.5473 65.6522C9.44334 65.7642 8.44334 65.8562 7.54734 65.9282C6.65134 65.9922 5.68734 66.0362 4.65534 66.0602L4.49934 65.2322ZM0.947344 67.5842L2.66334 65.7962V62.3642H1.06734V61.5602H3.49134V66.1082L3.17934 66.5282L1.57134 68.2442L0.947344 67.5842ZM14.0553 65.0762H22.3113V68.1602H14.0553V65.0762ZM14.9193 65.7602V67.4642H21.4473V65.7602H14.9193ZM12.8553 58.3202H23.5113V59.0282H12.8553V58.3202ZM15.9753 57.3722H16.8153V59.7842H15.9753V57.3722ZM19.5513 57.3722H20.3913V59.7842H19.5513V57.3722ZM14.8713 61.7282H21.5073V64.1522H14.8713V61.7282ZM15.7233 62.3882V63.4802H20.6553V62.3882H15.7233ZM13.4433 60.1802H22.9233V62.2562H22.0833V60.8762H14.2833V62.2562H13.4433V60.1802ZM26.4432 62.3042H33.7152V64.6802H27.0312V63.9842H32.8512V63.0122H27.3192V67.5362H33.1752V66.2882H26.9832V65.5922H34.0392V68.2322H26.4432V62.3042ZM30.1272 59.8082C30.2312 59.9362 30.3672 60.1402 30.5352 60.4202C30.6952 60.6522 30.8072 60.8282 30.8712 60.9482L30.0792 61.2002C30.0552 61.1282 29.9392 60.9322 29.7312 60.6122C29.7072 60.5722 29.5992 60.4162 29.4072 60.1442L30.1272 59.8082ZM25.3032 60.7442H34.9272V62.4602H34.0632V61.4522H26.1552V62.4602H25.3032V60.7442ZM27.9432 58.8962C28.0712 59.0562 28.2352 59.2722 28.4352 59.5442C28.6192 59.8002 28.7392 59.9762 28.7952 60.0722L28.1352 60.4682C27.9912 60.2362 27.8392 60.0042 27.6792 59.7722C27.5272 59.5322 27.3672 59.2962 27.1992 59.0642L27.9432 58.8962ZM32.7672 58.9082C32.9512 59.1002 33.2592 59.4842 33.6912 60.0602L33.0552 60.4802C32.8072 60.1042 32.4632 59.6402 32.0232 59.0882L32.7672 58.9082ZM29.9712 59.6162C30.2592 59.2242 30.4992 58.8562 30.6912 58.5122C30.8832 58.1682 31.0632 57.7802 31.2312 57.3482L32.0592 57.5882C31.8032 58.1562 31.5832 58.6122 31.3992 58.9562C31.2232 59.2922 30.9952 59.6442 30.7152 60.0122L29.9712 59.6162ZM24.6912 60.1562C25.0912 59.7722 25.4632 59.3322 25.8072 58.8362C26.1592 58.3402 26.4552 57.8362 26.6952 57.3242L27.5352 57.6002C27.1992 58.2562 26.8432 58.8402 26.4672 59.3522C26.1312 59.8082 25.7712 60.2402 25.3872 60.6482L24.6912 60.1562ZM26.0232 59.1482L26.3592 58.4042H30.1872V59.1482H26.0232ZM30.8472 59.1482L31.1952 58.4042H35.2272V59.1482H30.8472ZM41.3152 60.4562H46.1512V61.2362H41.3152V60.4562ZM40.8592 58.1282H46.5952V63.6002H40.8592V58.1282ZM41.6992 58.9202V62.7842H45.7672V58.9202H41.6992ZM43.3192 58.5482H44.1352V67.7402H43.3192V58.5482ZM40.6312 64.9922H46.8712V65.8082H40.6312V64.9922ZM39.9112 67.2002H47.3392V68.0162H39.9112V67.2002ZM38.1712 59.0522H38.9872V66.6482H38.1712V59.0522ZM36.5272 66.7202C37.1272 66.6322 37.7752 66.5002 38.4712 66.3242C39.1032 66.1802 39.7472 66.0042 40.4032 65.7962L40.5112 66.6482C39.8632 66.8562 39.2192 67.0202 38.5792 67.1402C38.3632 67.1802 38.1432 67.2282 37.9192 67.2842C37.5432 67.3562 37.1272 67.4322 36.6712 67.5122L36.5272 66.7202ZM36.6832 58.5122H40.4512V59.3282H36.6832V58.5122ZM36.7792 62.1242H40.3672V62.9402H36.7792V62.1242Z" fill="black"/><rect x="0.0992187" y="0.100195" width="48.2" height="48.2" rx="10.1" fill="#F6F6F6"/><rect x="0.0992187" y="0.100195" width="48.2" height="48.2" rx="10.1" stroke="#D4D4D8" stroke-width="0.2"/><g filter="url(#filter0_iii_2483_15959)"><path d="M24.0243 34.8338C21.3502 34.8338 18.9285 33.7295 17.1892 31.9547C16.9683 31.7298 16.6685 31.5918 16.353 31.5918H16.2899C15.2526 31.5918 14.7438 32.8342 15.4695 33.5796C17.6388 35.812 20.6718 37.2003 24.0243 37.2003C27.3767 37.2003 30.4097 35.812 32.579 33.5796C33.3008 32.8342 32.7959 31.5918 31.7586 31.5918H31.6955C31.38 31.5918 31.0802 31.7298 30.8594 31.9547C29.12 33.7295 26.6983 34.8338 24.0243 34.8338Z" fill="#D9D9D9"/></g><g filter="url(#filter1_iii_2483_15959)"><path d="M34.2653 23.1988H34.3087C35.0817 23.1988 35.6576 22.4533 35.4249 21.7118C34.569 18.9668 32.7508 16.6397 30.3607 15.1371C29.5955 14.6559 28.5977 15.2278 28.5977 16.1349V16.1822C28.5977 16.5727 28.7949 16.9434 29.1262 17.1525C31.0193 18.3475 32.4629 20.1894 33.1531 22.3666C33.3069 22.8556 33.7526 23.1988 34.2653 23.1988Z" fill="#D9D9D9"/></g><g filter="url(#filter2_iii_2483_15959)"><path d="M19.4722 16.1665V16.1192C19.4722 15.216 18.4782 14.6402 17.7131 15.1214C15.3072 16.6241 13.4771 18.955 12.6173 21.7119C12.3886 22.4495 12.9605 23.1989 13.7335 23.1989H13.7769C14.2896 23.1989 14.7353 22.8597 14.8891 22.3667C15.5793 20.1856 17.0308 18.3397 18.9318 17.1447C19.2671 16.9317 19.4722 16.5649 19.4722 16.1665Z" fill="#D9D9D9"/></g><g filter="url(#filter3_dii_2483_15959)"><path d="M24.0184 11.2002C24.9611 11.2002 25.8603 11.5749 26.5308 12.2414C27.1974 12.904 27.5681 13.8072 27.5681 14.7499C27.5681 15.6925 27.1974 16.5918 26.5269 17.2583C25.8643 17.9249 24.9611 18.2996 24.0184 18.2996C23.0758 18.2996 22.1765 17.9288 21.51 17.2583L21.3877 17.1321C20.7961 16.4813 20.4688 15.6333 20.4688 14.7499C20.4688 13.8072 20.8395 12.908 21.51 12.2414C22.1726 11.5749 23.0758 11.2002 24.0184 11.2002Z" fill="#919191"/></g><g filter="url(#filter4_dii_2483_15959)"><path d="M13.7528 24.0186C14.6955 24.0186 15.5947 24.3893 16.2613 25.0598C16.9278 25.7224 17.2986 26.6295 17.2986 27.5682C17.2986 28.5069 16.9278 29.4101 16.2573 30.0767C15.5947 30.7432 14.6915 31.1179 13.7489 31.1179C12.8063 31.1179 11.907 30.7472 11.2405 30.0767L11.1182 29.9505C10.5266 29.2997 10.1992 28.4478 10.1992 27.5682C10.1992 26.6295 10.57 25.7263 11.2405 25.0598C11.9031 24.3932 12.8063 24.0186 13.7489 24.0186H13.7528Z" fill="#919191"/></g><g filter="url(#filter5_dii_2483_15959)"><path d="M34.6591 24.0186C35.6017 24.0186 36.501 24.3893 37.1675 25.0598C37.8341 25.7224 38.2048 26.6295 38.2048 27.5682C38.2048 28.5069 37.8341 29.4101 37.1636 30.0767C36.501 30.7432 35.5978 31.1179 34.6551 31.1179C33.7125 31.1179 32.8133 30.7472 32.1467 30.0767L32.0244 29.9505C31.4328 29.2997 31.1055 28.4517 31.1055 27.5682C31.1055 26.6256 31.4762 25.7263 32.1467 25.0598C32.8093 24.3932 33.7125 24.0186 34.6551 24.0186H34.6591Z" fill="#919191"/></g><defs><filter id="filter0_iii_2483_15959" x="14.7591" y="31.222" width="18.5286" height="6.34791" filterUnits="userSpaceOnUse" color-interpolation-filters="sRGB"><feFlood flood-opacity="0" result="BackgroundImageFix"/><feBlend mode="normal" in="SourceGraphic" in2="BackgroundImageFix" result="shape"/><feColorMatrix in="SourceAlpha" type="matrix" values="0 0 0 0 0 0 0 0 0 0 0 0 0 0 0 0 0 0 127 0" result="hardAlpha"/><feOffset dx="0.369758" dy="0.369758"/><feGaussianBlur stdDeviation="0.554637"/><feComposite in2="hardAlpha" operator="arithmetic" k2="-1" k3="1"/><feColorMatrix type="matrix" values="0 0 0 0 0.121569 0 0 0 0 0.121569 0 0 0 0 0.117647 0 0 0 0.05 0"/><feBlend mode="normal" in2="shape" result="effect1_innerShadow_2483_15959"/><feColorMatrix in="SourceAlpha" type="matrix" values="0 0 0 0 0 0 0 0 0 0 0 0 0 0 0 0 0 0 127 0" result="hardAlpha"/><feOffset dx="-0.369758" dy="-0.369758"/><feGaussianBlur stdDeviation="0.554637"/><feComposite in2="hardAlpha" operator="arithmetic" k2="-1" k3="1"/><feColorMatrix type="matrix" values="0 0 0 0 0.121569 0 0 0 0 0.121569 0 0 0 0 0.117647 0 0 0 0.05 0"/><feBlend mode="normal" in2="effect1_innerShadow_2483_15959" result="effect2_innerShadow_2483_15959"/><feColorMatrix in="SourceAlpha" type="matrix" values="0 0 0 0 0 0 0 0 0 0 0 0 0 0 0 0 0 0 127 0" result="hardAlpha"/><feOffset dx="0.369758" dy="0.369758"/><feGaussianBlur stdDeviation="0.739516"/><feComposite in2="hardAlpha" operator="arithmetic" k2="-1" k3="1"/><feColorMatrix type="matrix" values="0 0 0 0 0.121569 0 0 0 0 0.121569 0 0 0 0 0.117647 0 0 0 0.05 0"/><feBlend mode="normal" in2="effect2_innerShadow_2483_15959" result="effect3_innerShadow_2483_15959"/></filter><filter id="filter1_iii_2483_15959" x="28.2279" y="14.5926" width="7.61842" height="8.97584" filterUnits="userSpaceOnUse" color-interpolation-filters="sRGB"><feFlood flood-opacity="0" result="BackgroundImageFix"/><feBlend mode="normal" in="SourceGraphic" in2="BackgroundImageFix" result="shape"/><feColorMatrix in="SourceAlpha" type="matrix" values="0 0 0 0 0 0 0 0 0 0 0 0 0 0 0 0 0 0 127 0" result="hardAlpha"/><feOffset dx="0.369758" dy="0.369758"/><feGaussianBlur stdDeviation="0.554637"/><feComposite in2="hardAlpha" operator="arithmetic" k2="-1" k3="1"/><feColorMatrix type="matrix" values="0 0 0 0 0.121569 0 0 0 0 0.121569 0 0 0 0 0.117647 0 0 0 0.05 0"/><feBlend mode="normal" in2="shape" result="effect1_innerShadow_2483_15959"/><feColorMatrix in="SourceAlpha" type="matrix" values="0 0 0 0 0 0 0 0 0 0 0 0 0 0 0 0 0 0 127 0" result="hardAlpha"/><feOffset dx="-0.369758" dy="-0.369758"/><feGaussianBlur stdDeviation="0.554637"/><feComposite in2="hardAlpha" operator="arithmetic" k2="-1" k3="1"/><feColorMatrix type="matrix" values="0 0 0 0 0.121569 0 0 0 0 0.121569 0 0 0 0 0.117647 0 0 0 0.05 0"/><feBlend mode="normal" in2="effect1_innerShadow_2483_15959" result="effect2_innerShadow_2483_15959"/><feColorMatrix in="SourceAlpha" type="matrix" values="0 0 0 0 0 0 0 0 0 0 0 0 0 0 0 0 0 0 127 0" result="hardAlpha"/><feOffset dx="0.369758" dy="0.369758"/><feGaussianBlur stdDeviation="0.739516"/><feComposite in2="hardAlpha" operator="arithmetic" k2="-1" k3="1"/><feColorMatrix type="matrix" values="0 0 0 0 0.121569 0 0 0 0 0.121569 0 0 0 0 0.117647 0 0 0 0.05 0"/><feBlend mode="normal" in2="effect2_innerShadow_2483_15959" result="effect3_innerShadow_2483_15959"/></filter><filter id="filter2_iii_2483_15959" x="12.1966" y="14.5775" width="7.64577" height="8.99098" filterUnits="userSpaceOnUse" color-interpolation-filters="sRGB"><feFlood flood-opacity="0" result="BackgroundImageFix"/><feBlend mode="normal" in="SourceGraphic" in2="BackgroundImageFix" result="shape"/><feColorMatrix in="SourceAlpha" type="matrix" values="0 0 0 0 0 0 0 0 0 0 0 0 0 0 0 0 0 0 127 0" result="hardAlpha"/><feOffset dx="0.369758" dy="0.369758"/><feGaussianBlur stdDeviation="0.554637"/><feComposite in2="hardAlpha" operator="arithmetic" k2="-1" k3="1"/><feColorMatrix type="matrix" values="0 0 0 0 0.121569 0 0 0 0 0.121569 0 0 0 0 0.117647 0 0 0 0.05 0"/><feBlend mode="normal" in2="shape" result="effect1_innerShadow_2483_15959"/><feColorMatrix in="SourceAlpha" type="matrix" values="0 0 0 0 0 0 0 0 0 0 0 0 0 0 0 0 0 0 127 0" result="hardAlpha"/><feOffset dx="-0.369758" dy="-0.369758"/><feGaussianBlur stdDeviation="0.554637"/><feComposite in2="hardAlpha" operator="arithmetic" k2="-1" k3="1"/><feColorMatrix type="matrix" values="0 0 0 0 0.121569 0 0 0 0 0.121569 0 0 0 0 0.117647 0 0 0 0.05 0"/><feBlend mode="normal" in2="effect1_innerShadow_2483_15959" result="effect2_innerShadow_2483_15959"/><feColorMatrix in="SourceAlpha" type="matrix" values="0 0 0 0 0 0 0 0 0 0 0 0 0 0 0 0 0 0 127 0" result="hardAlpha"/><feOffset dx="0.369758" dy="0.369758"/><feGaussianBlur stdDeviation="0.739516"/><feComposite in2="hardAlpha" operator="arithmetic" k2="-1" k3="1"/><feColorMatrix type="matrix" values="0 0 0 0 0.121569 0 0 0 0 0.121569 0 0 0 0 0.117647 0 0 0 0.05 0"/><feBlend mode="normal" in2="effect2_innerShadow_2483_15959" result="effect3_innerShadow_2483_15959"/></filter><filter id="filter3_dii_2483_15959" x="20.099" y="10.8304" width="8.99575" height="9.36697" filterUnits="userSpaceOnUse" color-interpolation-filters="sRGB"><feFlood flood-opacity="0" result="BackgroundImageFix"/><feColorMatrix in="SourceAlpha" type="matrix" values="0 0 0 0 0 0 0 0 0 0 0 0 0 0 0 0 0 0 127 0" result="hardAlpha"/><feOffset dx="0.739516" dy="1.10927"/><feGaussianBlur stdDeviation="0.394409"/><feComposite in2="hardAlpha" operator="out"/><feColorMatrix type="matrix" values="0 0 0 0 0.394602 0 0 0 0 0.394602 0 0 0 0 0.394602 0 0 0 0.08 0"/><feBlend mode="normal" in2="BackgroundImageFix" result="effect1_dropShadow_2483_15959"/><feBlend mode="normal" in="SourceGraphic" in2="effect1_dropShadow_2483_15959" result="shape"/><feColorMatrix in="SourceAlpha" type="matrix" values="0 0 0 0 0 0 0 0 0 0 0 0 0 0 0 0 0 0 127 0" result="hardAlpha"/><feOffset dx="0.394409" dy="0.394409"/><feGaussianBlur stdDeviation="0.394409"/><feComposite in2="hardAlpha" operator="arithmetic" k2="-1" k3="1"/><feColorMatrix type="matrix" values="0 0 0 0 0.109684 0 0 0 0 0.0922738 0 0 0 0 0.0922738 0 0 0 0.1 0"/><feBlend mode="normal" in2="shape" result="effect2_innerShadow_2483_15959"/><feColorMatrix in="SourceAlpha" type="matrix" values="0 0 0 0 0 0 0 0 0 0 0 0 0 0 0 0 0 0 127 0" result="hardAlpha"/><feOffset dx="-0.369758" dy="-0.369758"/><feGaussianBlur stdDeviation="0.394409"/><feComposite in2="hardAlpha" operator="arithmetic" k2="-1" k3="1"/><feColorMatrix type="matrix" values="0 0 0 0 0 0 0 0 0 0 0 0 0 0 0 0 0 0 0.05 0"/><feBlend mode="normal" in2="effect2_innerShadow_2483_15959" result="effect3_innerShadow_2483_15959"/></filter><filter id="filter4_dii_2483_15959" x="9.82946" y="23.6488" width="8.99575" height="9.36697" filterUnits="userSpaceOnUse" color-interpolation-filters="sRGB"><feFlood flood-opacity="0" result="BackgroundImageFix"/><feColorMatrix in="SourceAlpha" type="matrix" values="0 0 0 0 0 0 0 0 0 0 0 0 0 0 0 0 0 0 127 0" result="hardAlpha"/><feOffset dx="0.739516" dy="1.10927"/><feGaussianBlur stdDeviation="0.394409"/><feComposite in2="hardAlpha" operator="out"/><feColorMatrix type="matrix" values="0 0 0 0 0.394602 0 0 0 0 0.394602 0 0 0 0 0.394602 0 0 0 0.08 0"/><feBlend mode="normal" in2="BackgroundImageFix" result="effect1_dropShadow_2483_15959"/><feBlend mode="normal" in="SourceGraphic" in2="effect1_dropShadow_2483_15959" result="shape"/><feColorMatrix in="SourceAlpha" type="matrix" values="0 0 0 0 0 0 0 0 0 0 0 0 0 0 0 0 0 0 127 0" result="hardAlpha"/><feOffset dx="0.394409" dy="0.394409"/><feGaussianBlur stdDeviation="0.394409"/><feComposite in2="hardAlpha" operator="arithmetic" k2="-1" k3="1"/><feColorMatrix type="matrix" values="0 0 0 0 0.109684 0 0 0 0 0.0922738 0 0 0 0 0.0922738 0 0 0 0.1 0"/><feBlend mode="normal" in2="shape" result="effect2_innerShadow_2483_15959"/><feColorMatrix in="SourceAlpha" type="matrix" values="0 0 0 0 0 0 0 0 0 0 0 0 0 0 0 0 0 0 127 0" result="hardAlpha"/><feOffset dx="-0.369758" dy="-0.369758"/><feGaussianBlur stdDeviation="0.394409"/><feComposite in2="hardAlpha" operator="arithmetic" k2="-1" k3="1"/><feColorMatrix type="matrix" values="0 0 0 0 0 0 0 0 0 0 0 0 0 0 0 0 0 0 0.05 0"/><feBlend mode="normal" in2="effect2_innerShadow_2483_15959" result="effect3_innerShadow_2483_15959"/></filter><filter id="filter5_dii_2483_15959" x="30.7357" y="23.6488" width="8.99575" height="9.36697" filterUnits="userSpaceOnUse" color-interpolation-filters="sRGB"><feFlood flood-opacity="0" result="BackgroundImageFix"/><feColorMatrix in="SourceAlpha" type="matrix" values="0 0 0 0 0 0 0 0 0 0 0 0 0 0 0 0 0 0 127 0" result="hardAlpha"/><feOffset dx="0.739516" dy="1.10927"/><feGaussianBlur stdDeviation="0.394409"/><feComposite in2="hardAlpha" operator="out"/><feColorMatrix type="matrix" values="0 0 0 0 0.394602 0 0 0 0 0.394602 0 0 0 0 0.394602 0 0 0 0.08 0"/><feBlend mode="normal" in2="BackgroundImageFix" result="effect1_dropShadow_2483_15959"/><feBlend mode="normal" in="SourceGraphic" in2="effect1_dropShadow_2483_15959" result="shape"/><feColorMatrix in="SourceAlpha" type="matrix" values="0 0 0 0 0 0 0 0 0 0 0 0 0 0 0 0 0 0 127 0" result="hardAlpha"/><feOffset dx="0.394409" dy="0.394409"/><feGaussianBlur stdDeviation="0.394409"/><feComposite in2="hardAlpha" operator="arithmetic" k2="-1" k3="1"/><feColorMatrix type="matrix" values="0 0 0 0 0.109684 0 0 0 0 0.0922738 0 0 0 0 0.0922738 0 0 0 0.1 0"/><feBlend mode="normal" in2="shape" result="effect2_innerShadow_2483_15959"/><feColorMatrix in="SourceAlpha" type="matrix" values="0 0 0 0 0 0 0 0 0 0 0 0 0 0 0 0 0 0 127 0" result="hardAlpha"/><feOffset dx="-0.369758" dy="-0.369758"/><feGaussianBlur stdDeviation="0.394409"/><feComposite in2="hardAlpha" operator="arithmetic" k2="-1" k3="1"/><feColorMatrix type="matrix" values="0 0 0 0 0 0 0 0 0 0 0 0 0 0 0 0 0 0 0.05 0"/><feBlend mode="normal" in2="effect2_innerShadow_2483_15959" result="effect3_innerShadow_2483_15959"/></filter></defs></svg>