<svg width="64" height="64" viewBox="0 0 64 64" fill="none" xmlns="http://www.w3.org/2000/svg"><g filter="url(#filter0_d_1970_14250)"><rect x="-207.504" y="-223.584" width="479" height="590.575" rx="15.5" stroke="#D9D9D9"/><circle cx="31.9961" cy="32.416" r="162.5" fill="#FEF3D2"/><path fill-rule="evenodd" clip-rule="evenodd" d="M6.58203 13.3308C6.58203 11.8583 7.76004 10.6646 9.21318 10.6646H53.9428C55.396 10.6646 56.5739 11.8583 56.5739 13.3308V50.6581C56.5739 52.1306 55.396 53.3243 53.9428 53.3243H9.21318C7.76004 53.3243 6.58203 52.1306 6.58203 50.6581V13.3308Z" stroke="#FFE9A4" stroke-width="3" stroke-linecap="round" stroke-linejoin="round"/><path fill-rule="evenodd" clip-rule="evenodd" d="M19.0749 23.9959C20.1648 23.9959 21.0483 23.1006 21.0483 21.9963C21.0483 20.8919 20.1648 19.9966 19.0749 19.9966C17.9851 19.9966 17.1016 20.8919 17.1016 21.9963C17.1016 23.1006 17.9851 23.9959 19.0749 23.9959Z" stroke="#FFE9A4" stroke-width="2" stroke-linecap="round" stroke-linejoin="round"/><path d="M19.7378 31.994L26.3157 37.3265L34.2091 27.9946L56.5739 45.3252V50.6576C56.5739 52.1302 55.396 53.3239 53.9428 53.3239H9.21318C7.76004 53.3239 6.58203 52.1302 6.58203 50.6576V45.3252L19.7378 31.994Z" stroke="#FFE9A4" stroke-width="3" stroke-linejoin="round"/></g><defs><filter id="filter0_d_1970_14250" x="-236.004" y="-248.084" width="536" height="647.575" filterUnits="userSpaceOnUse" color-interpolation-filters="sRGB"><feFlood flood-opacity="0" result="BackgroundImageFix"/><feColorMatrix in="SourceAlpha" type="matrix" values="0 0 0 0 0 0 0 0 0 0 0 0 0 0 0 0 0 0 127 0" result="hardAlpha"/><feOffset dy="4"/><feGaussianBlur stdDeviation="14"/><feComposite in2="hardAlpha" operator="out"/><feColorMatrix type="matrix" values="0 0 0 0 0 0 0 0 0 0 0 0 0 0 0 0 0 0 0.1 0"/><feBlend mode="normal" in2="BackgroundImageFix" result="effect1_dropShadow_1970_14250"/><feBlend mode="normal" in="SourceGraphic" in2="effect1_dropShadow_1970_14250" result="shape"/></filter></defs></svg>