<svg fill="currentColor" viewBox="0 0 58 63"><path d="M6.18 0h40.64C50.23 0 53 2.764 53 6.167v49.666C53 59.236 50.23 62 46.82 62H6.18C2.77 62 0 59.236 0 55.833V6.167C0 2.764 2.77 0 6.18 0" opacity=".7"/><path stroke="currentColor" d="M51.636 9H16.364C13.404 9 11 11.363 11 14.272v42.456C11 59.638 13.404 62 16.364 62h35.272C54.596 62 57 59.637 57 56.728V14.272C57 11.362 54.596 9 51.636 9Z"/><rect width="23" height="4" x="21" y="18" rx="2"/><rect width="20" height="4" x="21" y="26" rx="2"/><rect width="15" height="4" x="21" y="34" rx="2"/></svg>