<svg fill="none" viewBox="0 0 49 49"><rect width="48.2" height="48.2" x=".1" y=".1" fill="#F6F6F6" rx="10.1"/><rect width="48.2" height="48.2" x=".1" y=".1" stroke="#D4D4D8" stroke-width=".2" rx="10.1"/><g filter="url(#a)"><path fill="#919191" d="M25.143 13.2a1.2 1.2 0 0 1 0 2.4h-7.371a6.19 6.19 0 0 0-4.33 1.757A5.94 5.94 0 0 0 11.65 21.6v7.2c0 .788.159 1.568.466 2.296s.759 1.39 1.327 1.947a6.19 6.19 0 0 0 4.33 1.757h12.245c.803 0 1.6-.155 2.342-.457a6.1 6.1 0 0 0 1.987-1.3 6 6 0 0 0 1.327-1.947 5.9 5.9 0 0 0 .466-2.296v-5.975a1.224 1.224 0 1 1 2.449 0V28.8a8.32 8.32 0 0 1-2.51 5.94 8.66 8.66 0 0 1-6.062 2.46H17.773a8.66 8.66 0 0 1-6.061-2.46A8.32 8.32 0 0 1 9.2 28.8v-7.2c0-2.228.902-4.364 2.51-5.94a8.66 8.66 0 0 1 6.06-2.46zm9.14-2.552v.002c.311 1.168.835 2.106 1.572 2.83.735.72 1.695 1.234 2.89 1.54.607.155.607 1.005 0 1.16-1.195.306-2.155.82-2.89 1.542-.735.72-1.261 1.66-1.572 2.832-.16.595-1.026.595-1.186 0-.31-1.172-.835-2.112-1.572-2.832-.735-.72-1.695-1.236-2.89-1.541-.607-.156-.607-1.006 0-1.162 1.195-.305 2.155-.818 2.89-1.54.735-.72 1.261-1.661 1.572-2.833.16-.594 1.025-.595 1.185 0z"/></g><g fill="#D9D9D9" filter="url(#b)"><path d="m29.2 24.139.08-.08a1.082 1.082 0 1 0-1.518-1.542l-.113.112-.186.18-.002-.001q0-.003-.002-.001l-.401.39-.689.67-.592.576a1.07 1.07 0 0 0-.322.757 1.05 1.05 0 0 0 .322.757l1.985 1.934a1.083 1.083 0 1 0 1.512-1.551l-1.098-1.07a.1.1 0 0 1 0-.14l.432-.422z"/><path d="M21.072 27.036v-3.672a1.37 1.37 0 0 0-2.74 0v3.672a1.37 1.37 0 1 0 2.74 0"/></g><defs><filter id="a" width="32.406" height="29.875" x="8.731" y="9.731" color-interpolation-filters="sRGB" filterUnits="userSpaceOnUse"><feFlood flood-opacity="0" result="BackgroundImageFix"/><feColorMatrix in="SourceAlpha" result="hardAlpha" type="matrix" values="0 0 0 0 0 0 0 0 0 0 0 0 0 0 0 0 0 0 127 0"/><feOffset dx=".938" dy="1.406"/><feGaussianBlur stdDeviation=".5"/><feComposite in2="hardAlpha" operator="out"/><feColorMatrix type="matrix" values="0 0 0 0 0.394602 0 0 0 0 0.394602 0 0 0 0 0.394602 0 0 0 0.08 0"/><feBlend in2="BackgroundImageFix" mode="normal" result="effect1_dropShadow_323_4206"/><feBlend in="SourceGraphic" in2="effect1_dropShadow_323_4206" mode="normal" result="shape"/><feColorMatrix in="SourceAlpha" result="hardAlpha" type="matrix" values="0 0 0 0 0 0 0 0 0 0 0 0 0 0 0 0 0 0 127 0"/><feOffset dx=".5" dy=".5"/><feGaussianBlur stdDeviation=".5"/><feComposite in2="hardAlpha" k2="-1" k3="1" operator="arithmetic"/><feColorMatrix type="matrix" values="0 0 0 0 0.109684 0 0 0 0 0.0922738 0 0 0 0 0.0922738 0 0 0 0.1 0"/><feBlend in2="shape" mode="normal" result="effect2_innerShadow_323_4206"/><feColorMatrix in="SourceAlpha" result="hardAlpha" type="matrix" values="0 0 0 0 0 0 0 0 0 0 0 0 0 0 0 0 0 0 127 0"/><feOffset dx="-.469" dy="-.469"/><feGaussianBlur stdDeviation=".5"/><feComposite in2="hardAlpha" k2="-1" k3="1" operator="arithmetic"/><feColorMatrix type="matrix" values="0 0 0 0 0 0 0 0 0 0 0 0 0 0 0 0 0 0 0.05 0"/><feBlend in2="effect2_innerShadow_323_4206" mode="normal" result="effect3_innerShadow_323_4206"/></filter><filter id="b" width="12.211" height="7.35" x="17.862" y="21.525" color-interpolation-filters="sRGB" filterUnits="userSpaceOnUse"><feFlood flood-opacity="0" result="BackgroundImageFix"/><feBlend in="SourceGraphic" in2="BackgroundImageFix" mode="normal" result="shape"/><feColorMatrix in="SourceAlpha" result="hardAlpha" type="matrix" values="0 0 0 0 0 0 0 0 0 0 0 0 0 0 0 0 0 0 127 0"/><feOffset dx=".469" dy=".469"/><feGaussianBlur stdDeviation=".703"/><feComposite in2="hardAlpha" k2="-1" k3="1" operator="arithmetic"/><feColorMatrix type="matrix" values="0 0 0 0 0.121569 0 0 0 0 0.121569 0 0 0 0 0.117647 0 0 0 0.05 0"/><feBlend in2="shape" mode="normal" result="effect1_innerShadow_323_4206"/><feColorMatrix in="SourceAlpha" result="hardAlpha" type="matrix" values="0 0 0 0 0 0 0 0 0 0 0 0 0 0 0 0 0 0 127 0"/><feOffset dx="-.469" dy="-.469"/><feGaussianBlur stdDeviation=".703"/><feComposite in2="hardAlpha" k2="-1" k3="1" operator="arithmetic"/><feColorMatrix type="matrix" values="0 0 0 0 0.121569 0 0 0 0 0.121569 0 0 0 0 0.117647 0 0 0 0.05 0"/><feBlend in2="effect1_innerShadow_323_4206" mode="normal" result="effect2_innerShadow_323_4206"/><feColorMatrix in="SourceAlpha" result="hardAlpha" type="matrix" values="0 0 0 0 0 0 0 0 0 0 0 0 0 0 0 0 0 0 127 0"/><feOffset dx=".469" dy=".469"/><feGaussianBlur stdDeviation=".938"/><feComposite in2="hardAlpha" k2="-1" k3="1" operator="arithmetic"/><feColorMatrix type="matrix" values="0 0 0 0 0.121569 0 0 0 0 0.121569 0 0 0 0 0.117647 0 0 0 0.05 0"/><feBlend in2="effect2_innerShadow_323_4206" mode="normal" result="effect3_innerShadow_323_4206"/></filter></defs></svg>