<svg fill="none" viewBox="0 0 49 49"><rect width="48.2" height="48.603" x=".099" y=".1" fill="#F6F6F6" rx="10.1"/><rect width="48.2" height="48.603" x=".099" y=".1" stroke="#D4D4D8" stroke-width=".2" rx="10.1"/><g filter="url(#a)"><path fill="#919191" d="M38.262 19.505a1.3 1.3 0 0 0-1.26-.904h-.036A2.66 2.66 0 0 1 34.3 15.95c0-.423.098-.82.275-1.17a1.28 1.28 0 0 0-.28-1.512 14.5 14.5 0 0 0-6.006-3.34 1.31 1.31 0 0 0-1.507.657 2.67 2.67 0 0 1-2.379 1.449 2.67 2.67 0 0 1-2.379-1.449 1.3 1.3 0 0 0-1.507-.656 14.54 14.54 0 0 0-6.005 3.339 1.28 1.28 0 0 0-.28 1.512c.173.35.274.747.274 1.17a2.66 2.66 0 0 1-2.666 2.652h-.037a1.3 1.3 0 0 0-1.26.904 14.3 14.3 0 0 0-.664 4.328c0 .995.1 1.966.296 2.903a1.3 1.3 0 0 0 1.4 1.025q.132-.013.265-.012a2.66 2.66 0 0 1 2.666 2.652c0 .654-.235 1.25-.629 1.709a1.283 1.283 0 0 0 .058 1.724 14.54 14.54 0 0 0 6.314 3.825c.677.2 1.394-.175 1.61-.843a2.67 2.67 0 0 1 2.54-1.842c1.187 0 2.197.77 2.542 1.842.216.668.93 1.043 1.61.843a14.5 14.5 0 0 0 6.313-3.825c.461-.475.485-1.219.058-1.724a2.62 2.62 0 0 1-.628-1.709 2.66 2.66 0 0 1 2.931-2.64 1.3 1.3 0 0 0 1.4-1.025c.192-.94.296-1.911.296-2.903 0-1.506-.232-2.96-.665-4.328zm-13.856 9.962c-3.157 0-5.719-2.537-5.719-5.67s2.56-5.67 5.719-5.67 5.719 2.537 5.719 5.67-2.56 5.67-5.719 5.67"/></g><g filter="url(#b)"><path fill="#D9D9D9" d="M24.198 27.225a3.429 3.429 0 1 0 0-6.857 3.429 3.429 0 0 0 0 6.857"/></g><defs><filter id="a" width="31.449" height="30.707" x="9.41" y="9.412" color-interpolation-filters="sRGB" filterUnits="userSpaceOnUse"><feFlood flood-opacity="0" result="BackgroundImageFix"/><feColorMatrix in="SourceAlpha" result="hardAlpha" type="matrix" values="0 0 0 0 0 0 0 0 0 0 0 0 0 0 0 0 0 0 127 0"/><feOffset dx=".938" dy="1.406"/><feGaussianBlur stdDeviation=".5"/><feComposite in2="hardAlpha" operator="out"/><feColorMatrix type="matrix" values="0 0 0 0 0.394602 0 0 0 0 0.394602 0 0 0 0 0.394602 0 0 0 0.08 0"/><feBlend in2="BackgroundImageFix" mode="normal" result="effect1_dropShadow_15801_31552"/><feBlend in="SourceGraphic" in2="effect1_dropShadow_15801_31552" mode="normal" result="shape"/><feColorMatrix in="SourceAlpha" result="hardAlpha" type="matrix" values="0 0 0 0 0 0 0 0 0 0 0 0 0 0 0 0 0 0 127 0"/><feOffset dx=".5" dy=".5"/><feGaussianBlur stdDeviation=".5"/><feComposite in2="hardAlpha" k2="-1" k3="1" operator="arithmetic"/><feColorMatrix type="matrix" values="0 0 0 0 0.109684 0 0 0 0 0.0922738 0 0 0 0 0.0922738 0 0 0 0.1 0"/><feBlend in2="shape" mode="normal" result="effect2_innerShadow_15801_31552"/><feColorMatrix in="SourceAlpha" result="hardAlpha" type="matrix" values="0 0 0 0 0 0 0 0 0 0 0 0 0 0 0 0 0 0 127 0"/><feOffset dx="-.469" dy="-.469"/><feGaussianBlur stdDeviation=".5"/><feComposite in2="hardAlpha" k2="-1" k3="1" operator="arithmetic"/><feColorMatrix type="matrix" values="0 0 0 0 0 0 0 0 0 0 0 0 0 0 0 0 0 0 0.05 0"/><feBlend in2="effect2_innerShadow_15801_31552" mode="normal" result="effect3_innerShadow_15801_31552"/></filter><filter id="b" width="7.793" height="7.794" x="20.301" y="19.899" color-interpolation-filters="sRGB" filterUnits="userSpaceOnUse"><feFlood flood-opacity="0" result="BackgroundImageFix"/><feBlend in="SourceGraphic" in2="BackgroundImageFix" mode="normal" result="shape"/><feColorMatrix in="SourceAlpha" result="hardAlpha" type="matrix" values="0 0 0 0 0 0 0 0 0 0 0 0 0 0 0 0 0 0 127 0"/><feOffset dx=".469" dy=".469"/><feGaussianBlur stdDeviation=".703"/><feComposite in2="hardAlpha" k2="-1" k3="1" operator="arithmetic"/><feColorMatrix type="matrix" values="0 0 0 0 0.121569 0 0 0 0 0.121569 0 0 0 0 0.117647 0 0 0 0.05 0"/><feBlend in2="shape" mode="normal" result="effect1_innerShadow_15801_31552"/><feColorMatrix in="SourceAlpha" result="hardAlpha" type="matrix" values="0 0 0 0 0 0 0 0 0 0 0 0 0 0 0 0 0 0 127 0"/><feOffset dx="-.469" dy="-.469"/><feGaussianBlur stdDeviation=".703"/><feComposite in2="hardAlpha" k2="-1" k3="1" operator="arithmetic"/><feColorMatrix type="matrix" values="0 0 0 0 0.121569 0 0 0 0 0.121569 0 0 0 0 0.117647 0 0 0 0.05 0"/><feBlend in2="effect1_innerShadow_15801_31552" mode="normal" result="effect2_innerShadow_15801_31552"/><feColorMatrix in="SourceAlpha" result="hardAlpha" type="matrix" values="0 0 0 0 0 0 0 0 0 0 0 0 0 0 0 0 0 0 127 0"/><feOffset dx=".469" dy=".469"/><feGaussianBlur stdDeviation=".938"/><feComposite in2="hardAlpha" k2="-1" k3="1" operator="arithmetic"/><feColorMatrix type="matrix" values="0 0 0 0 0.121569 0 0 0 0 0.121569 0 0 0 0 0.117647 0 0 0 0.05 0"/><feBlend in2="effect2_innerShadow_15801_31552" mode="normal" result="effect3_innerShadow_15801_31552"/></filter></defs></svg>