<svg fill="none" viewBox="0 0 112 112"><g clip-path="url(#a)"><rect width="110" height="110" x="1" y="1.482" fill="#FFF8DA" rx="22.344"/><g filter="url(#b)"><path fill="white" d="M80.008 24.677c-1.355.042-1.479.766-1.827 1.689s-.415 5.097-2.502 7.736c-2.088 2.64-7.303 2.746-8.032 2.902-.728.156-1.526.716-1.538 1.967-.011 1.25 1.035 1.699 1.565 1.832.53.134 6.175.734 8.07 2.521 1.896 1.788 2.326 7.481 2.616 8.073s.677 1.44 1.849 1.415 1.584-.913 1.85-1.441c.264-.53 1-5.534 2.984-8.113 1.982-2.58 6.035-2.377 7.233-2.733s1.941-.769 1.928-2.093c-.014-1.325-1.955-1.674-1.955-1.674s-5.33-.748-7.272-2.722c-1.943-1.975-3.097-7.696-3.097-7.696s-.517-1.704-1.872-1.663"/></g><g filter="url(#c)"><circle cx="39.254" cy="50.473" r="13.437" fill="#292524"/></g><g filter="url(#d)"><path fill="#292524" d="M42.987 66.792c-16.272-.72-21.426 12.723-21.426 21.545 0 0 23.346.135 23.377-.027 0 0-.907-3.185.384-5.292 1.292-2.107 3.506-2.387 3.506-2.387.908-.122 4.916 0 4.916 0h2.758c.387 0 .683-.59-.163-3.28s-4.372-10.16-13.352-10.559"/></g><g filter="url(#e)"><path fill="#292524" d="M63.377 72.247c.863-1.821 1.634-2.205 4.084-2.095H87.55c1.78 0 2.303 1.128 1.655 2.716L84.01 86.075c-.58 1.788-1.459 2.173-3.417 2.263h-30.03s-2.175 0-2.175-2.263 2.175-2.264 2.175-2.264h8.265z"/></g></g><rect width="110.5" height="110.5" x=".75" y="1.232" stroke="#F8F4E5" stroke-width=".5" rx="22.594"/><defs><filter id="b" width="61.568" height="61.611" x="51.309" y="9.876" color-interpolation-filters="sRGB" filterUnits="userSpaceOnUse"><feFlood flood-opacity="0" result="BackgroundImageFix"/><feColorMatrix in="SourceAlpha" result="hardAlpha" type="matrix" values="0 0 0 0 0 0 0 0 0 0 0 0 0 0 0 0 0 0 127 0"/><feOffset dx="2.334" dy="2.334"/><feGaussianBlur stdDeviation="3.223"/><feComposite in2="hardAlpha" operator="out"/><feColorMatrix type="matrix" values="0 0 0 0 0.984314 0 0 0 0 0.831373 0 0 0 0 0.211765 0 0 0 0.2 0"/><feBlend in2="BackgroundImageFix" mode="normal" result="effect1_dropShadow_7032_14397"/><feColorMatrix in="SourceAlpha" result="hardAlpha" type="matrix" values="0 0 0 0 0 0 0 0 0 0 0 0 0 0 0 0 0 0 127 0"/><feOffset dx="4.668" dy="4.668"/><feGaussianBlur stdDeviation="7.003"/><feComposite in2="hardAlpha" operator="out"/><feColorMatrix type="matrix" values="0 0 0 0 0.98443 0 0 0 0 0.830049 0 0 0 0 0.212523 0 0 0 0.3 0"/><feBlend in2="effect1_dropShadow_7032_14397" mode="normal" result="effect2_dropShadow_7032_14397"/><feColorMatrix in="SourceAlpha" result="hardAlpha" type="matrix" values="0 0 0 0 0 0 0 0 0 0 0 0 0 0 0 0 0 0 127 0"/><feOffset dx="-1.167" dy="-1.167"/><feGaussianBlur stdDeviation="1.167"/><feComposite in2="hardAlpha" operator="out"/><feColorMatrix type="matrix" values="0 0 0 0 1 0 0 0 0 1 0 0 0 0 1 0 0 0 0.3 0"/><feBlend in2="effect2_dropShadow_7032_14397" mode="normal" result="effect3_dropShadow_7032_14397"/><feColorMatrix in="SourceAlpha" result="hardAlpha" type="matrix" values="0 0 0 0 0 0 0 0 0 0 0 0 0 0 0 0 0 0 127 0"/><feOffset dx="-4.297" dy="-4.297"/><feGaussianBlur stdDeviation="5.252"/><feComposite in2="hardAlpha" operator="out"/><feColorMatrix type="matrix" values="0 0 0 0 0.984314 0 0 0 0 0.831373 0 0 0 0 0.211765 0 0 0 0.2 0"/><feBlend in2="effect3_dropShadow_7032_14397" mode="normal" result="effect4_dropShadow_7032_14397"/><feBlend in="SourceGraphic" in2="effect4_dropShadow_7032_14397" mode="normal" result="shape"/></filter><filter id="c" width="39.766" height="39.765" x="21.52" y="32.739" color-interpolation-filters="sRGB" filterUnits="userSpaceOnUse"><feFlood flood-opacity="0" result="BackgroundImageFix"/><feColorMatrix in="SourceAlpha" result="hardAlpha" type="matrix" values="0 0 0 0 0 0 0 0 0 0 0 0 0 0 0 0 0 0 127 0"/><feOffset dx="2.148" dy="2.148"/><feGaussianBlur stdDeviation="3.223"/><feComposite in2="hardAlpha" operator="out"/><feColorMatrix type="matrix" values="0 0 0 0 0.937023 0 0 0 0 0.779307 0 0 0 0 0.15896 0 0 0 0.2 0"/><feBlend in2="BackgroundImageFix" mode="normal" result="effect1_dropShadow_7032_14397"/><feBlend in="SourceGraphic" in2="effect1_dropShadow_7032_14397" mode="normal" result="shape"/></filter><filter id="d" width="48.215" height="34.516" x="17.264" y="62.468" color-interpolation-filters="sRGB" filterUnits="userSpaceOnUse"><feFlood flood-opacity="0" result="BackgroundImageFix"/><feColorMatrix in="SourceAlpha" result="hardAlpha" type="matrix" values="0 0 0 0 0 0 0 0 0 0 0 0 0 0 0 0 0 0 127 0"/><feOffset dx="2.148" dy="2.148"/><feGaussianBlur stdDeviation="3.223"/><feComposite in2="hardAlpha" operator="out"/><feColorMatrix type="matrix" values="0 0 0 0 0.937255 0 0 0 0 0.780392 0 0 0 0 0.160784 0 0 0 0.2 0"/><feBlend in2="BackgroundImageFix" mode="normal" result="effect1_dropShadow_7032_14397"/><feBlend in="SourceGraphic" in2="effect1_dropShadow_7032_14397" mode="normal" result="shape"/></filter><filter id="e" width="53.977" height="31.094" x="44.09" y="65.838" color-interpolation-filters="sRGB" filterUnits="userSpaceOnUse"><feFlood flood-opacity="0" result="BackgroundImageFix"/><feColorMatrix in="SourceAlpha" result="hardAlpha" type="matrix" values="0 0 0 0 0 0 0 0 0 0 0 0 0 0 0 0 0 0 127 0"/><feOffset dx="2.148" dy="2.148"/><feGaussianBlur stdDeviation="3.223"/><feComposite in2="hardAlpha" operator="out"/><feColorMatrix type="matrix" values="0 0 0 0 0.937255 0 0 0 0 0.780392 0 0 0 0 0.160784 0 0 0 0.2 0"/><feBlend in2="BackgroundImageFix" mode="normal" result="effect1_dropShadow_7032_14397"/><feBlend in="SourceGraphic" in2="effect1_dropShadow_7032_14397" mode="normal" result="shape"/></filter><clipPath id="a"><rect width="110" height="110" x="1" y="1.482" fill="white" rx="22.344"/></clipPath></defs></svg>