<svg fill="none" viewBox="0 0 48 48"><circle cx="24" cy="24" r="23" fill="white" stroke="#F5F5F5" stroke-width="2"/><path fill="#0D131A" fill-rule="evenodd" d="M22.585 12.25c.354-.032.631.052.845.237.224.194.367.488.467.839l.033.134c.128.582.051 1.255-.043 1.875l-.044.281c-.603 3.826-3.136 7.983-4.95 10.167.068.6.187 1.286.445 1.879.264.603.667 1.1 1.301 1.314l.068.02c.323.087.714.038 1.162-.16-.867-1.09-1.003-2.692-.353-4.08l.042-.085c.22-.43.56-.828.938-1.128.4-.32.853-.537 1.258-.559l.075-.003c.766-.013 1.366.409 1.596 1.136l.036.125c.164.633.093 1.387-.168 2.151a6.8 6.8 0 0 1-1.32 2.24l-.123.137-.086.095.04.014c.082.025.178.05.241.064l.1.013q.069.007.165.012c.125.008.276.013.43.016.313.006.632.003.78-.013l.233-.03a5.7 5.7 0 0 0 1.58-.483l.193-.097c.067-.035.136-.071.197-.105l.134-.079-.08-.088c-.672-.805-.925-1.8-.802-2.635s.626-1.523 1.468-1.676l.102-.015a1.64 1.64 0 0 1 1.335.421c.382.348.64.883.71 1.534l.011.142c.03.665-.225 1.389-.698 2.005l-.106.13-.06.073c.28.132.616.216.94.251l.111.01c.563.037 1.247-.092 1.696-.321l.035-.018-.083-.22c-.431-1.143-.61-2.142-.532-2.947.078-.808.415-1.425 1.016-1.788l.097-.054c.998-.522 2.186.047 2.493 1.201l.033.14c.312 1.396-.24 2.91-1.435 3.979l-.121.106-.044.036.12.253.156.322c.816 1.638 2.109 3.634 3.549 5.476l.202.264q.079.105.12.177a.5.5 0 0 1 .073.201l.003.065c-.002.497-.591.73-.945.406l-.033-.032a15 15 0 0 1-.562-.71l-.288-.38c-1.217-1.622-2.315-3.353-3.068-4.834l-.147-.293-.157-.323-.098.044a4.6 4.6 0 0 1-2.862.273l-.18-.047a5.5 5.5 0 0 1-.982-.422l-.209.142v.001a6.4 6.4 0 0 1-3.303 1.082l-.244.009c-.987.017-1.43-.041-1.965-.287l-.108-.052-.036-.018-.022-.011-.016-.008-.003-.002-.156-.093c-1.112.65-2.24.657-3.06.109l-.079-.056-.012-.009c-.258-.188-.583-.426-.901-.854-.311-.42-.612-1.018-.844-1.927-.79.741-1.847 1.422-2.923 1.945-1.058.515-2.141.88-3.017 1l-.172.02c-.236.025-.684.043-.934-.39a.6.6 0 0 1-.09-.316.6.6 0 0 1 .087-.293c.106-.178.3-.34.524-.498l.23-.166a10.6 10.6 0 0 0 2.37-2.436 8 8 0 0 0 .627-1.057c-1.173.52-2.636 1.098-3.936 1.168l-.133.005c-.317.009-.576-.154-.655-.364l-.014-.043a.53.53 0 0 1 .383-.645h.002v-.001h.003l.01-.003.04-.01.154-.037c.133-.033.324-.08.556-.14a38 38 0 0 0 1.75-.502l.164-.053c.816-.272 1.562-.625 2.057-.85l.275-.129c.078-.036.152-.066.243-.089l.053-.01a.67.67 0 0 1 .41.092c.151.09.276.25.276.48 0 .552-.303 1.39-.746 2.207-.352.649-.8 1.297-1.273 1.793 1.41-.636 2.199-1.124 3.486-2.27l-.011-.713c-.016-1.039.045-2.1.173-3.14l.024-.194.065-.456c.342-2.273.995-4.417 1.84-5.997l.132-.24a7.3 7.3 0 0 1 1.002-1.395l.091-.093c.461-.456 1.014-.767 1.504-.831zm11.621 18.906a30 30 0 0 1 .396.648zm-11.21-1.486.022.01-.01-.005-.01-.005zm-3.313-.051h.001zm-8.429-1.052v.001m20.132-.166.001.001m-7.654-4.34c-.423.077-.84.488-1.128 1.057-.287.565-.433 1.26-.334 1.865l.017.088c.042.207.117.43.209.629.101.223.22.408.326.512l.1-.108.116-.126c.563-.633.973-1.32 1.204-2.017l.051-.172a2.9 2.9 0 0 0 .105-1.08c-.041-.33-.16-.534-.312-.599l-.03-.01a1 1 0 0 0-.268-.042zm4.113 3.971h.001m1.131-3.075a.53.53 0 0 0-.504 0 .73.73 0 0 0-.313.401l-.028.087c-.2.72.145 1.46.617 2.028l.003-.002c.265-.312.58-.827.696-1.324.057-.248.063-.485-.005-.688a.83.83 0 0 0-.375-.452zm4.826-1.046c-.357.059-.601.305-.716.72-.116.422-.095 1.012.09 1.724l.087.307a20 20 0 0 0 .212.666l.009.026a4.3 4.3 0 0 0 .554-.7l.062-.104a3 3 0 0 0 .393-1.633c-.035-.51-.23-.871-.532-.972l-.061-.017-.076-.014zm-21.027.319c-1.312.412-2.514.693-2.52.695.028-.007 1.22-.285 2.52-.694m14.648.297h.001m-5.158-.661q-.137.136-.26.286l.127-.146q.064-.072.133-.14m.278-10.442a.8.8 0 0 0-.23.128c-.182.136-.41.376-.67.752-.486.702-1.078 1.867-1.7 3.674l-.125.37c-.373 1.13-.615 2.615-.764 3.822a40 40 0 0 0-.157 1.515l-.022.28.149-.223c.21-.322.503-.789.839-1.368.671-1.16 1.511-2.772 2.184-4.58s.864-2.916.863-3.569c0-.325-.047-.533-.102-.657a.4.4 0 0 0-.078-.123.1.1 0 0 0-.035-.024l-.011-.001-.012-.005c-.025-.01-.067-.011-.129.009M33.92 23.845l-.122-.02zm-12.346-9.589a6 6 0 0 1 .191-.26z" clip-rule="evenodd"/></svg>