<svg fill="none" viewBox="0 0 79 66"><path fill="#0D131A" d="M35.555.019c.987-.09 1.759.146 2.355.66.624.54 1.024 1.363 1.302 2.342l.093.37c.358 1.626.141 3.501-.12 5.23l-.123.784c-1.682 10.67-8.744 22.258-13.802 28.349.19 1.671.521 3.586 1.241 5.238.734 1.683 1.86 3.068 3.627 3.666l.192.058c.898.24 1.988.101 3.24-.447-2.42-3.04-2.798-7.509-.986-11.376l.117-.242c.613-1.199 1.562-2.307 2.614-3.144 1.118-.89 2.381-1.497 3.51-1.558l.21-.008c2.135-.037 3.805 1.14 4.448 3.168l.102.348c.457 1.765.256 3.867-.47 5.998-.727 2.134-1.988 4.315-3.68 6.244l-.343.383c-.089.096-.17.188-.239.266l.112.036c.229.07.494.142.672.18l.28.038c.124.012.279.023.456.034.348.02.77.035 1.203.044.87.017 1.76.007 2.175-.037l.648-.084a16 16 0 0 0 4.404-1.347l.538-.269c.189-.098.38-.2.551-.295.143-.08.27-.156.372-.217l-.221-.25c-1.877-2.244-2.58-5.017-2.238-7.344.343-2.33 1.746-4.247 4.094-4.674l.285-.044a4.57 4.57 0 0 1 3.722 1.177c1.065.97 1.781 2.462 1.98 4.277l.03.395c.085 1.853-.627 3.874-1.948 5.592l-.293.363c-.074.088-.123.15-.166.201.78.367 1.715.603 2.62.701l.308.027c1.567.103 3.476-.255 4.729-.895l.097-.05-.23-.613c-1.203-3.189-1.702-5.973-1.485-8.218.217-2.251 1.158-3.974 2.836-4.985l.267-.15c2.782-1.458 6.096.13 6.952 3.35l.094.388c.868 3.894-.668 8.113-4.002 11.096l-.34.294-.12.101.333.705.437.9c2.275 4.566 5.877 10.132 9.893 15.267l.564.736c.147.2.255.36.335.496.127.218.185.385.205.56l.008.18c-.006 1.385-1.65 2.036-2.635 1.134l-.093-.092c-.192-.204-.802-.979-1.565-1.979l-.804-1.063c-3.393-4.52-6.457-9.348-8.556-13.476l-.407-.816-.44-.9-.274.122c-2.465 1.097-5.433 1.376-7.978.762l-.503-.135c-.989-.291-1.857-.72-2.737-1.176l-.585.398-.003.002c-2.794 1.855-5.824 2.85-9.206 3.02l-.68.022c-2.752.049-3.987-.115-5.478-.8l-.303-.145-.1-.05-.029-.014-.032-.015-.046-.024-.007-.005-.435-.258c-3.1 1.813-6.244 1.832-8.531.302l-.222-.155-.033-.024c-.719-.526-1.626-1.189-2.512-2.383-.867-1.17-1.707-2.838-2.353-5.372-2.205 2.067-5.15 3.965-8.149 5.424-2.95 1.434-5.972 2.453-8.414 2.787l-.48.057c-.66.068-1.907.119-2.604-1.089a1.7 1.7 0 0 1-.25-.882 1.6 1.6 0 0 1 .244-.816c.295-.496.833-.946 1.458-1.389l.64-.464c3.138-2.341 5.26-4.839 6.613-6.79a23 23 0 0 0 1.547-2.55q.115-.222.198-.4c-3.272 1.45-7.348 3.063-10.973 3.257l-.371.016c-.885.023-1.607-.431-1.829-1.016l-.037-.118a1.48 1.48 0 0 1 1.067-1.8l.006-.002h.002l.006-.003.03-.007.112-.025.428-.104a107 107 0 0 0 6.429-1.791l.457-.149c2.278-.756 4.357-1.742 5.737-2.366l.764-.362a4 4 0 0 1 .68-.248l.147-.029c.353-.045.784.044 1.143.258.422.253.77.697.77 1.336 0 1.54-.844 3.876-2.08 6.154-.983 1.81-2.232 3.616-3.548 5 3.928-1.774 6.131-3.133 9.72-6.332l-.032-1.985a64 64 0 0 1 .482-8.757l.07-.538.177-1.272c.953-6.34 2.777-12.317 5.134-16.721l.367-.666c.866-1.524 1.802-2.842 2.793-3.893l.253-.26C32.445 1.088 33.987.22 35.355.042zM64.62 46.498l.544 1.114c.392.803.824 1.637 1.292 2.494L66 49.257q-.443-.841-.835-1.645zM36.763 48.62l.1.05-.099-.05m-10.791-1.39c.532.518 1.044.893 1.491 1.22l.017.011-.016-.012c-.537-.392-1.167-.852-1.812-1.548zm29.467-.014.12.037a11 11 0 0 1-.483-.168zm-3.156-.627.708-.48v-.002zm-19.04-1.182a9 9 0 0 0 .573.79l-.22-.28a9 9 0 0 1-.353-.51m34.908-1.419q-.456.464-.966.892l-.227.19.228-.19a14 14 0 0 0 .965-.89zm-5.313-1.949q.192.574.415 1.168l.31.822-.295.15.296-.15-.31-.822a30 30 0 0 1-.598-1.737zM26.92 44.323q.183.291.39.562l-.201-.276a8 8 0 0 1-.189-.286m10.694-1.005a19 19 0 0 1-.937 1.078l-.45.48.45-.48q.66-.706 1.227-1.446zm1.14-10.365c-1.178.213-2.342 1.359-3.147 2.946-.8 1.575-1.206 3.513-.93 5.2l.045.245c.12.577.33 1.198.584 1.755.284.621.612 1.137.91 1.427l.28-.3.32-.35c1.572-1.765 2.715-3.684 3.358-5.628l.146-.477c.307-1.11.393-2.17.289-3.01-.115-.924-.445-1.491-.868-1.672l-.086-.031a3 3 0 0 0-.743-.114zm10.833 10.226q.29.432.634.845h.001a10 10 0 0 1-.635-.845m3.346-.556-.105.113.106-.113m13.078-.204-.16.148zm-12.638-6.968c-.51-.249-.999-.225-1.405.002-.36.202-.675.578-.873 1.116l-.078.242c-.557 2.01.406 4.069 1.723 5.656l.007-.008c.739-.868 1.62-2.303 1.94-3.69.16-.693.176-1.353-.016-1.92-.165-.489-.49-.925-1.045-1.26zm13.454-2.919c-.994.165-1.674.853-1.993 2.008-.324 1.178-.264 2.824.252 4.81l.242.853a57 57 0 0 0 .59 1.858l.026.073a12 12 0 0 0 1.544-1.952l.174-.29c.836-1.464 1.188-3.157 1.092-4.554-.097-1.421-.638-2.428-1.48-2.709l-.172-.046-.213-.04q-.04-.008-.062-.01m-18.361 8.401q.08.23.172.459za10 10 0 0 1-.147-.46zm-16.014-5.115a12 12 0 0 0-.591 2.13c.128-.717.324-1.43.59-2.13M3.715 37.644q-.92.137-1.81.162l-.16-.001q.08.003.16.002a15 15 0 0 0 1.81-.163m-3.398-.691a1 1 0 0 0 .154.268v-.001a1 1 0 0 1-.154-.267m-.055-.582q-.018.12-.012.242v-.122q.004-.06.012-.12m35.615-4.982a10 10 0 0 0-2.268 2.246 9 9 0 0 0-.573.898 8 8 0 0 0-.238.465c.66-1.409 1.817-2.715 3.078-3.61m-23.854.586c-1.146.495-2.455 1.02-3.823 1.45-3.658 1.149-7.006 1.93-7.026 1.936h.001c.043-.01 3.38-.79 7.026-1.935 1.368-.43 2.676-.956 3.822-1.451m52.573 2.498q-.024.093-.046.187.05-.215.115-.413zm-1.851-2.431a6 6 0 0 0-.557 1.167l.13-.337q.184-.44.427-.83M35.8 3.27c-.071-.026-.188-.033-.361.022a2.3 2.3 0 0 0-.643.358c-.508.38-1.14 1.051-1.864 2.097-1.357 1.96-3.01 5.207-4.745 10.247l-.348 1.031c-1.04 3.15-1.715 7.292-2.129 10.656-.206 1.68-.347 3.162-.437 4.223l-.062.782c.12-.18.262-.386.416-.623a86 86 0 0 0 2.34-3.815c1.872-3.234 4.213-7.726 6.09-12.766 1.877-5.046 2.406-8.134 2.405-9.954 0-.908-.132-1.487-.285-1.833a1.1 1.1 0 0 0-.218-.343.25.25 0 0 0-.096-.068l-.032-.003zm28.702 27.035h.001m-48.676 0 .022-.005zM35.649 3.001a.6.6 0 0 1 .235.035.3.3 0 0 1 .056.012l-.055-.012a.6.6 0 0 0-.236-.035M32.116 1.84l-.12.1q.192-.16.39-.308zM35.938.248"/></svg>