<svg fill="none" viewBox="0 0 25 26"><path fill="#81A0FF" d="M12.654 11.654a.2.2 0 0 0-.154-.078.19.19 0 0 0-.154.078l-2.734 3.598a.207.207 0 0 0 .05.297.2.2 0 0 0 .104.03h1.804v6.155a.2.2 0 0 0 .195.203h1.465a.2.2 0 0 0 .195-.203v-6.152h1.81c.163 0 .253-.195.153-.327z"/><path fill="#81A0FF" d="M19.81 9.31c-1.119-3.066-3.968-5.248-7.305-5.248-3.338 0-6.187 2.179-7.305 5.246-2.092.571-3.637 2.555-3.637 4.91 0 2.806 2.185 5.079 4.88 5.079h.979a.2.2 0 0 0 .195-.203V17.57a.2.2 0 0 0-.195-.203h-.98c-.822 0-1.596-.34-2.172-.957a3.22 3.22 0 0 1-.852-2.3c.022-.67.242-1.3.64-1.831.407-.54.979-.934 1.613-1.11l.926-.251.339-.93a6.18 6.18 0 0 1 2.15-2.876 5.76 5.76 0 0 1 3.419-1.122c1.233 0 2.414.388 3.418 1.122a6.214 6.214 0 0 1 2.15 2.877l.338.926.922.254c1.324.371 2.249 1.623 2.249 3.05 0 .84-.315 1.632-.886 2.226a3 3 0 0 1-.98.684c-.368.158-.762.24-1.159.238h-.979a.2.2 0 0 0-.195.203v1.524a.2.2 0 0 0 .195.203h.98c2.694 0 4.88-2.273 4.88-5.078 0-2.354-1.541-4.334-3.628-4.908"/></svg>