<svg fill="currentColor" viewBox="0 0 48 48"><path d="M0 10C0 4.477 4.477 0 10 0h28c5.523 0 10 4.477 10 10v28c0 5.523-4.477 10-10 10H10C4.477 48 0 43.523 0 38z"/><path d="M26.55 20.576a.62.62 0 0 0-.917-.095l-1.263 1.146V18.01a.624.624 0 0 0-.621-.625.624.624 0 0 0-.622.625v3.628l-1.26-1.156a.62.62 0 0 0-.92.09c-.194.263-.132.639.107.859l2.138 1.961a.804.804 0 0 0 1.086.003l2.16-1.962c.242-.22.304-.593.112-.856zm.635 5.751H20.7c-.356 0-.644-.262-.644-.583 0-.322.288-.584.644-.584h6.486c.356 0 .644.262.644.584s-.288.583-.644.583" opacity=".7"/><path d="M30.493 10a2 2 0 0 1 2 2v23a2 2 0 0 1-2 2H17a2 2 0 0 1-2-2V12a2 2 0 0 1 2-2zm-12.212 2.281a1 1 0 0 0-1 1v17.776a1 1 0 0 0 1 1h10.93a1 1 0 0 0 1-1V13.28a1 1 0 0 0-1-1z"/><path d="M30.493 10v-.2zm2 2h.2zm0 23h.2zm-2 2v.2zM17 37v.2zm-2-2h-.2zm0-23h-.2zm2.281 1.281h-.2zm0 17.776h-.2zm11.93 1v.2zm1-1h.2zm0-17.776h.2zm-1-1v-.2zM30.493 10v.2a1.8 1.8 0 0 1 1.8 1.8h.4a2.2 2.2 0 0 0-2.2-2.2zm2 2h-.2v23h.4V12zm0 23h-.2a1.8 1.8 0 0 1-1.8 1.8v.4a2.2 2.2 0 0 0 2.2-2.2zm-2 2v-.2H17v.4h13.493zM17 37v-.2a1.8 1.8 0 0 1-1.8-1.8h-.4a2.2 2.2 0 0 0 2.2 2.2zm-2-2h.2V12h-.4v23zm0-23h.2a1.8 1.8 0 0 1 1.8-1.8v-.4a2.2 2.2 0 0 0-2.2 2.2zm2-2v.2h13.493v-.4H17zm1.281 2.281v-.2a1.2 1.2 0 0 0-1.2 1.2h.4a.8.8 0 0 1 .8-.8zm-1 1h-.2v17.776h.4V13.28zm0 17.776h-.2a1.2 1.2 0 0 0 1.2 1.2v-.4a.8.8 0 0 1-.8-.8zm1 1v.2h10.93v-.4H18.28zm10.93 0v.2a1.2 1.2 0 0 0 1.2-1.2h-.4a.8.8 0 0 1-.8.8zm1-1h.2V13.28h-.4v17.776zm0-17.776h.2a1.2 1.2 0 0 0-1.2-1.2v.4a.8.8 0 0 1 .8.8zm-1-1v-.2H18.28v.4h10.93z"/></svg>