<svg fill="none" viewBox="0 0 48 48"><path fill="#DADADA" d="M0 0h48v48H0z"/><path fill="white" d="M546 91H-894V-18H546z"/><path fill="url(#a)" d="M0 10C0 4.477 4.477 0 10 0h28c5.523 0 10 4.477 10 10v28c0 5.523-4.477 10-10 10H10C4.477 48 0 43.523 0 38z"/><path fill="url(#b)" stroke="url(#c)" stroke-width=".4" d="M24.64 11.8c3.17 0 5.744 1.877 6.163 4.243l.029.165h5.715l.21.01a2.054 2.054 0 0 1 1.842 2.045v13.482a2.054 2.054 0 0 1-2.052 2.055H12.649c-1.132 0-2.05-.92-2.05-2.055V18.263c0-1.136.918-2.055 2.05-2.056h5.798l.03-.165c.419-2.362 2.993-4.242 6.163-4.242Zm-10.744 6.137c-.838 0-1.52.682-1.521 1.523v11.633c0 .842.68 1.524 1.521 1.524H35.31c.839 0 1.52-.682 1.52-1.524V19.46a1.52 1.52 0 0 0-1.52-1.523zm2.424 2.7h16.498a.88.88 0 0 1 .88.881v7.3a.88.88 0 0 1-.88.883H16.32a.88.88 0 0 1-.882-.882v-7.3c0-.488.397-.883.882-.883Zm12.56 1.053a3.313 3.313 0 0 0-3.31 3.315l.005.171a3.314 3.314 0 0 0 3.305 3.145 3.313 3.313 0 0 0 3.308-3.316c0-1.83-1.48-3.315-3.308-3.315Zm-4.24-8.147c-2.02 0-3.828 1.003-4.346 2.393l-.1.27h8.894l-.1-.27c-.52-1.39-2.327-2.393-4.347-2.393Z"/><defs><linearGradient id="a" x1="24" x2="24" y1="-.052" y2="47.948" gradientUnits="userSpaceOnUse"><stop stop-color="#C873F5"/><stop offset="1" stop-color="#7B33BB"/></linearGradient><linearGradient id="b" x1="24.598" x2="24.598" y1="11.6" y2="34" gradientUnits="userSpaceOnUse"><stop stop-color="#F0D8FF"/><stop offset="1" stop-color="#CD8FFF"/></linearGradient><linearGradient id="c" x1="24.598" x2="24.598" y1="11.6" y2="34" gradientUnits="userSpaceOnUse"><stop stop-color="#F9F2FF"/><stop offset="1" stop-color="#C275FF"/></linearGradient></defs></svg>