<svg fill="none" viewBox="0 0 24 24"><path fill="#F5F5F5" d="M0 0h24v24H0z"/><path fill="white" d="M-370.404-49.5h793v822h-793z"/><path fill="#A3A3A3" d="M12.681 16.196c-.013.561.254.95.8 1.178-.2.075-.391.134-.585.187a10 10 0 0 1-2.095.342 9.8 9.8 0 0 1-3.152-.311.2.2 0 0 0-.14.013l-2.32 1.127q-.127.076-.27.12a.67.67 0 0 1-.63-.176.6.6 0 0 1-.148-.613q.062-.261.08-.529c.06-.449.114-.899.177-1.348a.2.2 0 0 0-.006-.091.2.2 0 0 0-.055-.075 9.2 9.2 0 0 1-1.699-1.973 5.9 5.9 0 0 1-.884-2.504c-.21-1.9.397-3.555 1.676-4.988.919-1.02 2.06-1.735 3.363-2.216a9.7 9.7 0 0 1 2.244-.53 10.4 10.4 0 0 1 1.78-.05c1.738.101 3.335.595 4.761 1.563 1.242.842 2.174 1.923 2.724 3.295.222.56.358 1.15.403 1.749.02.242.018.485.015.727a.7.7 0 0 1-.021.196c-.445-.421-.943-.483-1.489-.227-.019-.014-.01-.032-.01-.048a4.83 4.83 0 0 0-.755-2.75 6.1 6.1 0 0 0-2.059-1.99 7.7 7.7 0 0 0-2.893-1.036 8.6 8.6 0 0 0-2.438-.013 8 8 0 0 0-2.2.617c-1.348.604-2.418 1.51-3.103 2.793a4.64 4.64 0 0 0-.524 2.582c.096 1.233.642 2.27 1.505 3.166q.406.416.88.762a.6.6 0 0 1 .241.302.57.57 0 0 1 0 .38q-.035.127-.067.254-.133.497-.268.992a.12.12 0 0 0-.009.077.12.12 0 0 0 .042.066c.055.041.096 0 .14-.024.508-.288 1.014-.578 1.526-.86a.94.94 0 0 1 .733-.092c.815.223 1.66.327 2.507.309a8.2 8.2 0 0 0 2.135-.336.2.2 0 0 1 .088-.017"/><path fill="#A3A3A3" d="M14.402 17.019c-.317 0-.621-.122-.846-.338a1.13 1.13 0 0 1-.352-.812c.006-.246.094-.483.251-.677.158-.194.376-.333.622-.398.157-.041.322-.055.481-.1a3.7 3.7 0 0 0 1.683-.953q.044-.045.09-.087a.28.28 0 0 1 .2-.08.29.29 0 0 1 .266.167.25.25 0 0 1-.07.295 4.2 4.2 0 0 0-.638.742c-.257.388-.43.822-.508 1.276a1.15 1.15 0 0 1-.406.689 1.24 1.24 0 0 1-.773.276m2.177-4.372c.001-.275.107-.54.297-.745s.452-.336.736-.368c.28-.03.563.034.8.184.235.15.409.373.491.633.065.236.095.48.181.712.2.549.538 1.041.984 1.433a.265.265 0 0 1 .028.377.27.27 0 0 1-.187.1.28.28 0 0 1-.205-.06c-.105-.085-.195-.184-.296-.273a3.6 3.6 0 0 0-1.83-.846 1.2 1.2 0 0 1-.72-.396 1.12 1.12 0 0 1-.28-.751m1.175 7.611a1.2 1.2 0 0 1-.771-.269 1.13 1.13 0 0 1-.404-.686 3.4 3.4 0 0 0-1.123-2.006.27.27 0 0 1-.088-.125.26.26 0 0 1-.003-.151.25.25 0 0 1 .073-.131.3.3 0 0 1 .303-.06q.082.03.133.095c.252.258.543.48.864.654.368.206.773.346 1.194.412a1.2 1.2 0 0 1 .723.386c.185.207.286.472.284.746a1.1 1.1 0 0 1-.292.743 1.2 1.2 0 0 1-.727.38c-.058.008-.108.008-.166.012m3.353-5.513c.284.004.557.104.771.284.215.178.356.425.4.694.075.57-.29 1.12-.849 1.25a7 7 0 0 0-.733.172 3.7 3.7 0 0 0-1.494.944.28.28 0 0 1-.199.094.3.3 0 0 1-.208-.075.26.26 0 0 1-.094-.193.25.25 0 0 1 .087-.197q.25-.226.459-.487c.357-.448.59-.975.68-1.532.047-.267.192-.51.408-.685s.49-.27.772-.269"/></svg>