<svg fill="none" viewBox="0 0 24 24"><path stroke="#FBBF24" stroke-width="1.846" d="M8.572 1.714H3.429c-.947 0-1.714.768-1.714 1.715v5.143c0 .946.767 1.714 1.714 1.714h5.143c.947 0 1.714-.768 1.714-1.714V3.429c0-.947-.767-1.715-1.714-1.715Z"/><path stroke="#FBBF24" stroke-width="1.846" d="M20.572 1.714h-5.143c-.947 0-1.714.768-1.714 1.715v5.143c0 .946.767 1.714 1.714 1.714h5.143c.947 0 1.714-.768 1.714-1.714V3.429c0-.947-.767-1.715-1.714-1.715Z"/><path stroke="#FBBF24" stroke-width="1.846" d="M8.572 13.714H3.429c-.947 0-1.714.768-1.714 1.715v5.143c0 .946.767 1.714 1.714 1.714h5.143c.947 0 1.714-.768 1.714-1.715V15.43c0-.947-.767-1.715-1.714-1.715Z"/><path stroke="#FBBF24" stroke-width="1.846" d="M20.572 13.714h-5.143c-.947 0-1.714.768-1.714 1.715v5.143c0 .946.767 1.714 1.714 1.714h5.143c.947 0 1.714-.768 1.714-1.715V15.43c0-.947-.767-1.715-1.714-1.715Z"/></svg>