<svg fill="none" viewBox="0 0 120 120"><rect width="120" height="120" fill="url(#a)" rx="30"/><path fill="url(#b)" stroke="url(#c)" d="M78.97 63.86c-.9 0-1.8.257-2.545.77l-7.403 4.93c-.874.59-1.85.847-2.801.847a5.2 5.2 0 0 1-2.38-.61.1.1 0 0 0-.024-.007.1.1 0 0 1-.024-.006 4.96 4.96 0 0 1-2.61-4.384c0-1-.746-1.925-1.826-2.285a12.6 12.6 0 0 1-4.91-2.977c-2.39-2.388-3.726-5.828-3.726-9.654V33a1 1 0 0 0-1-1h-9.976C33.807 32 29 36.8 29 42.706v28.779c0 5.93 4.807 10.706 10.745 10.706h40.51C86.193 82.19 91 77.415 91 71.485V64.86a1 1 0 0 0-1-1zM71.696 90.2H65.86c-2.134 0-3.882-1.72-3.882-3.85v-.95c0-1.053-.848-1.9-1.902-1.9a1.897 1.897 0 0 0-1.902 1.9v.95c0 2.13-1.722 3.85-3.856 3.85h-5.835c-1.028 0-1.902.873-1.902 1.9s.874 1.9 1.902 1.9h23.212a1.913 1.913 0 0 0 1.902-1.9c0-1.052-.874-1.9-1.902-1.9Z"/><path fill="url(#d)" d="M84.201 31h-20.35a.02.02 0 0 0-.016.017q-.001.015-.017.016c-3.594.005-6.25 1.727-7.315 4.703-.31.94-.503 2.006-.503 3.132v12.22c0 2.384.722 4.358 2.1 5.736 1.377 1.377 3.35 2.1 5.735 2.1a2.37 2.37 0 0 1 2.351 2.35v1.888a1 1 0 0 0 1.557.83l7-4.691c.378-.252.848-.411 1.318-.411h8.147c1.126 0 2.192-.159 3.166-.503 2.974-1.067 4.669-3.73 4.669-7.332v-12.22c0-4.828-3.007-7.835-7.835-7.835zM64.994 47.485a2.35 2.35 0 0 1-2.351-2.351 2.37 2.37 0 0 1 2.351-2.352 2.37 2.37 0 0 1 2.351 2.352 2.35 2.35 0 0 1-2.35 2.351m8.829 0a2.35 2.35 0 0 1-2.351-2.351 2.37 2.37 0 0 1 2.35-2.352 2.37 2.37 0 0 1 2.352 2.352 2.37 2.37 0 0 1-2.351 2.351m8.809 0a2.35 2.35 0 0 1-2.352-2.351 2.37 2.37 0 0 1 2.352-2.352 2.37 2.37 0 0 1 2.35 2.352 2.37 2.37 0 0 1-2.35 2.351" opacity=".7"/><defs><linearGradient id="a" x1="60" x2="60" y1="0" y2="120" gradientUnits="userSpaceOnUse"><stop stop-color="#5BF776"/><stop offset="1" stop-color="#0DBC29"/></linearGradient><linearGradient id="b" x1="60" x2="60" y1="32" y2="94" gradientUnits="userSpaceOnUse"><stop stop-color="white"/><stop offset="1" stop-color="#C2FFAB"/></linearGradient><linearGradient id="c" x1="60" x2="60" y1="32" y2="94" gradientUnits="userSpaceOnUse"><stop stop-color="white"/><stop offset="1" stop-color="#7CDE5A"/></linearGradient><linearGradient id="d" x1="74.022" x2="74.022" y1="31" y2="65.036" gradientUnits="userSpaceOnUse"><stop stop-color="#E5FFE4"/><stop offset="1" stop-color="#C3FFB3"/></linearGradient></defs></svg>