<svg fill="none" viewBox="0 0 20 20"><path fill="#9CA3AF" d="M10 17.228a7.227 7.227 0 1 0 0-14.455 7.227 7.227 0 0 0 0 14.455" opacity=".18"/><path fill="#9CA3AF" d="M10 17.228c1.68 0 3.043-3.236 3.043-7.228S11.681 2.772 10 2.772c-1.68 0-3.043 3.236-3.043 7.228S8.32 17.227 10 17.227" opacity=".28"/><path stroke="#9CA3AF" stroke-linecap="round" stroke-width=".837" d="M2.772 7.337h14.455M2.772 12.663h14.455"/><path stroke="#9CA3AF" stroke-linecap="round" stroke-width="1.065" d="M2.772 10h14.455"/><path stroke="#9CA3AF" stroke-width=".837" d="M10 17.228c1.68 0 3.043-3.236 3.043-7.228S11.681 2.772 10 2.772c-1.68 0-3.043 3.236-3.043 7.228S8.32 17.227 10 17.227Z"/><path stroke="#9CA3AF" stroke-width="1.369" d="M10 17.228a7.227 7.227 0 1 0 0-14.455 7.227 7.227 0 0 0 0 14.455Z"/></svg>