<svg width="20" height="20" viewBox="0 0 20 20" fill="none" xmlns="http://www.w3.org/2000/svg"><path opacity="0.18" d="M10 17.2275C13.9917 17.2275 17.2275 13.9917 17.2275 10C17.2275 6.00834 13.9917 2.77246 10 2.77246C6.00834 2.77246 2.77246 6.00834 2.77246 10C2.77246 13.9917 6.00834 17.2275 10 17.2275Z" fill="#9CA3AF"/><path opacity="0.28" d="M10.0002 17.2275C11.6809 17.2275 13.0434 13.9917 13.0434 10C13.0434 6.00834 11.6809 2.77246 10.0002 2.77246C8.31951 2.77246 6.95703 6.00834 6.95703 10C6.95703 13.9917 8.31951 17.2275 10.0002 17.2275Z" fill="#9CA3AF"/><path d="M2.77246 7.33691H17.2275M2.77246 12.6625H17.2275" stroke="#9CA3AF" stroke-width="0.836873" stroke-linecap="round"/><path d="M2.77246 9.99951H17.2275" stroke="#9CA3AF" stroke-width="1.06511" stroke-linecap="round"/><path d="M10.0002 17.2275C11.6809 17.2275 13.0434 13.9917 13.0434 10C13.0434 6.00834 11.6809 2.77246 10.0002 2.77246C8.31951 2.77246 6.95703 6.00834 6.95703 10C6.95703 13.9917 8.31951 17.2275 10.0002 17.2275Z" stroke="#9CA3AF" stroke-width="0.836873"/><path d="M10 17.2275C13.9917 17.2275 17.2275 13.9917 17.2275 10C17.2275 6.00834 13.9917 2.77246 10 2.77246C6.00834 2.77246 2.77246 6.00834 2.77246 10C2.77246 13.9917 6.00834 17.2275 10 17.2275Z" stroke="#9CA3AF" stroke-width="1.36943"/><rect x="-97.1982" y="-79.6934" width="156.935" height="159.22" stroke="#F97316"/></svg>