<svg fill="none" viewBox="0 0 20 20"><path fill="#00B96B" d="M10 17.125a7.125 7.125 0 1 0 0-14.25 7.125 7.125 0 0 0 0 14.25" opacity=".18"/><path fill="#00B96B" d="M10 17.125c1.657 0 3-3.19 3-7.125s-1.343-7.125-3-7.125S7 6.065 7 10s1.343 7.125 3 7.125" opacity=".28"/><path stroke="#00B96B" stroke-linecap="round" stroke-width=".825" d="M2.875 7.375h14.25m-14.25 5.25h14.25"/><path stroke="#00B96B" stroke-linecap="round" stroke-width="1.05" d="M2.875 10h14.25"/><path stroke="#00B96B" stroke-width=".825" d="M10 17.125c1.657 0 3-3.19 3-7.125s-1.343-7.125-3-7.125S7 6.065 7 10s1.343 7.125 3 7.125Z"/><path stroke="#00B96B" stroke-width="1.35" d="M10 17.125a7.125 7.125 0 1 0 0-14.25 7.125 7.125 0 0 0 0 14.25Z"/></svg>