<svg width="20" height="20" viewBox="0 0 20 20" fill="none" xmlns="http://www.w3.org/2000/svg"><path opacity="0.18" d="M10 17.125C13.935 17.125 17.125 13.935 17.125 10C17.125 6.06497 13.935 2.875 10 2.875C6.06497 2.875 2.875 6.06497 2.875 10C2.875 13.935 6.06497 17.125 10 17.125Z" fill="#00B96B"/><path opacity="0.28" d="M10 17.125C11.6569 17.125 13 13.935 13 10C13 6.06497 11.6569 2.875 10 2.875C8.34315 2.875 7 6.06497 7 10C7 13.935 8.34315 17.125 10 17.125Z" fill="#00B96B"/><path d="M2.875 7.375H17.125M2.875 12.625H17.125" stroke="#00B96B" stroke-width="0.825" stroke-linecap="round"/><path d="M2.875 10H17.125" stroke="#00B96B" stroke-width="1.05" stroke-linecap="round"/><path d="M10 17.125C11.6569 17.125 13 13.935 13 10C13 6.06497 11.6569 2.875 10 2.875C8.34315 2.875 7 6.06497 7 10C7 13.935 8.34315 17.125 10 17.125Z" stroke="#00B96B" stroke-width="0.825"/><path d="M10 17.125C13.935 17.125 17.125 13.935 17.125 10C17.125 6.06497 13.935 2.875 10 2.875C6.06497 2.875 2.875 6.06497 2.875 10C2.875 13.935 6.06497 17.125 10 17.125Z" stroke="#00B96B" stroke-width="1.35"/><rect x="-97.1982" y="-48.6934" width="156.935" height="159.22" stroke="#F97316"/></svg>