<svg width="24" height="26" viewBox="0 0 24 26" fill="none" xmlns="http://www.w3.org/2000/svg"><path d="M9.75 17.8125V10.3125L8.25 11.7188" stroke="black" stroke-width="1.125" stroke-linecap="round" stroke-linejoin="round"/><path d="M12.75 17.3439C13.1417 17.6382 13.6286 17.8125 14.1562 17.8125C15.4507 17.8125 16.5 16.7632 16.5 15.4687C16.5 14.1743 15.4507 13.125 14.1562 13.125C13.6286 13.125 13.1417 13.2993 12.75 13.5936L13.2188 10.3125H16.5" stroke="black" stroke-width="1.125" stroke-linecap="round" stroke-linejoin="round"/><path d="M19.161 6.12771C23.4021 10.0566 23.6341 16.6571 19.6792 20.8703C15.7243 25.0836 9.08014 25.3141 4.83904 21.3852C0.597948 17.4563 0.365929 10.8558 4.32082 6.64253C6.57036 4.24604 9.68998 3.1381 12.7426 3.35123M11.25 0.9375L13.9243 3.4708L11.25 6.1875" stroke="black" stroke-width="1.875" stroke-linecap="round" stroke-linejoin="round"/></svg>