<svg width="48" height="48" viewBox="0 0 48 48" fill="none" xmlns="http://www.w3.org/2000/svg">
<rect x="0.4" y="0.4" width="47.2" height="47.2" rx="11.6" fill="white"/>
<rect x="0.4" y="0.4" width="47.2" height="47.2" rx="11.6" stroke="url(#paint0_radial_2799_19047)" stroke-width="0.8"/>
<rect x="0.4" y="0.4" width="47.2" height="47.2" rx="11.6" stroke="url(#paint1_radial_2799_19047)" stroke-width="0.8"/>
<rect x="0.4" y="0.4" width="47.2" height="47.2" rx="11.6" stroke="url(#paint2_radial_2799_19047)" stroke-opacity="0.4" style="mix-blend-mode:plus-darker" stroke-width="0.8"/>
<path opacity="0.8" d="M28.2806 24.0436C28.2806 24.266 28.2652 24.4808 28.2269 24.6879C27.9354 26.6514 26.3017 28.1778 24.2921 28.3082C24.2001 28.3235 24.1003 28.3235 24.0006 28.3235C23.8933 28.3235 23.7935 28.3235 23.6938 28.3082C21.6152 28.1625 19.9508 26.5364 19.7437 24.4808C19.7284 24.3351 19.7207 24.1893 19.7207 24.0436C19.7207 23.8825 19.7207 23.7215 19.7514 23.5604C19.9892 21.4358 21.784 19.7867 23.9623 19.7637H24.0006C24.1617 19.7637 24.3151 19.7713 24.4685 19.7944C26.3784 20.0014 27.9201 21.4664 28.2192 23.3533C28.2576 23.5757 28.2806 23.8058 28.2806 24.0436Z" fill="url(#paint3_radial_2799_19047)"/>
<path d="M14.6895 24.0438C14.6895 23.0654 14.8407 22.1209 15.1172 21.2379L15.1187 21.2334C15.896 18.7853 17.662 16.7809 19.9335 15.6763C20.581 15.3616 21.3616 15.6317 21.6765 16.2793C21.9912 16.9269 21.721 17.7074 21.0735 18.0223C19.4335 18.8199 18.162 20.2673 17.6047 22.0221C17.4066 22.6565 17.2976 23.3365 17.2976 24.0438C17.2976 24.6983 17.3939 25.3353 17.568 25.9351C18.0752 27.6585 19.2633 29.1037 20.8233 29.9447C21.4572 30.2864 21.6939 31.0778 21.3521 31.7117C21.0104 32.3454 20.2197 32.5821 19.5859 32.2405C17.4193 31.0725 15.77 29.0677 15.0647 26.6662L15.0632 26.6624C14.8232 25.8357 14.6895 24.9539 14.6895 24.0438Z" fill="url(#paint4_linear_2799_19047)" stroke="url(#paint5_linear_2799_19047)" stroke-width="0.399169"/>
<path d="M30.7043 24.0436C30.7043 23.3895 30.6215 22.8249 30.4616 22.2556L30.4601 22.2511C29.9796 20.5146 28.8112 19.0558 27.2633 18.1951C26.634 17.8451 26.4077 17.0515 26.7577 16.4221C27.1077 15.7929 27.9013 15.5666 28.5306 15.9165C30.6781 17.1107 32.3009 19.1323 32.9717 21.5508L33.0511 21.8497C33.2231 22.5486 33.3117 23.2602 33.3117 24.0436C33.3117 24.9351 33.1878 25.8006 32.938 26.636L32.9387 26.6368C32.2239 29.1117 30.511 31.153 28.2745 32.3115C27.635 32.6426 26.8477 32.3928 26.5165 31.7534C26.1853 31.114 26.4351 30.3267 27.0745 29.9954C28.6883 29.1596 29.9208 27.6874 30.4332 25.9132L30.4377 25.8997C30.6143 25.3132 30.7043 24.696 30.7043 24.0436Z" fill="url(#paint6_linear_2799_19047)" stroke="url(#paint7_linear_2799_19047)" stroke-width="0.399169"/>
<path d="M37.3921 24.045C37.3921 21.9197 36.8964 19.9084 36.0169 18.1201L35.8544 17.8018C35.0201 16.2258 33.8835 14.8352 32.5219 13.7158C31.9657 13.2585 31.8856 12.4362 32.3429 11.8799C32.8002 11.3239 33.6218 11.2438 34.178 11.7009C35.8077 13.0406 37.1641 14.7024 38.1592 16.5824L38.3532 16.9614L38.3554 16.9644C39.4076 19.1022 40.0003 21.5083 40.0003 24.045C40.0003 26.5848 39.3599 29.1923 38.2116 31.3968C37.1419 33.4679 35.6304 35.271 33.802 36.682C33.2319 37.122 32.4128 37.0162 31.9729 36.4461C31.5331 35.8761 31.6383 35.0576 32.2081 34.6177C33.7378 33.4371 35.0027 31.9282 35.8963 30.1968L36.0723 29.8448C36.9171 28.0883 37.3921 26.0357 37.3921 24.045Z" fill="url(#paint8_linear_2799_19047)" stroke="url(#paint9_linear_2799_19047)" stroke-width="0.399169"/>
<path d="M8 24.0432C8.00006 21.322 8.68505 18.7574 9.87933 16.5191C10.9732 14.4652 12.5019 12.677 14.3503 11.2886C14.9261 10.8561 15.7433 10.9727 16.1757 11.5485C16.6081 12.1243 16.4923 12.9414 15.9166 13.3739C14.3751 14.5317 13.0968 16.0259 12.1811 17.7453L12.1804 17.7468C11.1812 19.6194 10.6082 21.7637 10.6081 24.0432C10.6081 26.2054 11.1181 28.2442 12.0321 30.0512L12.0351 30.0564C12.8869 31.7602 14.0952 33.2542 15.56 34.433C16.1209 34.8846 16.2092 35.7057 15.7578 36.2667C15.3063 36.8274 14.4858 36.9164 13.9249 36.4652C12.1683 35.0515 10.7222 33.262 9.70256 31.2227V31.2219C8.60895 29.0574 8 26.6185 8 24.0432Z" fill="url(#paint10_linear_2799_19047)" stroke="url(#paint11_linear_2799_19047)" stroke-width="0.399169"/>
<defs>
<radialGradient id="paint0_radial_2799_19047" cx="0" cy="0" r="1" gradientTransform="matrix(17.3333 -69.4545 24.4398 73.7787 4.82051 42.9091)" gradientUnits="userSpaceOnUse">
<stop stop-color="#FF4649"/>
<stop offset="1" stop-color="#FA2EAD" stop-opacity="0"/>
</radialGradient>
<radialGradient id="paint1_radial_2799_19047" cx="0" cy="0" r="1" gradientTransform="matrix(-40.2324 96.6857 -25.1131 -123.866 45.61 3.77143)" gradientUnits="userSpaceOnUse">
<stop stop-color="#FF7F81"/>
<stop offset="1" stop-color="#FF9D9F" stop-opacity="0"/>
</radialGradient>
<radialGradient id="paint2_radial_2799_19047" cx="0" cy="0" r="1" gradientTransform="matrix(-18.722 31.2 -6.9296 -49.2883 42.6224 24)" gradientUnits="userSpaceOnUse">
<stop stop-color="#7DFFB3"/>
<stop offset="1" stop-color="#FFD0F0"/>
</radialGradient>
<radialGradient id="paint3_radial_2799_19047" cx="0" cy="0" r="1" gradientUnits="userSpaceOnUse" gradientTransform="translate(22.7158 21.7238) rotate(52.4314) scale(7.02436)">
<stop offset="0.328051" stop-color="#FFD8D6"/>
<stop offset="1" stop-color="#FF5E53"/>
</radialGradient>
<linearGradient id="paint4_linear_2799_19047" x1="18.2486" y1="15.5449" x2="18.2486" y2="32.3968" gradientUnits="userSpaceOnUse">
<stop offset="0.127496" stop-color="#FFC699"/>
<stop offset="1" stop-color="#FF3838" stop-opacity="0.7"/>
</linearGradient>
<linearGradient id="paint5_linear_2799_19047" x1="18.2486" y1="15.5449" x2="18.2486" y2="32.3968" gradientUnits="userSpaceOnUse">
<stop stop-color="#FFE1CB"/>
<stop offset="1" stop-color="#FF5867"/>
</linearGradient>
<linearGradient id="paint6_linear_2799_19047" x1="29.8409" y1="15.752" x2="29.8409" y2="32.4578" gradientUnits="userSpaceOnUse">
<stop offset="0.127496" stop-color="#FFC699"/>
<stop offset="1" stop-color="#FF3838" stop-opacity="0.7"/>
</linearGradient>
<linearGradient id="paint7_linear_2799_19047" x1="29.8409" y1="15.752" x2="29.8409" y2="32.4578" gradientUnits="userSpaceOnUse">
<stop stop-color="#FFE1CB"/>
<stop offset="1" stop-color="#FF5867"/>
</linearGradient>
<linearGradient id="paint8_linear_2799_19047" x1="35.8507" y1="11.4043" x2="35.8507" y2="36.9536" gradientUnits="userSpaceOnUse">
<stop offset="0.127496" stop-color="#FFC699"/>
<stop offset="1" stop-color="#FF3838" stop-opacity="0.7"/>
</linearGradient>
<linearGradient id="paint9_linear_2799_19047" x1="35.8507" y1="11.4043" x2="35.8507" y2="36.9536" gradientUnits="userSpaceOnUse">
<stop stop-color="#FFE1CB"/>
<stop offset="1" stop-color="#FF5867"/>
</linearGradient>
<linearGradient id="paint10_linear_2799_19047" x1="12.2186" y1="11.0273" x2="12.2186" y2="36.753" gradientUnits="userSpaceOnUse">
<stop offset="0.127496" stop-color="#FFC699"/>
<stop offset="1" stop-color="#FF3838" stop-opacity="0.7"/>
</linearGradient>
<linearGradient id="paint11_linear_2799_19047" x1="12.2186" y1="11.0273" x2="12.2186" y2="36.753" gradientUnits="userSpaceOnUse">
<stop stop-color="#FFE1CB"/>
<stop offset="1" stop-color="#FF5867"/>
</linearGradient>
</defs>
</svg>