<svg fill="none" viewBox="0 0 24 24"><path fill="#F5F5F5" d="M0 0h24v24H0z"/><rect width="953" height="913" x="-328" y="-484" fill="white" rx="16"/><g clipPath="url(#a)"><circle cx="12" cy="12" r="12" fill="#F54A45"/><path fill="white" d="M13.726 18.93c0 1.007-.758 1.726-1.765 1.726-1.008 0-1.687-.719-1.687-1.726s.68-1.706 1.687-1.706 1.765.699 1.765 1.706"/><path fill="white" stroke="white" strokeWidth=".122" d="M10.295 5.108s-.047-1.787 1.682-1.764c1.729.024 1.729 1.764 1.729 1.764l-.83 10.173s-.212.663-.9.663c-.686 0-.923-.663-.923-.663z"/></g><defs><clipPath id="a"><path fill="white" d="M0 0h24v24H0z"/></clipPath></defs></svg>