<svg width="24" height="24" viewBox="0 0 24 24" fill="none" xmlns="http://www.w3.org/2000/svg"><circle cx="12" cy="12" r="12" fill="#38BDF8"/><g><path d="M11.4405 10.0917L13.7255 7.80671C14.3908 7.14137 15.4842 7.15603 16.1676 7.83945C16.8511 8.52285 16.8657 9.61625 16.2004 10.2816L14.2166 12.2654" stroke="white" stroke-width="0.9" stroke-linecap="round" stroke-linejoin="round"/><path d="M9.77473 11.7493L7.79091 13.7331C7.12556 14.3984 7.14023 15.4918 7.82363 16.1752C8.50706 16.8587 9.60043 16.8733 10.2658 16.208L12.5508 13.923" stroke="white" stroke-width="0.9" stroke-linecap="round" stroke-linejoin="round"/><path d="M11.4727 12.5366C10.7892 11.8532 10.7746 10.7598 11.4399 10.0945" stroke="white" stroke-width="0.9" stroke-linecap="round" stroke-linejoin="round"/><path d="M12.5509 11.4492C13.2344 12.1326 13.249 13.226 12.5837 13.8913" stroke="white" stroke-width="0.9" stroke-linecap="round" stroke-linejoin="round"/></g><defs><clipPath id="clip0_114_13568"><rect width="24" height="24" fill="white"/></clipPath><clipPath id="clip1_114_13568"><rect width="12" height="12" fill="white" transform="matrix(-1 0 0 1 18 6)"/></clipPath></defs></svg>