<svg fill="none" viewBox="0 0 16 16"><path fill="#EF4444" stroke="#EF4444" stroke-linejoin="round" d="M8 14.667c1.84 0 3.508-.747 4.714-1.953A6.65 6.65 0 0 0 14.667 8c0-1.841-.746-3.508-1.953-4.714A6.65 6.65 0 0 0 8 1.333c-1.84 0-3.508.747-4.714 1.953A6.65 6.65 0 0 0 1.333 8c0 1.84.747 3.508 1.953 4.714A6.65 6.65 0 0 0 8 14.667Z"/><path stroke="white" stroke-linecap="round" stroke-linejoin="round" d="m5.381 5.382 5.237 5.237"/><path stroke="white" stroke-linecap="round" stroke-linejoin="round" d="m5.381 10.62 5.237-5.238"/></svg>