<svg fill="none" viewBox="0 0 24 24"><path fill="#F5F5F5" d="M0 0h24v24H0z"/><rect width="953" height="913" x="-144" y="-484" fill="white" rx="16"/><path stroke="#0D131A" strokeLinejoin="round" strokeWidth="1.5" d="M19 2H5a1 1 0 0 0-1 1v18a1 1 0 0 0 1 1h14a1 1 0 0 0 1-1V3a1 1 0 0 0-1-1Z"/><path stroke="#0D131A" strokeLinejoin="round" strokeWidth="1.5" d="M12 9.5a2 2 0 1 0 0-4 2 2 0 0 0 0 4Z"/><path stroke="#0D131A" strokeLinecap="round" strokeLinejoin="round" strokeWidth="1.5" d="M15 12.5a3 3 0 0 0-6 0M9 15.5h6M9 18.5h3.5"/></svg>