<svg width="24" height="24" viewBox="0 0 24 24" fill="none" xmlns="http://www.w3.org/2000/svg">
<rect width="24" height="24" fill="#F5F5F5"/>
<rect x="-144" y="-484" width="953" height="913" rx="16" fill="white"/>
<path d="M19 2H5C4.44772 2 4 2.44772 4 3V21C4 21.5523 4.44772 22 5 22H19C19.5523 22 20 21.5523 20 21V3C20 2.44772 19.5523 2 19 2Z" stroke="#0D131A" stroke-width="1.5" stroke-linejoin="round"/>
<path d="M12 9.5C13.1046 9.5 14 8.60455 14 7.5C14 6.39545 13.1046 5.5 12 5.5C10.8954 5.5 10 6.39545 10 7.5C10 8.60455 10.8954 9.5 12 9.5Z" stroke="#0D131A" stroke-width="1.5" stroke-linejoin="round"/>
<path d="M15 12.5C15 10.8432 13.6568 9.5 12 9.5C10.3432 9.5 9 10.8432 9 12.5" stroke="#0D131A" stroke-width="1.5" stroke-linecap="round" stroke-linejoin="round"/>
<path d="M9 15.5H15" stroke="#0D131A" stroke-width="1.5" stroke-linecap="round" stroke-linejoin="round"/>
<path d="M9 18.5H12.5" stroke="#0D131A" stroke-width="1.5" stroke-linecap="round" stroke-linejoin="round"/>
</svg>
