<svg fill="none" viewBox="0 0 180 180"><path fill="#F5F5F4" d="M90 163.5c41.421 0 75-33.579 75-75s-33.579-75-75-75-75 33.579-75 75 33.579 75 75 75"/><path fill="white" d="M92.306 51.5A31.35 31.35 0 0 0 87 69c0 17.397 14.103 31.5 31.5 31.5a31.36 31.36 0 0 0 19.5-6.762V161.5a5 5 0 0 1-5 5H47a5 5 0 0 1-5-5v-105a5 5 0 0 1 5-5z"/><path stroke="#D9D9D9" stroke-linecap="round" stroke-width="5" d="m110.5 69 5.323 4.835a1 1 0 0 0 1.406-.06L130 60"/><circle cx="119" cy="68.5" r="24.5" stroke="#EAEAEA" stroke-width="5"/><path fill="#D6D3D1" d="M80 110.5H54a3 3 0 1 1 0-6h26a3 3 0 1 1 0 6"/><path fill="#D6D3D1" d="M106 136.5H54a3 3 0 1 1 0-6h52a3 3 0 1 1 0 6"/><path fill="#ECECEC" d="M93.6 123.5H53.4c-1.325 0-2.4-1.343-2.4-3s1.075-3 2.4-3h40.2c1.326 0 2.4 1.343 2.4 3s-1.075 3-2.4 3"/></svg>