<svg fill="none" viewBox="0 0 180 180"><path fill="#F5F5F4" d="M90 163.5c41.421 0 75-33.579 75-75s-33.579-75-75-75-75 33.579-75 75 33.579 75 75 75"/><path fill="white" d="M92.306 51.5A31.35 31.35 0 0 0 87 69c0 17.397 14.103 31.5 31.5 31.5a31.36 31.36 0 0 0 19.5-6.762V161.5a5 5 0 0 1-5 5H47a5 5 0 0 1-5-5v-105a5 5 0 0 1 5-5z"/><circle cx="119" cy="68.5" r="24.5" stroke="#EAEAEA" stroke-width="5"/><mask id="a" fill="white"><path d="M125.985 79.738c1.094.465 2.377-.044 2.655-1.2a13.006 13.006 0 0 0-11.102-15.946 13 13 0 0 0-5.797.625c-1.123.39-1.504 1.716-.935 2.76s1.877 1.398 3.028 1.102a8.694 8.694 0 0 1 10.758 9.753c-.182 1.175.299 2.442 1.393 2.906"/></mask><path stroke="#D9D9D9" stroke-width="12" d="M125.985 79.738c1.094.465 2.377-.044 2.655-1.2a13.006 13.006 0 0 0-11.102-15.946 13 13 0 0 0-5.797.625c-1.123.39-1.504 1.716-.935 2.76s1.877 1.398 3.028 1.102a8.694 8.694 0 0 1 10.758 9.753c-.182 1.175.299 2.442 1.393 2.906Z" mask="url(#a)"/><path fill="#D6D3D1" d="M80 110.5H54a3 3 0 1 1 0-6h26a3 3 0 1 1 0 6"/><path fill="#D6D3D1" d="M106 136.5H54a3 3 0 1 1 0-6h52a3 3 0 1 1 0 6"/><path fill="#ECECEC" d="M93.6 123.5H53.4c-1.325 0-2.4-1.343-2.4-3s1.075-3 2.4-3h40.2c1.326 0 2.4 1.343 2.4 3s-1.075 3-2.4 3"/><path stroke="#D9D9D9" stroke-linecap="round" stroke-width="4" d="m114.185 59.5-4.774 4.774a1 1 0 0 0 0 1.414l4.774 4.773"/></svg>