<svg fill="none" viewBox="0 0 24 24"><path fill="#F5F5F5" d="M0 0h24v24H0z"/><path fill="white" d="M-465.778-337.125h793v822h-793z"/><path stroke="#0D131A" strokeLinejoin="round" strokeWidth="1.5" d="M12 22a9.97 9.97 0 0 0 7.071-2.929A9.97 9.97 0 0 0 22 12a9.97 9.97 0 0 0-2.929-7.071A9.97 9.97 0 0 0 12 2a9.97 9.97 0 0 0-7.071 2.929A9.97 9.97 0 0 0 2 12a9.97 9.97 0 0 0 2.929 7.071A9.97 9.97 0 0 0 12 22Z"/><path stroke="#0D131A" strokeLinecap="round" strokeLinejoin="round" strokeWidth="1.5" d="M12 14.312v-2a3 3 0 1 0-3-3"/><path fill="#0D131A" fillRule="evenodd" d="M12 18.812a1.25 1.25 0 1 0 0-2.5 1.25 1.25 0 0 0 0 2.5" clipRule="evenodd"/></svg>