<svg fill="none" viewBox="0 0 24 24"><path stroke="#0D131A" stroke-linejoin="round" stroke-width="1.5" d="M12 22a9.97 9.97 0 0 0 7.071-2.929A9.97 9.97 0 0 0 22 12a9.97 9.97 0 0 0-2.929-7.071A9.97 9.97 0 0 0 12 2a9.97 9.97 0 0 0-7.071 2.929A9.97 9.97 0 0 0 2 12a9.97 9.97 0 0 0 2.929 7.071A9.97 9.97 0 0 0 12 22Z"/><path stroke="#0D131A" stroke-linecap="round" stroke-linejoin="round" stroke-width="1.5" d="M12 14.312v-2a3 3 0 1 0-3-3"/><path fill="#0D131A" fill-rule="evenodd" d="M12 18.812a1.25 1.25 0 1 0 0-2.5 1.25 1.25 0 0 0 0 2.5" clip-rule="evenodd"/></svg>