<svg width="24" height="24" viewBox="0 0 24 24" fill="none" xmlns="http://www.w3.org/2000/svg">
<rect width="24" height="24" fill="#F5F5F5"/>
<rect x="-228" y="-194" width="953" height="913" rx="16" fill="white"/>
<path d="M12 2C17.5228 2 22 6.47715 22 12C22 17.5228 17.5228 22 12 22C6.47715 22 2 17.5228 2 12C2 6.47715 6.47715 2 12 2ZM12 3.2002C7.13989 3.2002 3.2002 7.13989 3.2002 12C3.2002 16.8601 7.13989 20.7998 12 20.7998C16.8601 20.7998 20.7998 16.8601 20.7998 12C20.7998 7.13989 16.8601 3.2002 12 3.2002ZM12.5996 11.4004H17V12.5996H12.5996V17H11.4004V12.5996H7V11.4004H11.4004V7H12.5996V11.4004Z" fill="black" fill-opacity="0.9"/>
</svg>
