<svg fill="none" viewBox="0 0 24 24"><circle cx="12" cy="12" r="12" fill="#34D399"/><path fill="#34D399" d="M4.8 4.8h14.4v14.4H4.8z"/><path fill="white" fill-rule="evenodd" d="M15.899 11.313a4.8 4.8 0 1 0-8.337 3.332l-.36 2.163 2.135-.917q1.41.469 2.663.234" clip-rule="evenodd"/><path stroke="white" stroke-linecap="round" stroke-linejoin="round" stroke-width=".9" d="M15.899 11.313a4.8 4.8 0 1 0-8.337 3.332l-.36 2.163 2.135-.917q1.41.469 2.663.234"/><path fill="#34D399" d="M9.338 10.939a.68.68 0 0 0 .675-.68.68.68 0 0 0-.675-.68.68.68 0 0 0-.675.68c0 .375.302.68.675.68"/><path fill="#34D399" d="M12.037 10.939a.68.68 0 0 0 .675-.68.68.68 0 0 0-.675-.68.68.68 0 0 0-.675.68c0 .375.303.68.675.68"/><path fill="white" fill-rule="evenodd" d="M16.428 16.779a3.15 3.15 0 1 1 .972-1.187" clip-rule="evenodd"/><path stroke="white" stroke-linecap="round" stroke-linejoin="round" stroke-width=".9" d="M16.428 16.779a3.15 3.15 0 1 1 .972-1.187"/><path fill="white" fill-rule="evenodd" d="m17.402 15.593.3 1.808-1.272-.621" clip-rule="evenodd"/><path stroke="white" stroke-linecap="round" stroke-linejoin="round" stroke-width=".9" d="m17.402 15.593.3 1.808-1.272-.621"/><path fill="#34D399" d="M15.506 14.04a.51.51 0 0 1-.506-.51c0-.282.227-.51.506-.51.28 0 .506.228.506.51 0 .281-.226.51-.506.51"/><path fill="#34D399" d="M13.481 14.04a.51.51 0 0 1-.506-.51c0-.282.227-.51.506-.51.28 0 .507.228.507.51 0 .281-.227.51-.507.51"/></svg>