<svg width="24" height="24" viewBox="0 0 24 24" fill="none" xmlns="http://www.w3.org/2000/svg"><path d="M10.0988 16.4358V10.0994L8.83154 11.2875" stroke="black" stroke-width="0.950468" stroke-linecap="round" stroke-linejoin="round"/><path d="M12.6333 16.0399C12.9642 16.2885 13.3756 16.4358 13.8214 16.4358C14.915 16.4358 15.8015 15.5493 15.8015 14.4557C15.8015 13.3621 14.915 12.4755 13.8214 12.4755C13.3756 12.4755 12.9642 12.6228 12.6333 12.8714L13.0293 10.0994H15.8015" stroke="black" stroke-width="0.950468" stroke-linecap="round" stroke-linejoin="round"/><path d="M18.0499 6.56371C21.6331 9.88309 21.8291 15.4596 18.4878 19.0192C15.1465 22.5788 9.53307 22.7735 5.94993 19.4541C2.3668 16.1348 2.17077 10.5583 5.5121 6.99867C7.41265 4.97397 10.0483 4.03791 12.6273 4.21798M11.3663 2.17871L13.6257 4.31899L11.3663 6.61423" stroke="black" stroke-width="1.58411" stroke-linecap="round" stroke-linejoin="round"/></svg>