<svg width="48" height="48" viewBox="0 0 48 48" fill="none" xmlns="http://www.w3.org/2000/svg"><rect width="48" height="48" fill="#DADADA"/><mask id="path-2-inside-1_2483_15959" fill="white"><path d="M1041 91L-399 90.9999L-399 -18.0001L1041 -18L1041 91Z"/></mask><path d="M1041 91L-399 90.9999L-399 -18.0001L1041 -18L1041 91Z" fill="white"/><path d="M0 10C0 4.47715 4.47715 0 10 0H38C43.5229 0 48 4.47715 48 10V38C48 43.5229 43.5228 48 38 48H10C4.47715 48 0 43.5228 0 38V10Z" fill="url(#paint0_linear_2483_15959)"/><path opacity="0.7" d="M15.4487 11H31.5513C32.9025 11 34 12.1568 34 13.5808V34.3648C34 35.7888 32.9025 36.9456 31.5513 36.9456H15.4487C14.0975 36.9456 13 35.7888 13 34.3648V13.5808C13 12.1568 14.0975 11 15.4487 11Z" fill="url(#paint1_linear_2483_15959)" fill-opacity="0.6"/><path d="M33.4605 14.7661H19.4846C18.312 14.7661 17.3594 15.755 17.3594 16.9723V34.7393C17.3594 35.9566 18.312 36.9454 19.4846 36.9454H33.4605C34.6332 36.9454 35.5858 35.9566 35.5858 34.7393V16.9723C35.5858 15.755 34.6332 14.7661 33.4605 14.7661Z" fill="url(#paint2_linear_2483_15959)" stroke="url(#paint3_linear_2483_15959)" stroke-width="0.4"/><rect x="21.3203" y="18.5327" width="9.11321" height="1.67391" rx="0.836955" fill="#6EC3FB"/><rect x="21.3203" y="21.8804" width="7.92453" height="1.67391" rx="0.836955" fill="#6EC3FB"/><rect x="21.3203" y="25.2285" width="5.9434" height="1.67391" rx="0.836955" fill="#6EC3FB"/><defs><linearGradient id="paint0_linear_2483_15959" x1="24" y1="2.07168e-05" x2="24" y2="48" gradientUnits="userSpaceOnUse"><stop stop-color="#1D6FF2"/><stop offset="1" stop-color="#1AC8FC"/></linearGradient><linearGradient id="paint1_linear_2483_15959" x1="23.5" y1="11" x2="23.5" y2="36.9456" gradientUnits="userSpaceOnUse"><stop stop-color="#EBF9FF"/><stop offset="1" stop-color="#91E0FF"/></linearGradient><linearGradient id="paint2_linear_2483_15959" x1="26.9833" y1="14.7661" x2="26.9833" y2="36.9454" gradientUnits="userSpaceOnUse"><stop stop-color="#D2F2FF"/><stop offset="1" stop-color="#95D1FF"/></linearGradient><linearGradient id="paint3_linear_2483_15959" x1="26.9833" y1="14.7661" x2="26.9833" y2="36.9454" gradientUnits="userSpaceOnUse"><stop stop-color="white"/><stop offset="1" stop-color="#7FD6FF"/></linearGradient></defs></svg>