<svg viewBox="0 0 120 120" fill="currentColor"><rect width="120" height="120" fill="currentColor" rx="30"/><path fill="currentColor" fillOpacity=".6" d="M38.18 29h40.64c3.41 0 6.18 2.764 6.18 6.167v49.666C85 88.236 82.23 91 78.82 91H38.18C34.77 91 32 88.236 32 84.833V35.167C32 31.764 34.77 29 38.18 29" opacity=".7"/><path fill="currentColor" stroke="currentColor" d="M83.636 38H48.364C45.404 38 43 40.363 43 43.272v42.456C43 88.638 45.404 91 48.364 91h35.272C86.596 91 89 88.637 89 85.728V43.272C89 40.362 86.596 38 83.636 38Z"/><rect width="23" height="4" x="53" y="47" fill="currentColor" rx="2"/><rect width="20" height="4" x="53" y="55" fill="currentColor" rx="2"/><rect width="15" height="4" x="53" y="63" fill="currentColor" rx="2"/><defs><linearGradient id="a" x1="60" x2="60" y1="0" y2="120" gradientUnits="userSpaceOnUse"><stop stopColor="currentColor"/><stop offset="1" stopColor="currentColor"/></linearGradient><linearGradient id="b" x1="58.5" x2="58.5" y1="29" y2="91" gradientUnits="userSpaceOnUse"><stop stopColor="currentColor"/><stop offset="1" stopColor="currentColor"/></linearGradient><linearGradient id="c" x1="67.289" x2="67.289" y1="38" y2="91" gradientUnits="userSpaceOnUse"><stop stopColor="currentColor"/><stop offset="1" stopColor="currentColor"/></linearGradient><linearGradient id="d" x1="67.289" x2="67.289" y1="38" y2="91" gradientUnits="userSpaceOnUse"><stop stopColor="currentColor"/><stop offset="1" stopColor="currentColor"/></linearGradient></defs></svg>