<svg fill="none" viewBox="0 0 114 114"><path fill="#DADADA" d="M0 0h114v114H0z"/><path fill="url(#a)" d="M-6390.05-728.603c0-39.212 31.78-71.001 71-71.001H846.944c39.213 0 71.001 31.789 71.001 71.002V7548.4c0 39.21-31.788 71-71.001 71H-6319.05c-39.22 0-71-31.79-71-71z"/><path stroke="white" stroke-opacity=".12" stroke-width="2.958" d="M-6319.05-798.124H846.944c38.396 0 69.522 31.126 69.522 69.521V7548.4c0 38.39-31.126 69.52-69.522 69.52H-6319.05c-38.4 0-69.53-31.13-69.53-69.52V-728.603c0-38.395 31.13-69.521 69.53-69.521Z"/><g filter="url(#b)"><rect width="110" height="110" x="1.828" y="1.396" fill="#DBEFFD" rx="22.344"/><rect width="110.107" height="110.107" x="1.774" y="1.343" stroke="#DDE5F2" stroke-width=".107" rx="22.398"/><g filter="url(#c)"><path fill="white" d="M56.927 30.167c-.066.4-.103.81-.103 1.227v1.365a7.47 7.47 0 0 0 7.469 7.467h5.436l-.001.002a3.44 3.44 0 0 1 2.712 1.251c.565.685.827 1.524.798 2.35a4 4 0 0 1 .017.322v4.897q0 .166-.017.328a7.467 7.467 0 0 0 7.46 7.13h2.22q.415-.002.818-.047.004.072.005.146v28.302a3.736 3.736 0 0 1-3.734 3.734H33.624a3.734 3.734 0 0 1-3.733-3.734V33.901a3.734 3.734 0 0 1 3.733-3.734zM41.157 75.31a3.487 3.487 0 0 0 0 6.972h3.338a3.486 3.486 0 0 0 0-6.972zm14.745 0a3.486 3.486 0 0 0 0 6.972H72.5a3.486 3.486 0 0 0 0-6.972zM41.157 61.684a3.486 3.486 0 0 0 0 6.972h16.596a3.487 3.487 0 0 0 0-6.972zm28.016 0a3.486 3.486 0 1 0 0 6.972h3.338a3.487 3.487 0 0 0 0-6.972zM41.157 48.061a3.486 3.486 0 1 0 0 6.971h16.596a3.486 3.486 0 1 0 0-6.97z"/><path fill="#0F172A" stroke="black" stroke-width=".175" d="M81.59 17.117c-1.249.039-1.362.705-1.682 1.555s-.383 4.69-2.304 7.12-6.722 2.527-7.392 2.67c-.67.144-1.405.66-1.416 1.811s.953 1.564 1.441 1.687 5.683.675 7.428 2.32c1.744 1.646 2.14 6.886 2.407 7.43.267.545.624 1.326 1.702 1.303s1.458-.84 1.702-1.327c.244-.486.922-5.093 2.747-7.467s5.555-2.187 6.657-2.516c1.103-.328 1.788-.707 1.775-1.926s-1.8-1.54-1.8-1.54-4.904-.689-6.692-2.506-2.851-7.084-2.851-7.084-.475-1.568-1.723-1.53Z"/></g></g><defs><filter id="b" width="113.656" height="113.652" x="0" y="0" color-interpolation-filters="sRGB" filterUnits="userSpaceOnUse"><feFlood flood-opacity="0" result="BackgroundImageFix"/><feColorMatrix in="SourceAlpha" result="hardAlpha" type="matrix" values="0 0 0 0 0 0 0 0 0 0 0 0 0 0 0 0 0 0 127 0"/><feOffset dy=".43"/><feGaussianBlur stdDeviation=".859"/><feColorMatrix type="matrix" values="0 0 0 0 0 0 0 0 0 0 0 0 0 0 0 0 0 0 0.15 0"/><feBlend in2="BackgroundImageFix" mode="normal" result="effect1_dropShadow_2483_15959"/><feBlend in="SourceGraphic" in2="effect1_dropShadow_2483_15959" mode="normal" result="shape"/></filter><filter id="c" width="79.633" height="84.256" x="21.297" y="21.573" color-interpolation-filters="sRGB" filterUnits="userSpaceOnUse"><feFlood flood-opacity="0" result="BackgroundImageFix"/><feColorMatrix in="SourceAlpha" result="hardAlpha" type="matrix" values="0 0 0 0 0 0 0 0 0 0 0 0 0 0 0 0 0 0 127 0"/><feOffset dx="2.148" dy="2.148"/><feGaussianBlur stdDeviation="3.223"/><feComposite in2="hardAlpha" operator="out"/><feColorMatrix type="matrix" values="0 0 0 0 0.541176 0 0 0 0 0.654902 0 0 0 0 0.721569 0 0 0 0.2 0"/><feBlend in2="BackgroundImageFix" mode="normal" result="effect1_dropShadow_2483_15959"/><feColorMatrix in="SourceAlpha" result="hardAlpha" type="matrix" values="0 0 0 0 0 0 0 0 0 0 0 0 0 0 0 0 0 0 127 0"/><feOffset dx="4.297" dy="4.297"/><feGaussianBlur stdDeviation="6.445"/><feComposite in2="hardAlpha" operator="out"/><feColorMatrix type="matrix" values="0 0 0 0 0.541176 0 0 0 0 0.654902 0 0 0 0 0.733333 0 0 0 0.3 0"/><feBlend in2="effect1_dropShadow_2483_15959" mode="normal" result="effect2_dropShadow_2483_15959"/><feColorMatrix in="SourceAlpha" result="hardAlpha" type="matrix" values="0 0 0 0 0 0 0 0 0 0 0 0 0 0 0 0 0 0 127 0"/><feOffset dx="-1.074" dy="-1.074"/><feGaussianBlur stdDeviation="1.074"/><feComposite in2="hardAlpha" operator="out"/><feColorMatrix type="matrix" values="0 0 0 0 1 0 0 0 0 1 0 0 0 0 1 0 0 0 0.3 0"/><feBlend in2="effect2_dropShadow_2483_15959" mode="normal" result="effect3_dropShadow_2483_15959"/><feBlend in="SourceGraphic" in2="effect3_dropShadow_2483_15959" mode="normal" result="shape"/></filter><linearGradient id="a" x1="-2736.05" x2="-2736.05" y1="-799.604" y2="7619.4" gradientUnits="userSpaceOnUse"><stop stop-color="#383839"/><stop offset="1" stop-color="#2C2C2C"/></linearGradient></defs></svg>