<svg fill="none" viewBox="0 0 48 48"><path fill="#DADADA" d="M0 0h48v48H0z"/><path fill="white" d="M1041 91H-399V-18h1440z"/><path fill="url(#a)" d="M0 10C0 4.477 4.477 0 10 0h28c5.523 0 10 4.477 10 10v28c0 5.523-4.477 10-10 10H10C4.477 48 0 43.523 0 38z"/><path fill="url(#b)" fill-opacity=".6" d="M15.449 11H31.55C32.903 11 34 12.157 34 13.58v20.785c0 1.424-1.097 2.58-2.449 2.58H15.45c-1.351 0-2.449-1.156-2.449-2.58V13.58C13 12.157 14.098 11 15.449 11" opacity=".7"/><path fill="url(#c)" stroke="url(#d)" stroke-width=".4" d="M33.46 14.766H19.486c-1.173 0-2.126.989-2.126 2.206V34.74c0 1.218.953 2.206 2.126 2.206H33.46c1.172 0 2.125-.988 2.125-2.206V16.972c0-1.217-.953-2.206-2.125-2.206Z"/><rect width="9.113" height="1.674" x="21.32" y="18.533" fill="#6EC3FB" rx=".837"/><rect width="7.925" height="1.674" x="21.32" y="21.88" fill="#6EC3FB" rx=".837"/><rect width="5.943" height="1.674" x="21.32" y="25.229" fill="#6EC3FB" rx=".837"/><defs><linearGradient id="a" x1="24" x2="24" y1="0" y2="48" gradientUnits="userSpaceOnUse"><stop stop-color="#1D6FF2"/><stop offset="1" stop-color="#1AC8FC"/></linearGradient><linearGradient id="b" x1="23.5" x2="23.5" y1="11" y2="36.946" gradientUnits="userSpaceOnUse"><stop stop-color="#EBF9FF"/><stop offset="1" stop-color="#91E0FF"/></linearGradient><linearGradient id="c" x1="26.983" x2="26.983" y1="14.766" y2="36.945" gradientUnits="userSpaceOnUse"><stop stop-color="#D2F2FF"/><stop offset="1" stop-color="#95D1FF"/></linearGradient><linearGradient id="d" x1="26.983" x2="26.983" y1="14.766" y2="36.945" gradientUnits="userSpaceOnUse"><stop stop-color="white"/><stop offset="1" stop-color="#7FD6FF"/></linearGradient></defs></svg>