<svg width="24" height="24" viewBox="0 0 24 24" fill="none" xmlns="http://www.w3.org/2000/svg"><path d="M13.6553 5.79316C13.6553 5.3361 14.0258 4.96558 14.4829 4.96558H16.9657C17.4227 4.96558 17.7932 5.3361 17.7932 5.79316V19.0345C17.7932 19.4916 17.4227 19.8621 16.9657 19.8621H14.4829C14.0258 19.8621 13.6553 19.4916 13.6553 19.0345V5.79316Z" fill="#18181B"/><path d="M6.20703 5.79316C6.20703 5.3361 6.57755 4.96558 7.03462 4.96558H9.51738C9.97444 4.96558 10.345 5.3361 10.345 5.79316V19.0345C10.345 19.4916 9.97444 19.8621 9.51738 19.8621H7.03462C6.57755 19.8621 6.20703 19.4916 6.20703 19.0345V5.79316Z" fill="#18181B"/></svg>