<svg fill="none" viewBox="0 0 36 36"><g fill-rule="evenodd" clip-path="url(#a)" clip-rule="evenodd"><path fill="#020202" d="M5.335 6.207c-.466 1.27.234-.54-2.596 9.217-.525 2.085-1.195 3.544-1.677 5.877a26 26 0 0 0-.554 3.88 1.21 1.21 0 0 0 .583 1.078c1.78.744 12.338 2.32 14.773 2.61a.496.496 0 0 0 .132-.976c-3.253-.525-11.463-2.173-13.87-2.917.161-3.092 1.62-6.912 2.174-9.144L5.758 10c.263-1.254.583-3.82 1.21-4.477.394-.394.38-.306 1.226-.16.437 0 .597-.803 0-.934-1.62-.408-1.853-.773-2.859 1.78"/><path fill="#020202" d="M27.035 9.124a26.1 26.1 0 0 0-1.735 6.752.438.438 0 0 0 .846.219c.248-.685.495-1.356.758-2.027.817-2.144 3.15-6.358.817-6.825-.102 0-.977-.204-1.707-.277-.729-.073-1.108.773-.247 1.006-.015.015 1.545.175 1.268 1.152"/><path fill="#FBBF24" d="M26.525 3.423c-6.169-2.158-5.425-2.13-6.723-2.421a34.5 34.5 0 0 0-6.533-.86c-2.232.13-2.844.977-3.53 2.916a91 91 0 0 0-4.433 17.369 4.4 4.4 0 0 0 0 1.706c.136.296.367.537.656.686 1.882.393 5.834 1.458 6.009 1.458 1.152.248 2.916.54 3.777.744a.51.51 0 0 0 .612-.35c.175-.686-.48-.613-3.63-1.459-6.36-1.691-5.922-1.575-5.834-2.012.087-.438.204-1.458.393-2.61C9.725 4.385 10.148 5.946 10.337 5.202c.205.102.38 0 2.348.496.832.19 1.677.452 2.509.685 4.973 1.298 5.162.773 7.48 1.371a.437.437 0 0 0 .278-.817c-1.269-.554-3.427-1.02-4.812-1.458a30 30 0 0 0-7.54-1.167h-.102C11.81.74 11.956 1.396 20.21 2.722c3.223.92 2.057.613 5.163 1.357-1.24 1.05-2.013 4.04-2.917 6.577a31.3 31.3 0 0 0-1.458 6.213.437.437 0 0 0 .846.218c.507-1.47.92-2.97 1.24-4.491q.54-1.997 1.297-3.923a23 23 0 0 1 1.342-3.325c1.137-1.313 4.01-.336 4.375 1.079.048 1.05-.06 2.102-.321 3.12-.437 4.77-1.604 5.95-.802 6.213a.44.44 0 0 0 .554-.277 49 49 0 0 0 2.377-8.181c.277-2.917-3.033-4.565-5.381-3.88"/><path fill="#FBBF24" d="M18.548 11.91a16.3 16.3 0 0 0-3.908-1.356c-.103-.029-3.223-.335-3.31-.335a.42.42 0 0 0-.117.598c.122.178.294.315.495.393a24 24 0 0 0 2.61.89c.117 0 3.967.744 4.084.744.525.102 1.065-.467.146-.934"/><path fill="#FBBF24" d="M17.79 17.51a24 24 0 0 0-5.236-1.707 6.8 6.8 0 0 0-1.735.088c-.671.087-1.196 0-1.123.51s.466.51 1.123.598a54 54 0 0 0 6.737 1.459.495.495 0 0 0 .233-.948"/><path fill="#020202" d="M33.525 21.257a8.575 8.575 0 0 0-13.723.86c-2.435 3.588-1.167 8.853 1.24 10.399a.452.452 0 0 0 .51-.744c-1.925-1.342-2.785-5.95-.612-8.838a7.204 7.204 0 0 1 11.272-.583c3.559 4.215 1.459 10.617-4.827 11.36a8.2 8.2 0 0 1-3.427-.247.514.514 0 1 0-.32.977 9.3 9.3 0 0 0 3.864.408 8.21 8.21 0 0 0 6.023-13.592"/><path fill="#020202" d="M24.95 30.037c1.692.102 3.69-4.609 4.375-6.125.216-.24.354-.54.394-.86a.524.524 0 0 0-.963-.263c-.35.422-4.01 5.745-3.923 5.833-.291 0-1.779-1.72-1.983-1.852-.204-.131-.875.248-.54.744.642.918 1.648 2.479 2.64 2.523"/></g><defs><clipPath id="a"/></defs></svg>