<svg width="36" height="36" viewBox="0 0 36 36" fill="none" xmlns="http://www.w3.org/2000/svg">
<g clip-path="url(#clip0_2764_4136)">
<path fill-rule="evenodd" clip-rule="evenodd" d="M11.533 11.3426C11.4856 11.333 11.4367 11.3349 11.3902 11.3479C11.3436 11.3609 11.3009 11.3847 11.2653 11.4174C11.2297 11.4501 11.2024 11.4908 11.1856 11.5361C11.1688 11.5814 11.1629 11.63 11.1684 11.678C11.0372 12.4947 10.8622 13.3113 10.658 14.1134C10.1622 16.0092 9.52051 17.8905 9.02467 19.7717C8.87884 20.3405 8.45592 21.0988 8.29551 21.7988C8.19219 22.1858 8.19219 22.5931 8.29551 22.9801C8.56978 23.6151 9.0608 24.1319 9.68093 24.4384C10.9291 24.9817 12.243 25.3593 13.5893 25.5613C14.5663 25.7801 15.5288 25.9988 16.5059 26.1738C17.1622 26.3051 17.833 26.4071 18.4893 26.4946C19.0049 26.5785 19.5285 26.6029 20.0497 26.5676C20.4862 26.525 20.9012 26.3579 21.2455 26.0863C21.7287 25.6459 22.0904 25.0884 22.2955 24.4676C22.6368 23.2254 22.9046 21.9642 23.0976 20.6905C23.3893 19.5967 24.0018 17.3947 24.2934 16.3155C24.4171 15.8824 24.4953 15.4377 24.5268 14.9884C24.546 14.6069 24.4439 14.2291 24.2351 13.9092C23.9576 13.5438 23.5979 13.249 23.1851 13.0488C22.6577 12.7862 22.1057 12.5761 21.5372 12.4217C20.6469 12.1258 19.7414 11.8775 18.8247 11.678C16.6955 11.2551 14.4497 11.0072 12.3788 10.6134C12.2828 10.5996 12.185 10.6217 12.1043 10.6755C12.0235 10.7293 11.9655 10.8111 11.9413 10.9051C11.924 11.0016 11.9446 11.101 11.999 11.1826C12.0534 11.2642 12.1373 11.3215 12.233 11.3426C13.1226 11.5322 14.0268 11.6926 14.9309 11.8384C14.7122 12.7134 14.4788 13.5738 14.2455 14.4342L11.3288 14.1717C11.5038 13.3551 11.6643 12.5384 11.7663 11.7072C11.78 11.6282 11.7636 11.547 11.7204 11.4796C11.6772 11.4121 11.6104 11.3632 11.533 11.3426ZM10.3663 18.1967C11.317 18.3086 12.2613 18.4693 13.1955 18.678C13.1955 18.8822 13.0934 19.0717 13.0497 19.2759C12.9476 19.7134 12.8601 20.1509 12.758 20.5884C11.7226 20.5009 10.7163 20.4863 9.72467 20.5009C9.79759 20.2967 9.87051 20.0926 9.91426 19.9176C10.0455 19.3488 10.2059 18.7801 10.3663 18.1967ZM9.31634 22.5717C9.21506 22.2889 9.21506 21.9796 9.31634 21.6967C9.31634 21.5363 9.40384 21.3905 9.46218 21.2301L11.2851 21.4926L12.4809 21.7259C12.3351 22.3676 12.1747 23.0092 11.9997 23.6363C11.9798 23.7142 11.9862 23.7964 12.0178 23.8702C12.0494 23.9441 12.1046 24.0054 12.1747 24.0446C11.6796 23.9492 11.1922 23.8176 10.7163 23.6509C10.4157 23.5812 10.1337 23.4473 9.88957 23.2586C9.64543 23.0698 9.44493 22.8305 9.30176 22.5571L9.31634 22.5717ZM20.5747 25.0801C20.3647 25.2232 20.114 25.2948 19.8601 25.2842C19.4985 25.2865 19.1374 25.2572 18.7809 25.1967C17.9788 25.0947 17.1768 24.9634 16.3747 24.8176C15.5726 24.6717 14.7413 24.5113 13.8809 24.3363C13.4726 24.2488 12.9476 24.1759 12.4226 24.0738C12.4942 24.076 12.5647 24.0563 12.6247 24.0172C12.6847 23.978 12.7312 23.9215 12.758 23.8551C13.0059 23.1988 13.2538 22.5572 13.4872 21.9009L14.7559 22.1197C16.4913 22.4259 18.2559 22.7176 19.8893 23.1113C19.9352 23.1247 19.9834 23.1289 20.031 23.1237C20.0786 23.1185 20.1247 23.104 20.1666 23.081C20.2086 23.058 20.2457 23.0269 20.2756 22.9896C20.3056 22.9522 20.3279 22.9094 20.3413 22.8634C20.3594 22.8176 20.3671 22.7684 20.364 22.7193C20.3609 22.6702 20.347 22.6224 20.3233 22.5793C20.2997 22.5361 20.2668 22.4987 20.2271 22.4697C20.1874 22.4407 20.1417 22.4207 20.0934 22.4113C18.9122 21.9738 17.6726 21.5655 16.3893 21.2301C15.8497 21.0842 15.3101 20.9676 14.7559 20.8655C14.4643 20.8655 14.1726 20.778 13.8663 20.7342C13.983 20.3842 14.0997 20.0488 14.2018 19.7134C14.3038 19.378 14.3476 19.1884 14.4059 18.9405L15.2809 19.1301L17.2643 19.5676C18.8538 19.9176 20.4288 20.2822 21.9455 20.6905C21.7851 21.5072 21.6538 22.5572 21.3768 23.5197C21.2567 24.1032 20.9793 24.6428 20.5747 25.0801ZM22.033 19.9467C20.8226 19.4801 19.5684 19.0134 18.2851 18.6197C17.6872 18.4447 17.1038 18.2842 16.4913 18.1384C15.8788 17.9926 15.2809 17.8905 14.6684 17.803C14.7997 17.2197 14.9309 16.6509 15.033 16.0676C15.0401 15.9364 15.0401 15.805 15.033 15.6738L17.0747 16.1259L19.1747 16.5342L22.8497 17.2488L22.033 19.9467ZM18.6497 12.553C19.5393 12.7572 20.4288 12.9905 21.3038 13.2676C21.8055 13.4267 22.2932 13.6267 22.7622 13.8655C23.0173 14.0023 23.2408 14.1911 23.4184 14.4197C23.503 14.565 23.5387 14.7337 23.5205 14.9009C23.4808 15.2678 23.4026 15.6295 23.2872 15.9801L23.1413 16.4176C21.9018 16.0384 20.6622 15.6592 19.3934 15.353C18.3872 15.1051 17.3809 14.9009 16.3747 14.7259L15.2518 14.5801C15.383 13.7051 15.4997 12.8301 15.6163 11.9697C16.6226 12.1447 17.658 12.3342 18.6497 12.553ZM13.7205 16.4176C13.6184 16.8259 13.5163 17.2634 13.4288 17.6863C12.4518 17.5988 11.4747 17.5551 10.5122 17.5551C10.7601 16.6509 10.9788 15.7467 11.1976 14.8426L13.983 15.4259L13.7205 16.4176Z" fill="#FBBF24"/>
<path fill-rule="evenodd" clip-rule="evenodd" d="M23.9289 9.5337C23.6281 9.49932 23.3307 9.4408 23.0393 9.3587C23.156 9.06704 23.331 8.73162 23.4914 8.36704C24.3226 6.51495 24.8476 4.51704 23.4914 3.02954C23.4607 2.99219 23.423 2.96125 23.3804 2.93847C23.3378 2.9157 23.2912 2.90154 23.2431 2.8968C23.146 2.88722 23.0491 2.91661 22.9737 2.9785C22.8983 3.04038 22.8505 3.12969 22.8409 3.22678C22.8314 3.32387 22.8607 3.42078 22.9226 3.4962C24.381 5.43579 22.033 7.59412 21.5664 9.32954C21.0997 11.065 25.5768 11.0795 27.181 10.5691L29.5872 9.89829C30.1997 9.6212 29.8351 8.90662 29.4705 8.97954C26.4955 9.7087 26.408 9.89829 23.9289 9.5337Z" fill="#020202"/>
<path fill-rule="evenodd" clip-rule="evenodd" d="M25.0952 2.02363C23.2431 1.64447 24.0889 1.86322 11.6785 0.317383C11.5766 0.319251 11.4789 0.357844 11.4032 0.426062C11.3275 0.49428 11.2789 0.587537 11.2665 0.688679C11.2541 0.789821 11.2786 0.892046 11.3356 0.976554C11.3925 1.06106 11.478 1.12217 11.5764 1.14863C23.1264 2.69447 23.491 2.70905 24.9494 3.02988C26.4077 3.35072 29.5139 7.3028 30.2577 8.76113C30.4264 9.02065 30.5081 9.3271 30.491 9.63613C30.0973 11.707 28.4785 17.7153 27.9973 19.0861C27.516 20.457 27.0785 21.4486 26.6848 22.659C26.5244 23.1257 25.2264 28.8132 23.5639 29.3674C21.2744 30.1403 18.941 29.1486 16.6514 29.0611C15.1931 29.0611 12.2764 28.857 10.4098 28.5653C3.11811 27.384 3.43894 27.5445 1.57228 26.3486C3.67228 24.1174 5.61186 18.532 6.66186 15.3382C7.57865 11.7308 8.28952 8.07424 8.79103 4.38613C8.90769 3.74447 9.94311 0.434049 8.90769 0.769466C8.47019 0.900716 8.52853 1.55697 8.48478 1.83405C8.19311 3.65697 6.92436 10.7299 6.66186 11.8965C5.54531 16.2644 3.84826 20.4629 1.61603 24.3799C1.34504 24.7605 1.05291 25.1257 0.741027 25.4736C0.508257 25.7055 0.31162 25.9709 0.157694 26.2611C0.112262 26.4678 0.131237 26.6834 0.212064 26.879C0.292892 27.0745 0.431691 27.2406 0.609777 27.3549C1.39973 27.9541 2.2812 28.4219 3.22019 28.7403C7.60184 29.7366 12.0616 30.3514 16.5494 30.5778C18.8681 30.6653 21.3181 31.7153 23.9723 30.8111C26.3931 29.9799 27.6764 24.0299 27.9389 23.1986C28.3181 21.9882 28.7994 20.8215 29.1931 19.6257C29.5869 18.4299 31.2056 12.334 31.6139 9.95697C32.0077 7.84238 26.9619 2.41738 25.0952 2.02363Z" fill="#020202"/>
<path fill-rule="evenodd" clip-rule="evenodd" d="M33.9183 11.0657C33.51 13.1365 31.3371 21.3761 30.8558 22.7324C30.3746 24.0886 29.9371 25.1094 29.5433 26.3199C29.3829 26.7865 28.085 32.4594 26.4225 33.0136C24.1329 33.7865 21.7996 32.7949 19.51 32.7074C18.0517 32.7074 15.135 32.5032 13.2683 32.2115C6.31206 31.0886 6.2829 31.3803 4.67873 30.3594C3.73081 29.8344 3.36623 30.7678 3.93498 31.2636C4.57852 31.7604 5.32651 32.1045 6.12248 32.2699C10.5032 33.274 14.9632 33.8937 19.4516 34.1219C21.7704 34.2094 24.235 35.2449 26.8746 34.3553C29.5142 33.4657 30.5787 27.574 30.7829 26.7282C31.1621 25.5324 31.6433 24.3657 32.0371 23.1699C32.4308 21.974 34.7204 13.7344 35.1579 11.4011C35.3475 10.2199 34.21 9.86986 33.9183 11.0657Z" fill="#FBBF24"/>
</g>
<defs>
<clipPath id="clip0_2764_4136">
<rect width="35" height="35" fill="white" transform="translate(0.157959 0.0102539)"/>
</clipPath>
</defs>
</svg>