<svg width="36" height="36" viewBox="0 0 36 36" fill="none" xmlns="http://www.w3.org/2000/svg">
<g clip-path="url(#clip0_2764_4113)">
<path fill-rule="evenodd" clip-rule="evenodd" d="M13.7541 18.5085C12.3818 11.1032 11.2269 11.5907 9.07845 11.3845C3.91541 10.9308 1.57949 10.6758 0.82959 12.7156C0.977762 14.7584 1.49348 16.7575 2.3519 18.6171C3.85169 21.1705 7.06495 20.1545 18.0547 19.7421C18.2039 19.7386 18.3455 19.6759 18.4486 19.568C18.5516 19.4601 18.6074 19.3157 18.6039 19.1665C18.6006 19.0173 18.538 18.8757 18.43 18.7726C18.322 18.6696 18.1777 18.6136 18.0285 18.6171C16.6037 18.6134 15.1827 18.561 13.7541 18.5085ZM12.4867 18.4634C12.1021 16.686 11.4711 14.9709 10.612 13.3679C8.11427 12.9726 5.58132 12.8469 3.05676 12.9929C2.76805 12.9929 2.68185 12.993 2.57686 13.2742C4.15539 20.0645 3.40546 18.156 12.4867 18.4634Z" fill="#020202"/>
<path fill-rule="evenodd" clip-rule="evenodd" d="M18.5605 1.83805C19.1867 0.488235 12.6213 -2.0202 11.219 3.03036C10.924 3.98093 10.9506 5.00226 11.2946 5.93619C11.6387 6.87012 12.281 7.66452 13.1221 8.19655C13.9633 8.72856 14.9564 8.96846 15.9476 8.87909C16.9388 8.78972 17.873 8.37612 18.6055 7.70223C21.4626 5.13757 19.6516 1.4406 18.5605 1.83805ZM18.2342 2.1304C18.1511 2.15926 18.0623 2.16822 17.9751 2.15649C17.8877 2.14477 17.8045 2.1128 17.7319 2.06301C15.5384 0.716945 13.3749 1.58308 12.9325 3.46907C12.7521 4.05972 12.7696 4.69305 12.9822 5.27286C13.1948 5.85268 13.591 6.3472 14.1105 6.68121C14.63 7.01522 15.2442 7.17042 15.8601 7.12324C16.4758 7.07605 17.0594 6.82911 17.5219 6.41986C17.8166 6.23211 18.0706 5.9874 18.2695 5.70013C18.4683 5.41285 18.6079 5.08875 18.6798 4.74686C18.7517 4.40497 18.7547 4.05218 18.6885 3.70914C18.6223 3.36608 18.4883 3.03967 18.2943 2.7491C18.2268 2.66224 18.1852 2.55803 18.1746 2.44851C18.164 2.33899 18.1847 2.22862 18.2342 2.1304Z" fill="#FBBF24"/>
<path fill-rule="evenodd" clip-rule="evenodd" d="M13.6379 11.61C19.0297 10.0464 23.7614 17.0166 21.1369 18.359C20.9975 18.4219 20.8879 18.5365 20.8317 18.6787C20.7752 18.8209 20.7764 18.9794 20.8349 19.1207C20.8933 19.262 21.0045 19.375 21.1449 19.4358C21.2852 19.4967 21.4437 19.5005 21.5868 19.4463C21.9773 19.2922 22.3251 19.0466 22.6012 18.7302C22.8771 18.4137 23.0733 18.0358 23.1729 17.628C24.2977 13.9235 19.6746 9.46897 15.3327 9.92266C11.7556 10.4176 12.9293 11.8799 13.6379 11.61Z" fill="#FBBF24"/>
<path fill-rule="evenodd" clip-rule="evenodd" d="M8.77109 29.5767C8.88608 29.2228 8.99248 28.8538 9.10118 28.4767C9.69475 26.4183 10.357 24.1214 12.8619 22.7227C12.9986 22.6514 13.1018 22.5292 13.1494 22.3825C13.197 22.2359 13.1851 22.0765 13.1164 21.9384C13.0476 21.8005 12.9274 21.6949 12.7817 21.6446C12.6359 21.5941 12.4762 21.603 12.3369 21.6692C10.9173 22.4083 9.69602 23.4775 8.77597 24.7871C7.85593 26.0969 7.26403 27.6083 7.05015 29.1944C6.54023 31.3391 4.16305 31.8191 4.56049 29.1007C4.54348 27.7744 4.82913 26.4616 5.39569 25.2621C5.96224 24.0628 6.79482 23.0084 7.83009 22.179C7.96034 22.1074 8.05681 21.987 8.09829 21.8444C8.13978 21.7016 8.12286 21.5482 8.05126 21.4179C7.97967 21.2877 7.85925 21.1912 7.71651 21.1498C7.57377 21.1082 7.42038 21.1251 7.29011 21.1967C2.15707 23.6902 1.06601 33.7988 5.84286 32.7826C6.68751 32.5958 7.28072 32.2057 7.7251 31.6779C7.91556 32.1812 8.24336 32.6228 8.67329 32.9513C9.16452 33.3268 9.76318 33.5349 10.3814 33.545C10.9996 33.5552 11.6047 33.3668 12.108 33.0078C13.6611 31.9493 14.3317 30.4673 14.9854 29.0227C15.3971 28.1133 15.8019 27.2185 16.4161 26.4536C16.6821 26.1132 17.1828 26.0245 17.7695 25.9208C19.1597 25.6751 21.0323 25.3439 21.4067 21.373C21.4547 21.0555 21.2294 20.7499 20.9117 20.7018C20.5943 20.6538 20.2886 20.8792 20.2406 21.1969C19.651 24.0389 18.6115 24.1412 17.4336 24.2573C17.0685 24.2933 16.69 24.3307 16.3075 24.4513C14.9371 24.8897 14.1991 26.4768 13.4408 28.1073C13.1161 28.8056 12.7876 29.5118 12.4042 30.1392C11.7143 31.2642 10.5632 32.479 9.47587 31.7291C8.66898 31.1697 8.73062 30.5653 8.77924 30.0886C8.79926 29.8923 8.81707 29.7178 8.77109 29.5767Z" fill="#FBBF24"/>
<path fill-rule="evenodd" clip-rule="evenodd" d="M31.5173 22.4328C31.6669 23.5636 31.4744 24.7134 30.9643 25.7336C37.3871 32.0177 33.4014 36.2696 26.9148 34.6723C26.8645 34.6599 26.8153 34.6468 26.7673 34.6334C22.7088 34.9583 18.4974 35.089 17.9428 32.4902C17.876 32.1694 17.8762 31.8384 17.9432 31.5177C18.0103 31.197 18.1427 30.8935 18.3325 30.6265C18.5222 30.3593 18.765 30.1341 19.0456 29.9651C19.3263 29.7961 19.6388 29.687 19.9638 29.6443C20.1189 29.6239 20.2757 29.666 20.4 29.7613C20.5241 29.8565 20.6051 29.9972 20.6256 30.1524C20.646 30.3075 20.6038 30.4643 20.5086 30.5884C20.4134 30.7125 20.2726 30.7938 20.1175 30.8142C19.9111 30.8827 19.7338 31.0186 19.6143 31.2003C19.4948 31.3819 19.4399 31.5986 19.4585 31.8152C19.4771 32.0319 19.5681 32.2358 19.717 32.3943C19.8658 32.5528 20.0637 32.6566 20.2788 32.689C20.8474 32.8608 21.7301 32.89 23.0985 32.9353C23.6445 32.9534 24.2679 32.974 24.9796 33.0072C24.8177 32.4484 24.7962 31.7746 24.7962 30.9979C24.8972 27.9625 24.9279 27.4844 24.7191 27.3296C24.5476 27.2026 24.2147 27.2936 23.6265 26.3673C22.879 24.842 22.7447 23.0881 23.2516 21.4667C23.7915 19.2357 24.4664 18.2496 26.8136 20.4431C27.1665 20.4094 27.5217 20.4094 27.8746 20.4431C28.0149 20.3199 28.1453 20.2033 28.2671 20.0945C29.1857 19.2732 29.6112 18.8929 30.1244 19.3896C30.8823 20.242 31.3675 21.3019 31.5173 22.4328ZM30.2689 23.1872C30.3143 23.9564 30.1585 24.7242 29.8168 25.415C29.3964 25.8332 29.6111 26.0626 30.1568 26.646C30.5211 27.0352 31.0328 27.5822 31.6017 28.4482C32.374 29.6256 33.2327 31.5304 32.1678 32.5726C31.559 33.1743 29.7263 33.0933 28.7822 33.0514C28.732 33.0492 28.6843 33.047 28.6395 33.0451C27.7115 32.9772 27.1793 33.0018 26.889 32.7489C26.3784 32.3039 26.6165 30.9998 26.7647 26.821C26.7985 26.1417 26.4493 26.039 26.038 25.9181C25.673 25.8109 25.2593 25.6893 25.0213 25.1375C24.6459 23.8778 24.6907 22.5301 25.1487 21.298C25.4252 21.4628 25.6205 21.6375 25.7878 21.7871C26.0809 22.0491 26.2877 22.2341 26.6935 22.1528C27.4943 21.9835 27.8271 22.0465 28.038 22.0865C28.3781 22.1508 28.401 22.1552 29.5581 21.028C29.9786 21.6738 30.2236 22.418 30.2689 23.1872Z" fill="#020202"/>
</g>
<defs>
<clipPath id="clip0_2764_4113">
<rect width="35" height="35" fill="white" transform="translate(0.026123 0.0102539)"/>
</clipPath>
</defs>
</svg>