<svg fill="none" viewBox="0 0 24 24"><path fill="#4A4A4A" stroke="#4A4A4A" stroke-linejoin="round" stroke-width="1.5" d="M2.5 4a1 1 0 0 1 1-1h6L12 6h8.5a1 1 0 0 1 1 1v13a1 1 0 0 1-1 1h-17a1 1 0 0 1-1-1z"/><path stroke="white" stroke-linejoin="round" stroke-width="1.5" d="M21.5 11h-19"/><path stroke="#4A4A4A" stroke-linecap="round" stroke-linejoin="round" stroke-width="1.5" d="M2.5 8v6"/><path stroke="#4A4A4A" stroke-linecap="round" stroke-linejoin="round" stroke-width="1.5" d="M21.5 8v6"/><path fill="#4A4A4A" stroke="#4A4A4A" stroke-linejoin="round" stroke-width="1.5" d="M2.5 4a1 1 0 0 1 1-1h6L12 6h8.5a1 1 0 0 1 1 1v13a1 1 0 0 1-1 1h-17a1 1 0 0 1-1-1z"/><path stroke="white" stroke-linejoin="round" stroke-width="1.5" d="M21.5 11h-19"/><path stroke="#4A4A4A" stroke-linecap="round" stroke-linejoin="round" stroke-width="1.5" d="M2.5 8v6"/><path stroke="#4A4A4A" stroke-linecap="round" stroke-linejoin="round" stroke-width="1.5" d="M21.5 8v6"/><path fill="#4A4A4A" stroke="#4A4A4A" stroke-linejoin="round" stroke-width="1.5" d="M2.5 4a1 1 0 0 1 1-1h6L12 6h8.5a1 1 0 0 1 1 1v13a1 1 0 0 1-1 1h-17a1 1 0 0 1-1-1z"/><path stroke="white" stroke-linejoin="round" stroke-width="1.5" d="M21.5 11h-19"/><path stroke="#4A4A4A" stroke-linecap="round" stroke-linejoin="round" stroke-width="1.5" d="M2.5 8v6"/><path stroke="#4A4A4A" stroke-linecap="round" stroke-linejoin="round" stroke-width="1.5" d="M21.5 8v6"/></svg>