<svg width="22" height="22" viewBox="0 0 22 22" fill="none" xmlns="http://www.w3.org/2000/svg"><rect x="-16.9712" y="-117.81" width="334.406" height="150.877" stroke="#F97316"/><path d="M11 9.1665V14.6665" stroke="#C4C4C4" stroke-width="1.46667" stroke-linecap="round" stroke-linejoin="round"/><path d="M8.25 11.9165H13.75" stroke="#C4C4C4" stroke-width="1.46667" stroke-linecap="round" stroke-linejoin="round"/><path d="M18.3333 18.3333C18.8195 18.3333 19.2858 18.1402 19.6296 17.7964C19.9734 17.4525 20.1666 16.9862 20.1666 16.5V7.33333C20.1666 6.8471 19.9734 6.38079 19.6296 6.03697C19.2858 5.69315 18.8195 5.5 18.3333 5.5H11.0916C10.785 5.50301 10.4825 5.42906 10.2119 5.28493C9.94122 5.1408 9.71105 4.93109 9.54242 4.675L8.79992 3.575C8.63299 3.32151 8.40573 3.11344 8.13854 2.96945C7.87136 2.82545 7.5726 2.75005 7.26909 2.75H3.66659C3.18036 2.75 2.71404 2.94315 2.37022 3.28697C2.02641 3.63079 1.83325 4.0971 1.83325 4.58333V16.5C1.83325 16.9862 2.02641 17.4525 2.37022 17.7964C2.71404 18.1402 3.18036 18.3333 3.66659 18.3333H18.3333Z" stroke="#C4C4C4" stroke-width="1.46667" stroke-linecap="round" stroke-linejoin="round"/></svg>