<svg fill="none" viewBox="0 0 24 24"><path fill="#F5F5F5" d="M0 0h24v24H0z"/><rect width="953" height="913" x="-98" y="-484" fill="white" rx="16"/><path fill="#8A8A8A" stroke="#8A8A8A" strokeLinejoin="round" strokeWidth="1.5" d="M12 22c5.523 0 10-4.477 10-10S17.523 2 12 2 2 6.477 2 12a9.97 9.97 0 0 0 1.684 5.556Q3.867 17.829 3 21q3.171-.867 3.444-.684A9.98 9.98 0 0 0 12 22Z"/><path stroke="white" strokeLinecap="round" strokeLinejoin="round" strokeWidth="1.5" d="M8.302 9.91h8.39M10.923 7.869 9.467 16.13M14.423 7.869l-1.456 8.262M7.302 14h8.39"/></svg>