<svg width="70" height="70" viewBox="0 0 70 70" fill="none" xmlns="http://www.w3.org/2000/svg"><path d="M26.25 35L32.0833 40.8333L43.75 29.1667M61.25 35C61.25 38.4472 60.571 41.8606 59.2518 45.0454C57.9327 48.2302 55.9991 51.124 53.5616 53.5616C51.124 55.9991 48.2302 57.9327 45.0454 59.2518C41.8606 60.571 38.4472 61.25 35 61.25C31.5528 61.25 28.1394 60.571 24.9546 59.2518C21.7698 57.9327 18.876 55.9991 16.4384 53.5616C14.0009 51.124 12.0673 48.2302 10.7482 45.0454C9.42898 41.8606 8.75 38.4472 8.75 35C8.75 28.0381 11.5156 21.3613 16.4384 16.4384C21.3613 11.5156 28.0381 8.75 35 8.75C41.9619 8.75 48.6387 11.5156 53.5616 16.4384C58.4844 21.3613 61.25 28.0381 61.25 35Z" stroke="#FF6900" stroke-width="4.375" stroke-linecap="round" stroke-linejoin="round"/></svg>