<svg fill="none" viewBox="0 0 22 22"><path fill="#DADADA" d="M0 0h22v22H0z"/><path stroke="#757575" stroke-linecap="round" stroke-linejoin="round" stroke-width="1.5" d="M17.417 1.833H4.583a.917.917 0 0 0-.917.917v16.5c0 .506.41.917.917.917h12.834c.506 0 .916-.41.916-.917V2.75a.917.917 0 0 0-.916-.917"/><path stroke="#757575" stroke-linecap="round" stroke-linejoin="round" stroke-width="1.5" d="m13.75 10.542-1.588-1.588m0 0a2.292 2.292 0 1 0-3.24-3.24 2.292 2.292 0 0 0 3.24 3.24"/><path stroke="#757575" stroke-linecap="round" stroke-linejoin="round" stroke-width="1.5" d="M7.792 13.75h6.416"/><path stroke="#757575" stroke-linecap="round" stroke-linejoin="round" stroke-width="1.5" d="M7.792 16.5H11"/></svg>