<svg fill="none" viewBox="0 0 120 120"><rect width="120" height="120" fill="url(#a)" rx="30"/><path fill="url(#b)" stroke="url(#c)" d="M95.16 47.86c-.427-1.349-1.708-2.256-3.15-2.241h-.09c-3.676 0-6.665-2.939-6.665-6.575 0-1.05.244-2.032.686-2.902a3.15 3.15 0 0 0-.701-3.748 36.34 36.34 0 0 0-15.014-8.277c-1.487-.405-3.065.277-3.767 1.627a6.67 6.67 0 0 1-5.947 3.59 6.68 6.68 0 0 1-5.948-3.59c-.701-1.357-2.272-2.032-3.766-1.627a36.44 36.44 0 0 0-15.014 8.277 3.16 3.16 0 0 0-.701 3.748c.434.87.686 1.852.686 2.902 0 3.636-2.99 6.575-6.664 6.575h-.092a3.25 3.25 0 0 0-3.15 2.242 35.2 35.2 0 0 0-1.661 10.728c0 2.467.251 4.874.74 7.198.335 1.604 1.845 2.699 3.5 2.541q.33-.032.663-.03c3.675 0 6.664 2.94 6.664 6.576a6.45 6.45 0 0 1-1.571 4.236 3.16 3.16 0 0 0 .145 4.273 36.4 36.4 0 0 0 15.784 9.484c1.692.495 3.484-.435 4.026-2.092.861-2.654 3.385-4.565 6.351-4.565s5.49 1.911 6.352 4.565c.541 1.657 2.325 2.587 4.026 2.092a36.3 36.3 0 0 0 15.783-9.484 3.16 3.16 0 0 0 .145-4.273 6.46 6.46 0 0 1-1.57-4.236c0-3.637 2.989-6.576 6.664-6.576q.344-.002.663.03c1.655.158 3.172-.937 3.5-2.541.48-2.332.74-4.739.74-7.198a35.2 35.2 0 0 0-1.663-10.728zM60.52 72.558c-7.892 0-14.297-6.29-14.297-14.058s6.397-14.057 14.296-14.057c7.9 0 14.297 6.29 14.297 14.057S68.42 72.557 60.52 72.557Z"/><path fill="url(#d)" d="M60 67c4.734 0 8.571-3.806 8.571-8.5S64.734 50 60 50s-8.571 3.806-8.571 8.5S55.266 67 60 67" opacity=".8"/><defs><linearGradient id="a" x1="60" x2="60" y1="120" y2="0" gradientUnits="userSpaceOnUse"><stop stop-color="#8E8E93"/><stop offset="1" stop-color="#E5E5EA"/></linearGradient><linearGradient id="b" x1="60.504" x2="60.504" y1="24" y2="93" gradientUnits="userSpaceOnUse"><stop stop-color="#7E7E7E"/><stop offset="1" stop-color="#434445"/></linearGradient><linearGradient id="c" x1="60.504" x2="60.504" y1="24" y2="93" gradientUnits="userSpaceOnUse"><stop stop-color="#EDEDED"/><stop offset="1" stop-color="#343434"/></linearGradient><linearGradient id="d" x1="60" x2="60" y1="50" y2="67" gradientUnits="userSpaceOnUse"><stop stop-color="white"/><stop offset="1" stop-color="#D0D0D0"/></linearGradient></defs></svg>