<svg fill="none" viewBox="0 0 120 120"><path fill="#F5F5F5" d="M0 0h120v120H0z"/><g clipPath="url(#a)"><path fill="url(#b)" d="M0 0h1440v1024H0z" transform="translate(-1066 -461)"/><path fill="white" d="M-1066-461H374V563h-1440z"/><rect width="120" height="120" fill="url(#c)" rx="30"/><path fill="url(#d)" fillOpacity=".6" d="M60 99c20.987 0 38-17.013 38-38S80.987 23 60 23 22 40.013 22 61s17.013 38 38 38" opacity=".8"/><path fill="url(#e)" stroke="url(#f)" d="M60 68.1c14.257 0 25.893 7.812 28.008 17.814C81.143 93.633 71.14 98.5 60 98.5s-21.144-4.867-28.009-12.586C34.106 75.912 45.743 68.1 60 68.1Zm-.5-32.6c7.749 0 14 6.06 14 13.5s-6.251 13.5-14 13.5-14-6.06-14-13.5 6.251-13.5 14-13.5Z"/></g><defs><linearGradient id="b" x1="19" x2="1412.5" y1="19.5" y2="1024" gradientUnits="userSpaceOnUse"><stop stopColor="#2E7EEA"/><stop offset="1" stopColor="#013F92"/></linearGradient><linearGradient id="c" x1="60" x2="60" y1="120" y2="0" gradientUnits="userSpaceOnUse"><stop stopColor="#74ABDC"/><stop offset="1" stopColor="#52D8E1"/></linearGradient><linearGradient id="d" x1="60" x2="60" y1="23" y2="99" gradientUnits="userSpaceOnUse"><stop stopColor="#BFF6FF"/><stop offset="1" stopColor="#C6EBFF"/></linearGradient><linearGradient id="e" x1="60" x2="60" y1="35" y2="99" gradientUnits="userSpaceOnUse"><stop stopColor="white"/><stop offset="1" stopColor="#94E8FF"/></linearGradient><linearGradient id="f" x1="60" x2="60" y1="35" y2="99" gradientUnits="userSpaceOnUse"><stop offset=".096" stopColor="white"/><stop offset="1" stopColor="#A1FAFF"/></linearGradient><clipPath id="a"><path fill="white" d="M-1066-461H374V563h-1440z"/></clipPath></defs></svg>