<svg width="120" height="120" viewBox="0 0 120 120" fill="none" xmlns="http://www.w3.org/2000/svg"><rect width="120" height="120" fill="#DADADA"/><rect width="120" height="120" rx="30" fill="url(#paint1_linear_2483_15959)"/><path opacity="0.8" d="M60 99C80.9868 99 98 81.9868 98 61C98 40.0132 80.9868 23 60 23C39.0132 23 22 40.0132 22 61C22 81.9868 39.0132 99 60 99Z" fill="url(#paint2_linear_2483_15959)" fill-opacity="0.6"/><path d="M59.999 68.0996C74.2565 68.0996 85.8916 75.9118 88.0068 85.9141C81.1418 93.6329 71.1398 98.5 59.999 98.5C48.858 98.4999 38.8552 93.6332 31.9902 85.9141C34.1053 75.9117 45.7415 68.0997 59.999 68.0996ZM59.499 35.5C67.2477 35.5 73.499 41.5605 73.499 49C73.499 56.4395 67.2477 62.5 59.499 62.5C51.7504 62.5 45.499 56.4395 45.499 49C45.499 41.5605 51.7504 35.5 59.499 35.5Z" fill="url(#paint3_linear_2483_15959)" stroke="url(#paint4_linear_2483_15959)"/><defs><linearGradient id="paint1_linear_2483_15959" x1="60" y1="120" x2="60" y2="5.72204e-05" gradientUnits="userSpaceOnUse"><stop stop-color="#74ABDC"/><stop offset="1" stop-color="#52D8E1"/></linearGradient><linearGradient id="paint2_linear_2483_15959" x1="60" y1="23" x2="60" y2="99" gradientUnits="userSpaceOnUse"><stop stop-color="#BFF6FF"/><stop offset="1" stop-color="#C6EBFF"/></linearGradient><linearGradient id="paint3_linear_2483_15959" x1="59.9992" y1="35" x2="59.9992" y2="99" gradientUnits="userSpaceOnUse"><stop stop-color="white"/><stop offset="1" stop-color="#94E8FF"/></linearGradient><linearGradient id="paint4_linear_2483_15959" x1="59.9992" y1="35" x2="59.9992" y2="99" gradientUnits="userSpaceOnUse"><stop offset="0.0961538" stop-color="white"/><stop offset="1" stop-color="#A1FAFF"/></linearGradient><clipPath id="clip0_2483_15959"></clipPath></defs></svg>