<svg fill="none" viewBox="0 0 48 48"><path fill="#DADADA" d="M0 0h48v48H0z"/><path fill="white" d="M249 89h-1440V-20H249z"/><rect width="48" height="48" fill="url(#a)" rx="10"/><path fill="url(#b)" fill-opacity=".6" d="M24 39.6c8.395 0 15.2-6.805 15.2-15.2S32.396 9.2 24 9.2 8.8 16.006 8.8 24.4c0 8.395 6.806 15.2 15.2 15.2" opacity=".8"/><path fill="url(#c)" stroke="url(#d)" stroke-width=".4" d="M23.998 27.24c5.703 0 10.356 3.125 11.202 7.126A14.95 14.95 0 0 1 23.998 39.4a14.95 14.95 0 0 1-11.202-5.034c.846-4 5.499-7.126 11.202-7.126Zm-.2-13.04c3.1 0 5.6 2.424 5.6 5.4 0 2.975-2.5 5.4-5.6 5.4s-5.6-2.425-5.6-5.4 2.5-5.4 5.6-5.4Z"/><defs><linearGradient id="a" x1="24" x2="24" y1="48" y2="0" gradientUnits="userSpaceOnUse"><stop stop-color="#74ABDC"/><stop offset="1" stop-color="#52D8E1"/></linearGradient><linearGradient id="b" x1="24.001" x2="24.001" y1="9.2" y2="39.6" gradientUnits="userSpaceOnUse"><stop stop-color="#BFF6FF"/><stop offset="1" stop-color="#C6EBFF"/></linearGradient><linearGradient id="c" x1="23.998" x2="23.998" y1="14" y2="39.6" gradientUnits="userSpaceOnUse"><stop stop-color="white"/><stop offset="1" stop-color="#94E8FF"/></linearGradient><linearGradient id="d" x1="23.998" x2="23.998" y1="14" y2="39.6" gradientUnits="userSpaceOnUse"><stop offset=".096" stop-color="white"/><stop offset="1" stop-color="#A1FAFF"/></linearGradient></defs></svg>