<svg fill="none" viewBox="0 0 24 24"><path stroke="#0D131A" stroke-linecap="round" stroke-linejoin="round" stroke-width="1.5" d="M13.5 20h-10A1.5 1.5 0 0 1 2 18.5v-13A1.5 1.5 0 0 1 3.5 4h17A1.5 1.5 0 0 1 22 5.5V12"/><path stroke="#0D131A" stroke-linecap="round" stroke-linejoin="round" stroke-width="1.5" d="m17 18 2.5 2.5L22 18"/><path stroke="#0D131A" stroke-linecap="round" stroke-linejoin="round" stroke-width="1.5" d="M19.5 14.5v6"/><path stroke="#0D131A" stroke-width="1.5" d="M2 5.5A1.5 1.5 0 0 1 3.5 4h17A1.5 1.5 0 0 1 22 5.5V10H2z"/><path fill="#0D131A" d="M4 7a1 1 0 1 1 2 0 1 1 0 0 1-2 0"/><path fill="#0D131A" d="M7 7a1 1 0 1 1 2 0 1 1 0 0 1-2 0"/></svg>