<svg fill="none" viewBox="0 0 36 36"><rect width="132" height="87" x="-48" y="-9.5" stroke="#FF8D28" rx="11.5"/><path fill="#AFDBFF" d="M0 12C0 5.373 5.373 0 12 0h12c6.627 0 12 5.373 12 12v12c0 6.627-5.373 12-12 12H12C5.373 36 0 30.627 0 24z"/><path fill="#FFFEB3" d="M10.424 15.58a5.146 5.146 0 1 0 10.293 0 5.146 5.146 0 0 0-10.293 0"/><path fill="#FFFEB3" d="m17.974 33.367 1.261-7.004h7.58c-.467-2.855-2.967-5.045-5.944-5.045h-1.976l-1.67 2.88-.806 1.389a1 1 0 0 1-1.73 0l-.805-1.389-1.67-2.88h-1.942c-3.323 0-6.033 2.71-6.033 6.016v6.033h.06a2.06 2.06 0 0 0 1.406 1.584l3.033.955c1.074.34 2.215-.273 2.556-1.347v-.017c.126-.397.121-.804.011-1.175zm-9.577-1.869v-3.585h.597v3.773z"/><path fill="#2FB7FC" d="m20.548 27.462-1.363 7.618h-5.777l-.17.92h16.989l1.534-8.538z"/></svg>