<svg width="24" height="24" viewBox="0 0 24 24" fill="none" xmlns="http://www.w3.org/2000/svg"><path d="M12 13.5383C14.1241 13.5383 15.8461 11.8163 15.8461 9.6921C15.8461 7.56793 14.1241 5.84595 12 5.84595C9.87579 5.84595 8.15381 7.56793 8.15381 9.6921C8.15381 11.8163 9.87579 13.5383 12 13.5383Z" stroke="#52525B" stroke-width="1.55475" stroke-linecap="round" stroke-linejoin="round"/><path d="M5.43079 19.5381C6.11731 18.4112 7.08218 17.4799 8.23264 16.8336C9.3831 16.1873 10.6805 15.8479 12 15.8479C13.3196 15.8479 14.6169 16.1873 15.7674 16.8336C16.9179 17.4799 17.8827 18.4112 18.5693 19.5381" stroke="#52525B" stroke-width="1.55475" stroke-linecap="round" stroke-linejoin="round"/><path d="M12 22C17.5228 22 22 17.5228 22 12C22 6.47715 17.5228 2 12 2C6.47715 2 2 6.47715 2 12C2 17.5228 6.47715 22 12 22Z" stroke="#52525B" stroke-width="1.55475" stroke-linecap="round" stroke-linejoin="round"/></svg>