<svg fill="none" viewBox="0 0 24 24"><path fill="#F5F5F5" d="M0 0h24v24H0z"/><path fill="white" d="M-377.222-638.25h793v822h-793z"/><path stroke="#0D131A" strokeLinejoin="round" strokeWidth="1.5" d="M9.142 21.586a10 10 0 0 1-4.348-2.652 3 3 0 0 0-2.59-4.919A10.04 10.04 0 0 1 2.457 9H2.5a3 3 0 0 0 2.692-4.325 10 10 0 0 1 4.134-2.313 3 3 0 0 0 5.348 0 10 10 0 0 1 4.134 2.313A3 3 0 0 0 21.542 9a10.044 10.044 0 0 1 .255 5.015 3 3 0 0 0-2.59 4.919 10 10 0 0 1-4.349 2.652 3.001 3.001 0 0 0-5.716 0Z"/><path stroke="#0D131A" strokeLinejoin="round" strokeWidth="1.5" d="M12 15.5a3.5 3.5 0 1 0 0-7 3.5 3.5 0 0 0 0 7Z"/></svg>