<svg fill="none" viewBox="0 0 24 24"><path stroke="#0D131A" stroke-linecap="round" stroke-linejoin="round" stroke-width="1.5" d="M5.5 8v13"/><path stroke="#0D131A" stroke-linecap="round" stroke-linejoin="round" stroke-width="1.5" d="M12 14.5V21"/><path stroke="#0D131A" stroke-linecap="round" stroke-linejoin="round" stroke-width="1.5" d="M12 9.5V3"/><path stroke="#0D131A" stroke-linecap="round" stroke-linejoin="round" stroke-width="1.5" d="M18.5 3v13"/><path stroke="#0D131A" stroke-linejoin="round" stroke-width="1.5" d="M5.5 8a2.5 2.5 0 1 0 0-5 2.5 2.5 0 0 0 0 5Z"/><path stroke="#0D131A" stroke-linejoin="round" stroke-width="1.5" d="M12 14.5a2.5 2.5 0 1 0 0-5 2.5 2.5 0 0 0 0 5Z"/><path stroke="#0D131A" stroke-linejoin="round" stroke-width="1.5" d="M18.5 21a2.5 2.5 0 1 0 0-5 2.5 2.5 0 0 0 0 5Z"/></svg>