<svg fill="none" viewBox="0 0 36 36"><rect width="129" height="87" x="-46.5" y="-9.5" stroke="#FF8D28" rx="11.5"/><rect width="36" height="36" fill="#D1D5DA" rx="12"/><path fill="black" d="M22.879 22.799a1.4 1.4 0 0 1-.595-.193l-3.627-2.654a2.4 2.4 0 0 0-2.8-.025l-7.56 5.328a1.2 1.2 0 0 0-.508.981v6.6A3.164 3.164 0 0 0 10.954 36h23.168a3.164 3.164 0 0 0 3.164-3.165v-16.95a1.2 1.2 0 0 0-1.867-.998l-11.526 7.72a1.47 1.47 0 0 1-1.014.192"/><path fill="white" d="m9.863 21.423 7.19-4.925 5.158 3.807c.194.11.411.184.63.196a1.6 1.6 0 0 0 1.04-.196l12.735-8.633c.823-.369 1.187-1.34.823-2.162a1.68 1.68 0 0 0-1.464-.982h-8.087c-.896 0-1.61.724-1.61 1.633s.715 1.633 1.61 1.633h2.736l-7.53 5.134-5.156-3.807a1.53 1.53 0 0 0-1.041-.197c-.23.012-.448.086-.642.197l-8.002 5.465c-.75.466-.98 1.486-.52 2.272.448.712 1.38.957 2.13.564"/></svg>