<svg fill="currentColor" viewBox="0 0 120 120"><path d="M0 30C0 13.432 13.432 0 30 0h60c16.569 0 30 13.432 30 30v60c0 16.569-13.431 30-30 30H30c-16.568 0-30-13.431-30-30z"/><g opacity=".7"><path d="M60.049 86.421c-6.78 0-12.92-2.8-17.33-7.3-.56-.57-1.32-.92-2.12-.92h-.16c-2.63 0-3.92 3.15-2.08 5.04 5.5 5.66 13.19 9.18 21.69 9.18s16.19-3.52 21.69-9.18c1.83-1.89.55-5.04-2.08-5.04h-.16c-.8 0-1.56.35-2.12.92-4.41 4.5-10.55 7.3-17.33 7.3M86.02 56.921h.11c1.96 0 3.42-1.89 2.83-3.77a30.43 30.43 0 0 0-12.84-16.67c-1.94-1.22-4.47.23-4.47 2.53v.12c0 .99.5 1.93 1.34 2.46 4.8 3.03 8.46 7.7 10.21 13.22.39 1.24 1.52 2.11 2.82 2.11M48.51 39.091v-.12c0-2.29-2.52-3.75-4.46-2.53a30.42 30.42 0 0 0-12.92 16.71c-.58 1.87.87 3.77 2.83 3.77h.11c1.3 0 2.43-.86 2.82-2.11a24.35 24.35 0 0 1 10.25-13.24c.85-.54 1.37-1.47 1.37-2.48"/></g><path d="M34.01 59c2.39 0 4.67.94 6.36 2.64A8.97 8.97 0 0 1 43 68c0 2.38-.94 4.67-2.64 6.36A8.97 8.97 0 0 1 34 77c-2.39 0-4.67-.94-6.36-2.64l-.31-.32a8.99 8.99 0 0 1 .31-12.4A8.97 8.97 0 0 1 34 59zm26.03-32.5c2.39 0 4.67.95 6.37 2.64a8.96 8.96 0 0 1 2.63 6.36c0 2.39-.94 4.67-2.64 6.36a8.97 8.97 0 0 1-6.36 2.64c-2.39 0-4.67-.94-6.36-2.64l-.31-.32a8.97 8.97 0 0 1-2.33-6.04c0-2.39.94-4.67 2.64-6.36a8.97 8.97 0 0 1 6.36-2.64M87.01 59c2.39 0 4.67.94 6.36 2.64A8.97 8.97 0 0 1 96 68c0 2.38-.94 4.67-2.64 6.36A8.97 8.97 0 0 1 87 77c-2.39 0-4.67-.94-6.36-2.64l-.31-.32A8.97 8.97 0 0 1 78 68c0-2.39.94-4.67 2.64-6.36A8.97 8.97 0 0 1 87 59z"/><path stroke="currentColor" d="M34.01 59c2.39 0 4.67.94 6.36 2.64A8.97 8.97 0 0 1 43 68c0 2.38-.94 4.67-2.64 6.36A8.97 8.97 0 0 1 34 77c-2.39 0-4.67-.94-6.36-2.64l-.31-.32a8.99 8.99 0 0 1 .31-12.4A8.97 8.97 0 0 1 34 59zM60.04 26.5c2.39 0 4.67.95 6.37 2.64a8.96 8.96 0 0 1 2.63 6.36c0 2.39-.94 4.67-2.64 6.36a8.97 8.97 0 0 1-6.36 2.64c-2.39 0-4.67-.94-6.36-2.64l-.31-.32a8.97 8.97 0 0 1-2.33-6.04c0-2.39.94-4.67 2.64-6.36a8.97 8.97 0 0 1 6.36-2.64ZM87.01 59c2.39 0 4.67.94 6.36 2.64A8.97 8.97 0 0 1 96 68c0 2.38-.94 4.67-2.64 6.36A8.97 8.97 0 0 1 87 77c-2.39 0-4.67-.94-6.36-2.64l-.31-.32A8.97 8.97 0 0 1 78 68c0-2.39.94-4.67 2.64-6.36A8.97 8.97 0 0 1 87 59z"/></svg>