<svg viewBox="0 0 48 48" fill="currentColor"><path fill="currentColor" d="M0 10C0 4.477 4.477 0 10 0h28c5.523 0 10 4.477 10 10v28c0 5.523-4.477 10-10 10H10C4.477 48 0 43.523 0 38z"/><path fill="currentColor" d="M23.825 34.634a9.55 9.55 0 0 1-6.835-2.88 1.18 1.18 0 0 0-.836-.363h-.064c-1.037 0-1.546 1.243-.82 1.988A11.9 11.9 0 0 0 23.825 37c3.352 0 6.385-1.388 8.555-3.62.721-.746.216-1.989-.82-1.989h-.064c-.315 0-.615.139-.836.363a9.55 9.55 0 0 1-6.835 2.88" opacity=".7"/><path fill="currentColor" d="M34.066 22.998h.043c.773 0 1.349-.745 1.116-1.486a12 12 0 0 0-5.064-6.575c-.765-.481-1.763.09-1.763.998v.047c0 .39.197.761.528.97a9.6 9.6 0 0 1 4.027 5.214c.154.49.6.832 1.112.832" opacity=".7"/><path fill="currentColor" d="M19.272 15.966v-.047c0-.903-.994-1.48-1.76-.998a12 12 0 0 0-5.095 6.59c-.229.738.343 1.488 1.116 1.488h.043c.513 0 .959-.34 1.113-.833a9.6 9.6 0 0 1 4.042-5.222c.336-.213.54-.58.54-.978" opacity=".7"/><path fill="currentColor" stroke="currentColor" strokeWidth=".4" d="M13.55 24.019h.004c.89 0 1.737.35 2.366.982.629.624.98 1.48.98 2.367 0 .886-.35 1.738-.983 2.366l-.001.001a3.34 3.34 0 0 1-2.366.983c-.89 0-1.739-.35-2.367-.983l-.117-.12h.001a3.344 3.344 0 0 1 0-4.493l.116-.121a3.34 3.34 0 0 1 2.367-.982Zm20.905 0h.004c.89 0 1.738.35 2.366.982h.001c.628.624.979 1.48.979 2.367 0 .886-.35 1.738-.983 2.366v.001a3.34 3.34 0 0 1-2.367.983c-.89 0-1.738-.35-2.367-.983l-.117-.12a3.34 3.34 0 0 1-.866-2.247c0-.89.35-1.738.982-2.367a3.34 3.34 0 0 1 2.368-.982ZM23.82 11.2c.89 0 1.739.353 2.372.983.629.624.978 1.477.978 2.367s-.35 1.737-.982 2.366v.001a3.34 3.34 0 0 1-2.368.982 3.33 3.33 0 0 1-2.246-.867l-.12-.115-.12-.124a3.34 3.34 0 0 1-.863-2.243c0-.89.35-1.739.982-2.367h.001a3.34 3.34 0 0 1 2.366-.983Z"/><defs><linearGradient id="a" x1="24" x2="24" y1=".604" y2="48.544" gradientUnits="userSpaceOnUse"><stop stopColor="currentColor"/><stop offset="1" stopColor="currentColor"/></linearGradient><linearGradient id="b" x1="23.824" x2="23.824" y1="31.392" y2="37" gradientUnits="userSpaceOnUse"><stop stopColor="currentColor"/><stop offset="1" stopColor="currentColor"/></linearGradient><linearGradient id="c" x1="31.838" x2="31.838" y1="14.762" y2="22.998" gradientUnits="userSpaceOnUse"><stop stopColor="currentColor"/><stop offset="1" stopColor="currentColor"/></linearGradient><linearGradient id="d" x1="15.819" x2="15.819" y1="14.747" y2="22.998" gradientUnits="userSpaceOnUse"><stop stopColor="currentColor"/><stop offset="1" stopColor="currentColor"/></linearGradient><linearGradient id="e" x1="24.002" x2="24.002" y1="11" y2="30.918" gradientUnits="userSpaceOnUse"><stop stopColor="currentColor"/><stop offset="1" stopColor="currentColor"/></linearGradient></defs></svg>