<svg fill="none" viewBox="0 0 544 544"><path fill="#EF7F4B" d="M16 98.56v346.388c0 14.804 12.002 26.806 26.806 26.806h458.388c14.804 0 26.806-12.002 26.806-26.806V153.227c0-14.805-12.002-26.806-26.806-26.806H260.603c-10.421 0-19.86-6.083-25.312-14.965-9.934-16.185-27.847-39.702-48.066-39.702H42.765C27.96 71.754 16 83.755 16 98.56"/><rect width="482" height="173" x="31" y="143" fill="white" rx="20"/><path fill="url(#a)" d="M528 187.273v248.674c0 14.805-12.002 26.807-26.806 26.807H42.806C28.002 462.754 16 450.752 16 435.947V187.273c0-14.805 11.962-26.806 26.767-26.806h135.411c45.571 0 39.204-.002 70.366-.001 85.023.004 201.002.002 252.695.001 14.805 0 26.761 12.001 26.761 26.806"/><defs><linearGradient id="a" x1="528" x2="51.871" y1="160.466" y2="511.419" gradientUnits="userSpaceOnUse"><stop offset=".234" stop-color="#FFB76D"/><stop offset="1" stop-color="#EF7F4B"/></linearGradient></defs></svg>