<svg width="544" height="432" viewBox="0 0 544 432" fill="none" xmlns="http://www.w3.org/2000/svg">
<g filter="url(#filter0_d_2645_1757)">
<path d="M16 38.8063V385.194C16 399.998 28.0016 412 42.8063 412H501.194C515.998 412 528 399.998 528 385.194V93.4729C528 78.6682 515.998 66.6667 501.194 66.6667H260.603C250.182 66.6667 240.743 60.5842 235.291 51.7023C225.357 35.5173 207.444 12 187.225 12H42.7644C27.9597 12 16 24.0016 16 38.8063Z" fill="#EF7F4B"/>
<rect x="31" y="83.2461" width="482" height="173" rx="20" fill="white"/>
<path d="M528 127.52V376.193C528 390.998 515.998 403 501.194 403H42.8063C28.0016 403 16 390.998 16 376.193V127.519C16 112.714 27.962 100.713 42.7667 100.713H178.178C223.749 100.713 217.382 100.711 248.544 100.713C333.567 100.716 449.546 100.714 501.239 100.713C516.044 100.713 528 112.715 528 127.52Z" fill="url(#paint0_linear_2645_1757)"/>
</g>
<defs>
<filter id="filter0_d_2645_1757" x="0" y="0" width="544" height="432.246" filterUnits="userSpaceOnUse" color-interpolation-filters="sRGB">
<feFlood flood-opacity="0" result="BackgroundImageFix"/>
<feColorMatrix in="SourceAlpha" type="matrix" values="0 0 0 0 0 0 0 0 0 0 0 0 0 0 0 0 0 0 127 0" result="hardAlpha"/>
<feOffset dy="4"/>
<feGaussianBlur stdDeviation="8"/>
<feComposite in2="hardAlpha" operator="out"/>
<feColorMatrix type="matrix" values="0 0 0 0 0 0 0 0 0 0 0 0 0 0 0 0 0 0 0.25 0"/>
<feBlend mode="normal" in2="BackgroundImageFix" result="effect1_dropShadow_2645_1757"/>
<feBlend mode="normal" in="SourceGraphic" in2="effect1_dropShadow_2645_1757" result="shape"/>
</filter>
<linearGradient id="paint0_linear_2645_1757" x1="528" y1="100.712" x2="51.8707" y2="451.665" gradientUnits="userSpaceOnUse">
<stop offset="0.234375" stop-color="#FFB76D"/>
<stop offset="1" stop-color="#EF7F4B"/>
</linearGradient>
</defs>
</svg>