<svg fill="none" viewBox="0 0 24 24"><path fill="#F5F5F5" d="M0 0h24v24H0z"/><path fill="white" d="M-642.889-236.75h793v822h-793z"/><path stroke="#4A4A4A" d="M6 4.964V3.5A1.5 1.5 0 0 1 7.5 2h13A1.5 1.5 0 0 1 22 3.5v13a1.5 1.5 0 0 1-1.5 1.5h-1.491"/><path fill="#4A4A4A" stroke="#4A4A4A" d="M17.5 5h-14A1.5 1.5 0 0 0 2 6.5v14A1.5 1.5 0 0 0 3.5 22h14a1.5 1.5 0 0 0 1.5-1.5v-14A1.5 1.5 0 0 0 17.5 5Z"/><path stroke="white" d="M9.22 11.555 11.866 8.8c.726-.726 1.918-.71 2.664.036s.762 1.938.036 2.664l-.955 1.012m-6.878 1.862a89 89 0 0 1-.783.764c-.726.726-.745 2.02 0 2.765.746.746 1.939.762 2.664.036l2.582-2.344"/><path stroke="white" d="M9.331 14.164a1.93 1.93 0 0 1-.565-1.237 1.83 1.83 0 0 1 .53-1.427m1.864 1.43c.746.746.762 1.939.036 2.665"/></svg>