<svg fill="none" viewBox="0 0 24 24"><path stroke="#4A4A4A" stroke-width="1.5" d="M6 4.964V3.5A1.5 1.5 0 0 1 7.5 2h13A1.5 1.5 0 0 1 22 3.5v13a1.5 1.5 0 0 1-1.5 1.5h-1.491"/><path fill="#4A4A4A" stroke="#4A4A4A" stroke-linejoin="round" stroke-width="1.5" d="M17.5 5h-14A1.5 1.5 0 0 0 2 6.5v14A1.5 1.5 0 0 0 3.5 22h14a1.5 1.5 0 0 0 1.5-1.5v-14A1.5 1.5 0 0 0 17.5 5Z"/><path stroke="white" stroke-linecap="round" stroke-linejoin="round" stroke-width="1.5" d="M9.22 11.555 11.866 8.8c.726-.726 1.919-.71 2.664.036s.762 1.938.036 2.664l-.955 1.011"/><path stroke="white" stroke-linecap="round" stroke-linejoin="round" stroke-width="1.5" d="M6.733 14.374a89 89 0 0 1-.783.764c-.726.726-.745 2.02 0 2.765.746.746 1.939.762 2.664.036l2.582-2.344"/><path stroke="white" stroke-linecap="round" stroke-linejoin="round" stroke-width="1.5" d="M9.331 14.164a1.93 1.93 0 0 1-.565-1.237 1.83 1.83 0 0 1 .53-1.427"/><path stroke="white" stroke-linecap="round" stroke-linejoin="round" stroke-width="1.5" d="M11.16 12.93c.746.746.762 1.939.036 2.665"/></svg>