<svg width="24" height="24" viewBox="0 0 24 24" fill="none" xmlns="http://www.w3.org/2000/svg"><rect width="24" height="24" fill="#1E1E1E"/><rect x="-288.454" y="-161.92" width="1269.19" height="290.92" fill="white"/><path d="M6 4.96352V3.5C6 2.67158 6.67155 2 7.5 2H20.5C21.3285 2 22 2.67158 22 3.5V16.5C22 17.3285 21.3285 18 20.5 18H19.0087" stroke="#4A4A4A" stroke-width="1.5"/><path d="M17.5 5H3.5C2.67157 5 2 5.67157 2 6.5V20.5C2 21.3284 2.67157 22 3.5 22H17.5C18.3284 22 19 21.3284 19 20.5V6.5C19 5.67157 18.3284 5 17.5 5Z" fill="#4A4A4A" stroke="#4A4A4A" stroke-width="1.5" stroke-linejoin="round"/><path d="M9.21973 11.555L11.866 8.8003C12.5918 8.07445 13.7846 8.09045 14.5301 8.836C15.2757 9.58155 15.2917 10.7743 14.5658 11.5001L13.6108 12.5115" stroke="white" stroke-width="1.5" stroke-linecap="round" stroke-linejoin="round"/><path d="M6.73299 14.3736C6.47784 14.6287 5.95024 15.1382 5.95024 15.1382C5.22439 15.864 5.20469 17.1577 5.95024 17.9033C6.69579 18.6488 7.88854 18.6648 8.61439 17.939L11.1965 15.5948" stroke="white" stroke-width="1.5" stroke-linecap="round" stroke-linejoin="round"/><path d="M9.33126 14.1642C8.98496 13.8179 8.79606 13.3751 8.76581 12.9274C8.73091 12.4113 8.90686 11.8887 9.29556 11.5001" stroke="white" stroke-width="1.5" stroke-linecap="round" stroke-linejoin="round"/><path d="M11.1606 12.9307C11.9062 13.6762 11.9222 14.869 11.1963 15.5948" stroke="white" stroke-width="1.5" stroke-linecap="round" stroke-linejoin="round"/></svg>