<svg width="24" height="24" viewBox="0 0 24 24" fill="none" xmlns="http://www.w3.org/2000/svg"><path d="M6 4.96352V3.5C6 2.67158 6.67155 2 7.5 2H20.5C21.3285 2 22 2.67158 22 3.5V16.5C22 17.3285 21.3285 18 20.5 18H19.0087" stroke="#4A4A4A" stroke-width="1.5"/><path d="M17.5 5H3.5C2.67157 5 2 5.67157 2 6.5V20.5C2 21.3284 2.67157 22 3.5 22H17.5C18.3284 22 19 21.3284 19 20.5V6.5C19 5.67157 18.3284 5 17.5 5Z" fill="#4A4A4A" stroke="#4A4A4A" stroke-width="1.5" stroke-linejoin="round"/><path d="M9.2197 11.5551L11.8659 8.80033C12.5917 8.07448 13.7845 8.09048 14.5301 8.83603C15.2756 9.58158 15.2916 10.7744 14.5658 11.5002L13.6107 12.5116" stroke="white" stroke-width="1.5" stroke-linecap="round" stroke-linejoin="round"/><path d="M6.73305 14.3736C6.4779 14.6287 5.9503 15.1382 5.9503 15.1382C5.22445 15.864 5.20475 17.1577 5.9503 17.9033C6.69585 18.6488 7.8886 18.6648 8.61445 17.939L11.1965 15.5948" stroke="white" stroke-width="1.5" stroke-linecap="round" stroke-linejoin="round"/><path d="M9.33129 14.1642C8.98499 13.8179 8.79609 13.3751 8.76584 12.9274C8.73094 12.4113 8.90689 11.8887 9.29559 11.5001" stroke="white" stroke-width="1.5" stroke-linecap="round" stroke-linejoin="round"/><path d="M11.1606 12.9307C11.9062 13.6762 11.9222 14.869 11.1963 15.5948" stroke="white" stroke-width="1.5" stroke-linecap="round" stroke-linejoin="round"/></svg>