<svg fill="none" viewBox="0 0 48 49"><path fill="#DADADA" d="M0 0h48v49H0z"/><path fill="white" d="M942 92H-498V-17H942z"/><path fill="url(#a)" d="M0 10C0 4.477 4.477 0 10 0h28c5.523 0 10 4.477 10 10v29c0 5.523-4.477 10-10 10H10C4.477 49 0 44.523 0 39z"/><path fill="url(#b)" d="M37.135 12.149H26.597c-.879 0-1.59.733-1.59 1.639v7.897c0 .744.603 1.346 1.347 1.346h.344c.553 0 1.001.449 1.001 1.002 0 .874 1.04 1.329 1.682.736l1.36-1.257c.335-.31.774-.48 1.23-.48h5.162c.876 0 1.59-.733 1.59-1.64v-7.604c0-.906-.711-1.64-1.59-1.64zm-5.134 7.666h-3.43a.79.79 0 0 1-.778-.803.79.79 0 0 1 .778-.802H32a.79.79 0 0 1 .778.802.79.79 0 0 1-.778.803m3.163-2.992H28.57a.79.79 0 0 1-.778-.803.79.79 0 0 1 .778-.802h6.593a.79.79 0 0 1 .778.802.79.79 0 0 1-.778.803" opacity=".8"/><path fill="url(#c)" d="M18.485 27.495c2.367 0 4.273-1.899 4.273-4.248 0-2.348-1.906-4.247-4.273-4.247s-4.273 1.899-4.273 4.247c0 2.35 1.916 4.248 4.273 4.248"/><path fill="url(#d)" d="M24.574 36c.792 0 1.424-.63 1.424-1.42 0-.679.04-1.378-.24-2.018-.211-.49-.572-.93-.934-1.3-.792-.829-1.805-1.428-2.878-1.828s-2.287-.61-3.461-.61h.03c-1.174 0-2.387.21-3.46.61-1.074.4-2.087 1-2.88 1.829-.36.38-.722.82-.932 1.299-.281.64-.241 1.35-.241 2.019 0 .78.642 1.419 1.424 1.419z"/><path stroke="url(#e)" stroke-width=".4" d="M18.485 27.495c2.367 0 4.273-1.899 4.273-4.248 0-2.348-1.906-4.247-4.273-4.247s-4.273 1.899-4.273 4.247c0 2.35 1.916 4.248 4.273 4.248Z"/><path stroke="url(#f)" stroke-width=".4" d="M24.574 36c.792 0 1.424-.63 1.424-1.42 0-.679.04-1.378-.24-2.018-.211-.49-.572-.93-.934-1.3-.792-.829-1.805-1.428-2.878-1.828s-2.287-.61-3.461-.61h.03c-1.174 0-2.387.21-3.46.61-1.074.4-2.087 1-2.88 1.829-.36.38-.722.82-.932 1.299-.281.64-.241 1.35-.241 2.019 0 .78.642 1.419 1.424 1.419z"/><defs><linearGradient id="a" x1="24" x2="24" y1="0" y2="49" gradientUnits="userSpaceOnUse"><stop stop-color="#FE9D02"/><stop offset="1" stop-color="#F7701D"/></linearGradient><linearGradient id="b" x1="31.865" x2="31.865" y1="12.149" y2="26.323" gradientUnits="userSpaceOnUse"><stop stop-color="white"/><stop offset="1" stop-color="#FFFCEF"/></linearGradient><linearGradient id="c" x1="18.5" x2="18.5" y1="19" y2="36" gradientUnits="userSpaceOnUse"><stop stop-color="white"/><stop offset="1" stop-color="#EB8B16"/></linearGradient><linearGradient id="d" x1="18.5" x2="18.5" y1="19" y2="36" gradientUnits="userSpaceOnUse"><stop stop-color="white"/><stop offset="1" stop-color="#EB8B16"/></linearGradient><linearGradient id="e" x1="18.5" x2="18.5" y1="19" y2="36" gradientUnits="userSpaceOnUse"><stop offset=".232" stop-color="white"/><stop offset="1" stop-color="#FFAD47"/></linearGradient><linearGradient id="f" x1="18.5" x2="18.5" y1="19" y2="36" gradientUnits="userSpaceOnUse"><stop offset=".232" stop-color="white"/><stop offset="1" stop-color="#FFAD47"/></linearGradient></defs></svg>