<svg viewBox="0 0 120 120" fill="currentColor"><path fill="currentColor" d="M0 30C0 13.432 13.432 0 30 0h60c16.569 0 30 13.432 30 30v60c0 16.569-13.431 30-30 30H30c-16.568 0-30-13.431-30-30z"/><path fill="currentColor" d="M92.84 29.752H66.494c-2.198 0-3.974 1.794-3.974 4.014v20.636a2 2 0 0 0 2 2h2.729a2 2 0 0 1 2 2v1.553c0 1.735 2.056 2.647 3.342 1.483l4.993-4.519a2 2 0 0 1 1.342-.517h13.906c2.191 0 3.974-1.794 3.974-4.014V33.766c0-2.22-1.776-4.014-3.974-4.014zM80.003 48.525h-8.576a1.95 1.95 0 0 1-1.945-1.964c0-1.087.869-1.965 1.945-1.965h8.576c1.076 0 1.945.878 1.945 1.965a1.95 1.95 0 0 1-1.945 1.964m7.909-7.327H71.428a1.95 1.95 0 0 1-1.945-1.965c0-1.086.869-1.964 1.945-1.964h16.485c1.076 0 1.945.878 1.945 1.965a1.95 1.95 0 0 1-1.945 1.964" opacity=".8"/><path fill="currentColor" d="M45.463 66.488c5.84 0 10.543-4.58 10.543-10.244S51.304 46 45.463 46 34.92 50.58 34.92 56.244s4.727 10.244 10.543 10.244"/><path fill="currentColor" d="M60.486 87C62.44 87 64 85.481 64 83.577c0-1.639.099-3.326-.594-4.869-.52-1.18-1.41-2.241-2.302-3.133-1.955-2-4.454-3.447-7.103-4.411s-5.642-1.47-8.538-1.47h.074c-2.895 0-5.89.506-8.538 1.47s-5.148 2.41-7.103 4.411c-.891.916-1.782 1.976-2.302 3.133-.693 1.543-.594 3.254-.594 4.87C27 85.457 28.584 87 30.514 87z"/><path stroke="currentColor" d="M45.463 66.488c5.84 0 10.543-4.58 10.543-10.244S51.304 46 45.463 46 34.92 50.58 34.92 56.244s4.727 10.244 10.543 10.244Z"/><path stroke="currentColor" d="M60.486 87C62.44 87 64 85.481 64 83.577c0-1.639.099-3.326-.594-4.869-.52-1.18-1.41-2.241-2.302-3.133-1.955-2-4.454-3.447-7.103-4.411s-5.642-1.47-8.538-1.47h.074c-2.895 0-5.89.506-8.538 1.47s-5.148 2.41-7.103 4.411c-.891.916-1.782 1.976-2.302 3.133-.693 1.543-.594 3.254-.594 4.87C27 85.457 28.584 87 30.514 87z"/><defs><linearGradient id="a" x1="60" x2="60" y1="0" y2="120" gradientUnits="userSpaceOnUse"><stop stopColor="currentColor"/><stop offset="1" stopColor="currentColor"/></linearGradient><linearGradient id="b" x1="79.664" x2="79.664" y1="29.752" y2="64.463" gradientUnits="userSpaceOnUse"><stop stopColor="currentColor"/><stop offset="1" stopColor="currentColor"/></linearGradient><linearGradient id="c" x1="45.5" x2="45.5" y1="46" y2="87" gradientUnits="userSpaceOnUse"><stop stopColor="currentColor"/><stop offset="1" stopColor="currentColor"/></linearGradient><linearGradient id="d" x1="45.5" x2="45.5" y1="46" y2="87" gradientUnits="userSpaceOnUse"><stop stopColor="currentColor"/><stop offset="1" stopColor="currentColor"/></linearGradient><linearGradient id="e" x1="45.5" x2="45.5" y1="46" y2="87" gradientUnits="userSpaceOnUse"><stop offset=".232" stopColor="currentColor"/><stop offset="1" stopColor="currentColor"/></linearGradient><linearGradient id="f" x1="45.5" x2="45.5" y1="46" y2="87" gradientUnits="userSpaceOnUse"><stop offset=".232" stopColor="currentColor"/><stop offset="1" stopColor="currentColor"/></linearGradient></defs></svg>