<svg fill="none" viewBox="0 0 24 24"><path fill="#F5F5F5" d="M0 0h24v24H0z"/><path fill="white" d="M-192-656h793v822h-793z"/><path fill="#4A4A4A" stroke="#4A4A4A" strokeLinejoin="round" strokeWidth="1.5" d="M5 3a1 1 0 0 1 1-1h14a1 1 0 0 1 1 1v18a1 1 0 0 1-1 1H6a1 1 0 0 1-1-1z"/><path stroke="white" strokeLinecap="round" strokeLinejoin="round" strokeWidth="1.5" d="M17 3v18"/><path stroke="#4A4A4A" strokeLinecap="round" strokeLinejoin="round" strokeWidth="1.5" d="M3 7h4M3 12h4M3 17h4M13.5 2h6M13.5 22h6"/></svg>