<svg fill="none" viewBox="0 0 24 24"><path stroke="#0D131A" stroke-linecap="round" stroke-linejoin="round" stroke-width="1.333" d="M4 11.99v2.232c0 2.934 0 4.4.911 5.311.911.912 2.378.912 5.311.912h3.556c2.933 0 4.4 0 5.31-.912.912-.91.912-2.378.912-5.31V11.99c0-1.495 0-2.242-.316-2.889-.317-.646-.907-1.105-2.086-2.023L15.82 5.697C13.985 4.269 13.067 3.556 12 3.556s-1.985.713-3.82 2.14L6.402 7.08h0c-1.18.918-1.77 1.377-2.086 2.023S4 10.496 4 11.991"/><path stroke="#0D131A" stroke-linecap="round" stroke-linejoin="round" stroke-width="1.333" d="M14.667 16.444a4.34 4.34 0 0 1-2.667.89 4.34 4.34 0 0 1-2.666-.89"/></svg>